<?xml version="1.0" standalone="yes"?>
<svg xmlns="http://www.w3.org/2000/svg" width="1020" height="616">
<path style="fill:#252525; stroke:none;" d="M0 0L0 595L1020 597L1020 0L0 0z"/>
<path style="fill:#2c80c3; stroke:none;" d="M498 59L499 59C506.173 66.1503 506.907 59.5783 510.026 54.2091C511.491 51.6881 515.364 50.282 515.364 47C515.364 43.718 511.491 42.3119 510.026 39.7909C506.907 34.4218 506.173 27.8498 499 35C490.477 29.0148 490.833 33.2894 486.974 39.7407C485.439 42.3069 481.636 43.5874 481.636 47C481.636 50.4126 485.439 51.6931 486.974 54.2593C490.146 59.5628 490.819 66.1581 498 59z"/>
<path style="fill:#252525; stroke:none;" d="M490 33C489.2 39.0422 492.2 41.2341 497 37L490 33M500 36L500 37C504.8 41.2341 507.8 39.0422 507 33L500 36M497 40L500 40L499 38L497 40M497.105 41.8511C490.403 43.9237 494.03 54.3018 500.772 51.392C506.229 49.0372 502.753 40.1043 497.105 41.8511M491 42L491 44L493 42L491 42M504 42L506 44L506 42L504 42M489 51L489 43C483.196 45.0461 483.196 48.9539 489 51M508 43L508 51C513.804 48.9539 513.804 45.0461 508 43z"/>
<path style="fill:#2c80c3; stroke:none;" d="M496.771 45.0425C494.155 47.2305 497.678 51.0908 500.229 48.9575C502.845 46.7696 499.322 42.9091 496.771 45.0425z"/>
<path style="fill:#252525; stroke:none;" d="M491 50L491 52L493 52L491 50M505 50L504 52L506 52L505 50M490 61L497 58C493.144 52.3565 489.163 54.6798 490 61M497 54L498 56L499 56L500 54L497 54M500 57L500 58L507 61C507.946 54.9013 504.842 52.7404 500 57z"/>
<path style="fill:#749775; stroke:none;" d="M310 73L311 73L314 70L310 73z"/>
<path style="fill:#c2c7cb; stroke:none;" d="M314.109 69.7423C309.916 71.5453 310.021 76.1076 310.001 80C309.952 89.3327 310 98.6671 310 108L310 212C310 219.334 306.249 242.554 313.228 246.821C318.455 250.017 329.053 248 335 248L391 248L599 248L660 248C666.396 248 678.169 250.247 683.772 246.821C690.751 242.554 687 219.334 687 212L687 108L687 81C686.994 77.2585 687.465 72.437 683.772 70.179C677.982 66.639 665.62 69 659 69L595 69L396 69L339 69C331.871 69 320.723 66.8976 314.109 69.7423z"/>
<path style="fill:#749775; stroke:none;" d="M683.667 69.3333L684.333 69.6667L683.667 69.3333M685 70L686 71L685 70M686.333 71.6667L686.667 72.3333L686.333 71.6667z"/>
<path style="fill:#b67e3a; stroke:none;" d="M405 94L405 114L406 114L405 94z"/>
<path style="fill:#252525; stroke:none;" d="M406 94C406 103.815 408.832 118.917 396 111C396.444 116.871 403.268 122.763 407.543 115.772C410.9 110.282 409 100.216 409 94L406 94z"/>
<path style="fill:#b67e3a; stroke:none;" d="M469 94L469 119L470 119L469 94z"/>
<path style="fill:#252525; stroke:none;" d="M470 94L470 119L473 119L473 94L470 94z"/>
<path style="fill:#b67e3a; stroke:none;" d="M516 94L516 97L517 97L516 94z"/>
<path style="fill:#252525; stroke:none;" d="M517 94L517 97L519 97L519 94L517 94z"/>
<path style="fill:#2c80c3; stroke:none;" d="M519 94L519 97L520 97L519 94z"/>
<path style="fill:#252525; stroke:none;" d="M542 101L542 102L542 103L544 119L547 119C547 113.15 545.683 106.522 550 102L547 101L551 94C545.539 94.4165 545.075 97.1934 542 101z"/>
<path style="fill:#2c80c3; stroke:none;" d="M551.333 94.6667L551.667 95.3333L551.333 94.6667z"/>
<path style="fill:#252525; stroke:none;" d="M553 94L553 119L556 119L556 94L553 94z"/>
<path style="fill:#b67e3a; stroke:none;" d="M452 95L453 96L452 95z"/>
<path style="fill:#252525; stroke:none;" d="M453 95L449 101L449 102L449 103C453.205 108.551 447.947 117.556 457 119C454.25 113.272 452.03 107.206 457 102L454 101L453 95z"/>
<path style="fill:#b67e3a; stroke:none;" d="M499 95L500 96L499 95z"/>
<path style="fill:#2c80c3; stroke:none;" d="M500 95L500 101L501 101L500 95z"/>
<path style="fill:#b67e3a; stroke:none;" d="M526 95L527 96L526 95z"/>
<path style="fill:#2c80c3; stroke:none;" d="M527 95L528 96L527 95z"/>
<path style="fill:#b67e3a; stroke:none;" d="M544 95L545 96L544 95M497 96L497 101L498 101L497 96z"/>
<path style="fill:#252525; stroke:none;" d="M498 96L495 101C497.715 106.656 496.16 117.858 503 119C500.25 113.272 498.03 107.206 503 102L500 101L500 96L498 96M525 96L523 101L523 102L523 103C527.327 108.711 521.572 117.915 531 119L528 117C528 111.596 527.026 106.163 531 102L528 101L528 96L525 96z"/>
<path style="fill:#2c80c3; stroke:none;" d="M548 96L549 97L548 96z"/>
<path style="fill:#749775; stroke:none;" d="M549 96L549 97L552 97L549 96z"/>
<path style="fill:#b67e3a; stroke:none;" d="M450 97L450 101L451 101L450 97M524 97L524 101L525 101L524 97z"/>
<path style="fill:#749775; stroke:none;" d="M547 97L548 98L547 97z"/>
<path style="fill:#252525; stroke:none;" d="M414 101C414 106.065 412.136 115.869 418.109 118.24C421.125 119.438 424.785 118.249 428 119L428 101L426 101C426 104.038 426.188 119.385 419.313 115.168C415.533 112.85 417 104.73 417 101L414 101z"/>
<path style="fill:#b67e3a; stroke:none;" d="M425 101L425 112L426 112L425 101z"/>
<path style="fill:#2c80c3; stroke:none;" d="M428 101L428 119L429 119L428 101z"/>
<path style="fill:#b67e3a; stroke:none;" d="M435 101L436 102L435 101z"/>
<path style="fill:#252525; stroke:none;" d="M444 113L444 115L432 113C436.515 125.553 451.661 113.416 441.943 108.993C439.77 108.004 437.312 107.53 435 107C438.324 103.159 440.636 104.345 445 106C441.55 95.0782 426.861 106.031 437.057 110.612C439.27 111.606 441.697 112.25 444 113z"/>
<path style="fill:#2c80c3; stroke:none;" d="M442 101L443 102L442 101z"/>
<path style="fill:#b67e3a; stroke:none;" d="M448.333 101.667L448.667 102.333L448.333 101.667M481 101L482 102L481 101z"/>
<path style="fill:#252525; stroke:none;" d="M492 113C486.681 115.141 483.062 117.148 480 111L493 111C491.388 100.325 477.088 97.2881 477.088 110C477.088 119.275 489.255 122.246 492 113z"/>
<path style="fill:#749775; stroke:none;" d="M488 101L489 102L488 101z"/>
<path style="fill:#2c80c3; stroke:none;" d="M503.333 101.667L503.667 102.333L503.333 101.667z"/>
<path style="fill:#b67e3a; stroke:none;" d="M516 101L516 119L517 119L516 101z"/>
<path style="fill:#252525; stroke:none;" d="M517 101L517 119L519 119L519 101L517 101z"/>
<path style="fill:#2c80c3; stroke:none;" d="M519 101L519 119L520 119L519 101z"/>
<path style="fill:#b67e3a; stroke:none;" d="M522.333 101.667L522.667 102.333L522.333 101.667M541.333 101.667L541.667 102.333L541.333 101.667z"/>
<path style="fill:#2c80c3; stroke:none;" d="M550.333 101.667L550.667 102.333L550.333 101.667z"/>
<path style="fill:#b67e3a; stroke:none;" d="M564 101L565 102L564 101z"/>
<path style="fill:#252525; stroke:none;" d="M565.044 101.746C555.6 105.454 560.644 122.303 570.956 118.254C580.4 114.546 575.356 97.697 565.044 101.746z"/>
<path style="fill:#749775; stroke:none;" d="M571 101L572 102L571 101z"/>
<path style="fill:#252525; stroke:none;" d="M578 101L583 119L591 107L593 119L597 119L602 101C597.045 102.736 596.413 109.266 596 114L595 114L592 101C586.758 102.723 586.403 109.072 586 114L578 101z"/>
<path style="fill:#749775; stroke:none;" d="M581 101L582 102L581 101z"/>
<path style="fill:#b67e3a; stroke:none;" d="M588 101L589 102L588 101M598.333 101.667L598.667 102.333L598.333 101.667z"/>
<path style="fill:#749775; stroke:none;" d="M444 102L445 103L444 102z"/>
<path style="fill:#b67e3a; stroke:none;" d="M479 102L480 103L479 102z"/>
<path style="fill:#2c80c3; stroke:none;" d="M489 102L490 103L489 102z"/>
<path style="fill:#b67e3a; stroke:none;" d="M562 102L563 103L562 102M578.333 102.667L578.667 103.333L578.333 102.667z"/>
<path style="fill:#2c80c3; stroke:none;" d="M581 102L582 103L581 102z"/>
<path style="fill:#749775; stroke:none;" d="M592 102L593 103L592 102z"/>
<path style="fill:#2c80c3; stroke:none;" d="M601.333 102.667L601.667 103.333L601.333 102.667M437 103L438 104L437 103z"/>
<path style="fill:#749775; stroke:none;" d="M438 103L438 104L441 104L438 103M445 103L446 104L445 103M449 103L450 104L449 103z"/>
<path style="fill:#b67e3a; stroke:none;" d="M450 103L450 116L451 116L450 103z"/>
<path style="fill:#749775; stroke:none;" d="M454 103L454 104L457 104L454 103z"/>
<path style="fill:#b67e3a; stroke:none;" d="M478 103L479 104L478 103z"/>
<path style="fill:#749775; stroke:none;" d="M484.667 103.333L485.333 103.667L484.667 103.333M495.667 103.333L496.333 103.667L495.667 103.333z"/>
<path style="fill:#2c80c3; stroke:none;" d="M500 103L500 116L501 116L500 103z"/>
<path style="fill:#749775; stroke:none;" d="M501 103L501 104L504 104L501 103M522.667 103.333L523.333 103.667L522.667 103.333z"/>
<path style="fill:#b67e3a; stroke:none;" d="M524 103L524 117L525 117L524 103z"/>
<path style="fill:#749775; stroke:none;" d="M528 103L528 104L531 104L528 103M541 103L541 104L544 104L541 103M547 103L547 104L551 104L547 103z"/>
<path style="fill:#b67e3a; stroke:none;" d="M561 103L562 104L561 103z"/>
<path style="fill:#749775; stroke:none;" d="M567.667 103.333L568.333 103.667L567.667 103.333M574 103L575 104L574 103z"/>
<path style="fill:#2c80c3; stroke:none;" d="M592.333 103.667L592.667 104.333L592.333 103.667z"/>
<path style="fill:#b67e3a; stroke:none;" d="M432 104L432 108L433 108L432 104z"/>
<path style="fill:#2c80c3; stroke:none;" d="M445.333 104.667L445.667 105.333L445.333 104.667z"/>
<path style="fill:#c2c7cb; stroke:none;" d="M480 108L489 108C486.466 103.407 482.665 103.659 480 108z"/>
<path style="fill:#b67e3a; stroke:none;" d="M487 104L488 105L487 104z"/>
<path style="fill:#2c80c3; stroke:none;" d="M491 104L492 105L491 104z"/>
<path style="fill:#b67e3a; stroke:none;" d="M497 104L497 118L498 118L497 104z"/>
<path style="fill:#c2c7cb; stroke:none;" d="M565.433 105.032C560.42 108.385 564.647 119.023 570.487 114.968C575.311 111.617 571.366 101.065 565.433 105.032z"/>
<path style="fill:#b67e3a; stroke:none;" d="M587.333 104.667L587.667 105.333L587.333 104.667z"/>
<path style="fill:#2c80c3; stroke:none;" d="M435.333 105.667L435.667 106.333L435.333 105.667z"/>
<path style="fill:#b67e3a; stroke:none;" d="M442 105L443 106L442 105M477 105L478 106L477 105M488 105L489 106L488 105M560 105L561 106L560 105z"/>
<path style="fill:#2c80c3; stroke:none;" d="M575 105L576 106L575 105M582.333 105.667L582.667 106.333L582.333 105.667z"/>
<path style="fill:#b67e3a; stroke:none;" d="M597.333 105.667L597.667 106.333L597.333 105.667z"/>
<path style="fill:#2c80c3; stroke:none;" d="M480 106L481 107L480 106M492.333 106.667L492.667 107.333L492.333 106.667M563 106L564 107L563 106z"/>
<path style="fill:#b67e3a; stroke:none;" d="M572.333 106.667L572.667 107.333L572.333 106.667M579 106L580 107L579 106z"/>
<path style="fill:#2c80c3; stroke:none;" d="M600 106L601 107L600 106z"/>
<path style="fill:#749775; stroke:none;" d="M437 107L438 108L437 107z"/>
<path style="fill:#b67e3a; stroke:none;" d="M476 107L476 113L477 113L476 107M489.333 107.667L489.667 108.333L489.333 107.667M559 107L559 113L560 113L559 107M586 107L586 110L587 110L586 107z"/>
<path style="fill:#2c80c3; stroke:none;" d="M589 107L590 108L589 107z"/>
<path style="fill:#b67e3a; stroke:none;" d="M590.333 107.667L590.667 108.333L590.333 107.667z"/>
<path style="fill:#2c80c3; stroke:none;" d="M593.333 107.667L593.667 108.333L593.333 107.667z"/>
<path style="fill:#749775; stroke:none;" d="M600 107L601 108L600 107z"/>
<path style="fill:#2c80c3; stroke:none;" d="M440 108L441 109L440 108z"/>
<path style="fill:#749775; stroke:none;" d="M441 108L442 109L441 108M480 108L480 109L489 109L480 108M576 108L576 111L577 111L576 108M583 108L584 109L583 108M589 108L590 109L589 108z"/>
<path style="fill:#b67e3a; stroke:none;" d="M596.333 108.667L596.667 109.333L596.333 108.667M580.333 109.667L580.667 110.333L580.333 109.667z"/>
<path style="fill:#2c80c3; stroke:none;" d="M583.333 109.667L583.667 110.333L583.333 109.667M599.333 109.667L599.667 110.333L599.333 109.667z"/>
<path style="fill:#749775; stroke:none;" d="M436 110L437 111L436 110z"/>
<path style="fill:#2c80c3; stroke:none;" d="M445 110L446 111L445 110M588.333 110.667L588.667 111.333L588.333 110.667z"/>
<path style="fill:#b67e3a; stroke:none;" d="M395 111L395 115L396 115L395 111z"/>
<path style="fill:#2c80c3; stroke:none;" d="M398.333 111.667L398.667 112.333L398.333 111.667z"/>
<path style="fill:#749775; stroke:none;" d="M439 111L440 112L439 111M446 111L447 112L446 111z"/>
<path style="fill:#b67e3a; stroke:none;" d="M585 111L585 114L586 114L585 111M591.333 111.667L591.667 112.333L591.333 111.667z"/>
<path style="fill:#749775; stroke:none;" d="M594 111L595 112L594 111z"/>
<path style="fill:#b67e3a; stroke:none;" d="M442 112L443 113L442 112z"/>
<path style="fill:#2c80c3; stroke:none;" d="M446 112L446 115L447 115L446 112z"/>
<path style="fill:#b67e3a; stroke:none;" d="M572.333 112.667L572.667 113.333L572.333 112.667M581.333 112.667L581.667 113.333L581.333 112.667z"/>
<path style="fill:#749775; stroke:none;" d="M584 112L585 113L584 112M588 112L589 113L588 112z"/>
<path style="fill:#2c80c3; stroke:none;" d="M594 112L595 113L594 112z"/>
<path style="fill:#b67e3a; stroke:none;" d="M595.333 112.667L595.667 113.333L595.333 112.667z"/>
<path style="fill:#749775; stroke:none;" d="M417 113L418 114L417 113z"/>
<path style="fill:#b67e3a; stroke:none;" d="M443.333 113.667L443.667 114.333L443.333 113.667z"/>
<path style="fill:#749775; stroke:none;" d="M480 113L481 114L480 113z"/>
<path style="fill:#b67e3a; stroke:none;" d="M489 113L490 114L489 113z"/>
<path style="fill:#2c80c3; stroke:none;" d="M492.333 113.667L492.667 114.333L492.333 113.667M563 113L564 114L563 113M584 113L585 114L584 113M598 113L599 114L598 113z"/>
<path style="fill:#749775; stroke:none;" d="M399 114L400 115L399 114z"/>
<path style="fill:#2c80c3; stroke:none;" d="M408 114L409 115L408 114M417 114L418 115L417 114z"/>
<path style="fill:#b67e3a; stroke:none;" d="M424 114L425 115L424 114z"/>
<path style="fill:#2c80c3; stroke:none;" d="M435 114L436 115L435 114z"/>
<path style="fill:#b67e3a; stroke:none;" d="M477 114L478 115L477 114M560 114L561 115L560 114z"/>
<path style="fill:#2c80c3; stroke:none;" d="M575 114L576 115L575 114M587.333 114.667L587.667 115.333L587.333 114.667z"/>
<path style="fill:#749775; stroke:none;" d="M598 114L599 115L598 114M408 115L409 116L408 115z"/>
<path style="fill:#b67e3a; stroke:none;" d="M414.333 115.667L414.667 116.333L414.333 115.667M423 115L424 116L423 115M432 115L433 116L432 115z"/>
<path style="fill:#749775; stroke:none;" d="M436 115L437 116L436 115z"/>
<path style="fill:#b67e3a; stroke:none;" d="M442 115L443 116L442 115z"/>
<path style="fill:#749775; stroke:none;" d="M446 115L447 116L446 115z"/>
<path style="fill:#b67e3a; stroke:none;" d="M592.333 115.667L592.667 116.333L592.333 115.667M396 116L397 117L396 116z"/>
<path style="fill:#2c80c3; stroke:none;" d="M407 116L408 117L407 116M419 116L420 117L419 116z"/>
<path style="fill:#749775; stroke:none;" d="M420.667 116.333L421.333 116.667L420.667 116.333M438 116L438 117L441 117L438 116z"/>
<path style="fill:#2c80c3; stroke:none;" d="M445 116L446 117L445 116z"/>
<path style="fill:#749775; stroke:none;" d="M455.667 116.333L456.333 116.667L455.667 116.333z"/>
<path style="fill:#b67e3a; stroke:none;" d="M478 116L479 117L478 116z"/>
<path style="fill:#749775; stroke:none;" d="M484.667 116.333L485.333 116.667L484.667 116.333M491 116L492 117L491 116M501 116L501 117L504 117L501 116z"/>
<path style="fill:#2c80c3; stroke:none;" d="M528 116L529 117L528 116z"/>
<path style="fill:#749775; stroke:none;" d="M529.667 116.333L530.333 116.667L529.667 116.333z"/>
<path style="fill:#b67e3a; stroke:none;" d="M561 116L562 117L561 116z"/>
<path style="fill:#749775; stroke:none;" d="M567.667 116.333L568.333 116.667L567.667 116.333M574 116L575 117L574 116z"/>
<path style="fill:#b67e3a; stroke:none;" d="M582.333 116.667L582.667 117.333L582.333 116.667z"/>
<path style="fill:#749775; stroke:none;" d="M587 116L588 117L587 116z"/>
<path style="fill:#2c80c3; stroke:none;" d="M597 116L598 117L597 116z"/>
<path style="fill:#b67e3a; stroke:none;" d="M397 117L398 118L397 117M415 117L416 118L415 117z"/>
<path style="fill:#2c80c3; stroke:none;" d="M424 117L425 118L424 117z"/>
<path style="fill:#b67e3a; stroke:none;" d="M425.333 117.667L425.667 118.333L425.333 117.667z"/>
<path style="fill:#2c80c3; stroke:none;" d="M444 117L445 118L444 117z"/>
<path style="fill:#b67e3a; stroke:none;" d="M451 117L452 118L451 117M479 117L480 118L479 117z"/>
<path style="fill:#749775; stroke:none;" d="M490 117L491 118L490 117z"/>
<path style="fill:#2c80c3; stroke:none;" d="M503.333 117.667L503.667 118.333L503.333 117.667z"/>
<path style="fill:#b67e3a; stroke:none;" d="M562 117L563 118L562 117z"/>
<path style="fill:#749775; stroke:none;" d="M597 117L598 118L597 117M405 118L406 119L405 118z"/>
<path style="fill:#b67e3a; stroke:none;" d="M417 118L418 119L417 118M435 118L436 119L435 118z"/>
<path style="fill:#2c80c3; stroke:none;" d="M442 118L443 119L442 118z"/>
<path style="fill:#b67e3a; stroke:none;" d="M452 118L453 119L452 118z"/>
<path style="fill:#749775; stroke:none;" d="M457 118L458 119L457 118z"/>
<path style="fill:#b67e3a; stroke:none;" d="M481 118L482 119L481 118z"/>
<path style="fill:#749775; stroke:none;" d="M488 118L489 119L488 118z"/>
<path style="fill:#b67e3a; stroke:none;" d="M526 118L527 119L526 118M564 118L565 119L564 118z"/>
<path style="fill:#749775; stroke:none;" d="M571 118L572 119L571 118z"/>
<path style="fill:#2c80c3; stroke:none;" d="M586 118L587 119L586 118M329.318 129.028C325.882 131.321 327 137.48 327 141L327 173C327.002 176.948 326.254 182.363 331.059 183.682C338.705 185.782 349.08 184 357 184L411 184L587 184L647 184C652.101 184 664.541 186.252 668.397 182.397C670.981 179.812 670 174.306 670 171L670 140C670 136.327 671.013 130.42 666.852 128.603C660.896 126.003 650.445 128 644 128L592 128L410 128L352 128C346.214 128 334.256 125.733 329.318 129.028z"/>
<path style="fill:#c2c7cb; stroke:none;" d="M330.603 131.028C327.927 133.147 329 139.02 329 142L329 171C329 174.438 327.884 180.416 332.148 181.682C339.33 183.814 349.518 182 357 182L411 182L588 182L647 182C651.381 182 663.999 184.151 666.972 180.397C668.912 177.948 668 172.91 668 170L668 142C668 138.811 669.209 132.339 665.682 130.603C660.344 127.977 649.889 130 644 130L593 130L409 130L352 130C346.912 130 334.725 127.763 330.603 131.028z"/>
<path style="fill:#252525; stroke:none;" d="M342 150L342 162L343 162L344 154C347.498 155.928 347.875 158.122 348 162L349 162C348.957 157.215 348.87 152.633 343 154L342 150z"/>
<path style="fill:#2c80c3; stroke:none;" d="M343 150L343 154L344 154L343 150z"/>
<path style="fill:#252525; stroke:none;" d="M360 150L360 162L361 162L360 150z"/>
<path style="fill:#2c80c3; stroke:none;" d="M361 150L361 162L362 162L361 150z"/>
<path style="fill:#252525; stroke:none;" d="M364 150L364 162L365 162L364 150z"/>
<path style="fill:#2c80c3; stroke:none;" d="M365 150L365 162L366 162L365 150z"/>
<path style="fill:#b67e3a; stroke:none;" d="M407 150L407 162L408 162L407 150z"/>
<path style="fill:#252525; stroke:none;" d="M408 150L408 162L409 162L408 150z"/>
<path style="fill:#b67e3a; stroke:none;" d="M416 150L416 153L417 153L416 150z"/>
<path style="fill:#252525; stroke:none;" d="M417 150C413.998 154.877 406.97 161.159 418 162L417 150z"/>
<path style="fill:#b67e3a; stroke:none;" d="M352 153L351 155L352 153z"/>
<path style="fill:#252525; stroke:none;" d="M358 159L352 158L358 158C353.821 144.282 348.084 168.717 358 159z"/>
<path style="fill:#2c80c3; stroke:none;" d="M356 153L357 154L356 153z"/>
<path style="fill:#252525; stroke:none;" d="M369.422 154.086C365.762 156.303 368.527 163.367 372.578 160.914C376.238 158.697 373.473 151.633 369.422 154.086z"/>
<path style="fill:#b67e3a; stroke:none;" d="M380.333 153.667L380.667 154.333L380.333 153.667z"/>
<path style="fill:#252525; stroke:none;" d="M381 153L384 162L385 158L381 153z"/>
<path style="fill:#b67e3a; stroke:none;" d="M385 153L386 154L385 153z"/>
<path style="fill:#252525; stroke:none;" d="M386 153L385 157L388 162L389 162L391 153L390 153L389 159L388 159L386 153z"/>
<path style="fill:#2c80c3; stroke:none;" d="M391.333 153.667L391.667 154.333L391.333 153.667z"/>
<path style="fill:#b67e3a; stroke:none;" d="M394 153L395 154L394 153z"/>
<path style="fill:#252525; stroke:none;" d="M395.299 153.89C391.754 155.026 392.824 162.177 396.91 161.168C401.245 160.099 399.705 152.478 395.299 153.89z"/>
<path style="fill:#2c80c3; stroke:none;" d="M398 153L399 154L398 153z"/>
<path style="fill:#252525; stroke:none;" d="M402 153L402 162L403 162L406 154L406 153L402 153z"/>
<path style="fill:#2c80c3; stroke:none;" d="M403 153L404 154L403 153M406 153L407 154L406 153z"/>
<path style="fill:#b67e3a; stroke:none;" d="M412 153L413 154L412 153z"/>
<path style="fill:#2c80c3; stroke:none;" d="M344 154L345 155L344 154z"/>
<path style="fill:#b67e3a; stroke:none;" d="M346 154L347 155L346 154z"/>
<path style="fill:#2c80c3; stroke:none;" d="M348 154L349 155L348 154z"/>
<path style="fill:#749775; stroke:none;" d="M353 154L354 155L353 154z"/>
<path style="fill:#c2c7cb; stroke:none;" d="M354 154L353 157L356 157L354 154z"/>
<path style="fill:#b67e3a; stroke:none;" d="M355 154L356 155L355 154z"/>
<path style="fill:#2c80c3; stroke:none;" d="M357 154L358 155L357 154z"/>
<path style="fill:#b67e3a; stroke:none;" d="M367.333 154.667L367.667 155.333L367.333 154.667z"/>
<path style="fill:#c2c7cb; stroke:none;" d="M370 154L370 161L372 161L372 154L370 154z"/>
<path style="fill:#b67e3a; stroke:none;" d="M372 154L373 155L372 154z"/>
<path style="fill:#749775; stroke:none;" d="M382 154L383 155L382 154M387 154L388 155L387 154z"/>
<path style="fill:#c2c7cb; stroke:none;" d="M395 154L395 161L397 161L397 154L395 154z"/>
<path style="fill:#b67e3a; stroke:none;" d="M397 154L398 155L397 154z"/>
<path style="fill:#2c80c3; stroke:none;" d="M399 154L400 155L399 154z"/>
<path style="fill:#749775; stroke:none;" d="M404 154L405 155L404 154z"/>
<path style="fill:#b67e3a; stroke:none;" d="M411 154L412 155L411 154z"/>
<path style="fill:#c2c7cb; stroke:none;" d="M413 154L413 161L415 161L415 154L413 154z"/>
<path style="fill:#b67e3a; stroke:none;" d="M415 154L416 155L415 154M347 155L347 162L348 162L347 155z"/>
<path style="fill:#2c80c3; stroke:none;" d="M352 155L353 156L352 155z"/>
<path style="fill:#b67e3a; stroke:none;" d="M356.333 155.667L356.667 156.333L356.333 155.667z"/>
<path style="fill:#2c80c3; stroke:none;" d="M374 155L375 156L374 155M382 155L383 156L382 155z"/>
<path style="fill:#b67e3a; stroke:none;" d="M384 155L384 158L385 158L384 155z"/>
<path style="fill:#2c80c3; stroke:none;" d="M387 155L388 156L387 155z"/>
<path style="fill:#b67e3a; stroke:none;" d="M389.333 155.667L389.667 156.333L389.333 155.667M392 155L392 160L393 160L392 155z"/>
<path style="fill:#749775; stroke:none;" d="M394 155L395 156L394 155z"/>
<path style="fill:#b67e3a; stroke:none;" d="M398 155L398 160L399 160L398 155M410 155L410 160L411 160L410 155z"/>
<path style="fill:#2c80c3; stroke:none;" d="M412 155L413 156L412 155M343 156L343 162L344 162L343 156z"/>
<path style="fill:#b67e3a; stroke:none;" d="M350 156L350 160L351 160L350 156z"/>
<path style="fill:#749775; stroke:none;" d="M352 156L353 157L352 156M358.333 156.667L358.667 157.333L358.333 156.667z"/>
<path style="fill:#b67e3a; stroke:none;" d="M373 156L373 159L374 159L373 156M381 156L381 159L382 159L381 156M386 156L386 159L387 159L386 156z"/>
<path style="fill:#749775; stroke:none;" d="M400.333 156.667L400.667 157.333L400.333 156.667z"/>
<path style="fill:#2c80c3; stroke:none;" d="M403 156L403 162L404 162L403 156z"/>
<path style="fill:#b67e3a; stroke:none;" d="M416 156L416 159L417 159L416 156z"/>
<path style="fill:#2c80c3; stroke:none;" d="M368 157L369 158L368 157M385 157L386 158L385 157M390 157L391 158L390 157z"/>
<path style="fill:#749775; stroke:none;" d="M352 158L353 159L352 158M383 158L384 159L383 158M385 158L386 159L385 158M388 158L389 159L388 158M390 158L391 159L390 158z"/>
<path style="fill:#2c80c3; stroke:none;" d="M352 159L353 160L352 159z"/>
<path style="fill:#b67e3a; stroke:none;" d="M356 159L357 160L356 159M367.333 159.667L367.667 160.333L367.333 159.667z"/>
<path style="fill:#2c80c3; stroke:none;" d="M374 159L375 160L374 159z"/>
<path style="fill:#749775; stroke:none;" d="M394 159L395 160L394 159z"/>
<path style="fill:#2c80c3; stroke:none;" d="M412 159L413 160L412 159z"/>
<path style="fill:#b67e3a; stroke:none;" d="M351 160L352 161L351 160z"/>
<path style="fill:#749775; stroke:none;" d="M353 160L354 161L353 160z"/>
<path style="fill:#2c80c3; stroke:none;" d="M357 160L358 161L357 160z"/>
<path style="fill:#b67e3a; stroke:none;" d="M372 160L373 161L372 160M382.333 160.667L382.667 161.333L382.333 160.667M387.333 160.667L387.667 161.333L387.333 160.667z"/>
<path style="fill:#2c80c3; stroke:none;" d="M389 160L390 161L389 160z"/>
<path style="fill:#b67e3a; stroke:none;" d="M397 160L398 161L397 160z"/>
<path style="fill:#2c80c3; stroke:none;" d="M399 160L400 161L399 160z"/>
<path style="fill:#b67e3a; stroke:none;" d="M411 160L412 161L411 160M415 160L416 161L415 160M352 161L353 162L352 161z"/>
<path style="fill:#2c80c3; stroke:none;" d="M356 161L357 162L356 161M384 161L385 162L384 161z"/>
<path style="fill:#749775; stroke:none;" d="M389 161L390 162L389 161z"/>
<path style="fill:#b67e3a; stroke:none;" d="M394 161L395 162L394 161z"/>
<path style="fill:#749775; stroke:none;" d="M398 161L399 162L398 161z"/>
<path style="fill:#b67e3a; stroke:none;" d="M412 161L413 162L412 161z"/>
<path style="fill:#2c80c3; stroke:none;" d="M321.318 209.028C317.081 211.855 317.081 235.145 321.318 237.972C324.852 240.331 331.935 239 336 239L372 239C376.065 239 383.148 240.331 386.682 237.972C390.919 235.145 390.919 211.855 386.682 209.028C383.148 206.669 376.065 208 372 208L336 208C331.935 208 324.852 206.669 321.318 209.028z"/>
<path style="fill:#c2c7cb; stroke:none;" d="M336 227L330 225C333.64 230.588 340.289 224.329 331 221L331 220L337 221C335.891 219.295 330.178 216.524 330.921 220.874C331.288 223.025 334.867 225.016 336 227M339 218C339.009 229.411 345.991 229.411 346 218L345 218C344.878 228.311 341.751 224.478 339 218z"/>
<path style="fill:#749775; stroke:none;" d="M340 218L340 226L341 226L340 218M346 218L346 225L347 225L346 218z"/>
<path style="fill:#c2c7cb; stroke:none;" d="M349 218L349 228C358.194 227.699 358.062 218.298 349 218z"/>
<path style="fill:#749775; stroke:none;" d="M355 218L356 219L355 218z"/>
<path style="fill:#c2c7cb; stroke:none;" d="M358 218L358 228L359 228L359 221L360 221L362 228L363 228L365 221L366 221L366 228L367 228L367 218L363 225L362 225L360 218L358 218z"/>
<path style="fill:#749775; stroke:none;" d="M360 218L361 219L360 218M367 218L367 228L368 228L367 218z"/>
<path style="fill:#c2c7cb; stroke:none;" d="M369 218L369 228L370 228L369 218z"/>
<path style="fill:#749775; stroke:none;" d="M370 218L370 228L371 228L370 218z"/>
<path style="fill:#c2c7cb; stroke:none;" d="M372 218L372 219L375 219L375 228L376 228L379 219L372 218z"/>
<path style="fill:#749775; stroke:none;" d="M379 218L380 219L379 218M350 219L350 222L351 222L350 219z"/>
<path style="fill:#2c80c3; stroke:none;" d="M351 219L351 222L355 222L355 219L351 219z"/>
<path style="fill:#749775; stroke:none;" d="M356.333 219.667L356.667 220.333L356.333 219.667M376 219L376 228L377 228L376 219M331 220L332 221L331 220M337 220L338 221L337 220M359 221L359 228L360 228L359 221M365 221L366 222L365 221M361 222L362 223L361 222M350 223L350 227L351 227L350 223z"/>
<path style="fill:#2c80c3; stroke:none;" d="M351 223L351 227L355 223L351 223z"/>
<path style="fill:#749775; stroke:none;" d="M356 223L357 224L356 223M337 224L338 225L337 224M364 224L365 225L364 224M331 225L332 226L331 225M356 225L357 226L356 225M335 226L336 227L335 226M354 226L355 227L354 226M355 227L356 228L355 227M363 227L364 228L363 227M319 237L320 238L319 237M388 237L389 238L388 237M320 238C323.012 242.263 329.269 241 334 241L373 241C377.907 241 384.866 242.436 388 238L354 239L320 238M310.333 244.667L310.667 245.333L310.333 244.667M686.333 244.667L686.667 245.333L686.333 244.667M311 246L312 247L311 246M685 246L686 247L685 246M312.667 247.333L313.333 247.667L312.667 247.333M683.667 247.333L684.333 247.667L683.667 247.333M310 292L311 292L314 289L310 292z"/>
<path style="fill:#c2c7cb; stroke:none;" d="M314.109 288.742C309.29 290.815 310.002 296.676 310 301L310 334L310 457L310 486C310.006 489.741 309.535 494.563 313.228 496.821C319.018 500.361 331.38 498 338 498L402 498L601 498L658 498C665.129 498 676.277 500.102 682.891 497.258C687.71 495.185 686.998 489.324 687 485L687 452L687 329L687 300C686.994 296.259 687.465 291.437 683.772 289.179C677.982 285.639 665.62 288 659 288L595 288L396 288L339 288C331.871 288 320.723 285.898 314.109 288.742z"/>
<path style="fill:#749775; stroke:none;" d="M683.667 288.333L684.333 288.667L683.667 288.333M685 289L686 290L685 289M686.333 290.667L686.667 291.333L686.333 290.667z"/>
<path style="fill:#252525; stroke:none;" d="M353 335L353 347L354 347L356 336L353 335z"/>
<path style="fill:#749775; stroke:none;" d="M356 335L357 336L356 335z"/>
<path style="fill:#252525; stroke:none;" d="M357 335L357 347L358 347L357 335z"/>
<path style="fill:#b67e3a; stroke:none;" d="M365 335L365 338L366 338L365 335z"/>
<path style="fill:#252525; stroke:none;" d="M366 335C362.998 339.877 355.97 346.159 367 347L366 335z"/>
<path style="fill:#b67e3a; stroke:none;" d="M378.333 335.667L378.667 336.333L378.333 335.667z"/>
<path style="fill:#252525; stroke:none;" d="M379 335L379 336L384 336L384 335L379 335z"/>
<path style="fill:#749775; stroke:none;" d="M381 335L382 336L381 335z"/>
<path style="fill:#b67e3a; stroke:none;" d="M382 335L383 336L382 335z"/>
<path style="fill:#252525; stroke:none;" d="M392 335C388.819 340.262 383.344 346.65 394 347L394 335L392 335z"/>
<path style="fill:#b67e3a; stroke:none;" d="M395 335L395 347L396 347L395 335z"/>
<path style="fill:#252525; stroke:none;" d="M396 335L396 347L397 347L396 335z"/>
<path style="fill:#b67e3a; stroke:none;" d="M400 335L399 347L400 347L400 335z"/>
<path style="fill:#252525; stroke:none;" d="M400 347L401 347L403 339L403 338L401 336L405 336C398.32 333.836 399.969 342.958 400 347z"/>
<path style="fill:#b67e3a; stroke:none;" d="M407 335L407 347L408 347L407 335z"/>
<path style="fill:#252525; stroke:none;" d="M408 335L408 347L409 347L409 343L414 347L414 338L409 341L408 335z"/>
<path style="fill:#b67e3a; stroke:none;" d="M352.333 336.667L352.667 337.333L352.333 336.667z"/>
<path style="fill:#c2c7cb; stroke:none;" d="M354 336L354 338L356 338L356 336L354 336z"/>
<path style="fill:#b67e3a; stroke:none;" d="M356 336L356 347L357 347L356 336z"/>
<path style="fill:#2c80c3; stroke:none;" d="M379 336L380 337L379 336M383 336L384 337L383 336M401.333 336.667L401.667 337.333L401.333 336.667z"/>
<path style="fill:#b67e3a; stroke:none;" d="M351 338L352 339L351 338z"/>
<path style="fill:#2c80c3; stroke:none;" d="M355 338L356 339L355 338z"/>
<path style="fill:#b67e3a; stroke:none;" d="M361 338L362 339L361 338M370 338C368.042 341.747 367.92 343.97 371 347L370 338z"/>
<path style="fill:#252525; stroke:none;" d="M374 349L369 348L369 349C376.419 350.674 375.996 343.496 376 338C367.265 338.666 369.401 344.292 374 349M378 338L378 347L379 347C379.125 343.122 379.502 340.928 383 339L383 347L385 347C384.945 340.968 384.229 338.531 378 338z"/>
<path style="fill:#2c80c3; stroke:none;" d="M379 338L380 339L379 338z"/>
<path style="fill:#b67e3a; stroke:none;" d="M403 338L403 349L404 349L403 338z"/>
<path style="fill:#252525; stroke:none;" d="M404 338L402 349L402 350C405.867 347.493 405.677 341.997 404 338z"/>
<path style="fill:#b67e3a; stroke:none;" d="M411 338L412 339L411 338M352 339L352 347L353 347L352 339M360 339L361 340L360 339z"/>
<path style="fill:#c2c7cb; stroke:none;" d="M362 339L362 346L364 346L364 339L362 339z"/>
<path style="fill:#b67e3a; stroke:none;" d="M364 339L365 340L364 339z"/>
<path style="fill:#c2c7cb; stroke:none;" d="M371 339L371 346L373 346L373 339L371 339z"/>
<path style="fill:#b67e3a; stroke:none;" d="M373 339L374 340L373 339z"/>
<path style="fill:#749775; stroke:none;" d="M380 339L381 340L380 339z"/>
<path style="fill:#b67e3a; stroke:none;" d="M382 339L383 340L382 339z"/>
<path style="fill:#2c80c3; stroke:none;" d="M384 339L385 340L384 339z"/>
<path style="fill:#c2c7cb; stroke:none;" d="M389 339L389 346L391 346L391 339L389 339z"/>
<path style="fill:#b67e3a; stroke:none;" d="M391 339L392 340L391 339z"/>
<path style="fill:#2c80c3; stroke:none;" d="M401 339L401 347L402 347L401 339z"/>
<path style="fill:#b67e3a; stroke:none;" d="M410 339L411 340L410 339M359 340L359 345L360 345L359 340z"/>
<path style="fill:#2c80c3; stroke:none;" d="M361 340L362 341L361 340z"/>
<path style="fill:#749775; stroke:none;" d="M370 340L371 341L370 340z"/>
<path style="fill:#2c80c3; stroke:none;" d="M379 340L379 347L380 347L379 340z"/>
<path style="fill:#b67e3a; stroke:none;" d="M386 340L386 345L387 345L386 340z"/>
<path style="fill:#749775; stroke:none;" d="M388 340L389 341L388 340z"/>
<path style="fill:#b67e3a; stroke:none;" d="M365 341L365 344L366 344L365 341M374 341L374 344L375 344L374 341M392 342L393 343L392 342z"/>
<path style="fill:#2c80c3; stroke:none;" d="M411 342L412 343L411 342z"/>
<path style="fill:#b67e3a; stroke:none;" d="M410 343L411 344L410 343z"/>
<path style="fill:#749775; stroke:none;" d="M412 343L413 344L412 343z"/>
<path style="fill:#2c80c3; stroke:none;" d="M361 344L362 345L361 344z"/>
<path style="fill:#749775; stroke:none;" d="M370 344L371 345L370 344M388 344L389 345L388 344z"/>
<path style="fill:#b67e3a; stroke:none;" d="M360 345L361 346L360 345M364 345L365 346L364 345M373 345L374 346L373 345M391 345L392 346L391 345M411 345L412 346L411 345z"/>
<path style="fill:#2c80c3; stroke:none;" d="M413 345L414 346L413 345z"/>
<path style="fill:#b67e3a; stroke:none;" d="M361 346L362 347L361 346M374 346L375 347L374 346z"/>
<path style="fill:#2c80c3; stroke:none;" d="M375 347L376 348L375 347z"/>
<path style="fill:#b67e3a; stroke:none;" d="M368 348L369 349L368 348z"/>
<path style="fill:#2c80c3; stroke:none;" d="M370 348L371 349L370 348z"/>
<path style="fill:#b67e3a; stroke:none;" d="M373 348L374 349L373 348z"/>
<path style="fill:#749775; stroke:none;" d="M375 348L376 349L375 348z"/>
<path style="fill:#b67e3a; stroke:none;" d="M369 349L370 350L369 349z"/>
<path style="fill:#749775; stroke:none;" d="M374 349L375 350L374 349z"/>
<path style="fill:#b67e3a; stroke:none;" d="M401 349L402 350L401 349z"/>
<path style="fill:#2c80c3; stroke:none;" d="M404 349L405 350L404 349z"/>
<path style="fill:#252525; stroke:none;" d="M352 359L352 371L353 371L354 363C357.498 364.928 357.875 367.122 358 371L359 371C358.957 366.215 358.87 361.633 353 363L352 359z"/>
<path style="fill:#2c80c3; stroke:none;" d="M353 359L353 363L354 363L353 359z"/>
<path style="fill:#252525; stroke:none;" d="M370 359L370 371L371 371L370 359z"/>
<path style="fill:#2c80c3; stroke:none;" d="M371 359L371 371L372 371L371 359z"/>
<path style="fill:#b67e3a; stroke:none;" d="M373 359L373 371L374 371L373 359z"/>
<path style="fill:#252525; stroke:none;" d="M374 359L374 371L375 371L374 359M416 359L416 371L417 371L416 359z"/>
<path style="fill:#2c80c3; stroke:none;" d="M417 359L417 371L418 371L417 359z"/>
<path style="fill:#b67e3a; stroke:none;" d="M424 359L424 362L425 362L424 359z"/>
<path style="fill:#252525; stroke:none;" d="M425 359L425 363C417.292 361.848 419.195 370.233 426 371L425 359z"/>
<path style="fill:#2c80c3; stroke:none;" d="M426 359L426 371L427 371L426 359z"/>
<path style="fill:#b67e3a; stroke:none;" d="M362 362L361 364L362 362z"/>
<path style="fill:#252525; stroke:none;" d="M368 368L362 367L368 367C363.821 353.282 358.084 377.717 368 368z"/>
<path style="fill:#2c80c3; stroke:none;" d="M366 362L367 363L366 362z"/>
<path style="fill:#b67e3a; stroke:none;" d="M378 362C376.042 365.747 375.92 367.97 379 371L378 362z"/>
<path style="fill:#252525; stroke:none;" d="M379.299 363.176C375.811 364.892 377.829 371.729 381.701 369.824C385.189 368.108 383.171 361.271 379.299 363.176z"/>
<path style="fill:#2c80c3; stroke:none;" d="M382 362L383 363L382 362z"/>
<path style="fill:#b67e3a; stroke:none;" d="M389.333 362.667L389.667 363.333L389.333 362.667z"/>
<path style="fill:#252525; stroke:none;" d="M390 362L393 371L394 367L390 362z"/>
<path style="fill:#b67e3a; stroke:none;" d="M394 362L395 363L394 362z"/>
<path style="fill:#252525; stroke:none;" d="M395 362L394 366L397 371L398 371L400 362L399 362L398 368L397 368L395 362z"/>
<path style="fill:#2c80c3; stroke:none;" d="M400.333 362.667L400.667 363.333L400.333 362.667z"/>
<path style="fill:#b67e3a; stroke:none;" d="M403 362L404 363L403 362z"/>
<path style="fill:#252525; stroke:none;" d="M404.299 362.89C400.754 364.026 401.824 371.177 405.91 370.168C410.245 369.099 408.705 361.478 404.299 362.89z"/>
<path style="fill:#2c80c3; stroke:none;" d="M407 362L408 363L407 362z"/>
<path style="fill:#252525; stroke:none;" d="M411 362L411 371L412 371L415 363L415 362L411 362z"/>
<path style="fill:#749775; stroke:none;" d="M412 362L413 363L412 362M415 362L416 363L415 362z"/>
<path style="fill:#b67e3a; stroke:none;" d="M420 362L421 363L420 362z"/>
<path style="fill:#2c80c3; stroke:none;" d="M424 362L425 363L424 362M354 363L355 364L354 363z"/>
<path style="fill:#b67e3a; stroke:none;" d="M356 363L357 364L356 363z"/>
<path style="fill:#2c80c3; stroke:none;" d="M358 363L359 364L358 363z"/>
<path style="fill:#749775; stroke:none;" d="M363 363L364 364L363 363z"/>
<path style="fill:#c2c7cb; stroke:none;" d="M364 363L363 366L366 366L364 363z"/>
<path style="fill:#b67e3a; stroke:none;" d="M365 363L366 364L365 363z"/>
<path style="fill:#2c80c3; stroke:none;" d="M367 363L368 364L367 363z"/>
<path style="fill:#749775; stroke:none;" d="M379 363L380 364L379 363z"/>
<path style="fill:#c2c7cb; stroke:none;" d="M380 363L380 370L381 370L380 363z"/>
<path style="fill:#b67e3a; stroke:none;" d="M381 363L382 364L381 363z"/>
<path style="fill:#2c80c3; stroke:none;" d="M383 363L384 364L383 363z"/>
<path style="fill:#749775; stroke:none;" d="M391 363L392 364L391 363M396 363L397 364L396 363z"/>
<path style="fill:#c2c7cb; stroke:none;" d="M404 363L404 370L406 370L406 363L404 363z"/>
<path style="fill:#b67e3a; stroke:none;" d="M406 363L407 364L406 363z"/>
<path style="fill:#2c80c3; stroke:none;" d="M408 363L409 364L408 363z"/>
<path style="fill:#b67e3a; stroke:none;" d="M419.333 363.667L419.667 364.333L419.333 363.667z"/>
<path style="fill:#2c80c3; stroke:none;" d="M421 363L422 364L421 363z"/>
<path style="fill:#c2c7cb; stroke:none;" d="M422 363C421.117 366.304 421.043 368.08 424 370L424 363L422 363z"/>
<path style="fill:#b67e3a; stroke:none;" d="M357 364L357 371L358 371L357 364z"/>
<path style="fill:#2c80c3; stroke:none;" d="M362 364L363 365L362 364z"/>
<path style="fill:#b67e3a; stroke:none;" d="M366.333 364.667L366.667 365.333L366.333 364.667z"/>
<path style="fill:#2c80c3; stroke:none;" d="M378 364L379 365L378 364z"/>
<path style="fill:#b67e3a; stroke:none;" d="M382 364L382 369L383 369L382 364z"/>
<path style="fill:#2c80c3; stroke:none;" d="M391 364L392 365L391 364z"/>
<path style="fill:#b67e3a; stroke:none;" d="M393 364L393 367L394 367L393 364z"/>
<path style="fill:#2c80c3; stroke:none;" d="M396 364L397 365L396 364z"/>
<path style="fill:#b67e3a; stroke:none;" d="M398.333 364.667L398.667 365.333L398.333 364.667M401 364L401 369L402 369L401 364z"/>
<path style="fill:#749775; stroke:none;" d="M403 364L404 365L403 364z"/>
<path style="fill:#b67e3a; stroke:none;" d="M407 364L407 369L408 369L407 364z"/>
<path style="fill:#2c80c3; stroke:none;" d="M412 364L412 371L413 371L412 364z"/>
<path style="fill:#b67e3a; stroke:none;" d="M424.333 364.667L424.667 365.333L424.333 364.667z"/>
<path style="fill:#2c80c3; stroke:none;" d="M353 365L353 371L354 371L353 365z"/>
<path style="fill:#b67e3a; stroke:none;" d="M360 365L360 369L361 369L360 365z"/>
<path style="fill:#749775; stroke:none;" d="M362 365L363 366L362 365M368.333 365.667L368.667 366.333L368.333 365.667M378 365L379 366L378 365z"/>
<path style="fill:#2c80c3; stroke:none;" d="M384.333 365.667L384.667 366.333L384.333 365.667z"/>
<path style="fill:#b67e3a; stroke:none;" d="M390 365L390 368L391 368L390 365M395 365L395 368L396 368L395 365z"/>
<path style="fill:#749775; stroke:none;" d="M409.333 365.667L409.667 366.333L409.333 365.667z"/>
<path style="fill:#2c80c3; stroke:none;" d="M420 365L420 368L421 368L420 365M394 366L395 367L394 366M399 366L400 367L399 366z"/>
<path style="fill:#749775; stroke:none;" d="M362 367L363 368L362 367M378 367L379 368L378 367M384 367L385 368L384 367M392 367L393 368L392 367M394 367L395 368L394 367M397 367L398 368L397 367M399 367L400 368L399 367z"/>
<path style="fill:#b67e3a; stroke:none;" d="M424.333 367.667L424.667 368.333L424.333 367.667z"/>
<path style="fill:#2c80c3; stroke:none;" d="M362 368L363 369L362 368z"/>
<path style="fill:#b67e3a; stroke:none;" d="M366 368L367 369L366 368z"/>
<path style="fill:#2c80c3; stroke:none;" d="M378 368L379 369L378 368z"/>
<path style="fill:#749775; stroke:none;" d="M403 368L404 369L403 368z"/>
<path style="fill:#b67e3a; stroke:none;" d="M419.333 368.667L419.667 369.333L419.333 368.667M361 369L362 370L361 369z"/>
<path style="fill:#749775; stroke:none;" d="M363 369L364 370L363 369z"/>
<path style="fill:#2c80c3; stroke:none;" d="M367 369L368 370L367 369z"/>
<path style="fill:#749775; stroke:none;" d="M379 369L380 370L379 369z"/>
<path style="fill:#b67e3a; stroke:none;" d="M381 369L382 370L381 369z"/>
<path style="fill:#2c80c3; stroke:none;" d="M383 369L384 370L383 369z"/>
<path style="fill:#b67e3a; stroke:none;" d="M391.333 369.667L391.667 370.333L391.333 369.667M396.333 369.667L396.667 370.333L396.333 369.667z"/>
<path style="fill:#2c80c3; stroke:none;" d="M398 369L399 370L398 369z"/>
<path style="fill:#b67e3a; stroke:none;" d="M406 369L407 370L406 369z"/>
<path style="fill:#2c80c3; stroke:none;" d="M408 369L409 370L408 369M421 369L422 370L421 369z"/>
<path style="fill:#b67e3a; stroke:none;" d="M362 370L363 371L362 370z"/>
<path style="fill:#2c80c3; stroke:none;" d="M366 370L367 371L366 370M382 370L383 371L382 370M393 370L394 371L393 370z"/>
<path style="fill:#749775; stroke:none;" d="M398 370L399 371L398 370z"/>
<path style="fill:#b67e3a; stroke:none;" d="M403 370L404 371L403 370z"/>
<path style="fill:#749775; stroke:none;" d="M407 370L408 371L407 370z"/>
<path style="fill:#b67e3a; stroke:none;" d="M420 370L421 371L420 370z"/>
<path style="fill:#2c80c3; stroke:none;" d="M424 370L425 371L424 370z"/>
<path style="fill:#749775; stroke:none;" d="M310.333 494.667L310.667 495.333L310.333 494.667M686.333 494.667L686.667 495.333L686.333 494.667M311 496L312 497L311 496M685 496L686 497L685 496M312.667 497.333L313.333 497.667L312.667 497.333M683.667 497.333L684.333 497.667L683.667 497.333z"/>
<path style="fill:#c2c7cb; stroke:none;" d="M341 528C331.472 532.44 331.181 520.245 341 523C327.771 509.557 332.353 543.666 341 528z"/>
<path style="fill:#2c80c3; stroke:none;" d="M366 520L367 521L366 520z"/>
<path style="fill:#c2c7cb; stroke:none;" d="M367 520C365.322 524.171 364.884 529.334 369 532L367 520M384 520C380.819 525.262 375.344 531.65 386 532L386 520L384 520z"/>
<path style="fill:#749775; stroke:none;" d="M392 520L392 532L393 532L392 520z"/>
<path style="fill:#c2c7cb; stroke:none;" d="M393 520L393 532C403.768 530.873 397.635 524.526 393 520M414 520L414 532C425.374 531.866 425.373 520.134 414 520z"/>
<path style="fill:#749775; stroke:none;" d="M450 520L451 521L450 520z"/>
<path style="fill:#c2c7cb; stroke:none;" d="M451 520L451 521L457 523L451 520M473 520C469.819 525.262 464.344 531.65 475 532L475 520L473 520M502 520L502 532L503 532L507 524L507 532L509 532C508.957 527.215 508.87 522.633 503 524L502 520z"/>
<path style="fill:#b67e3a; stroke:none;" d="M503 520L503 524L504 524L503 520z"/>
<path style="fill:#c2c7cb; stroke:none;" d="M511 520L512 521L511 520z"/>
<path style="fill:#b67e3a; stroke:none;" d="M512 520L513 521L512 520z"/>
<path style="fill:#c2c7cb; stroke:none;" d="M515 520C514.46 523.897 513.41 531.016 518 532L518 531C516.02 528.345 516.02 526.655 518 524L518 523L515 520z"/>
<path style="fill:#b67e3a; stroke:none;" d="M516 520L516 523L517 523L516 520z"/>
<path style="fill:#2c80c3; stroke:none;" d="M537.229 520.936C530.717 523.119 537.891 533.947 542.996 532.654C554.471 529.748 547.579 517.467 537.229 520.936M558 520L558 528L559 528L558 520z"/>
<path style="fill:#c2c7cb; stroke:none;" d="M559 520C559.002 533.803 567.991 533.793 568 520L566 520C565.999 521.801 565.277 534.261 561.174 528.623C559.465 526.274 560.11 522.64 559 520z"/>
<path style="fill:#b67e3a; stroke:none;" d="M560 520L560 529L561 529L560 520z"/>
<path style="fill:#c2c7cb; stroke:none;" d="M632 520L632 532L634 532L634 528L639 532L639 523L634 526L634 520L632 520M651 520C647.758 525.354 641.969 531.638 653 532L653 520L651 520z"/>
<path style="fill:#749775; stroke:none;" d="M664 520L665 521L664 520z"/>
<path style="fill:#b67e3a; stroke:none;" d="M665 520L665 523L666 523L665 520z"/>
<path style="fill:#749775; stroke:none;" d="M332 521L333 522L332 521z"/>
<path style="fill:#b67e3a; stroke:none;" d="M334 521L335 522L334 521z"/>
<path style="fill:#252525; stroke:none;" d="M416 521L416 531C422.85 529.867 422.85 522.133 416 521z"/>
<path style="fill:#c2c7cb; stroke:none;" d="M449 521C447.099 527.449 452.146 536.794 457 528L456 528C450.213 532.914 449.14 525.514 451 521L449 521z"/>
<path style="fill:#749775; stroke:none;" d="M454 521L455 522L454 521z"/>
<path style="fill:#b67e3a; stroke:none;" d="M456 521L457 522L456 521z"/>
<path style="fill:#2c80c3; stroke:none;" d="M514.333 521.667L514.667 522.333L514.333 521.667M663 521L663 531L664 531L663 521z"/>
<path style="fill:#c2c7cb; stroke:none;" d="M664 521C663.387 524.743 662.647 531.067 667 532L667 531C665.02 528.345 665.02 526.655 667 524L667 523L664 521z"/>
<path style="fill:#2c80c3; stroke:none;" d="M331 522L332 523L331 522z"/>
<path style="fill:#b67e3a; stroke:none;" d="M333 522L334 523L333 522z"/>
<path style="fill:#2c80c3; stroke:none;" d="M338 522L339 523L338 522z"/>
<path style="fill:#749775; stroke:none;" d="M339 523L340 524L339 523z"/>
<path style="fill:#c2c7cb; stroke:none;" d="M343 523L343 532L344 532L347 524L343 523z"/>
<path style="fill:#b67e3a; stroke:none;" d="M347 523L348 524L347 523z"/>
<path style="fill:#749775; stroke:none;" d="M349 523L348 525L349 523z"/>
<path style="fill:#c2c7cb; stroke:none;" d="M355 529L349 528L355 528C354.318 524.077 349.072 521.513 348.466 527.04C347.941 531.821 352.904 532.185 355 529z"/>
<path style="fill:#b67e3a; stroke:none;" d="M353 523L354 524L353 523z"/>
<path style="fill:#c2c7cb; stroke:none;" d="M357 526L362 524L357 527C357.728 531.362 359.824 531.863 364 532C363.985 527.623 361.595 518.935 357 526z"/>
<path style="fill:#2c80c3; stroke:none;" d="M371 523L370 525L371 523z"/>
<path style="fill:#c2c7cb; stroke:none;" d="M377 529L372 528L378 528C372.02 511.751 369.077 541.041 377 529z"/>
<path style="fill:#2c80c3; stroke:none;" d="M400 523L401 524L400 523z"/>
<path style="fill:#c2c7cb; stroke:none;" d="M401 523L404 533L401 534L401 535C406.073 533.358 406.897 527.766 408 523L407 523L405 529L404 529L401 523z"/>
<path style="fill:#b67e3a; stroke:none;" d="M402 523L403 524L402 523z"/>
<path style="fill:#749775; stroke:none;" d="M406 523L407 524L406 523z"/>
<path style="fill:#2c80c3; stroke:none;" d="M421.333 523.667L421.667 524.333L421.333 523.667z"/>
<path style="fill:#b67e3a; stroke:none;" d="M423 523L423 528L424 528L423 523z"/>
<path style="fill:#2c80c3; stroke:none;" d="M426 523L425 525L426 523z"/>
<path style="fill:#c2c7cb; stroke:none;" d="M425 526L431 525C423.7 528.755 426.09 531.467 433 532C431.828 527.153 430.659 520.287 425 526z"/>
<path style="fill:#b67e3a; stroke:none;" d="M431 523L432 524L431 523z"/>
<path style="fill:#749775; stroke:none;" d="M434 523L434 532L435 532L434 523z"/>
<path style="fill:#c2c7cb; stroke:none;" d="M435 523L435 532L436 532L437 524L439 524L444 532L446 523L445 523L443 529C440.801 525.177 439.55 523.353 435 523z"/>
<path style="fill:#b67e3a; stroke:none;" d="M440 523L441 524L440 523z"/>
<path style="fill:#2c80c3; stroke:none;" d="M444 523L445 524L444 523z"/>
<path style="fill:#b67e3a; stroke:none;" d="M446 523L447 524L446 523z"/>
<path style="fill:#2c80c3; stroke:none;" d="M447.333 523.667L447.667 524.333L447.333 523.667z"/>
<path style="fill:#b67e3a; stroke:none;" d="M449 523L450 524L449 523z"/>
<path style="fill:#2c80c3; stroke:none;" d="M455 523L456 524L455 523M460 523L459 525L460 523z"/>
<path style="fill:#c2c7cb; stroke:none;" d="M461.303 524.086C457.434 526.331 460.443 533.366 464.567 530.914C468.316 528.684 465.46 521.675 461.303 524.086z"/>
<path style="fill:#749775; stroke:none;" d="M478 523L477 525L478 523z"/>
<path style="fill:#c2c7cb; stroke:none;" d="M484 529L478 528L484 528C483.318 524.077 478.072 521.513 477.466 527.04C476.941 531.821 481.904 532.185 484 529z"/>
<path style="fill:#b67e3a; stroke:none;" d="M482 523L483 524L482 523z"/>
<path style="fill:#749775; stroke:none;" d="M489 523L490 524L489 523z"/>
<path style="fill:#c2c7cb; stroke:none;" d="M490 523L493 532L494 527L496 527L497 532L498 532L501 523L498 529L497 529L495 523L493 529L492 529L490 523z"/>
<path style="fill:#749775; stroke:none;" d="M494 523L495 524L494 523z"/>
<path style="fill:#c2c7cb; stroke:none;" d="M511 523L511 532L512 532L511 523z"/>
<path style="fill:#b67e3a; stroke:none;" d="M512 523L512 532L513 532L512 523z"/>
<path style="fill:#749775; stroke:none;" d="M513 523L514 524L513 523z"/>
<path style="fill:#c2c7cb; stroke:none;" d="M526 529L520 528L526 528C521.539 513.31 515.476 539.623 526 529z"/>
<path style="fill:#b67e3a; stroke:none;" d="M524 523L525 524L524 523z"/>
<path style="fill:#2c80c3; stroke:none;" d="M570 523L569 526L570 526L570 523z"/>
<path style="fill:#c2c7cb; stroke:none;" d="M575 531L570 530L570 531C577.609 532.734 574.023 527.312 571 524L576 525C569.276 520.133 572.395 527.916 575 531z"/>
<path style="fill:#749775; stroke:none;" d="M579 523L578 525L579 523z"/>
<path style="fill:#c2c7cb; stroke:none;" d="M585 529L579 528L585 528C584.318 524.077 579.072 521.513 578.466 527.04C577.942 531.821 582.904 532.185 585 529z"/>
<path style="fill:#b67e3a; stroke:none;" d="M583 523L584 524L583 523z"/>
<path style="fill:#c2c7cb; stroke:none;" d="M587 523L587 532L589 532L591 524L587 523z"/>
<path style="fill:#b67e3a; stroke:none;" d="M591 523L592 524L591 523z"/>
<path style="fill:#749775; stroke:none;" d="M592 523L592 532L593 532L592 523z"/>
<path style="fill:#c2c7cb; stroke:none;" d="M593 523L593 532L594 532L595 524L597 524L598 532L599 532C598.981 526.629 598.836 523.66 593 523z"/>
<path style="fill:#749775; stroke:none;" d="M594 523L595 524L594 523z"/>
<path style="fill:#b67e3a; stroke:none;" d="M598 523L599 524L598 523z"/>
<path style="fill:#2c80c3; stroke:none;" d="M602 523L601 525L602 523z"/>
<path style="fill:#c2c7cb; stroke:none;" d="M601 526L607 525C599.7 528.755 602.09 531.467 609 532C607.828 527.153 606.659 520.287 601 526z"/>
<path style="fill:#b67e3a; stroke:none;" d="M607 523L608 524L607 523z"/>
<path style="fill:#c2c7cb; stroke:none;" d="M610 523L610 532L612 532L612 524L615 524L615 532L616 532L620 524L620 532L621 532C620.968 523.033 617.78 523.598 610 523z"/>
<path style="fill:#b67e3a; stroke:none;" d="M611 523L612 524L611 523M620 523L621 524L620 523z"/>
<path style="fill:#c2c7cb; stroke:none;" d="M631 529L625 528L631 528C626.396 512.839 619.781 540.28 631 529z"/>
<path style="fill:#2c80c3; stroke:none;" d="M636 523L637 524L636 523z"/>
<path style="fill:#c2c7cb; stroke:none;" d="M656.314 524.086C652.358 526.342 655.461 533.322 659.686 530.914C663.642 528.658 660.539 521.678 656.314 524.086z"/>
<path style="fill:#b67e3a; stroke:none;" d="M350 524L351 525L350 524z"/>
<path style="fill:#252525; stroke:none;" d="M351 524L350 527L353 527L351 524z"/>
<path style="fill:#2c80c3; stroke:none;" d="M352 524L353 525L352 524z"/>
<path style="fill:#252525; stroke:none;" d="M359 524L356 528L362 525L359 524z"/>
<path style="fill:#2c80c3; stroke:none;" d="M361 524L362 525L361 524z"/>
<path style="fill:#252525; stroke:none;" d="M373 524L372 525L372 526L372 527L376 527L375 524L373 524M381 524L381 531L383 531L383 524L381 524z"/>
<path style="fill:#749775; stroke:none;" d="M383 524L384 525L383 524z"/>
<path style="fill:#252525; stroke:none;" d="M395 524L395 531L397 531L397 524L395 524z"/>
<path style="fill:#b67e3a; stroke:none;" d="M427 524L428 525L427 524z"/>
<path style="fill:#749775; stroke:none;" d="M444 524L445 525L444 524z"/>
<path style="fill:#252525; stroke:none;" d="M462 524L462 531L464 531L464 524L462 524M470 524L470 531L472 531L472 524L470 524z"/>
<path style="fill:#749775; stroke:none;" d="M472 524L473 525L472 524z"/>
<path style="fill:#b67e3a; stroke:none;" d="M479 524L480 525L479 524z"/>
<path style="fill:#252525; stroke:none;" d="M480 524L479 527L482 527L480 524z"/>
<path style="fill:#2c80c3; stroke:none;" d="M481 524L482 525L481 524M489 524L490 525L489 524z"/>
<path style="fill:#b67e3a; stroke:none;" d="M491 524L492 525L491 524M496.333 524.667L496.667 525.333L496.333 524.667M500 524L501 525L500 524M504 524L505 525L504 524z"/>
<path style="fill:#2c80c3; stroke:none;" d="M506 524L507 525L506 524z"/>
<path style="fill:#b67e3a; stroke:none;" d="M508 524L509 525L508 524z"/>
<path style="fill:#2c80c3; stroke:none;" d="M514 524L514 531L515 531L514 524z"/>
<path style="fill:#b67e3a; stroke:none;" d="M516 524L516 531L517 531L516 524z"/>
<path style="fill:#252525; stroke:none;" d="M520 527L524 527L523 524L520 527z"/>
<path style="fill:#2c80c3; stroke:none;" d="M523 524L524 525L523 524z"/>
<path style="fill:#b67e3a; stroke:none;" d="M525 524L526 525L525 524M571.333 524.667L571.667 525.333L571.333 524.667M580 524L581 525L580 524z"/>
<path style="fill:#252525; stroke:none;" d="M581 524L580 527L583 527L581 524z"/>
<path style="fill:#2c80c3; stroke:none;" d="M582 524L583 525L582 524z"/>
<path style="fill:#b67e3a; stroke:none;" d="M589 524L590 525L589 524M603 524L604 525L603 524M612 524L613 525L612 524z"/>
<path style="fill:#749775; stroke:none;" d="M614 524L615 525L614 524z"/>
<path style="fill:#b67e3a; stroke:none;" d="M617 524L618 525L617 524z"/>
<path style="fill:#749775; stroke:none;" d="M619 524L620 525L619 524z"/>
<path style="fill:#b67e3a; stroke:none;" d="M621 524L621 532L622 532L621 524z"/>
<path style="fill:#252525; stroke:none;" d="M625 527L629 527L628 524L625 527z"/>
<path style="fill:#2c80c3; stroke:none;" d="M635 524L636 525L635 524z"/>
<path style="fill:#252525; stroke:none;" d="M648 524L648 531L650 531L650 524L648 524z"/>
<path style="fill:#2c80c3; stroke:none;" d="M654 524L655 525L654 524z"/>
<path style="fill:#252525; stroke:none;" d="M657 524L657 531L659 531L659 524L657 524z"/>
<path style="fill:#b67e3a; stroke:none;" d="M665 524L665 531L666 531L665 524z"/>
<path style="fill:#749775; stroke:none;" d="M353 525L354 526L353 525z"/>
<path style="fill:#2c80c3; stroke:none;" d="M356 525L357 526L356 525z"/>
<path style="fill:#b67e3a; stroke:none;" d="M358 525L359 526L358 525z"/>
<path style="fill:#2c80c3; stroke:none;" d="M375 525L376 526L375 525z"/>
<path style="fill:#b67e3a; stroke:none;" d="M377 525L378 526L377 525z"/>
<path style="fill:#2c80c3; stroke:none;" d="M378.333 525.667L378.667 526.333L378.333 525.667z"/>
<path style="fill:#b67e3a; stroke:none;" d="M380 525L381 526L380 525M394 525L395 526L394 525z"/>
<path style="fill:#749775; stroke:none;" d="M401 525L402 526L401 525z"/>
<path style="fill:#2c80c3; stroke:none;" d="M405 525L406 526L405 525z"/>
<path style="fill:#b67e3a; stroke:none;" d="M407 525L408 526L407 525z"/>
<path style="fill:#2c80c3; stroke:none;" d="M430 525L431 526L430 525z"/>
<path style="fill:#b67e3a; stroke:none;" d="M432 525L432 531L433 531L432 525z"/>
<path style="fill:#749775; stroke:none;" d="M439 525L440 526L439 525M447.333 525.667L447.667 526.333L447.333 525.667z"/>
<path style="fill:#2c80c3; stroke:none;" d="M464 525L465 526L464 525z"/>
<path style="fill:#b67e3a; stroke:none;" d="M466 525L467 526L466 525z"/>
<path style="fill:#2c80c3; stroke:none;" d="M467.333 525.667L467.667 526.333L467.333 525.667z"/>
<path style="fill:#b67e3a; stroke:none;" d="M469 525L470 526L469 525z"/>
<path style="fill:#749775; stroke:none;" d="M482 525L483 526L482 525z"/>
<path style="fill:#2c80c3; stroke:none;" d="M493.333 525.667L493.667 526.333L493.333 525.667M498 525L499 526L498 525M518 525L519 526L518 525z"/>
<path style="fill:#b67e3a; stroke:none;" d="M520 525L521 526L520 525z"/>
<path style="fill:#749775; stroke:none;" d="M583 525L584 526L583 525z"/>
<path style="fill:#2c80c3; stroke:none;" d="M597 525L597 532L598 532L597 525z"/>
<path style="fill:#b67e3a; stroke:none;" d="M599 525L599 532L600 532L599 525z"/>
<path style="fill:#2c80c3; stroke:none;" d="M606 525L607 526L606 525z"/>
<path style="fill:#b67e3a; stroke:none;" d="M608 525L608 531L609 531L608 525z"/>
<path style="fill:#2c80c3; stroke:none;" d="M614 525L615 526L614 525M619 525L619 532L620 532L619 525z"/>
<path style="fill:#749775; stroke:none;" d="M623 525L624 526L623 525z"/>
<path style="fill:#2c80c3; stroke:none;" d="M645 525L646 526L645 525z"/>
<path style="fill:#b67e3a; stroke:none;" d="M647 525L648 526L647 525M344 526L344 532L345 532L344 526z"/>
<path style="fill:#2c80c3; stroke:none;" d="M347 526L347 530L348 530L347 526z"/>
<path style="fill:#b67e3a; stroke:none;" d="M349 526L350 527L349 526z"/>
<path style="fill:#2c80c3; stroke:none;" d="M353 526L354 527L353 526z"/>
<path style="fill:#b67e3a; stroke:none;" d="M355.333 526.667L355.667 527.333L355.333 526.667z"/>
<path style="fill:#2c80c3; stroke:none;" d="M359 526L360 527L359 526M401 526L402 527L401 526z"/>
<path style="fill:#b67e3a; stroke:none;" d="M403 526L404 527L403 526z"/>
<path style="fill:#749775; stroke:none;" d="M405 526L406 527L405 526z"/>
<path style="fill:#2c80c3; stroke:none;" d="M439 526L440 527L439 526z"/>
<path style="fill:#b67e3a; stroke:none;" d="M441 526L442 527L441 526z"/>
<path style="fill:#2c80c3; stroke:none;" d="M443 526L444 527L443 526z"/>
<path style="fill:#b67e3a; stroke:none;" d="M445 526L446 527L445 526z"/>
<path style="fill:#2c80c3; stroke:none;" d="M476 526L476 530L477 530L476 526z"/>
<path style="fill:#b67e3a; stroke:none;" d="M478 526L479 527L478 526z"/>
<path style="fill:#2c80c3; stroke:none;" d="M482 526L483 527L482 526z"/>
<path style="fill:#b67e3a; stroke:none;" d="M484.333 526.667L484.667 527.333L484.333 526.667M503 526L503 532L504 532L503 526z"/>
<path style="fill:#749775; stroke:none;" d="M518 526L518 529L519 529L518 526z"/>
<path style="fill:#2c80c3; stroke:none;" d="M524 526L525 527L524 526M577 526L577 530L578 530L577 526z"/>
<path style="fill:#b67e3a; stroke:none;" d="M579 526L580 527L579 526z"/>
<path style="fill:#2c80c3; stroke:none;" d="M583 526L584 527L583 526z"/>
<path style="fill:#b67e3a; stroke:none;" d="M585.333 526.667L585.667 527.333L585.333 526.667M616 526L616 532L617 532L616 526z"/>
<path style="fill:#749775; stroke:none;" d="M645 526L646 527L645 526z"/>
<path style="fill:#252525; stroke:none;" d="M361 527L358 529L358 530L361 531L361 527z"/>
<path style="fill:#749775; stroke:none;" d="M378 527L379 528L378 527M384 527L385 528L384 527z"/>
<path style="fill:#2c80c3; stroke:none;" d="M421.333 527.667L421.667 528.333L421.333 527.667M425 527L426 528L425 527z"/>
<path style="fill:#b67e3a; stroke:none;" d="M429 527L430 528L429 527z"/>
<path style="fill:#2c80c3; stroke:none;" d="M430.333 527.667L430.667 528.333L430.333 527.667M447.333 527.667L447.667 528.333L447.333 527.667z"/>
<path style="fill:#b67e3a; stroke:none;" d="M460 527L461 528L460 527z"/>
<path style="fill:#749775; stroke:none;" d="M467 527L468 528L467 527M473 527L474 528L473 527z"/>
<path style="fill:#2c80c3; stroke:none;" d="M490.333 527.667L490.667 528.333L490.333 527.667z"/>
<path style="fill:#b67e3a; stroke:none;" d="M494.333 527.667L494.667 528.333L494.333 527.667z"/>
<path style="fill:#2c80c3; stroke:none;" d="M495.333 527.667L495.667 528.333L495.333 527.667z"/>
<path style="fill:#b67e3a; stroke:none;" d="M499.333 527.667L499.667 528.333L499.333 527.667M575 527L576 528L575 527z"/>
<path style="fill:#2c80c3; stroke:none;" d="M601 527L602 528L601 527z"/>
<path style="fill:#b67e3a; stroke:none;" d="M605 527L606 528L605 527z"/>
<path style="fill:#2c80c3; stroke:none;" d="M606.333 527.667L606.667 528.333L606.333 527.667z"/>
<path style="fill:#b67e3a; stroke:none;" d="M349.333 528.667L349.667 529.333L349.333 528.667z"/>
<path style="fill:#2c80c3; stroke:none;" d="M356 528L357 529L356 528z"/>
<path style="fill:#b67e3a; stroke:none;" d="M358 528L359 529L358 528z"/>
<path style="fill:#252525; stroke:none;" d="M372 528L373 531L378 529L372 528z"/>
<path style="fill:#2c80c3; stroke:none;" d="M378.333 528.667L378.667 529.333L378.333 528.667M402 528L403 529L402 528z"/>
<path style="fill:#b67e3a; stroke:none;" d="M404 528L405 529L404 528M406 528L407 529L406 528z"/>
<path style="fill:#252525; stroke:none;" d="M427 531L430 528L427 531z"/>
<path style="fill:#749775; stroke:none;" d="M440 528L441 529L440 528z"/>
<path style="fill:#b67e3a; stroke:none;" d="M449 528L450 529L449 528z"/>
<path style="fill:#2c80c3; stroke:none;" d="M455 528L456 529L455 528z"/>
<path style="fill:#b67e3a; stroke:none;" d="M457 528L458 529L457 528z"/>
<path style="fill:#2c80c3; stroke:none;" d="M467.333 528.667L467.667 529.333L467.333 528.667z"/>
<path style="fill:#b67e3a; stroke:none;" d="M478.333 528.667L478.667 529.333L478.333 528.667M492 528L493 529L492 528z"/>
<path style="fill:#749775; stroke:none;" d="M497 528L498 529L497 528z"/>
<path style="fill:#b67e3a; stroke:none;" d="M576.333 528.667L576.667 529.333L576.333 528.667M579.333 528.667L579.667 529.333L579.333 528.667z"/>
<path style="fill:#252525; stroke:none;" d="M603 531L606 528L603 531z"/>
<path style="fill:#749775; stroke:none;" d="M635 528L636 529L635 528z"/>
<path style="fill:#b67e3a; stroke:none;" d="M637 528L638 529L637 528z"/>
<path style="fill:#2c80c3; stroke:none;" d="M639 528L640 529L639 528z"/>
<path style="fill:#c2c7cb; stroke:none;" d="M640 528L640 529L644 529L640 528z"/>
<path style="fill:#b67e3a; stroke:none;" d="M644 528L645 529L644 528z"/>
<path style="fill:#749775; stroke:none;" d="M645 528L646 529L645 528z"/>
<path style="fill:#2c80c3; stroke:none;" d="M331 529L332 530L331 529z"/>
<path style="fill:#b67e3a; stroke:none;" d="M333 529L334 530L333 529z"/>
<path style="fill:#2c80c3; stroke:none;" d="M338 529L339 530L338 529M353 529L354 530L353 529z"/>
<path style="fill:#749775; stroke:none;" d="M356 529L357 530L356 529z"/>
<path style="fill:#2c80c3; stroke:none;" d="M361 529L362 530L361 529z"/>
<path style="fill:#b67e3a; stroke:none;" d="M377 529L378 530L377 529M380 529L381 530L380 529M426 529L427 530L426 529z"/>
<path style="fill:#2c80c3; stroke:none;" d="M440 529L441 530L440 529z"/>
<path style="fill:#b67e3a; stroke:none;" d="M444 529L445 530L444 529z"/>
<path style="fill:#2c80c3; stroke:none;" d="M464 529L465 530L464 529z"/>
<path style="fill:#b67e3a; stroke:none;" d="M466 529L467 530L466 529M469 529L470 530L469 529z"/>
<path style="fill:#2c80c3; stroke:none;" d="M482 529L483 530L482 529M518 529L519 530L518 529z"/>
<path style="fill:#b67e3a; stroke:none;" d="M520 529L521 530L520 529z"/>
<path style="fill:#749775; stroke:none;" d="M524 529L525 530L524 529z"/>
<path style="fill:#b67e3a; stroke:none;" d="M567 529L568 530L567 529z"/>
<path style="fill:#2c80c3; stroke:none;" d="M583 529L584 530L583 529z"/>
<path style="fill:#b67e3a; stroke:none;" d="M602 529L603 530L602 529z"/>
<path style="fill:#2c80c3; stroke:none;" d="M645 529L646 530L645 529z"/>
<path style="fill:#b67e3a; stroke:none;" d="M647 529L648 530L647 529z"/>
<path style="fill:#749775; stroke:none;" d="M332 530L333 531L332 530z"/>
<path style="fill:#b67e3a; stroke:none;" d="M334 530L335 531L334 530z"/>
<path style="fill:#749775; stroke:none;" d="M348 530L349 531L348 530z"/>
<path style="fill:#b67e3a; stroke:none;" d="M350 530L351 531L350 530z"/>
<path style="fill:#2c80c3; stroke:none;" d="M356 530L357 531L356 530z"/>
<path style="fill:#b67e3a; stroke:none;" d="M358 530L359 531L358 530z"/>
<path style="fill:#2c80c3; stroke:none;" d="M370 530L371 531L370 530z"/>
<path style="fill:#749775; stroke:none;" d="M383 530L384 531L383 530z"/>
<path style="fill:#2c80c3; stroke:none;" d="M429 530L430 531L429 530z"/>
<path style="fill:#749775; stroke:none;" d="M454 530L455 531L454 530z"/>
<path style="fill:#b67e3a; stroke:none;" d="M456 530L457 531L456 530z"/>
<path style="fill:#2c80c3; stroke:none;" d="M459 530L460 531L459 530z"/>
<path style="fill:#749775; stroke:none;" d="M472 530L473 531L472 530M477 530L478 531L477 530z"/>
<path style="fill:#b67e3a; stroke:none;" d="M479 530L480 531L479 530z"/>
<path style="fill:#749775; stroke:none;" d="M491 530L492 531L491 530z"/>
<path style="fill:#2c80c3; stroke:none;" d="M523 530L524 531L523 530z"/>
<path style="fill:#b67e3a; stroke:none;" d="M525 530L526 531L525 530z"/>
<path style="fill:#2c80c3; stroke:none;" d="M559 530L560 531L559 530z"/>
<path style="fill:#b67e3a; stroke:none;" d="M561 530L562 531L561 530z"/>
<path style="fill:#2c80c3; stroke:none;" d="M569 530L570 531L569 530z"/>
<path style="fill:#b67e3a; stroke:none;" d="M571 530L572 531L571 530z"/>
<path style="fill:#749775; stroke:none;" d="M574 530L575 531L574 530M578 530L579 531L578 530z"/>
<path style="fill:#b67e3a; stroke:none;" d="M580 530L581 531L580 530z"/>
<path style="fill:#2c80c3; stroke:none;" d="M605 530L606 531L605 530z"/>
<path style="fill:#749775; stroke:none;" d="M628 530L629 531L628 530z"/>
<path style="fill:#2c80c3; stroke:none;" d="M636 530L637 531L636 530z"/>
<path style="fill:#b67e3a; stroke:none;" d="M638 530L639 531L638 530z"/>
<path style="fill:#2c80c3; stroke:none;" d="M654 530L655 531L654 530M333 531L334 532L333 531z"/>
<path style="fill:#749775; stroke:none;" d="M349 531L350 532L349 531M357 531L358 532L357 531z"/>
<path style="fill:#2c80c3; stroke:none;" d="M366 531L367 532L366 531z"/>
<path style="fill:#b67e3a; stroke:none;" d="M369 531L370 532L369 531z"/>
<path style="fill:#2c80c3; stroke:none;" d="M371 531L372 532L371 531z"/>
<path style="fill:#749775; stroke:none;" d="M394 531L395 532L394 531z"/>
<path style="fill:#2c80c3; stroke:none;" d="M403 531L404 532L403 531z"/>
<path style="fill:#b67e3a; stroke:none;" d="M405 531L406 532L405 531M430 531L431 532L430 531z"/>
<path style="fill:#749775; stroke:none;" d="M441 531L442 532L441 531z"/>
<path style="fill:#2c80c3; stroke:none;" d="M460 531L461 532L460 531z"/>
<path style="fill:#749775; stroke:none;" d="M478 531L479 532L478 531z"/>
<path style="fill:#2c80c3; stroke:none;" d="M491 531L492 532L491 531z"/>
<path style="fill:#b67e3a; stroke:none;" d="M493 531L494 532L493 531z"/>
<path style="fill:#749775; stroke:none;" d="M496 531L497 532L496 531z"/>
<path style="fill:#b67e3a; stroke:none;" d="M498 531L499 532L498 531M524 531L525 532L524 531z"/>
<path style="fill:#2c80c3; stroke:none;" d="M560 531L561 532L560 531M570 531L571 532L570 531z"/>
<path style="fill:#b67e3a; stroke:none;" d="M575 531L576 532L575 531z"/>
<path style="fill:#749775; stroke:none;" d="M579 531L580 532L579 531z"/>
<path style="fill:#b67e3a; stroke:none;" d="M606 531L607 532L606 531z"/>
<path style="fill:#749775; stroke:none;" d="M403 532L404 533L403 532M745 589L745 590L748 590L745 589M971 589L971 590L974 590L971 589M976.333 589.667L976.667 590.333L976.333 589.667z"/>
<path style="fill:#2c80c3; stroke:none;" d="M977 589L978 590L977 589z"/>
<path style="fill:#749775; stroke:none;" d="M983 589L984 590L983 589M987.333 589.667L987.667 590.333L987.333 589.667z"/>
<path style="fill:#2c80c3; stroke:none;" d="M988 589L989 590L988 589z"/>
<path style="fill:#749775; stroke:none;" d="M992 589L992 590L998 590L992 589z"/>
<path style="fill:#2c80c3; stroke:none;" d="M999 589L1000 590L999 589z"/>
<path style="fill:#749775; stroke:none;" d="M1000.67 589.333L1001.33 589.667L1000.67 589.333z"/>
<path style="fill:#2c80c3; stroke:none;" d="M1002 589L1003 590L1002 589z"/>
<path style="fill:#749775; stroke:none;" d="M1004 589L1004 590L1016 590L1004 589z"/>
<path style="fill:#2c80c3; stroke:none;" d="M0 595L0 597L31 597L31 595L0 595M40 595L40 597L168 597L168 595L40 595M176 595L176 597L304 597L304 595L176 595M308 595L308 597L444 597L444 595L308 595M449 595L449 597L577 597L577 595L449 595M585 595L585 597L713 597L713 595L585 595M722 595L722 597L850 597L850 595L722 595z"/>
<path style="fill:#c2c7cb; stroke:none;" d="M0 597L0 616L50 616C50.9727 609.949 55.7136 610.187 61 610L61 616L62 616L62 610L73 610L73 616L96.8302 615.683L107 610.442L120.015 615.941L182 616L182 610L206 610L206 616C212.165 616 219.855 617.252 225.83 615.686C230.286 614.518 232.926 609.972 238 610.329C242.157 610.622 244.605 614.103 248.285 615.437C253.336 617.267 262.674 616.652 267.96 615.856C273.403 615.036 276.047 609.208 282 609.21C287.816 609.212 289.157 615.001 294.108 615.852C302.261 617.253 310.872 615.264 319 615.186C335.763 615.025 349.999 617.251 366 612L362 615L362 616L407 616L423 614L424 614C428.25 618.864 444.714 616 451 616C477.332 616 504.791 618.221 531 615.941C538.843 615.259 565.149 592.443 562 616L581 616C581.76 606.035 598.24 606.035 599 616C612.699 616 630.188 618.429 643 613C644.04 617.853 651.912 616 656 616L695 616L865 616L865 610L870 610L870 611L867 612L870 613L870 614L867 616L875 616L875 615L871 613L871 611L876 610L876 611L873 611L878 616L878 610L883 610L883 614L882 614L879 611L882 614L882 615L879 615L879 616L914 614L914 615L905 615L905 616L915 616L915 613L920 613L920 616L941 614C946.442 618.122 957.353 616 964 616L964 610L969 609L970 616L974 616C973.11 609.067 979.146 609.052 978 616L990 614L991 614L993 616L993 613L993 612L990 612L990 611L995 616L1002 616L1002 611L1011 611L1011 616L1020 616L1020 597L0 597z"/>
<path style="fill:#749775; stroke:none;" d="M552 604L553 605L552 604z"/>
<path style="fill:#2c80c3; stroke:none;" d="M553 616L553 615C548.512 607.015 561.488 607.015 557 615C564.846 618.035 563.042 605.45 555.985 604.499C548.082 603.434 543.358 615.231 553 616z"/>
<path style="fill:#749775; stroke:none;" d="M557 604L558 605L557 604M550 605L551 606L550 605M548 607L549 608L548 607z"/>
<path style="fill:#c2c7cb; stroke:none;" d="M551 615L559 615C557.781 606.213 552.219 606.213 551 615z"/>
<path style="fill:#2c80c3; stroke:none;" d="M554 608L553 614L557 614L556 608L554 608z"/>
<path style="fill:#749775; stroke:none;" d="M278 609L279 610L278 609z"/>
<path style="fill:#2c80c3; stroke:none;" d="M272 616L286 616C284.474 606.505 275.557 608.768 272 616z"/>
<path style="fill:#749775; stroke:none;" d="M284 609L286 616L291 616C289.855 611.841 288.106 610.257 284 609M535 616L547 612L547 609C541.541 609.495 538.213 611.574 535 616M581 616L594 616L594 615L591 615L591 614L597 611L596 616C598.738 615.413 600.625 611.949 597.667 609.722C591.58 605.141 581.03 608.832 581 616z"/>
<path style="fill:#2c80c3; stroke:none;" d="M627 609L627 612L629 612L629 609L627 609M631 609L631 612L633 612L633 609L631 609M635 609L635 612L637 612L637 609L635 609M639 609L639 612L641 612L641 609L639 609z"/>
<path style="fill:#252525; stroke:none;" d="M965 609L965 610L968 611L965 612L965 613L969 614L969 610L965 609z"/>
<path style="fill:#749775; stroke:none;" d="M968 609L969 610L968 609M974 609L975 610L974 609z"/>
<path style="fill:#252525; stroke:none;" d="M974 610L974 611L978 611L974 610z"/>
<path style="fill:#749775; stroke:none;" d="M977 609L978 610L977 609M980.333 609.667L980.667 610.333L980.333 609.667z"/>
<path style="fill:#252525; stroke:none;" d="M981 609L981 610L984 612L985 612L981 609z"/>
<path style="fill:#749775; stroke:none;" d="M50 616L61 611C55.6851 608.803 50.4781 609.814 50 616z"/>
<path style="fill:#2c80c3; stroke:none;" d="M62 610L62 616L73 616C72.4719 609.222 67.6564 610.001 62 610z"/>
<path style="fill:#749775; stroke:none;" d="M72 610L73 611L72 610M104.667 610.333L105.333 610.667L104.667 610.333z"/>
<path style="fill:#2c80c3; stroke:none;" d="M106 610L107 611L106 610z"/>
<path style="fill:#252525; stroke:none;" d="M99 616C106.224 613.028 107.959 612.443 115 616C111.146 608.633 103.484 610.097 99 616z"/>
<path style="fill:#749775; stroke:none;" d="M108.667 610.333L109.333 610.667L108.667 610.333M182 610L183 611L182 610z"/>
<path style="fill:#2c80c3; stroke:none;" d="M182 616L184 616L184 612L193 612L193 616L195 616L195 612L204 612L204 616L206 616L206 610C198.813 610 182.745 606.439 182 616z"/>
<path style="fill:#749775; stroke:none;" d="M228 616L247 616C242.829 608.403 232.047 608.216 228 616M276 610L277 611L276 610M562 610L563 611L562 610z"/>
<path style="fill:#252525; stroke:none;" d="M865 610L865 616L866 616L869 614L869 613L866 611L870 611L865 610z"/>
<path style="fill:#749775; stroke:none;" d="M872 610L871 613L872 610z"/>
<path style="fill:#252525; stroke:none;" d="M873 610L873 611L876 611L873 610M878 610L878 616L882 615L882 614L879 611L882 614C882.688 610.955 880.758 610.451 878 610z"/>
<path style="fill:#749775; stroke:none;" d="M882 610L883 611L882 610M964 610L964 612L966 612L966 610L964 610z"/>
<path style="fill:#c2c7cb; stroke:none;" d="M966 610L966 612L968 612L968 610L966 610z"/>
<path style="fill:#252525; stroke:none;" d="M971 610L972 611L971 610z"/>
<path style="fill:#c2c7cb; stroke:none;" d="M975 610L975 616L977 616L977 610L975 610z"/>
<path style="fill:#749775; stroke:none;" d="M978 610L977 612L979 612L978 610M983 610L984 611L983 610z"/>
<path style="fill:#2c80c3; stroke:none;" d="M52 616L61 616L61 611C56.5225 611.148 54.5186 612.277 52 616z"/>
<path style="fill:#749775; stroke:none;" d="M102 611L103 612L102 611z"/>
<path style="fill:#2c80c3; stroke:none;" d="M111 611L112 612L111 611z"/>
<path style="fill:#749775; stroke:none;" d="M274 611L275 612L274 611M407 611L408 612L407 611M419 611L420 612L419 611z"/>
<path style="fill:#b67e3a; stroke:none;" d="M446 611L446 615L456 614L456 612L446 611M493 611L492 612L492 613L492 614L495 611L493 611M496 611L496 614L499 614L499 611L496 611M500 611L503 614L502 611L500 611z"/>
<path style="fill:#c2c7cb; stroke:none;" d="M583 611L584 615L591 612L583 611z"/>
<path style="fill:#2c80c3; stroke:none;" d="M596 611L591 614L591 615L596 616L596 611z"/>
<path style="fill:#749775; stroke:none;" d="M866.333 611.667L866.667 612.333L866.333 611.667M971 611L972 612L971 611M973.667 611.333L974.333 611.667L973.667 611.333M990 611L991 612L990 611z"/>
<path style="fill:#252525; stroke:none;" d="M991 611L991 612L994 612L991 611z"/>
<path style="fill:#749775; stroke:none;" d="M1002 611L1004 616L1004 611L1002 611z"/>
<path style="fill:#252525; stroke:none;" d="M1003 612L1003 613L1006 612L1006 616L1007 616L1010 612L1010 616L1011 616L1010 611L1003 612z"/>
<path style="fill:#749775; stroke:none;" d="M1007 611L1008 612L1007 611M1010 611L1011 612L1010 611M101 612L102 613L101 612M105.667 612.333L106.333 612.667L105.667 612.333z"/>
<path style="fill:#c2c7cb; stroke:none;" d="M102 616L113 616C109.371 612.116 105.629 612.116 102 616z"/>
<path style="fill:#749775; stroke:none;" d="M108.667 612.333L109.333 612.667L108.667 612.333M113 612L114 613L113 612z"/>
<path style="fill:#c2c7cb; stroke:none;" d="M184 612L184 616L193 616L193 612L184 612z"/>
<path style="fill:#749775; stroke:none;" d="M195 612L196 613L195 612z"/>
<path style="fill:#c2c7cb; stroke:none;" d="M195 616L204 616C202.34 611 196.66 611 195 616z"/>
<path style="fill:#749775; stroke:none;" d="M203 612L204 613L203 612z"/>
<path style="fill:#b67e3a; stroke:none;" d="M359 616L366 612L359 616z"/>
<path style="fill:#c2c7cb; stroke:none;" d="M538 616L548 616L547 612L538 616z"/>
<path style="fill:#749775; stroke:none;" d="M968 612L969 613L968 612z"/>
<path style="fill:#252525; stroke:none;" d="M973.333 612.667L973.667 613.333L973.333 612.667M978.333 612.667L978.667 613.333L978.333 612.667z"/>
<path style="fill:#749775; stroke:none;" d="M982 614L985 612L982 614M993 612L994 616L995 616L993 612z"/>
<path style="fill:#c2c7cb; stroke:none;" d="M1004 612L1004 616L1006 616L1006 612L1004 612M1008 612L1007 616L1010 612L1008 612z"/>
<path style="fill:#749775; stroke:none;" d="M100 613L101 614L100 613M103 613L104 614L103 613M111 613L112 614L111 613M114 613L115 614L114 613M272 613L273 614L272 613M404 613L405 614L404 613M422 613L423 614L422 613M552 613L553 614L552 613M557 613L558 614L557 613M641 613L640 614L640 615L640 616L643 613L641 613M869 613L870 614L869 613z"/>
<path style="fill:#252525; stroke:none;" d="M872 613L872 614L876 615L876 614L872 613z"/>
<path style="fill:#749775; stroke:none;" d="M874 613L875 614L874 613M915 613L916 614L915 613z"/>
<path style="fill:#252525; stroke:none;" d="M915 616L920 616C918.228 613.318 916.772 613.318 915 616z"/>
<path style="fill:#749775; stroke:none;" d="M919 613L920 614L919 613M964.667 613.333L965.333 613.667L964.667 613.333z"/>
<path style="fill:#c2c7cb; stroke:none;" d="M965 614L965 615L968 616L968 613L965 614z"/>
<path style="fill:#749775; stroke:none;" d="M991 613L992 614L991 613z"/>
<path style="fill:#252525; stroke:none;" d="M992.667 613.333L993.333 613.667L992.667 613.333z"/>
<path style="fill:#749775; stroke:none;" d="M1007 613L1008 614L1007 613M99 614L100 615L99 614M102 614L103 615L102 614M112 614L113 615L112 614z"/>
<path style="fill:#b67e3a; stroke:none;" d="M316 615L316 616L322 616L316 615z"/>
<path style="fill:#749775; stroke:none;" d="M416 614L417 615L416 614M423.333 614.667L423.667 615.333L423.333 614.667M547 614L548 615L547 614M866.333 614.667L866.667 615.333L866.333 614.667M904 614L905 615L904 614z"/>
<path style="fill:#252525; stroke:none;" d="M905 614L905 615L914 615L905 614z"/>
<path style="fill:#c2c7cb; stroke:none;" d="M916 614L916 615L919 615L916 614z"/>
<path style="fill:#749775; stroke:none;" d="M940.333 614.667L940.667 615.333L940.333 614.667z"/>
<path style="fill:#252525; stroke:none;" d="M964.333 614.667L964.667 615.333L964.333 614.667z"/>
<path style="fill:#749775; stroke:none;" d="M968 614L970 616L970 614L968 614M973.667 614.333L974.333 614.667L973.667 614.333M977.667 614.333L978.333 614.667L977.667 614.333z"/>
<path style="fill:#252525; stroke:none;" d="M981 614L982 615L981 614M990.333 614.667L990.667 615.333L990.333 614.667z"/>
<path style="fill:#749775; stroke:none;" d="M101 615L102 616L101 615M115 615L116 616L115 615M271 615L272 616L271 615z"/>
<path style="fill:#b67e3a; stroke:none;" d="M324 615L324 616L328 616L324 615M369 615L370 616L369 615M492 615L492 616L495 616L492 615z"/>
<path style="fill:#749775; stroke:none;" d="M503.667 615.333L504.333 615.667L503.667 615.333M554.667 615.333L555.333 615.667L554.667 615.333z"/>
<path style="fill:#2c80c3; stroke:none;" d="M628 615L628 616L640 616L628 615z"/>
<path style="fill:#749775; stroke:none;" d="M875.667 615.333L876.333 615.667L875.667 615.333z"/>
<path style="fill:#252525; stroke:none;" d="M904 615L905 616L904 615z"/>
<path style="fill:#749775; stroke:none;" d="M934 615L935 616L934 615z"/>
<path style="fill:#252525; stroke:none;" d="M941 615L942 616L941 615z"/>
<path style="fill:#749775; stroke:none;" d="M965 615L966 616L965 615z"/>
<path style="fill:#252525; stroke:none;" d="M968 615L969 616L968 615M971 615L972 616L971 615M974 615L975 616L974 615M977 615L978 616L977 615M980 615L981 616L980 615M993 615L994 616L993 615z"/>
<path style="fill:#749775; stroke:none;" d="M1013 615L1014 616L1013 615z"/>
</svg>
