<svg version="1.1" id="Layer_1" xmlns="http://www.w3.org/2000/svg" xmlns:xlink="http://www.w3.org/1999/xlink" x="0px" y="0px"
	 width="100%" viewBox="0 0 275 78" enable-background="new 0 0 275 78" xml:space="preserve">
<path fill="#FEFEFC" opacity="1.000000" stroke="none" 
	d="
M229.000000,79.000000 
	C152.666687,79.000000 76.833389,79.000000 1.000061,79.000000 
	C1.000041,53.000038 1.000041,27.000072 1.000020,1.000082 
	C92.666595,1.000055 184.333191,1.000055 275.999817,1.000027 
	C275.999878,26.999922 275.999878,52.999844 275.999939,78.999878 
	C260.500000,79.000000 245.000000,79.000000 229.000000,79.000000 
M216.318756,33.888023 
	C216.416962,35.279991 216.515182,36.671955 216.333786,38.874966 
	C216.235794,40.588169 216.137802,42.301373 215.697739,44.635334 
	C213.666138,47.601803 211.634537,50.568272 208.869385,53.574158 
	C207.908554,53.754292 206.947739,53.934425 205.276596,53.945309 
	C203.250946,53.123100 201.225311,52.300892 198.832794,50.834122 
	C197.995422,48.277210 196.649323,45.764015 196.425064,43.154415 
	C195.936844,37.473106 196.020370,31.742666 195.874786,25.341131 
	C193.911865,23.958803 191.948944,22.576475 189.145523,20.985239 
	C186.792603,20.767498 184.968765,20.831713 185.058075,24.169701 
	C185.257721,31.632978 184.864700,39.117786 185.224564,46.569122 
	C185.467209,51.593399 186.831482,56.440903 192.198410,59.544991 
	C192.685532,59.770885 193.172653,59.996784 194.124588,60.788223 
	C195.755112,61.214336 197.385651,61.640453 199.699738,62.437290 
	C201.778870,62.684662 203.858017,62.932030 206.569550,63.481979 
	C219.948242,63.712482 226.980667,53.110859 226.338226,39.245922 
	C226.311249,38.813965 226.284271,38.382011 226.595810,37.147579 
	C226.588120,35.705803 226.580429,34.264023 226.756134,32.019775 
	C226.698135,30.636442 226.640137,29.253111 226.840057,27.185898 
	C226.234161,25.115561 225.628250,23.045225 224.439102,20.706203 
	C217.046432,21.270065 215.510162,23.664511 216.318756,33.888023 
M254.295975,51.675983 
	C252.718903,55.960663 248.928894,55.932041 245.580978,55.457150 
	C241.416977,54.866493 237.380646,53.375793 232.828796,52.149803 
	C231.941513,54.080338 230.949692,56.238327 229.800079,58.739632 
	C238.740494,63.868450 247.648621,65.132187 256.786743,61.360508 
	C261.024811,59.611290 264.191406,56.297947 263.867493,50.208435 
	C264.187836,45.321926 261.488647,42.279881 257.365570,40.580975 
	C253.851669,39.133072 249.980148,38.555744 246.459366,37.120846 
	C244.143372,36.176952 242.169266,34.394241 240.276993,32.314137 
	C242.456650,30.915127 244.605972,28.415508 246.822525,28.354401 
	C250.980072,28.239779 255.176529,29.535995 259.689667,30.301924 
	C260.408478,28.291771 261.218506,26.026655 262.152008,23.416246 
	C253.788834,19.624487 245.795258,18.713331 237.707184,22.305182 
	C233.242508,24.287916 230.871429,27.943209 230.971695,33.780170 
	C231.195770,38.615131 233.693192,41.853630 238.159485,43.433792 
	C241.878235,44.749462 245.811829,45.496712 249.450348,46.984604 
	C251.403946,47.783485 252.936478,49.612061 254.295975,51.675983 
M165.705063,51.580585 
	C177.753082,50.239002 182.930527,44.829189 182.165436,34.381500 
	C181.549072,25.964848 174.819870,20.850254 164.061722,21.129622 
	C158.474075,21.129622 152.886414,21.129622 147.309448,21.129622 
	C147.309448,35.457817 147.309448,49.121670 147.309448,62.618599 
	C150.481552,62.618599 153.203995,62.618599 156.504059,62.618599 
	C156.504059,58.798790 156.504059,55.415878 156.504059,52.017162 
	C159.711609,51.752811 162.337234,51.536415 165.705063,51.580585 
M142.755417,21.189928 
	C137.733673,19.780609 134.520218,21.338467 132.112717,26.247032 
	C128.787521,33.026630 124.648743,39.407181 120.446411,46.670780 
	C116.194664,39.427582 112.071762,33.037716 108.618423,26.304438 
	C106.199455,21.587975 103.115128,19.620497 97.352501,21.681843 
	C97.352501,35.224003 97.352501,48.766163 97.352501,62.485970 
	C100.461899,62.485970 103.146446,62.485970 106.125549,62.485970 
	C106.125549,54.474052 106.125549,46.860161 106.715973,39.504890 
	C109.904228,44.748875 113.059349,50.013378 116.291031,55.230465 
	C118.968353,59.552616 121.783188,59.459553 124.389481,55.011215 
	C126.489067,51.427700 128.445465,47.754856 130.674866,44.255081 
	C131.833603,42.436096 133.445786,40.905979 134.703461,40.136299 
	C134.703461,47.521656 134.703461,54.907013 134.703461,62.392044 
	C137.930771,62.392044 140.345749,62.392044 143.144760,62.392044 
	C143.144760,48.716125 143.144760,35.330254 142.755417,21.189928 
M28.875830,63.226559 
	C35.499130,63.340557 41.174915,61.463219 45.475395,55.696655 
	C43.316261,53.735569 41.506866,52.092140 39.769814,50.514416 
	C31.549662,56.322701 24.712423,56.459145 19.650331,51.164101 
	C15.553607,46.878860 15.076368,38.421440 18.653906,33.505913 
	C23.106733,27.387756 29.042049,27.047352 39.804539,32.266365 
	C41.569904,30.594524 43.319073,28.938028 45.036030,27.312037 
	C39.064217,20.157900 28.500019,18.130930 19.292114,21.831738 
	C12.706025,24.478792 5.227509,32.898094 6.786320,43.840256 
	C7.938606,55.668800 16.177670,63.131245 28.875830,63.226559 
M81.253960,54.631428 
	C85.055824,63.669586 86.379875,64.419609 94.212486,61.578728 
	C88.470039,48.704781 82.739166,35.856781 76.876884,22.181664 
	C71.352463,19.107050 67.103661,20.270626 64.772591,25.522535 
	C62.889324,29.765568 61.013878,34.012390 59.177547,38.275867 
	C55.790356,46.140045 52.434422,54.017685 48.775169,62.568024 
	C52.934925,62.001736 57.837532,65.084488 59.307365,60.182438 
	C61.154465,54.022190 64.828873,53.330647 70.055359,53.775688 
	C73.681755,54.084484 77.349869,53.903320 81.253960,54.631428 
z"/>
<path fill="#F9C41D" opacity="1.000000" stroke="none" 
	d="
M80.999344,53.941063 
	C77.349869,53.903320 73.681755,54.084484 70.055359,53.775688 
	C64.828873,53.330647 61.154465,54.022190 59.307365,60.182438 
	C57.837532,65.084488 52.934925,62.001736 48.775169,62.568024 
	C52.434422,54.017685 55.790356,46.140045 59.177547,38.275867 
	C61.013878,34.012390 62.889324,29.765568 64.772591,25.522535 
	C67.103661,20.270626 71.352463,19.107050 76.941818,23.024326 
	C78.337616,33.891682 79.668480,43.916370 80.999344,53.941063 
M72.740860,33.175625 
	C72.398201,32.622768 72.055542,32.069912 71.336281,30.909445 
	C69.298477,36.119877 67.456520,40.829552 65.504547,45.820534 
	C69.992409,45.820534 73.492775,45.820534 77.614853,45.820534 
	C75.934639,41.453686 74.470314,37.647919 72.740860,33.175625 
z"/>
<path fill="#F4A922" opacity="1.000000" stroke="none" 
	d="
M6.913850,43.013512 
	C5.227509,32.898094 12.706025,24.478792 19.292114,21.831738 
	C28.500019,18.130930 39.064217,20.157900 45.036030,27.312037 
	C43.319073,28.938028 41.569904,30.594524 39.804539,32.266365 
	C29.042049,27.047352 23.106733,27.387756 18.653906,33.505913 
	C15.076368,38.421440 15.553607,46.878860 19.650331,51.164101 
	C24.712423,56.459145 31.549662,56.322701 39.769814,50.514416 
	C41.506866,52.092140 43.316261,53.735569 45.475395,55.696655 
	C41.174915,61.463219 35.499130,63.340557 28.302435,62.838127 
	C20.790644,55.970966 13.852247,49.492237 6.913850,43.013512 
z"/>
<path fill="#F4A821" opacity="1.000000" stroke="none" 
	d="
M134.853134,39.245377 
	C133.445786,40.905979 131.833603,42.436096 130.674866,44.255081 
	C128.445465,47.754856 126.489067,51.427700 124.389481,55.011215 
	C121.783188,59.459553 118.968353,59.552616 116.291031,55.230465 
	C113.059349,50.013378 109.904228,44.748875 106.359459,38.998665 
	C103.332352,32.723595 100.661751,26.954754 97.991150,21.185913 
	C103.115128,19.620497 106.199455,21.587975 108.618423,26.304438 
	C112.071762,33.037716 116.194664,39.427582 120.446411,46.670780 
	C124.648743,39.407181 128.787521,33.026630 132.112717,26.247032 
	C134.520218,21.338467 137.733673,19.780609 142.654480,21.761484 
	C139.986740,27.970486 137.419937,33.607933 134.853134,39.245377 
z"/>
<path fill="#F4A820" opacity="1.000000" stroke="none" 
	d="
M164.962860,51.320023 
	C162.337234,51.536415 159.711609,51.752811 156.504059,52.017162 
	C156.504059,55.415878 156.504059,58.798790 156.504059,62.618599 
	C153.203995,62.618599 150.481552,62.618599 147.309448,62.618599 
	C147.309448,49.121670 147.309448,35.457817 147.309448,21.129622 
	C152.886414,21.129622 158.474075,21.129622 164.524139,21.634811 
	C164.986008,24.357023 164.985458,26.574045 164.534760,28.848431 
	C161.539795,28.905798 158.994995,28.905798 156.163483,28.905798 
	C156.163483,31.398010 156.166000,33.026180 156.163055,34.654343 
	C156.146973,43.576214 156.146515,43.576214 164.933060,44.128632 
	C164.958176,46.817257 164.960526,49.068638 164.962860,51.320023 
z"/>
<path fill="#F9C41C" opacity="1.000000" stroke="none" 
	d="
M165.333954,51.450302 
	C164.960526,49.068638 164.958176,46.817257 165.239792,43.952599 
	C171.526352,42.072689 174.609055,37.794979 171.939926,33.469437 
	C170.603699,31.303963 167.363815,30.313154 164.984924,28.791065 
	C164.985458,26.574045 164.986008,24.357023 164.981873,21.728710 
	C174.819870,20.850254 181.549072,25.964848 182.165436,34.381500 
	C182.930527,44.829189 177.753082,50.239002 165.333954,51.450302 
z"/>
<path fill="#F9C51F" opacity="1.000000" stroke="none" 
	d="
M97.671829,21.433878 
	C100.661751,26.954754 103.332352,32.723595 106.064247,38.869350 
	C106.125549,46.860161 106.125549,54.474052 106.125549,62.485970 
	C103.146446,62.485970 100.461899,62.485970 97.352501,62.485970 
	C97.352501,48.766163 97.352501,35.224003 97.671829,21.433878 
z"/>
<path fill="#F4A922" opacity="1.000000" stroke="none" 
	d="
M240.042053,32.987152 
	C242.169266,34.394241 244.143372,36.176952 246.459366,37.120846 
	C249.980148,38.555744 253.851669,39.133072 257.365570,40.580975 
	C261.488647,42.279881 264.187836,45.321926 263.353394,50.597366 
	C260.112518,50.982864 257.385773,50.979431 254.659012,50.975998 
	C252.936478,49.612061 251.403946,47.783485 249.450348,46.984604 
	C245.811829,45.496712 241.878235,44.749462 238.159485,43.433792 
	C233.693192,41.853630 231.195770,38.615131 231.472885,33.390915 
	C234.663406,32.996826 237.352722,32.991989 240.042053,32.987152 
z"/>
<path fill="#F9C51D" opacity="1.000000" stroke="none" 
	d="
M254.477493,51.325989 
	C257.385773,50.979431 260.112518,50.982864 263.255310,50.980667 
	C264.191406,56.297947 261.024811,59.611290 256.786743,61.360508 
	C247.648621,65.132187 238.740494,63.868450 229.800079,58.739632 
	C230.949692,56.238327 231.941513,54.080338 232.828796,52.149803 
	C237.380646,53.375793 241.416977,54.866493 245.580978,55.457150 
	C248.928894,55.932041 252.718903,55.960663 254.477493,51.325989 
z"/>
<path fill="#F9C216" opacity="1.000000" stroke="none" 
	d="
M134.778290,39.690838 
	C137.419937,33.607933 139.986740,27.970486 142.849152,22.138710 
	C143.144760,35.330254 143.144760,48.716125 143.144760,62.392044 
	C140.345749,62.392044 137.930771,62.392044 134.703461,62.392044 
	C134.703461,54.907013 134.703461,47.521656 134.778290,39.690838 
z"/>
<path fill="#F9C51E" opacity="1.000000" stroke="none" 
	d="
M240.159515,32.650642 
	C237.352722,32.991989 234.663406,32.996826 231.528778,33.005230 
	C230.871429,27.943209 233.242508,24.287916 237.707184,22.305182 
	C245.795258,18.713331 253.788834,19.624487 262.152008,23.416246 
	C261.218506,26.026655 260.408478,28.291771 259.689667,30.301924 
	C255.176529,29.535995 250.980072,28.239779 246.822525,28.354401 
	C244.605972,28.415508 242.456650,30.915127 240.159515,32.650642 
z"/>
<path fill="#F4AA25" opacity="1.000000" stroke="none" 
	d="
M81.126648,54.286247 
	C79.668480,43.916370 78.337616,33.891682 77.007523,23.437885 
	C82.739166,35.856781 88.470039,48.704781 94.212486,61.578728 
	C86.379875,64.419609 85.055824,63.669586 81.126648,54.286247 
z"/>
<path fill="#126AA6" opacity="1.000000" stroke="none" 
	d="
M193.659775,60.222679 
	C193.172653,59.996784 192.685532,59.770885 192.073746,58.899727 
	C188.453461,46.051525 190.346069,33.563179 189.986008,21.194149 
	C191.948944,22.576475 193.911865,23.958803 195.599182,25.995876 
	C195.219604,36.024097 195.183395,45.399239 194.953323,54.769619 
	C194.908463,56.596790 194.110413,58.405472 193.659775,60.222679 
z"/>
<path fill="#2BA5DB" opacity="1.000000" stroke="none" 
	d="
M189.565765,21.089695 
	C190.346069,33.563179 188.453461,46.051525 191.930008,58.668427 
	C186.831482,56.440903 185.467209,51.593399 185.224564,46.569122 
	C184.864700,39.117786 185.257721,31.632978 185.058075,24.169701 
	C184.968765,20.831713 186.792603,20.767498 189.565765,21.089695 
z"/>
<path fill="#27A9E0" opacity="1.000000" stroke="none" 
	d="
M226.200012,39.889759 
	C226.980667,53.110859 219.948242,63.712482 206.272980,62.871693 
	C205.979919,59.545792 205.983414,56.830173 205.986908,54.114559 
	C206.947739,53.934425 207.908554,53.754292 209.483337,53.874828 
	C212.385620,53.802681 214.673920,53.429859 217.285828,52.930847 
	C223.098923,50.246407 224.613373,45.044071 226.200012,39.889759 
z"/>
<path fill="#F9C31B" opacity="1.000000" stroke="none" 
	d="
M6.850085,43.426884 
	C13.852247,49.492237 20.790644,55.970966 27.869061,62.756119 
	C16.177670,63.131245 7.938606,55.668800 6.850085,43.426884 
z"/>
<path fill="#2482BA" opacity="1.000000" stroke="none" 
	d="
M193.892181,60.505451 
	C194.110413,58.405472 194.908463,56.596790 194.953323,54.769619 
	C195.183395,45.399239 195.219604,36.024097 195.596893,26.341461 
	C196.020370,31.742666 195.936844,37.473106 196.425064,43.154415 
	C196.649323,45.764015 197.995422,48.277210 198.963913,51.649548 
	C199.068741,55.665504 199.042465,58.866035 199.016174,62.066566 
	C197.385651,61.640453 195.755112,61.214336 193.892181,60.505451 
z"/>
<path fill="#1677B2" opacity="1.000000" stroke="none" 
	d="
M216.962234,53.057041 
	C214.673920,53.429859 212.385620,53.802681 209.850128,53.855118 
	C211.634537,50.568272 213.666138,47.601803 216.215759,44.282772 
	C218.531937,41.526154 220.218094,39.026054 222.168137,36.752289 
	C223.437714,35.271931 225.091232,34.120850 226.572739,32.822250 
	C226.580429,34.264023 226.588120,35.705803 226.053375,37.587784 
	C222.661377,43.037674 219.811798,48.047359 216.962234,53.057041 
z"/>
<path fill="#2895CD" opacity="1.000000" stroke="none" 
	d="
M199.357956,62.251930 
	C199.042465,58.866035 199.068741,55.665504 199.147339,51.971828 
	C201.225311,52.300892 203.250946,53.123100 205.631744,54.029934 
	C205.983414,56.830173 205.979919,59.545792 205.956787,62.720402 
	C203.858017,62.932030 201.778870,62.684662 199.357956,62.251930 
z"/>
<path fill="#309ED3" opacity="1.000000" stroke="none" 
	d="
M216.613388,38.063927 
	C216.515182,36.671955 216.416962,35.279991 216.721924,33.392536 
	C219.757507,28.922995 222.389923,24.948942 225.022354,20.974890 
	C225.628250,23.045225 226.234161,25.115561 226.313110,27.582661 
	C224.266937,29.816572 222.809464,31.709652 221.210297,33.474339 
	C219.758118,35.076809 218.151779,36.539574 216.613388,38.063927 
z"/>
<path fill="#3BB3E5" opacity="1.000000" stroke="none" 
	d="
M224.730728,20.840546 
	C222.389923,24.948942 219.757507,28.922995 216.817657,32.980633 
	C215.510162,23.664511 217.046432,21.270065 224.730728,20.840546 
z"/>
<path fill="#1264A1" opacity="1.000000" stroke="none" 
	d="
M217.285828,52.930855 
	C219.811798,48.047359 222.661377,43.037674 225.884125,37.989021 
	C226.284271,38.382011 226.311249,38.813965 226.269119,39.567841 
	C224.613373,45.044071 223.098923,50.246407 217.285828,52.930855 
z"/>
<path fill="#2087C1" opacity="1.000000" stroke="none" 
	d="
M216.473587,38.469444 
	C218.151779,36.539574 219.758118,35.076809 221.210297,33.474339 
	C222.809464,31.709652 224.266937,29.816572 226.184143,27.924603 
	C226.640137,29.253111 226.698135,30.636442 226.664429,32.421013 
	C225.091232,34.120850 223.437714,35.271931 222.168137,36.752289 
	C220.218094,39.026054 218.531937,41.526154 216.386810,43.972393 
	C216.137802,42.301373 216.235794,40.588169 216.473587,38.469444 
z"/>
<path fill="#FFFBF1" opacity="1.000000" stroke="none" 
	d="
M72.873428,33.508888 
	C74.470314,37.647919 75.934639,41.453686 77.614853,45.820534 
	C73.492775,45.820534 69.992409,45.820534 65.504547,45.820534 
	C67.456520,40.829552 69.298477,36.119877 71.336281,30.909445 
	C72.055542,32.069912 72.398201,32.622768 72.873428,33.508888 
z"/>
<path fill="#FEFAF1" opacity="1.000000" stroke="none" 
	d="
M164.534760,28.848433 
	C167.363815,30.313154 170.603699,31.303963 171.939926,33.469437 
	C174.609055,37.794979 171.526352,42.072689 165.217010,43.515362 
	C156.146515,43.576214 156.146973,43.576214 156.163055,34.654343 
	C156.166000,33.026180 156.163483,31.398010 156.163483,28.905798 
	C158.994995,28.905798 161.539795,28.905798 164.534760,28.848433 
z"/>
</svg>