<?xml version="1.0" standalone="yes"?>
<svg xmlns="http://www.w3.org/2000/svg" width="1335" height="581">
<path style="fill:#343334; stroke:none;" d="M0 0L0 581L1335 581L1335 0L0 0z"/>
<path style="fill:#485896; stroke:none;" d="M1247 10L1248 11L1247 10z"/>
<path style="fill:#a19171; stroke:none;" d="M1248.11 10.7423C1241.62 13.5336 1241.32 42.9097 1246.43 47.2577C1249.93 50.2343 1256.75 49 1261 49C1273.33 49 1294.56 53.1301 1305.89 48.2577C1312.38 45.4665 1312.68 16.0903 1307.57 11.7423C1304.07 8.76562 1297.25 10 1293 10C1280.67 10 1259.44 5.86987 1248.11 10.7423z"/>
<path style="fill:#485896; stroke:none;" d="M1306 10L1307 11L1306 10M1245 11L1246 12L1245 11M1308 11L1309 12L1308 11M1246 12L1247 13L1246 12z"/>
<path style="fill:#343334; stroke:none;" d="M1247.6 13.0278C1243.28 16.4551 1245.96 33.7864 1246 39C1246.02 41.2092 1245.64 44.4167 1247.6 45.9722C1250.54 48.3007 1257.47 47 1261 47L1294 47C1297.33 47 1303.62 48.175 1306.4 45.9722C1308.36 44.4169 1307.98 41.209 1308 39C1308.04 33.7863 1310.72 16.4552 1306.4 13.0278C1303.62 10.825 1297.33 12 1294 12L1261 12C1257.47 12 1250.54 10.6993 1247.6 13.0278z"/>
<path style="fill:#485896; stroke:none;" d="M1307 12L1308 13L1307 12M1244 13L1245 14L1244 13M1309 13L1310 14L1309 13M27 21L27 37L28 37L27 21z"/>
<path style="fill:#a19171; stroke:none;" d="M28 21L28 37L29 37L29 30L38 30L38 37L39 37L39 21L38 21L38 28L29 28L28 21z"/>
<path style="fill:#485896; stroke:none;" d="M29 21L29 28L30 28L29 21M37 21L37 28L38 28L37 21M39 21L39 37L40 37L39 21M137 21L138 22L137 21z"/>
<path style="fill:#a19171; stroke:none;" d="M137 24L140 21L137 24z"/>
<path style="fill:#485896; stroke:none;" d="M140 22L136 23L137 27L138 27L138 24L139 24L140 29L141 29C141.653 27.0399 142 26.446 142 29L143 29L140 26L140 22z"/>
<path style="fill:#343334; stroke:none;" d="M138 24L136 31L141 31L138 24z"/>
<path style="fill:#a19171; stroke:none;" d="M140.333 24.6667L140.667 25.3333L140.333 24.6667z"/>
<path style="fill:#485896; stroke:none;" d="M45.6667 25.3333L46.3333 25.6667L45.6667 25.3333z"/>
<path style="fill:#a19171; stroke:none;" d="M44 26L44 27L50 27L50 37C52.4111 31.2541 50.982 25.2209 44 26z"/>
<path style="fill:#485896; stroke:none;" d="M49 25L50 26L49 25M55 25L55 37L56 37L55 25z"/>
<path style="fill:#a19171; stroke:none;" d="M56 25L56 37L57 37L56 25z"/>
<path style="fill:#485896; stroke:none;" d="M57 25L58 28L61 26L61 25L57 25z"/>
<path style="fill:#a19171; stroke:none;" d="M59 26L59 27L63 27L63 37L65 37C64.986 31.9128 65.5149 25.7464 59 26z"/>
<path style="fill:#485896; stroke:none;" d="M62 25L63 26L62 25M72 37L72 36L72 27L69 29L72 26C66.1418 25.8594 68.4297 34.9836 72 37z"/>
<path style="fill:#a19171; stroke:none;" d="M69 29L75 27C72.084 25.4391 70.6454 26.2452 69 29z"/>
<path style="fill:#485896; stroke:none;" d="M73.6667 25.3333L74.3333 25.6667L73.6667 25.3333M76 25L76 33L77 33L76 25z"/>
<path style="fill:#a19171; stroke:none;" d="M77 25C76.1676 31.9445 77.9677 39.3212 69 40L69 41C78.3713 42.3848 79.9868 32.1178 77 25z"/>
<path style="fill:#485896; stroke:none;" d="M78 25L78 37L79 37L78 25z"/>
<path style="fill:#a19171; stroke:none;" d="M82 25L82 37L84 37L82 25z"/>
<path style="fill:#485896; stroke:none;" d="M86 25L84 26L84 27L86 25z"/>
<path style="fill:#a19171; stroke:none;" d="M86 26C89.6295 29.3251 89.9831 32.2114 90 37C91.8612 32.5646 91.7445 26.2756 86 26z"/>
<path style="fill:#485896; stroke:none;" d="M88.6667 25.3333L89.3333 25.6667L88.6667 25.3333M91 37L92 37L95 26C89.8981 25.8792 91.0004 33.3663 91 37z"/>
<path style="fill:#a19171; stroke:none;" d="M93 26L93 27C97.1508 29.2889 96.9844 32.5795 97 37C98.8659 32.5533 98.7753 26.2661 93 26z"/>
<path style="fill:#485896; stroke:none;" d="M96 25L97 26L96 25M102 28L103 28L105 26L102 28z"/>
<path style="fill:#a19171; stroke:none;" d="M103 26L103 27L109 28L109 37C111.36 31.376 109.97 25.1063 103 26z"/>
<path style="fill:#485896; stroke:none;" d="M107.667 25.3333L108.333 25.6667L107.667 25.3333z"/>
<path style="fill:#a19171; stroke:none;" d="M114 25L114 37L115 37L114 25z"/>
<path style="fill:#485896; stroke:none;" d="M115 25L116 28L119 25L115 25z"/>
<path style="fill:#a19171; stroke:none;" d="M118 26C121.63 29.3251 121.983 32.2114 122 37C123.817 32.6699 123.816 25.9062 118 26z"/>
<path style="fill:#485896; stroke:none;" d="M121 25L122 26L121 25z"/>
<path style="fill:#a19171; stroke:none;" d="M136 25L132 37L133 37C136.692 32.9028 140.835 31.8414 144 37L145 37L142 27L141 27L142 31L136 31L136 25M148 25L148 42L150 42L150 25L148 25z"/>
<path style="fill:#485896; stroke:none;" d="M150 29L151 29L154 26L150 29z"/>
<path style="fill:#a19171; stroke:none;" d="M152 26L152 27C157.342 28.6267 157.304 33.3232 152 35C158.128 37.9368 160.552 25.6714 152 26z"/>
<path style="fill:#485896; stroke:none;" d="M155 25L156 26L155 25z"/>
<path style="fill:#a19171; stroke:none;" d="M162 25L162 42L163 42L162 25z"/>
<path style="fill:#485896; stroke:none;" d="M163.333 25.6667L163.667 26.3333L163.333 25.6667M166 25L163 33L164 33L166 25z"/>
<path style="fill:#a19171; stroke:none;" d="M166 26L166 27C171.886 28.8652 170.664 34.0748 165 35C171.948 38.6954 174.835 25.1232 166 26z"/>
<path style="fill:#485896; stroke:none;" d="M169 25L170 26L169 25M1276 25C1273.97 28.8254 1274.01 31.1702 1276 35L1277 35L1276 25z"/>
<path style="fill:#a19171; stroke:none;" d="M1277 25L1278 26L1277 25z"/>
<path style="fill:#485896; stroke:none;" d="M1278 25L1278 27L1280 27L1278 25M50 26L51 27L50 26M90 26L91 27L90 26M97 26L98 27L97 26M109 26L110 27L109 26M122 26L123 27L122 26M135.333 26.6667L135.667 27.3333L135.333 26.6667M157.333 26.6667L157.667 27.3333L157.333 26.6667z"/>
<path style="fill:#343334; stroke:none;" d="M1277 26L1277 34L1278 34L1277 26z"/>
<path style="fill:#485896; stroke:none;" d="M44 27L45 28L44 27M49 27L50 28L49 27M51 27L51 37L52 37L51 27M62.3333 27.6667L62.6667 28.3333L62.3333 27.6667M64.3333 27.6667L64.6667 28.3333L64.3333 27.6667z"/>
<path style="fill:#343334; stroke:none;" d="M72.2631 28.1759C68.9637 29.9187 71.1869 36.2927 74.4398 33.9136C76.7478 32.2256 75.5996 26.4135 72.2631 28.1759z"/>
<path style="fill:#485896; stroke:none;" d="M88 27L89 28L88 27M98 27L98 37L99 37L98 27M120 27L121 28L120 27z"/>
<path style="fill:#343334; stroke:none;" d="M152.263 28.1759C148.964 29.9188 151.187 36.2927 154.44 33.9136C156.748 32.2255 155.6 26.4135 152.263 28.1759z"/>
<path style="fill:#485896; stroke:none;" d="M155 27L156 28L155 27z"/>
<path style="fill:#343334; stroke:none;" d="M166.26 28.1759C162.883 29.9406 164.999 36.3293 168.415 33.9136C170.775 32.2451 169.603 26.4291 166.26 28.1759z"/>
<path style="fill:#485896; stroke:none;" d="M169 27L170 28L169 27M171 27L172 28L171 27z"/>
<path style="fill:#a19171; stroke:none;" d="M1279 27L1280 28L1279 27z"/>
<path style="fill:#485896; stroke:none;" d="M57 28L57 37L58 37L57 28M84 28L85 29L84 28M89 28L89 37L90 37L89 28M96 28L96 37L97 37L96 28M108 28L109 29L108 28M110 28L110 37L111 37L110 28M121 28L121 37L122 37L121 28M123 28L123 37L124 37L123 28M134.333 28.6667L134.667 29.3333L134.333 28.6667M136.333 28.6667L136.667 29.3333L136.333 28.6667M156 28L156 33L157 33L156 28M158 28L158 33L159 33L158 28M1279 28L1278 35L1279 35L1279 28M46 29L46 30L50 31L50 30L46 29z"/>
<path style="fill:#a19171; stroke:none;" d="M68 29L68 33L69 33L68 29z"/>
<path style="fill:#485896; stroke:none;" d="M105 29L105 30L108 33L109 33L105 29M115 29L115 37L116 37L115 29M170 29L170 33L171 33L170 29M172 29L172 32L173 32L172 29M29 30L29 37L30 37L29 30M37 30L37 37L38 37L37 30M44 30L44 34L45 34L44 30z"/>
<path style="fill:#a19171; stroke:none;" d="M45 30L45 31L48 31L45 30z"/>
<path style="fill:#485896; stroke:none;" d="M102 30L101 36L102 36L102 31L103 31L103 33L104 33L102 30z"/>
<path style="fill:#a19171; stroke:none;" d="M103 30L103 31L106 31L103 30z"/>
<path style="fill:#485896; stroke:none;" d="M141 30L142 31L141 30M143.333 30.6667L143.667 31.3333L143.333 30.6667z"/>
<path style="fill:#a19171; stroke:none;" d="M44 31L45 32L44 31z"/>
<path style="fill:#343334; stroke:none;" d="M45 35L50 31L45 35z"/>
<path style="fill:#a19171; stroke:none;" d="M102 31C102.302 34.7827 103.078 36.1549 107 36L107 35L103 35L102 31z"/>
<path style="fill:#343334; stroke:none;" d="M103 34C106.137 34.4943 107 34.0359 108 31L103 34z"/>
<path style="fill:#485896; stroke:none;" d="M133.333 31.6667L133.667 32.3333L133.333 31.6667z"/>
<path style="fill:#a19171; stroke:none;" d="M43 32C43.946 35.1412 44.7075 36.0688 48 36L43 32z"/>
<path style="fill:#485896; stroke:none;" d="M49.3333 32.6667L49.6667 33.3333L49.3333 32.6667M42 33L43 34L42 33z"/>
<path style="fill:#a19171; stroke:none;" d="M69.3333 33.6667L69.6667 34.3333L69.3333 33.6667z"/>
<path style="fill:#485896; stroke:none;" d="M142.333 33.6667L142.667 34.3333L142.333 33.6667M144.333 33.6667L144.667 34.3333L144.333 33.6667M150 33L151 34L150 33M171.333 33.6667L171.667 34.3333L171.333 33.6667z"/>
<path style="fill:#a19171; stroke:none;" d="M1275 33L1276 34L1275 33z"/>
<path style="fill:#485896; stroke:none;" d="M48 34L48 36L50 36L48 34M75 34L76 38L77 38L75 34M103 34L104 35L103 34M107 34L109 37L107 34M132.333 34.6667L132.667 35.3333L132.333 34.6667M134.333 34.6667L134.667 35.3333L134.333 34.6667M155 34L156 35L155 34M157 34L158 35L157 34M164 34L163 42L164 42L164 34M169 34L170 35L169 34z"/>
<path style="fill:#a19171; stroke:none;" d="M1277 34L1278 35L1277 34z"/>
<path style="fill:#485896; stroke:none;" d="M43 35L44 36L43 35z"/>
<path style="fill:#a19171; stroke:none;" d="M70 35L70 36L75 36L70 35z"/>
<path style="fill:#485896; stroke:none;" d="M143.333 35.6667L143.667 36.3333L143.333 35.6667M145.333 35.6667L145.667 36.3333L145.333 35.6667M150.667 35.3333L151.333 35.6667L150.667 35.3333M156 35L157 36L156 35M170 35L171 36L170 35M44 36L45 37L44 36M47 36L48 37L47 36M73 36L74 37L73 36M103 36L104 37L103 36M105 36L106 37L105 36M131 36L132 37L131 36M133 36L134 37L133 36M152 36L153 37L152 36M154.667 36.3333L155.333 36.6667L154.667 36.3333M166 36L167 37L166 36M168.667 36.3333L169.333 36.6667L168.667 36.3333M77.3333 38.6667L77.6667 39.3333L77.3333 38.6667M68.3333 39.6667L68.6667 40.3333L68.3333 39.6667M74 39L75 40L74 39M76 40L77 41L76 40M69.6667 41.3333L70.3333 41.6667L69.6667 41.3333M73.6667 41.3333L74.3333 41.6667L73.6667 41.3333M1244 45L1245 46L1244 45M1309 45L1310 46L1309 45M1246 46L1247 47L1246 46M1307 46L1308 47L1307 46M1245 47L1246 48L1245 47M1308 47L1309 48L1308 47M1247 48L1248 49L1247 48M1306 48L1307 49L1306 48z"/>
<path style="fill:#dce6e2; stroke:none;" d="M762 95L758 108C763.192 104.731 763.766 104.917 769 108L764 95L762 95z"/>
<path style="fill:#a19171; stroke:none;" d="M764 95L765 96L764 95z"/>
<path style="fill:#485896; stroke:none;" d="M806 95L806 108L807 108L806 95z"/>
<path style="fill:#dce6e2; stroke:none;" d="M807 95L807 108C817.026 107.674 816.527 95.3128 807 95z"/>
<path style="fill:#485896; stroke:none;" d="M855 95L856 96L855 95z"/>
<path style="fill:#dce6e2; stroke:none;" d="M862 106C852.584 107.537 852.685 95.8089 862 97C851.109 84.601 850.915 118.617 862 106z"/>
<path style="fill:#485896; stroke:none;" d="M862.333 95.6667L862.667 96.3333L862.333 95.6667M899 95L899 108L900 108L899 95z"/>
<path style="fill:#dce6e2; stroke:none;" d="M900 95L900 108C912.373 107.701 912.554 95.1137 900 95z"/>
<path style="fill:#485896; stroke:none;" d="M907 95L908 96L907 95M948 95L948 108L949 108L948 95z"/>
<path style="fill:#dce6e2; stroke:none;" d="M949 95L949 108L956 108L956 107L951 107L951 102L955 102L955 101L951 101L951 96L956 96L949 95z"/>
<path style="fill:#485896; stroke:none;" d="M993 95L993 108L994 108L993 95z"/>
<path style="fill:#dce6e2; stroke:none;" d="M994 95L994 108L996 108L996 102L1000 102L1000 101L996 101L996 96L1000 96L994 95z"/>
<path style="fill:#a19171; stroke:none;" d="M1000 95L1001 96L1000 95z"/>
<path style="fill:#485896; stroke:none;" d="M1041 95L1042 96L1041 95z"/>
<path style="fill:#dce6e2; stroke:none;" d="M1048 108L1048 101L1044 101L1044 102L1047 102L1047 107C1038.37 105.653 1039 95.5308 1048 97C1042.16 90.3576 1033.23 103.631 1042.1 107.397C1043.91 108.164 1046.09 107.977 1048 108z"/>
<path style="fill:#485896; stroke:none;" d="M1048 95L1049 96L1048 95M1086 95L1086 108L1087 108L1086 95z"/>
<path style="fill:#dce6e2; stroke:none;" d="M1087 95L1087 108L1089 108L1089 102L1095 102L1095 108L1097 108L1097 95L1095 95L1095 101L1089 101L1089 95L1087 95z"/>
<path style="fill:#485896; stroke:none;" d="M1094 95L1094 101L1095 101L1094 95M1135 95L1135 108L1136 108L1135 95z"/>
<path style="fill:#dce6e2; stroke:none;" d="M1136 95L1136 108L1138 108L1138 95L1136 95M1178 95C1178 99.386 1179.03 104.386 1175 107L1175 108C1181.1 106.147 1180 100.391 1180 95L1178 95z"/>
<path style="fill:#485896; stroke:none;" d="M1180 95L1180 105L1181 105L1180 95M1218 95L1218 108L1219 108L1218 95z"/>
<path style="fill:#dce6e2; stroke:none;" d="M1219 95L1219 108L1221 108L1221 103L1228 108L1222 102L1222 101L1227 95L1221 100L1221 95L1219 95z"/>
<path style="fill:#a19171; stroke:none;" d="M1227 95L1228 96L1227 95z"/>
<path style="fill:#08a3fa; stroke:none;" d="M1265 95L1265 108L1266 108L1265 95z"/>
<path style="fill:#dce6e2; stroke:none;" d="M1266 95L1266 108L1272 108L1272 107L1267 107L1266 95z"/>
<path style="fill:#a19171; stroke:none;" d="M1267 95L1267 107L1268 107L1267 95z"/>
<path style="fill:#485896; stroke:none;" d="M761 96L762 97L761 96z"/>
<path style="fill:#343334; stroke:none;" d="M809 96L809 101L811 96L809 96z"/>
<path style="fill:#08a3fa; stroke:none;" d="M811 96L812 97L811 96z"/>
<path style="fill:#485896; stroke:none;" d="M860 96L861 97L860 96z"/>
<path style="fill:#343334; stroke:none;" d="M902 96L902 107C909.157 105.472 909.478 97.2207 902 96z"/>
<path style="fill:#a19171; stroke:none;" d="M1042 96L1043 97L1042 96z"/>
<path style="fill:#485896; stroke:none;" d="M1046 96L1047 97L1046 96z"/>
<path style="fill:#a19171; stroke:none;" d="M1048 96L1049 97L1048 96M1226 96L1227 97L1226 96z"/>
<path style="fill:#08a3fa; stroke:none;" d="M761 97L762 98L761 97z"/>
<path style="fill:#a19171; stroke:none;" d="M763 97L764 98L763 97z"/>
<path style="fill:#485896; stroke:none;" d="M765 97L766 98L765 97M814 97L814 100L815 100L814 97z"/>
<path style="fill:#08a3fa; stroke:none;" d="M853 97L854 98L853 97z"/>
<path style="fill:#a19171; stroke:none;" d="M855 97L856 98L855 97z"/>
<path style="fill:#08a3fa; stroke:none;" d="M907 97L908 98L907 97z"/>
<path style="fill:#a19171; stroke:none;" d="M909 97L910 98L909 97z"/>
<path style="fill:#485896; stroke:none;" d="M1041 97L1042 98L1041 97z"/>
<path style="fill:#08a3fa; stroke:none;" d="M1223 97L1224 98L1223 97z"/>
<path style="fill:#a19171; stroke:none;" d="M1225 97L1226 98L1225 97z"/>
<path style="fill:#485896; stroke:none;" d="M760 98L761 99L760 98M763 98L764 99L763 98z"/>
<path style="fill:#a19171; stroke:none;" d="M765 98L766 99L765 98z"/>
<path style="fill:#485896; stroke:none;" d="M852 98L853 99L852 98M907 98L908 99L907 98z"/>
<path style="fill:#08a3fa; stroke:none;" d="M1038 98L1039 99L1038 98z"/>
<path style="fill:#a19171; stroke:none;" d="M1040 98L1041 99L1040 98z"/>
<path style="fill:#08a3fa; stroke:none;" d="M1222 98L1223 99L1222 98M760 99L761 100L760 99z"/>
<path style="fill:#a19171; stroke:none;" d="M762 99L763 100L762 99z"/>
<path style="fill:#343334; stroke:none;" d="M763 99C762.423 101.711 762.233 102.395 765 103L763 99z"/>
<path style="fill:#485896; stroke:none;" d="M766 99L767 100L766 99z"/>
<path style="fill:#08a3fa; stroke:none;" d="M852 99L853 100L852 99z"/>
<path style="fill:#485896; stroke:none;" d="M854 99L854 104L855 104L854 99M910 99L911 100L910 99M1040 99L1041 100L1040 99M1221 99L1222 100L1221 99M762 100L763 101L762 100z"/>
<path style="fill:#08a3fa; stroke:none;" d="M764 100L765 101L764 100z"/>
<path style="fill:#a19171; stroke:none;" d="M766 100L767 101L766 100z"/>
<path style="fill:#08a3fa; stroke:none;" d="M811 100L812 101L811 100z"/>
<path style="fill:#a19171; stroke:none;" d="M813 100L814 101L813 100z"/>
<path style="fill:#08a3fa; stroke:none;" d="M908 100L908 103L909 103L908 100z"/>
<path style="fill:#a19171; stroke:none;" d="M910 100L910 103L911 103L910 100z"/>
<path style="fill:#485896; stroke:none;" d="M1037 100L1037 103L1038 103L1037 100M1223 100L1224 101L1223 100M759 101L760 102L759 101M764 101L765 102L764 101z"/>
<path style="fill:#a19171; stroke:none;" d="M955 101L956 102L955 101z"/>
<path style="fill:#485896; stroke:none;" d="M1000 101L1001 102L1000 101M1043 101L1044 102L1043 101z"/>
<path style="fill:#a19171; stroke:none;" d="M1048 101L1048 107L1049 107L1048 101M1222 101L1223 102L1222 101z"/>
<path style="fill:#08a3fa; stroke:none;" d="M759 102L760 103L759 102z"/>
<path style="fill:#a19171; stroke:none;" d="M761 102L762 103L761 102z"/>
<path style="fill:#485896; stroke:none;" d="M767 102L768 103L767 102z"/>
<path style="fill:#343334; stroke:none;" d="M809 102L809 107L811 102L809 102z"/>
<path style="fill:#485896; stroke:none;" d="M811 102L812 103L811 102M814 102L815 103L814 102M1046 102L1046 106L1047 106L1046 102M1094 102L1094 108L1095 108L1094 102z"/>
<path style="fill:#a19171; stroke:none;" d="M1223 102L1224 103L1223 102M767 103L768 104L767 103z"/>
<path style="fill:#485896; stroke:none;" d="M812 103L812 106L813 106L812 103M910 103L911 104L910 103M1040 103L1041 104L1040 103M1221 103L1222 104L1221 103M1224 103L1225 104L1224 103M758 104L759 105L758 104M765 104L766 105L765 104z"/>
<path style="fill:#08a3fa; stroke:none;" d="M852 104L853 105L852 104z"/>
<path style="fill:#a19171; stroke:none;" d="M854 104L855 105L854 104z"/>
<path style="fill:#485896; stroke:none;" d="M907 104L908 105L907 104z"/>
<path style="fill:#08a3fa; stroke:none;" d="M1038 104L1039 105L1038 104z"/>
<path style="fill:#a19171; stroke:none;" d="M1040 104L1041 105L1040 104z"/>
<path style="fill:#485896; stroke:none;" d="M1222 104L1223 105L1222 104M1225 104L1226 105L1225 104z"/>
<path style="fill:#08a3fa; stroke:none;" d="M758 105L759 106L758 105z"/>
<path style="fill:#a19171; stroke:none;" d="M760 105L761 106L760 105z"/>
<path style="fill:#485896; stroke:none;" d="M768 105L769 106L768 105M855 105L856 106L855 105M909 105L910 106L909 105M1038 105L1039 106L1038 105M1041 105L1042 106L1041 105M1177 105L1178 106L1177 105z"/>
<path style="fill:#08a3fa; stroke:none;" d="M1223 105L1224 106L1223 105z"/>
<path style="fill:#485896; stroke:none;" d="M1226 105L1227 106L1226 105M757 106L758 107L757 106M760 106L761 107L760 106z"/>
<path style="fill:#08a3fa; stroke:none;" d="M766 106L767 107L766 106z"/>
<path style="fill:#a19171; stroke:none;" d="M768 106L769 107L768 106z"/>
<path style="fill:#485896; stroke:none;" d="M811 106L812 107L811 106M814 106L815 107L814 106M853 106L854 107L853 106z"/>
<path style="fill:#a19171; stroke:none;" d="M856 106L857 107L856 106z"/>
<path style="fill:#08a3fa; stroke:none;" d="M860 106L861 107L860 106z"/>
<path style="fill:#485896; stroke:none;" d="M862 106L863 107L862 106M905 106L906 107L905 106M908 106L909 107L908 106M1039 106L1040 107L1039 106M1042 106L1043 107L1042 106z"/>
<path style="fill:#08a3fa; stroke:none;" d="M1046 106L1047 107L1046 106M1177 106L1178 107L1177 106z"/>
<path style="fill:#a19171; stroke:none;" d="M1179 106L1180 107L1179 106z"/>
<path style="fill:#08a3fa; stroke:none;" d="M1224 106L1225 107L1224 106M757 107L758 108L757 107z"/>
<path style="fill:#485896; stroke:none;" d="M766 107L767 108L766 107M769 107L770 108L769 107z"/>
<path style="fill:#08a3fa; stroke:none;" d="M855 107L856 108L855 107z"/>
<path style="fill:#a19171; stroke:none;" d="M906 107L907 108L906 107z"/>
<path style="fill:#485896; stroke:none;" d="M1174 107L1175 108L1174 107z"/>
<path style="fill:#a19171; stroke:none;" d="M1178 107L1179 108L1178 107z"/>
<path style="fill:#485896; stroke:none;" d="M1228 107L1229 108L1228 107z"/>
<path style="fill:#a19171; stroke:none;" d="M1272 107L1273 108L1272 107z"/>
<path style="fill:#485896; stroke:none;" d="M863 155L864 156L863 155z"/>
<path style="fill:#dce6e2; stroke:none;" d="M864 157L869 155L864 157z"/>
<path style="fill:#a19171; stroke:none;" d="M869 155L870 156L869 155z"/>
<path style="fill:#08a3fa; stroke:none;" d="M863 156L864 157L863 156z"/>
<path style="fill:#485896; stroke:none;" d="M869 156L870 157L869 156M758 158L758 171L759 171L758 158z"/>
<path style="fill:#dce6e2; stroke:none;" d="M759 158L759 171L761 171L761 163L762 163L766 171L769 163L770 163L770 171L772 171L772 158L766 168L765 168L761 158L759 158z"/>
<path style="fill:#a19171; stroke:none;" d="M761 158L762 159L761 158z"/>
<path style="fill:#485896; stroke:none;" d="M769 158L770 159L769 158M772 158L772 171L773 171L772 158z"/>
<path style="fill:#dce6e2; stroke:none;" d="M811 158L811 171L813 171L813 161L814 161L822 171L822 158L820 158L820 168L819 168L814 158L811 158z"/>
<path style="fill:#485896; stroke:none;" d="M819 158L819 167L820 167L819 158M860 158L860 171L861 171L860 158z"/>
<path style="fill:#dce6e2; stroke:none;" d="M861 158L861 171L863 171L863 162L864 162L871 171L871 158L870 158L870 168L869 168L861 158z"/>
<path style="fill:#a19171; stroke:none;" d="M863 158L864 159L863 158z"/>
<path style="fill:#08a3fa; stroke:none;" d="M869 158L869 167L870 167L869 158z"/>
<path style="fill:#a19171; stroke:none;" d="M871 158L871 171L872 171L871 158z"/>
<path style="fill:#08a3fa; stroke:none;" d="M912 158L913 159L912 158z"/>
<path style="fill:#dce6e2; stroke:none;" d="M913.109 158.762C906.264 161.378 909.761 172.775 916.942 170.353C923.974 167.981 920.474 155.946 913.109 158.762z"/>
<path style="fill:#485896; stroke:none;" d="M918 158L919 159L918 158M959 158L959 171L960 171L959 158z"/>
<path style="fill:#dce6e2; stroke:none;" d="M960 158L960 171L962 171L962 166C970.194 164.661 966.762 158.221 960 158z"/>
<path style="fill:#485896; stroke:none;" d="M966 158L967 159L966 158z"/>
<path style="fill:#08a3fa; stroke:none;" d="M1008 158L1009 159L1008 158z"/>
<path style="fill:#dce6e2; stroke:none;" d="M1018 172L1018 171L1015 170C1015.73 168.637 1016.55 167.539 1016.71 165.955C1018.4 149.017 993.56 167.318 1012 171.227C1013.99 171.649 1015.98 171.84 1018 172z"/>
<path style="fill:#485896; stroke:none;" d="M1014 158L1015 159L1014 158z"/>
<path style="fill:#dce6e2; stroke:none;" d="M1055 158L1055 171L1057 171L1057 165L1064 171C1061.98 163.736 1064.14 158.108 1055 158z"/>
<path style="fill:#08a3fa; stroke:none;" d="M1103 158L1104 159L1103 158z"/>
<path style="fill:#dce6e2; stroke:none;" d="M1108 169L1102 169C1103.89 171.152 1109.4 171.422 1108.82 167.15C1108.38 163.87 1100.65 159.064 1109 160C1107.39 158.181 1102.64 157.368 1102.64 161.189C1102.63 164.034 1106.41 166.884 1108 169z"/>
<path style="fill:#485896; stroke:none;" d="M1109.33 158.667L1109.67 159.333L1109.33 158.667z"/>
<path style="fill:#08a3fa; stroke:none;" d="M1146 158L1147 159L1146 158z"/>
<path style="fill:#dce6e2; stroke:none;" d="M1147 158L1147 159L1150 159L1150 171L1152 171C1152 166.614 1150.97 161.614 1155 159L1147 158z"/>
<path style="fill:#a19171; stroke:none;" d="M1155 158L1156 159L1155 158z"/>
<path style="fill:#dce6e2; stroke:none;" d="M1193 158C1193 173.191 1203 173.122 1203 158L1201 158C1201 170.474 1195 170.474 1195 158L1193 158z"/>
<path style="fill:#485896; stroke:none;" d="M1195 158L1195 168L1196 168L1195 158z"/>
<path style="fill:#dce6e2; stroke:none;" d="M1240 158L1244 171L1247 171L1251 158L1246 168L1245 168L1240 158z"/>
<path style="fill:#485896; stroke:none;" d="M1242 158L1243 159L1242 158M1248 158L1249 159L1248 158M1251 158L1252 159L1251 158M762 159L763 160L762 159z"/>
<path style="fill:#a19171; stroke:none;" d="M814 159L815 160L814 159z"/>
<path style="fill:#485896; stroke:none;" d="M864 159L865 160L864 159M910 159L911 160L910 159z"/>
<path style="fill:#a19171; stroke:none;" d="M913 159L914 160L913 159z"/>
<path style="fill:#343334; stroke:none;" d="M914.274 160.176C910.612 162.014 912.199 171.041 916.586 168.824C920.245 166.975 918.66 157.974 914.274 160.176z"/>
<path style="fill:#a19171; stroke:none;" d="M919 159L920 160L919 159z"/>
<path style="fill:#343334; stroke:none;" d="M962 159L962 165C964.669 163.268 964.71 162.058 964 159L962 159z"/>
<path style="fill:#485896; stroke:none;" d="M964 159L965 160L964 159M967 159L968 160L967 159M1006 159L1007 160L1006 159z"/>
<path style="fill:#a19171; stroke:none;" d="M1009 159L1010 160L1009 159z"/>
<path style="fill:#343334; stroke:none;" d="M1010.19 160.256C1005.72 162.149 1008 170.951 1012.58 168.673C1016.27 166.84 1014.73 158.332 1010.19 160.256z"/>
<path style="fill:#485896; stroke:none;" d="M1012 159L1013 160L1012 159z"/>
<path style="fill:#a19171; stroke:none;" d="M1015 159L1016 160L1015 159z"/>
<path style="fill:#485896; stroke:none;" d="M1057 159L1057 164L1058 164L1057 159z"/>
<path style="fill:#343334; stroke:none;" d="M1058 159L1058 164L1060 159L1058 159z"/>
<path style="fill:#08a3fa; stroke:none;" d="M1060 159L1061 160L1060 159z"/>
<path style="fill:#a19171; stroke:none;" d="M1104 159L1105 160L1104 159z"/>
<path style="fill:#485896; stroke:none;" d="M1107 159L1108 160L1107 159M1152 159L1152 171L1153 171L1152 159z"/>
<path style="fill:#08a3fa; stroke:none;" d="M1240 159L1241 160L1240 159z"/>
<path style="fill:#a19171; stroke:none;" d="M1242 159L1243 160L1242 159z"/>
<path style="fill:#08a3fa; stroke:none;" d="M1248 159L1249 160L1248 159z"/>
<path style="fill:#a19171; stroke:none;" d="M762 160L763 161L762 160z"/>
<path style="fill:#485896; stroke:none;" d="M768 160L769 161L768 160M815 160L816 161L815 160M912 160L913 161L912 160z"/>
<path style="fill:#a19171; stroke:none;" d="M920 160L921 161L920 160z"/>
<path style="fill:#08a3fa; stroke:none;" d="M965 160L966 161L965 160z"/>
<path style="fill:#a19171; stroke:none;" d="M967 160L968 161L967 160z"/>
<path style="fill:#485896; stroke:none;" d="M1005 160L1006 161L1005 160M1008 160L1009 161L1008 160M1016 160L1017 161L1016 160M1063 160L1063 163L1064 163L1063 160M1101 160L1102 161L1101 160M1240 160L1241 161L1240 160z"/>
<path style="fill:#a19171; stroke:none;" d="M1250 160L1251 161L1250 160z"/>
<path style="fill:#08a3fa; stroke:none;" d="M768 161L769 162L768 161z"/>
<path style="fill:#a19171; stroke:none;" d="M813 161L814 162L813 161z"/>
<path style="fill:#485896; stroke:none;" d="M865 161L866 162L865 161z"/>
<path style="fill:#08a3fa; stroke:none;" d="M909 161L910 162L909 161z"/>
<path style="fill:#a19171; stroke:none;" d="M911 161L912 162L911 161z"/>
<path style="fill:#485896; stroke:none;" d="M918 161L919 162L918 161M965.333 161.667L965.667 162.333L965.333 161.667z"/>
<path style="fill:#08a3fa; stroke:none;" d="M1005 161L1006 162L1005 161z"/>
<path style="fill:#a19171; stroke:none;" d="M1007 161L1008 162L1007 161z"/>
<path style="fill:#485896; stroke:none;" d="M1014 161L1015 162L1014 161z"/>
<path style="fill:#08a3fa; stroke:none;" d="M1061 161L1062 162L1061 161M1101 161L1102 162L1101 161z"/>
<path style="fill:#a19171; stroke:none;" d="M1103 161L1104 162L1103 161z"/>
<path style="fill:#485896; stroke:none;" d="M1243 161L1244 162L1243 161M1247 161L1248 162L1247 161M1250 161L1251 162L1250 161M763 162L764 163L763 162M767 162L768 163L767 162M813 162L813 171L814 171L813 162z"/>
<path style="fill:#a19171; stroke:none;" d="M816 162L817 163L816 162z"/>
<path style="fill:#485896; stroke:none;" d="M863 162L864 163L863 162M911 162L911 167L912 167L911 162M921 162L922 163L921 162M1007 162L1008 163L1007 162M1017 162L1017 167L1018 167L1017 162M1101 162L1102 163L1101 162M1104 162L1105 163L1104 162z"/>
<path style="fill:#08a3fa; stroke:none;" d="M1241 162L1242 163L1241 162z"/>
<path style="fill:#a19171; stroke:none;" d="M1243 162L1244 163L1243 162z"/>
<path style="fill:#08a3fa; stroke:none;" d="M1247 162L1248 163L1247 162z"/>
<path style="fill:#a19171; stroke:none;" d="M1249 162L1250 163L1249 162z"/>
<path style="fill:#485896; stroke:none;" d="M761 163L762 164L761 163z"/>
<path style="fill:#08a3fa; stroke:none;" d="M767 163L768 164L767 163z"/>
<path style="fill:#a19171; stroke:none;" d="M769 163L770 164L769 163z"/>
<path style="fill:#485896; stroke:none;" d="M817 163L818 164L817 163z"/>
<path style="fill:#08a3fa; stroke:none;" d="M864 163L865 164L864 163z"/>
<path style="fill:#a19171; stroke:none;" d="M866 163L867 164L866 163z"/>
<path style="fill:#08a3fa; stroke:none;" d="M919 163L919 166L920 166L919 163z"/>
<path style="fill:#a19171; stroke:none;" d="M921.333 163.667L921.667 164.333L921.333 163.667z"/>
<path style="fill:#08a3fa; stroke:none;" d="M965 163L966 164L965 163z"/>
<path style="fill:#a19171; stroke:none;" d="M967 163L968 164L967 163z"/>
<path style="fill:#485896; stroke:none;" d="M1004 163L1004 166L1005 166L1004 163z"/>
<path style="fill:#08a3fa; stroke:none;" d="M1060 163L1061 164L1060 163z"/>
<path style="fill:#a19171; stroke:none;" d="M1062 163L1063 164L1062 163z"/>
<path style="fill:#08a3fa; stroke:none;" d="M1102 163L1103 164L1102 163z"/>
<path style="fill:#a19171; stroke:none;" d="M1105 163L1106 164L1105 163z"/>
<path style="fill:#485896; stroke:none;" d="M1241 163L1242 164L1241 163M1249 163L1250 164L1249 163M764 164L765 165L764 164M769 164L770 165L769 164z"/>
<path style="fill:#08a3fa; stroke:none;" d="M815 164L816 165L815 164z"/>
<path style="fill:#485896; stroke:none;" d="M867 164L868 165L867 164M964 164L965 165L964 164M1103 164L1104 165L1103 164z"/>
<path style="fill:#a19171; stroke:none;" d="M1107 164L1108 165L1107 164z"/>
<path style="fill:#485896; stroke:none;" d="M1244 164L1245 165L1244 164M1246 164L1247 165L1246 164z"/>
<path style="fill:#08a3fa; stroke:none;" d="M762 165L763 166L762 165z"/>
<path style="fill:#a19171; stroke:none;" d="M764 165L765 166L764 165z"/>
<path style="fill:#485896; stroke:none;" d="M766 165L767 166L766 165z"/>
<path style="fill:#a19171; stroke:none;" d="M768 165L769 166L768 165z"/>
<path style="fill:#08a3fa; stroke:none;" d="M865 165L866 166L865 165z"/>
<path style="fill:#485896; stroke:none;" d="M921.333 165.667L921.667 166.333L921.333 165.667M1057 165L1057 171L1058 171L1057 165z"/>
<path style="fill:#a19171; stroke:none;" d="M1061 165L1062 166L1061 165z"/>
<path style="fill:#485896; stroke:none;" d="M1105 165L1106 166L1105 165z"/>
<path style="fill:#08a3fa; stroke:none;" d="M1242 165L1243 166L1242 165z"/>
<path style="fill:#a19171; stroke:none;" d="M1244 165L1245 166L1244 165z"/>
<path style="fill:#08a3fa; stroke:none;" d="M1246 165L1247 166L1246 165z"/>
<path style="fill:#a19171; stroke:none;" d="M1248 165L1249 166L1248 165z"/>
<path style="fill:#485896; stroke:none;" d="M765 166L766 167L765 166M768 166L769 167L768 166M816 166L817 167L816 166z"/>
<path style="fill:#a19171; stroke:none;" d="M868 166L869 167L868 166z"/>
<path style="fill:#485896; stroke:none;" d="M1007 166L1008 167L1007 166M1062 166L1063 167L1062 166z"/>
<path style="fill:#a19171; stroke:none;" d="M1109 166L1110 167L1109 166z"/>
<path style="fill:#485896; stroke:none;" d="M1242 166L1243 167L1242 166M1248 166L1249 167L1248 166z"/>
<path style="fill:#08a3fa; stroke:none;" d="M763 167L764 168L763 167z"/>
<path style="fill:#a19171; stroke:none;" d="M765 167L766 168L765 167z"/>
<path style="fill:#08a3fa; stroke:none;" d="M817 167L818 168L817 167z"/>
<path style="fill:#a19171; stroke:none;" d="M819 167L820 168L819 167z"/>
<path style="fill:#485896; stroke:none;" d="M866 167L867 168L866 167z"/>
<path style="fill:#a19171; stroke:none;" d="M869 167L870 168L869 167z"/>
<path style="fill:#08a3fa; stroke:none;" d="M909 167L910 168L909 167z"/>
<path style="fill:#a19171; stroke:none;" d="M911 167L912 168L911 167z"/>
<path style="fill:#485896; stroke:none;" d="M918 167L919 168L918 167z"/>
<path style="fill:#08a3fa; stroke:none;" d="M1005 167L1006 168L1005 167z"/>
<path style="fill:#a19171; stroke:none;" d="M1007 167L1008 168L1007 167z"/>
<path style="fill:#485896; stroke:none;" d="M1014 167L1015 168L1014 167z"/>
<path style="fill:#08a3fa; stroke:none;" d="M1060 167L1061 168L1060 167z"/>
<path style="fill:#485896; stroke:none;" d="M1107.33 167.667L1107.67 168.333L1107.33 167.667M1200 167L1201 168L1200 167M1245 167L1246 168L1245 167M763 168L764 169L763 168M767 168L768 169L767 168z"/>
<path style="fill:#08a3fa; stroke:none;" d="M867 168L868 169L867 168z"/>
<path style="fill:#485896; stroke:none;" d="M912 168L913 169L912 168M920 168L921 169L920 168M1005 168L1006 169L1005 168M1008 168L1009 169L1008 168M1016 168L1017 169L1016 168z"/>
<path style="fill:#a19171; stroke:none;" d="M1063 168L1064 169L1063 168M1109 168L1110 169L1109 168z"/>
<path style="fill:#08a3fa; stroke:none;" d="M1193 168L1194 169L1193 168z"/>
<path style="fill:#a19171; stroke:none;" d="M1195 168L1196 169L1195 168z"/>
<path style="fill:#08a3fa; stroke:none;" d="M1200 168L1201 169L1200 168z"/>
<path style="fill:#a19171; stroke:none;" d="M1202 168L1203 169L1202 168z"/>
<path style="fill:#08a3fa; stroke:none;" d="M1243 168L1244 169L1243 168z"/>
<path style="fill:#a19171; stroke:none;" d="M1247 168L1248 169L1247 168z"/>
<path style="fill:#08a3fa; stroke:none;" d="M764 169L765 170L764 169z"/>
<path style="fill:#485896; stroke:none;" d="M818 169L819 170L818 169M910 169L911 170L910 169z"/>
<path style="fill:#a19171; stroke:none;" d="M913 169L914 170L913 169M919 169L920 170L919 169z"/>
<path style="fill:#485896; stroke:none;" d="M1006 169L1007 170L1006 169M1009 169L1010 170L1009 169M1012 169L1013 170L1012 169z"/>
<path style="fill:#a19171; stroke:none;" d="M1015 169L1016 170L1015 169z"/>
<path style="fill:#485896; stroke:none;" d="M1061 169L1062 170L1061 169z"/>
<path style="fill:#08a3fa; stroke:none;" d="M1101.33 169.667L1101.67 170.333L1101.33 169.667z"/>
<path style="fill:#485896; stroke:none;" d="M1103 169L1104 170L1103 169M1106 169L1107 170L1106 169M1109 169L1110 170L1109 169z"/>
<path style="fill:#a19171; stroke:none;" d="M1196 169L1197 170L1196 169z"/>
<path style="fill:#485896; stroke:none;" d="M1199 169L1200 170L1199 169M1243 169L1244 170L1243 169M1247 169L1248 170L1247 169M764 170L765 171L764 170z"/>
<path style="fill:#a19171; stroke:none;" d="M766 170L767 171L766 170z"/>
<path style="fill:#485896; stroke:none;" d="M868 170L869 171L868 170z"/>
<path style="fill:#08a3fa; stroke:none;" d="M912 170L913 171L912 170z"/>
<path style="fill:#a19171; stroke:none;" d="M1064 170L1065 171L1064 170M1200 170L1201 171L1200 170z"/>
<path style="fill:#485896; stroke:none;" d="M1018 171L1019 172L1018 171z"/>
<path style="fill:#08a3fa; stroke:none;" d="M757 221L758 222L757 221z"/>
<path style="fill:#dce6e2; stroke:none;" d="M758 221L761 234L766 226L771 234L774 221L770 231L769 231L765 221L763 231L762 231L760 221L758 221z"/>
<path style="fill:#485896; stroke:none;" d="M764.333 221.667L764.667 222.333L764.333 221.667M767 221L768 222L767 221M774 221L775 222L774 221M810 221L811 222L810 221z"/>
<path style="fill:#dce6e2; stroke:none;" d="M811 221C813.587 226.664 813.126 228.32 811 234L816 229L821 234C818.137 228.643 818.137 226.357 821 221L816 226L811 221z"/>
<path style="fill:#485896; stroke:none;" d="M813 221L814 222L813 221z"/>
<path style="fill:#08a3fa; stroke:none;" d="M818 221L819 222L818 221z"/>
<path style="fill:#dce6e2; stroke:none;" d="M857 221L861 234L863 234L867 221L861 227L857 221z"/>
<path style="fill:#a19171; stroke:none;" d="M859 221L860 222L859 221z"/>
<path style="fill:#485896; stroke:none;" d="M864 221L865 222L864 221M903 221L904 222L903 221z"/>
<path style="fill:#dce6e2; stroke:none;" d="M904 221L904 222L910 222L903 234L913 234L913 233L906 233L913 221L904 221z"/>
<path style="fill:#485896; stroke:none;" d="M757 222L758 223L757 222M760.333 222.667L760.667 223.333L760.333 222.667z"/>
<path style="fill:#a19171; stroke:none;" d="M767 222L768 223L767 222z"/>
<path style="fill:#485896; stroke:none;" d="M771 222L772 223L771 222z"/>
<path style="fill:#08a3fa; stroke:none;" d="M811 222L812 223L811 222z"/>
<path style="fill:#485896; stroke:none;" d="M817 222L818 223L817 222M857 222L858 223L857 222z"/>
<path style="fill:#08a3fa; stroke:none;" d="M864 222L865 223L864 222z"/>
<path style="fill:#485896; stroke:none;" d="M866 222L867 223L866 222z"/>
<path style="fill:#a19171; stroke:none;" d="M912 222L913 223L912 222z"/>
<path style="fill:#08a3fa; stroke:none;" d="M764 223L765 224L764 223M771.333 223.667L771.667 224.333L771.333 223.667z"/>
<path style="fill:#a19171; stroke:none;" d="M814 223L815 224L814 223M819 223L820 224L819 223z"/>
<path style="fill:#485896; stroke:none;" d="M860 223L861 224L860 223M863 223L864 224L863 223z"/>
<path style="fill:#08a3fa; stroke:none;" d="M909 223L910 224L909 223M758 224L759 225L758 224z"/>
<path style="fill:#a19171; stroke:none;" d="M760 224L761 225L760 224M773 224L774 225L773 224z"/>
<path style="fill:#485896; stroke:none;" d="M812 224L813 225L812 224z"/>
<path style="fill:#08a3fa; stroke:none;" d="M816 224L817 225L816 224z"/>
<path style="fill:#485896; stroke:none;" d="M858 224L859 225L858 224z"/>
<path style="fill:#08a3fa; stroke:none;" d="M863 224L864 225L863 224z"/>
<path style="fill:#485896; stroke:none;" d="M865 224L866 225L865 224M908 224L909 225L908 224M911 224L912 225L911 224z"/>
<path style="fill:#dce6e2; stroke:none;" d="M959 224L959 234C964.677 230.386 968.38 224.308 959 224z"/>
<path style="fill:#485896; stroke:none;" d="M965 224L966 225L965 224z"/>
<path style="fill:#dce6e2; stroke:none;" d="M967 224L967 234L982 234L979 224L977 224L974 233L969 233L969 224L967 224z"/>
<path style="fill:#08a3fa; stroke:none;" d="M976 224L977 225L976 224z"/>
<path style="fill:#dce6e2; stroke:none;" d="M981 224L984 234L986 234L989 224L985 228L981 224z"/>
<path style="fill:#a19171; stroke:none;" d="M983 224L984 225L983 224z"/>
<path style="fill:#dce6e2; stroke:none;" d="M996 224L993 234L999 231L1002 234L998 224L996 224z"/>
<path style="fill:#a19171; stroke:none;" d="M998 224L999 225L998 224M1004 224L1005 225L1004 224z"/>
<path style="fill:#dce6e2; stroke:none;" d="M1010 234C1009.94 231.007 1010.05 229.654 1007 229L1009 232C1003.62 230.659 1004.84 226.104 1010 226C1005.13 220.514 997.331 233.3 1010 234M1014 224L1011 234L1020 234L1017 224L1014 224M1021 224L1021 234L1023 234L1023 224L1021 224M1025 224L1025 234L1027 234L1027 228L1028 228L1033 234L1033 224L1032 224L1032 231L1031 231L1025 224z"/>
<path style="fill:#a19171; stroke:none;" d="M1027 224L1028 225L1027 224z"/>
<path style="fill:#08a3fa; stroke:none;" d="M1031 224L1031 230L1032 230L1031 224z"/>
<path style="fill:#a19171; stroke:none;" d="M1033 224L1033 234L1034 234L1033 224z"/>
<path style="fill:#485896; stroke:none;" d="M758 225L759 226L758 225M763 225L764 226L763 225M768 225L769 226L768 225M773 225L774 226L773 225z"/>
<path style="fill:#08a3fa; stroke:none;" d="M813 225L814 226L813 225z"/>
<path style="fill:#a19171; stroke:none;" d="M815 225L816 226L815 225z"/>
<path style="fill:#485896; stroke:none;" d="M818 225L819 226L818 225M861.667 225.333L862.333 225.667L861.667 225.333z"/>
<path style="fill:#a19171; stroke:none;" d="M910 225L911 226L910 225M962 225L961 229L962 229L962 225M979 225L980 226L979 225z"/>
<path style="fill:#08a3fa; stroke:none;" d="M981 225L982 226L981 225M986 225L987 226L986 225z"/>
<path style="fill:#a19171; stroke:none;" d="M988 225L989 226L988 225z"/>
<path style="fill:#08a3fa; stroke:none;" d="M995 225L996 226L995 225z"/>
<path style="fill:#a19171; stroke:none;" d="M1007 225L1008 226L1007 225M1017.33 225.667L1017.67 226.333L1017.33 225.667z"/>
<path style="fill:#485896; stroke:none;" d="M1028 225L1029 226L1028 225M761 226L762 227L761 226z"/>
<path style="fill:#08a3fa; stroke:none;" d="M763 226L764 227L763 226z"/>
<path style="fill:#a19171; stroke:none;" d="M765 226L766 227L765 226z"/>
<path style="fill:#08a3fa; stroke:none;" d="M766 226L767 227L766 226z"/>
<path style="fill:#a19171; stroke:none;" d="M768 226L769 227L768 226z"/>
<path style="fill:#485896; stroke:none;" d="M770 226L771 227L770 226M813 226L814 227L813 226z"/>
<path style="fill:#a19171; stroke:none;" d="M817 226L818 227L817 226z"/>
<path style="fill:#485896; stroke:none;" d="M859 226L860 227L859 226z"/>
<path style="fill:#a19171; stroke:none;" d="M861 226L862 227L861 226z"/>
<path style="fill:#08a3fa; stroke:none;" d="M862 226L863 227L862 226z"/>
<path style="fill:#485896; stroke:none;" d="M864 226L865 227L864 226z"/>
<path style="fill:#08a3fa; stroke:none;" d="M907 226L908 227L907 226z"/>
<path style="fill:#343334; stroke:none;" d="M962 226L962 229L964 226L962 226z"/>
<path style="fill:#485896; stroke:none;" d="M966.333 226.667L966.667 227.333L966.333 226.667z"/>
<path style="fill:#08a3fa; stroke:none;" d="M975 226L976 227L975 226z"/>
<path style="fill:#a19171; stroke:none;" d="M977 226L978 227L977 226M984 226L985 227L984 226M997 226L998 227L997 226M999 226L1000 227L999 226z"/>
<path style="fill:#08a3fa; stroke:none;" d="M1002 226L1003 227L1002 226M1013 226L1014 227L1013 226z"/>
<path style="fill:#a19171; stroke:none;" d="M1015 226L1016 227L1015 226z"/>
<path style="fill:#08a3fa; stroke:none;" d="M759.333 227.667L759.667 228.333L759.333 227.667z"/>
<path style="fill:#a19171; stroke:none;" d="M761.333 227.667L761.667 228.333L761.333 227.667z"/>
<path style="fill:#485896; stroke:none;" d="M765.667 227.333L766.333 227.667L765.667 227.333z"/>
<path style="fill:#08a3fa; stroke:none;" d="M770.333 227.667L770.667 228.333L770.333 227.667z"/>
<path style="fill:#a19171; stroke:none;" d="M772 227L773 228L772 227z"/>
<path style="fill:#08a3fa; stroke:none;" d="M814 227L815 228L814 227z"/>
<path style="fill:#485896; stroke:none;" d="M906 227L907 228L906 227M909 227L910 228L909 227z"/>
<path style="fill:#a19171; stroke:none;" d="M975 227L976 228L975 227z"/>
<path style="fill:#343334; stroke:none;" d="M977 227L977 230L978 230L977 227z"/>
<path style="fill:#08a3fa; stroke:none;" d="M982 227L983 228L982 227M985 227L986 228L985 227z"/>
<path style="fill:#a19171; stroke:none;" d="M987 227L988 228L987 227z"/>
<path style="fill:#485896; stroke:none;" d="M994 227L995 228L994 227M997 227L998 228L997 227M1004 227L1005 228L1004 227z"/>
<path style="fill:#343334; stroke:none;" d="M1015 227L1015 230L1016 230L1015 227z"/>
<path style="fill:#a19171; stroke:none;" d="M1029 227L1030 228L1029 227z"/>
<path style="fill:#485896; stroke:none;" d="M769.333 228.667L769.667 229.333L769.333 228.667M772.333 228.667L772.667 229.333L772.333 228.667M813 228L814 229L813 228z"/>
<path style="fill:#a19171; stroke:none;" d="M817 228L818 229L817 228z"/>
<path style="fill:#485896; stroke:none;" d="M860 228L860 234L861 234L860 228M863 228L864 229L863 228z"/>
<path style="fill:#a19171; stroke:none;" d="M908 228L909 229L908 228M963 228L964 229L963 228z"/>
<path style="fill:#08a3fa; stroke:none;" d="M978 228L979 229L978 228z"/>
<path style="fill:#a19171; stroke:none;" d="M980 228L981 229L980 228z"/>
<path style="fill:#08a3fa; stroke:none;" d="M994 228L995 229L994 228z"/>
<path style="fill:#a19171; stroke:none;" d="M996 228L997 229L996 228z"/>
<path style="fill:#343334; stroke:none;" d="M997 228L996 230L998 230L997 228z"/>
<path style="fill:#485896; stroke:none;" d="M1012 228L1013 229L1012 228z"/>
<path style="fill:#a19171; stroke:none;" d="M1016 228L1017 229L1016 228M1018 228L1019 229L1018 228z"/>
<path style="fill:#485896; stroke:none;" d="M1027 228L1028 229L1027 228M759 229L760 230L759 229M762 229L763 230L762 229z"/>
<path style="fill:#a19171; stroke:none;" d="M764.333 229.667L764.667 230.333L764.333 229.667z"/>
<path style="fill:#08a3fa; stroke:none;" d="M767.333 229.667L767.667 230.333L767.333 229.667z"/>
<path style="fill:#a19171; stroke:none;" d="M815 229L816 230L815 229z"/>
<path style="fill:#485896; stroke:none;" d="M818 229L819 230L818 229M905 229L906 230L905 229z"/>
<path style="fill:#a19171; stroke:none;" d="M965 229L966 230L965 229z"/>
<path style="fill:#08a3fa; stroke:none;" d="M974 229L975 230L974 229z"/>
<path style="fill:#a19171; stroke:none;" d="M976 229L977 230L976 229z"/>
<path style="fill:#485896; stroke:none;" d="M978 229L979 230L978 229M983 229L984 230L983 229z"/>
<path style="fill:#a19171; stroke:none;" d="M986 229L987 230L986 229M998 229L999 230L998 229M1000 229L1001 230L1000 229z"/>
<path style="fill:#08a3fa; stroke:none;" d="M1006 229L1007 230L1006 229z"/>
<path style="fill:#a19171; stroke:none;" d="M1010 229L1010 234L1011 234L1010 229z"/>
<path style="fill:#08a3fa; stroke:none;" d="M1012 229L1013 230L1012 229z"/>
<path style="fill:#a19171; stroke:none;" d="M1014 229L1015 230L1014 229z"/>
<path style="fill:#08a3fa; stroke:none;" d="M1016 229L1017 230L1016 229M1028 229L1029 230L1028 229z"/>
<path style="fill:#a19171; stroke:none;" d="M762 230L763 231L762 230M769 230L770 231L769 230z"/>
<path style="fill:#08a3fa; stroke:none;" d="M812 230L813 231L812 230M816 230L817 231L816 230z"/>
<path style="fill:#a19171; stroke:none;" d="M907 230L908 231L907 230M962.667 230.333L963.333 230.667L962.667 230.333M981.333 230.667L981.667 231.333L981.333 230.667z"/>
<path style="fill:#485896; stroke:none;" d="M993 230L994 231L993 230M1006 230L1007 231L1006 230z"/>
<path style="fill:#a19171; stroke:none;" d="M1007 230L1008 231L1007 230M1031 230L1032 231L1031 230z"/>
<path style="fill:#08a3fa; stroke:none;" d="M760 231L761 232L760 231z"/>
<path style="fill:#485896; stroke:none;" d="M764 231L765 232L764 231M767 231L768 232L767 231z"/>
<path style="fill:#a19171; stroke:none;" d="M771 231L772 232L771 231z"/>
<path style="fill:#485896; stroke:none;" d="M811 231L812 232L811 231M814 231L815 232L814 231z"/>
<path style="fill:#a19171; stroke:none;" d="M819 231L820 232L819 231z"/>
<path style="fill:#08a3fa; stroke:none;" d="M904 231L905 232L904 231z"/>
<path style="fill:#a19171; stroke:none;" d="M961 231L961 234L962 234L961 231z"/>
<path style="fill:#485896; stroke:none;" d="M973 231L974 232L973 231z"/>
<path style="fill:#a19171; stroke:none;" d="M976 231L976 232L979 232L976 231M993 231L994 232L993 231M996 231L996 232L999 232L996 231M1002 231L1003 232L1002 231z"/>
<path style="fill:#08a3fa; stroke:none;" d="M1008 231L1009 232L1008 231M1011 231L1012 232L1011 231z"/>
<path style="fill:#a19171; stroke:none;" d="M1014 231L1014 232L1017 232L1014 231M1019 231L1020 232L1019 231z"/>
<path style="fill:#485896; stroke:none;" d="M1029 231L1030 232L1029 231M760 232L761 233L760 232M771 232L772 233L771 232z"/>
<path style="fill:#a19171; stroke:none;" d="M813 232L814 233L813 232z"/>
<path style="fill:#485896; stroke:none;" d="M817 232L818 233L817 232M820 232L821 233L820 232M903 232L904 233L903 232M906 232L907 233L906 232z"/>
<path style="fill:#a19171; stroke:none;" d="M969 232L969 233L973 233L969 232z"/>
<path style="fill:#08a3fa; stroke:none;" d="M973 232L974 233L973 232z"/>
<path style="fill:#a19171; stroke:none;" d="M975.333 232.667L975.667 233.333L975.333 232.667z"/>
<path style="fill:#485896; stroke:none;" d="M979 232L980 233L979 232z"/>
<path style="fill:#a19171; stroke:none;" d="M1001 232L1002 233L1001 232M1006.67 232.333L1007.33 232.667L1006.67 232.333M1013 232L1014 233L1013 232z"/>
<path style="fill:#08a3fa; stroke:none;" d="M1017 232L1018 233L1017 232M1030 232L1031 233L1030 232z"/>
<path style="fill:#a19171; stroke:none;" d="M763 233L764 234L763 233z"/>
<path style="fill:#08a3fa; stroke:none;" d="M768 233L769 234L768 233M810 233L811 234L810 233M818 233L819 234L818 233z"/>
<path style="fill:#a19171; stroke:none;" d="M982 233L983 234L982 233z"/>
<path style="fill:#08a3fa; stroke:none;" d="M992 233L993 234L992 233M999 233L1000 234L999 233z"/>
<path style="fill:#a19171; stroke:none;" d="M1004 233L1005 234L1004 233z"/>
<path style="fill:#485896; stroke:none;" d="M1020 233L1021 234L1020 233M213 312L213 313L400 313L382 312L344 312L213 312z"/>
<path style="fill:#08a3fa; stroke:none;" d="M212 313L212 319L400 319L400 313L212 313z"/>
<path style="fill:#485896; stroke:none;" d="M212 319L212 320L400 320L382 319L344 319L212 319M191 375L191 391L192 391L191 375z"/>
<path style="fill:#a19171; stroke:none;" d="M192 375L192 391L199 391L199 389L193 389L192 375z"/>
<path style="fill:#485896; stroke:none;" d="M193 375L193 389L194 389L193 375M212.667 375.333L213.333 375.667L212.667 375.333z"/>
<path style="fill:#a19171; stroke:none;" d="M214.004 375.762C205.152 377.108 206.964 391.623 215.985 390.238C224.681 388.903 222.899 374.409 214.004 375.762z"/>
<path style="fill:#485896; stroke:none;" d="M216.667 375.333L217.333 375.667L216.667 375.333M229 375L232 384L233 384L229 375z"/>
<path style="fill:#a19171; stroke:none;" d="M230 375C231.764 380.423 232.814 388.002 238 391L243 375L237 389L236 389L230 375z"/>
<path style="fill:#485896; stroke:none;" d="M243 375L244 376L243 375M252 375L252 391L253 391L252 375z"/>
<path style="fill:#a19171; stroke:none;" d="M253 375L253 391L260 391L260 389L254 389L254 384L260 384L260 382L254 382L254 377L260 377L260 375L253 375z"/>
<path style="fill:#485896; stroke:none;" d="M260.333 375.667L260.667 376.333L260.333 375.667M210 376L211 377L210 376M219 376L220 377L219 376M232.333 376.667L232.667 377.333L232.333 376.667M240.333 376.667L240.667 377.333L240.333 376.667M209 377L210 378L209 377M210 380L214 378L210 380z"/>
<path style="fill:#343334; stroke:none;" d="M214.04 377.971C208.178 379.31 209.853 389.446 215.871 388.029C221.318 386.747 219.85 376.643 214.04 377.971z"/>
<path style="fill:#485896; stroke:none;" d="M216.667 377.333L217.333 377.667L216.667 377.333M220 377L221 378L220 377M242 377L243 378L242 377M254 377L254 382L255 382L254 377M208 378L209 379L208 378M218 378L219 379L218 378M219 379L219 382L220 382L219 379M221 379L222 380L221 379M233.333 379.667L233.667 380.333L233.333 379.667M239.333 379.667L239.667 380.333L239.333 379.667M207 380L207 386L208 386L207 380M241 380L242 381L241 380M209 381L209 385L210 385L209 381M222.333 382.667L222.667 383.333L222.333 382.667M234.333 382.667L234.667 383.333L234.333 382.667M238.333 382.667L238.667 383.333L238.333 382.667M240.333 382.667L240.667 383.333L240.333 382.667M219 384L219 387L220 387L219 384M254 384L254 389L255 389L254 384M233.333 385.667L233.667 386.333L233.333 385.667M235.333 385.667L235.667 386.333L235.333 385.667M237.333 385.667L237.667 386.333L237.333 385.667M239.333 385.667L239.667 386.333L239.333 385.667M210 386L211 387L210 386M221 386L222 387L221 386M208 387L209 388L208 387M211 387L212 388L211 387M218 387L219 388L218 387M236.333 387.667L236.667 388.333L236.333 387.667M209 388L210 389L209 388M212.667 388.333L213.333 388.667L212.667 388.333M216.667 388.333L217.333 388.667L216.667 388.333M220 388L221 389L220 388M234.333 388.667L234.667 389.333L234.333 388.667M238 388L239 389L238 388M199.333 389.667L199.667 390.333L199.333 389.667M210 389L211 390L210 389M219 389L220 390L219 389M260.333 389.667L260.667 390.333L260.333 389.667M212.667 390.333L213.333 390.667L212.667 390.333M216.667 390.333L217.333 390.667L216.667 390.333M235 390L236 391L235 390z"/>
<path style="fill:#a19171; stroke:none;" d="M1169 497L1169 505C1163.1 501.428 1156.53 507.547 1160.5 513.833C1162.61 517.167 1167.91 515.007 1171 516L1171 497L1169 497M1027 498L1021 516L1022 516C1025.86 509.517 1030.14 509.517 1034 516L1035 516L1029 498L1027 498z"/>
<path style="fill:#485896; stroke:none;" d="M1058.33 498.667L1058.67 499.333L1058.33 498.667z"/>
<path style="fill:#a19171; stroke:none;" d="M1059.33 498.667L1059.67 499.333L1059.33 498.667M1116 498L1121 516L1122 516L1126 501L1127 501C1128.03 505.981 1128.47 513.147 1133 516L1137 498L1136 498L1132 513L1127 498L1122 513L1121 513L1116 498z"/>
<path style="fill:#485896; stroke:none;" d="M1117 498L1118 499L1117 498M1127 498L1128 499L1127 498M1135.33 498.667L1135.67 499.333L1135.33 498.667M1140.33 498.667L1140.67 499.333L1140.33 498.667z"/>
<path style="fill:#a19171; stroke:none;" d="M1141.33 498.667L1141.67 499.333L1141.33 498.667z"/>
<path style="fill:#485896; stroke:none;" d="M1026 499L1027 500L1026 499M1029 499L1030 500L1029 499M1051 499L1052 500L1051 499M1090 499L1091 500L1090 499M1125 499L1126 500L1125 499M1027 500L1029 502L1027 500z"/>
<path style="fill:#a19171; stroke:none;" d="M1051 500L1049 504L1055 516L1055 515C1051.54 511.332 1051.33 507.591 1055 504L1055 503L1051 500M1090 500L1088 504L1094 516L1094 515C1090.54 511.332 1090.33 507.591 1094 504L1094 503L1090 500z"/>
<path style="fill:#343334; stroke:none;" d="M1027 501L1025 509L1031 509L1027 501z"/>
<path style="fill:#485896; stroke:none;" d="M1116 501L1117 502L1116 501M1126.33 501.667L1126.67 502.333L1126.33 501.667M1128.33 501.667L1128.67 502.333L1128.33 501.667M1136 501L1137 502L1136 501M1025 502L1026 503L1025 502M1030 502L1031 503L1030 502M1118 502L1119 503L1118 502M1134.33 502.667L1134.67 503.333L1134.33 502.667z"/>
<path style="fill:#a19171; stroke:none;" d="M136 503L135 508L136 508L136 503z"/>
<path style="fill:#dce6e2; stroke:none;" d="M137 503L136 508L137 503z"/>
<path style="fill:#a19171; stroke:none;" d="M138.333 503.667L138.667 504.333L138.333 503.667z"/>
<path style="fill:#485896; stroke:none;" d="M1026 503L1027 504L1026 503M1041 503L1041 504L1046 504L1046 503L1041 503z"/>
<path style="fill:#a19171; stroke:none;" d="M1042 503L1042 504L1045 504L1042 503z"/>
<path style="fill:#485896; stroke:none;" d="M1048 503L1048 505L1050 505L1048 503M1055 503L1053 504L1053 505L1055 503z"/>
<path style="fill:#a19171; stroke:none;" d="M1058 503L1058 516L1060 516L1060 503L1058 503z"/>
<path style="fill:#485896; stroke:none;" d="M1062 503L1063 504L1062 503z"/>
<path style="fill:#a19171; stroke:none;" d="M1063 503L1069 516L1063 503M1072 503L1069 513L1070 513L1072 503z"/>
<path style="fill:#485896; stroke:none;" d="M1073 503L1074 504L1073 503M1078 503L1081 505L1081 504L1078 503z"/>
<path style="fill:#a19171; stroke:none;" d="M1079 503L1079 504L1082 508C1082.61 512.15 1081.11 513.601 1077 514L1081 510L1081 509C1071.09 510.653 1080.1 514.721 1084 516L1085 516C1085 510.159 1085.82 504.455 1079 503z"/>
<path style="fill:#485896; stroke:none;" d="M1082 503L1083 504L1082 503M1087 503L1087 505L1089 505L1087 503M1094 503L1092 504L1092 505L1094 503M1100 503L1100 504L1104 504L1104 503L1100 503z"/>
<path style="fill:#a19171; stroke:none;" d="M1101.67 503.333L1102.33 503.667L1101.67 503.333z"/>
<path style="fill:#485896; stroke:none;" d="M1124 503L1125 504L1124 503M1127.33 503.667L1127.67 504.333L1127.33 503.667z"/>
<path style="fill:#a19171; stroke:none;" d="M1140 503L1140 516L1142 516L1142 503L1140 503M1146 503L1146 516L1148 516C1148.01 503.755 1154.96 503.739 1155 516L1156 516C1156 504.512 1154.86 505.849 1146 503z"/>
<path style="fill:#485896; stroke:none;" d="M1150 503L1151 504L1150 503M1153 503L1154 504L1153 503M1163 503L1164 504L1163 503M1166 503L1167 504L1166 503M1178 503L1178 504L1183 504L1183 503L1178 503z"/>
<path style="fill:#a19171; stroke:none;" d="M1179 503L1179 504L1182 504L1179 503M1189 503L1194 516L1189 503z"/>
<path style="fill:#485896; stroke:none;" d="M1196 503L1197 504L1196 503z"/>
<path style="fill:#a19171; stroke:none;" d="M1197 503L1195 510L1196 510L1197 506L1198 509L1199 509L1197 503M1204 503L1203 509L1204 509L1204 503z"/>
<path style="fill:#485896; stroke:none;" d="M1205 503L1206 504L1205 503M1210 503L1213 505L1213 504L1210 503z"/>
<path style="fill:#a19171; stroke:none;" d="M1211 503L1211 504L1215 505L1215 504L1211 503z"/>
<path style="fill:#485896; stroke:none;" d="M1214 503L1215 504L1214 503M89 504L89 510L83 510L83 511C88.2436 510.546 88.3597 513.519 89 518L90 518L89 504M113 504L113 518L120 517L120 516C112.439 516.655 115.206 508.958 113 504M140 515L139 515L136 508C136.005 515.603 136.491 519.899 145 520C142.317 513.177 141.49 511.582 146 506C150.239 511.191 148.248 514.284 146 520L153 520C152.267 516.429 151.886 509.183 149.397 506.529C143.124 499.84 140.04 510.528 140 515M1029 504L1030 505L1029 504M1039 504L1040 505L1039 504z"/>
<path style="fill:#a19171; stroke:none;" d="M1046 515L1046 514C1038.84 514.266 1039.28 509.019 1042 504C1035.3 507.697 1038.46 516.394 1046 515M1045 504L1046 505L1045 504z"/>
<path style="fill:#485896; stroke:none;" d="M1064 504L1065 505L1064 504M1071 504L1072 505L1071 504z"/>
<path style="fill:#a19171; stroke:none;" d="M1077.67 504.333L1078.33 504.667L1077.67 504.333z"/>
<path style="fill:#485896; stroke:none;" d="M1098 504L1097 505L1097 506L1098 507L1099 507L1100 506L1100 505L1098 504z"/>
<path style="fill:#a19171; stroke:none;" d="M1099.67 504.333L1100.33 504.667L1099.67 504.333M1103 504L1105 508L1098 506L1097 506C1097.06 512.681 1098.65 516.577 1106 515L1106 514C1101.59 514.329 1099.3 513.35 1098 509L1107 509L1103 504z"/>
<path style="fill:#485896; stroke:none;" d="M1105 504L1106 505L1105 504M1117.33 504.667L1117.67 505.333L1117.33 504.667M1125 504L1126 505L1125 504M1151 504L1152 505L1151 504M1161 504L1162 505L1161 504M1164.67 504.333L1165.33 504.667L1164.67 504.333M1168 504L1169 505L1168 504M1175 505L1175 506L1178 506L1175 505z"/>
<path style="fill:#a19171; stroke:none;" d="M1177.67 504.333L1178.33 504.667L1177.67 504.333M1182 504L1182 505C1189.03 512.609 1174.87 518.171 1177 505L1176 505C1170.77 522.893 1194.88 511.103 1182 504z"/>
<path style="fill:#485896; stroke:none;" d="M1184 504L1185 505L1184 504M1190 504L1191 505L1190 504M1203.33 504.667L1203.67 505.333L1203.33 504.667M1208 504L1210 506L1208 504z"/>
<path style="fill:#a19171; stroke:none;" d="M1209.67 504.333L1210.33 504.667L1209.67 504.333z"/>
<path style="fill:#485896; stroke:none;" d="M49 510L50 510L58 506C53.7892 504.303 50.938 506.158 49 510M98.3333 505.667L98.6667 506.333L98.3333 505.667M124 505L124 514L125 514L124 505z"/>
<path style="fill:#a19171; stroke:none;" d="M139 505L140 506L139 505z"/>
<path style="fill:#485896; stroke:none;" d="M1024 505L1025 506L1024 505M1031 505L1032 506L1031 505M1063 505L1064 506L1063 505M1084 505L1085 506L1084 505z"/>
<path style="fill:#a19171; stroke:none;" d="M1098 505L1099 506L1098 505z"/>
<path style="fill:#343334; stroke:none;" d="M1098 508L1105 508C1102.81 504.677 1100.6 505.376 1098 508z"/>
<path style="fill:#485896; stroke:none;" d="M1129 505L1130 506L1129 505M1135 505L1136 506L1135 505M1153 505L1154 506L1153 505M1155 505L1156 506L1155 505M1160 505L1161 506L1160 505M1162 505L1163 506L1162 505z"/>
<path style="fill:#343334; stroke:none;" d="M1163.31 506.047C1159.49 508.46 1162.41 515.333 1166.69 512.914C1170.83 510.565 1167.94 503.13 1163.31 506.047M1178.32 506.047C1173.87 508.809 1178.2 515.733 1182.68 512.953C1187.13 510.191 1182.8 503.267 1178.32 506.047z"/>
<path style="fill:#485896; stroke:none;" d="M1183 505L1184 506L1183 505M1185 505L1186 506L1185 505M1198 505L1199 506L1198 505z"/>
<path style="fill:#a19171; stroke:none;" d="M1208 505C1208.66 508.83 1210.37 509.887 1214 511L1214 514L1208 514L1208 515C1218.88 517.029 1211.37 508.524 1208 505M138 506L139 507L138 506M146 506C141.72 509.575 139.234 517.361 147 519L147 518L144 516L148 517C149.351 512.352 149.731 509.464 146 506z"/>
<path style="fill:#485896; stroke:none;" d="M1025 506L1026 507L1025 506M1030 506L1031 507L1030 506M1106.33 506.667L1106.67 507.333L1106.33 506.667M1119 506L1120 507L1119 506M1123.33 506.667L1123.67 507.333L1123.33 506.667M1133.33 506.667L1133.67 507.333L1133.33 506.667M1189 506L1190 507L1189 506M1195 506L1196 507L1195 506M1197 506L1198 507L1197 506M1204 506L1205 507L1204 506M1207 506L1208 507L1207 506M1023 507L1024 508L1023 507M1032 507L1033 508L1032 507M1039 507L1040 508L1039 507M1065 507L1066 508L1065 507M1070 507L1071 508L1070 507M1083 507L1084 508L1083 507M1096 507L1096 512L1097 512L1096 507M1128 507L1129 508L1128 507M1154 507L1154 516L1155 516L1154 507M1191.33 507.667L1191.67 508.333L1191.33 507.667M1196 507L1197 508L1196 507M1209 507L1210 508L1209 507z"/>
<path style="fill:#dce6e2; stroke:none;" d="M143 508L143 514L145 511L146 511L148 514L149 511L147 509L146 509L145 509L143 511L143 508z"/>
<path style="fill:#485896; stroke:none;" d="M1037 508L1037 511L1038 511L1037 508M1064 508L1065 509L1064 508M1071 508L1072 509L1071 508M1080 508L1080 509L1083 512L1084 512L1080 508M1118 508L1119 509L1118 508M1124 508L1125 509L1124 508M1134.33 508.667L1134.67 509.333L1134.33 508.667M1159 508L1159 512L1160 512L1159 508M1174 508L1174 511L1175 511L1174 508M1186 508L1186 511L1187 511L1186 508M1199 508L1198 510L1200 510L1199 508M1202 508L1204 511L1202 508M63.314 510.086C59.3576 512.342 62.4607 519.322 66.686 516.914C70.6424 514.658 67.5393 507.678 63.314 510.086M72 512L79 511C76.0866 508.913 74.4512 509.523 72 512M98 509L98 520L99 520L98 509M104.314 510.086C100.358 512.342 103.461 519.322 107.686 516.914C111.642 514.658 108.539 507.678 104.314 510.086M116 509L116 510L120 515L121 515C120.432 511.418 119.492 510.057 116 509z"/>
<path style="fill:#343334; stroke:none;" d="M143.333 509.667L143.667 510.333L143.333 509.667M147.333 509.667L147.667 510.333L147.333 509.667z"/>
<path style="fill:#dce6e2; stroke:none;" d="M149.333 509.667L149.667 510.333L149.333 509.667z"/>
<path style="fill:#485896; stroke:none;" d="M1098 509L1098 510L1107 510L1098 509M1120.33 509.667L1120.67 510.333L1120.33 509.667M1130 509L1131 510L1130 509M1190 509L1191 510L1190 509M1209 509L1210 510L1209 509M1213 509L1214 510L1213 509z"/>
<path style="fill:#343334; stroke:none;" d="M63.5887 511.086C60.9252 512.986 63.4665 518.015 66.4113 515.914C69.0748 514.014 66.5335 508.985 63.5887 511.086M104.589 511.086C101.925 512.986 104.466 518.015 107.411 515.914C110.075 514.014 107.534 508.985 104.589 511.086z"/>
<path style="fill:#485896; stroke:none;" d="M1022 510L1023 511L1022 510M1025 510L1025 511L1031 511L1025 510M1033 510L1034 511L1033 510M1069 510L1070 511L1069 510z"/>
<path style="fill:#343334; stroke:none;" d="M1077 511L1077 513C1080.43 513.784 1081.86 513.422 1083 510L1077 511z"/>
<path style="fill:#485896; stroke:none;" d="M1122 510L1123 511L1122 510M1132.33 510.667L1132.67 511.333L1132.33 510.667M1194.67 510.333L1195.33 510.667L1194.67 510.333z"/>
<path style="fill:#a19171; stroke:none;" d="M1199 510L1199 513L1200 513L1199 510M1202 510L1202 513L1203 513L1202 510z"/>
<path style="fill:#485896; stroke:none;" d="M55 511L55 512L57 517L50 513L49 513C51.7231 520.118 57.7721 517.94 58 511L55 511z"/>
<path style="fill:#a19171; stroke:none;" d="M145 511L146 512L145 511z"/>
<path style="fill:#485896; stroke:none;" d="M1065 511L1066 512L1065 511M1070 511L1071 512L1070 511M1075 511L1075 514L1076 514L1075 511M1119.33 511.667L1119.67 512.333L1119.33 511.667M1129 511L1130 512L1129 511M1192 511L1195 514L1192 511z"/>
<path style="fill:#a19171; stroke:none;" d="M1194.33 511.667L1194.67 512.333L1194.33 511.667z"/>
<path style="fill:#485896; stroke:none;" d="M1213 511L1214 512L1213 511M1215.33 511.667L1215.67 512.333L1215.33 511.667M79 512L79 515L80 515L79 512M82 512C82.568 515.582 83.5082 516.943 87 518L87 517L82 512z"/>
<path style="fill:#343334; stroke:none;" d="M145 512L146 513L145 512z"/>
<path style="fill:#485896; stroke:none;" d="M146 512L147 513L146 512M1023 512L1024 513L1023 512M1032 512L1033 513L1032 512M1067 512L1070 514L1070 513L1067 512M1098 512L1099 513L1098 512M1121 512L1122 513L1121 512M1123 512L1124 513L1123 512M1131 512L1132 513L1131 512M1133 512L1134 513L1133 512M1161 512L1162 513L1161 512M1168 512L1169 513L1168 512M1199 513L1199 514L1203 514L1199 513M145 513L146 514L145 513M1021 513L1022 514L1021 513M1034 513L1035 514L1034 513M1038 513L1039 514L1038 513M1040 513L1041 514L1040 513M1052 513L1053 514L1052 513M1077 513L1078 514L1077 513M1091 513L1092 514L1091 513M1097 513L1098 514L1097 513M1099 513L1100 514L1099 513M1105 513L1106 514L1105 513M1162 513L1163 514L1162 513M1167 513L1168 514L1167 513M1175 513L1176 514L1175 513M1177 513L1178 514L1177 513M1183 513L1184 514L1183 513M1191 513L1192 514L1191 513M1039 514L1040 515L1039 514M1042 514L1042 515L1045 515L1042 514M1054 514L1056 516L1056 514L1054 514M1066 514L1067 515L1066 514M1079.67 514.333L1080.33 514.667L1079.67 514.333M1082 514L1084 516L1084 514L1082 514M1093 514L1095 516L1095 514L1093 514M1101 514L1101 515L1104 515L1101 514M1164.67 514.333L1165.33 514.667L1164.67 514.333M1176 514L1177 515L1176 514M1179 514L1179 515L1182 515L1179 514M1184 514L1185 515L1184 514z"/>
<path style="fill:#a19171; stroke:none;" d="M1200 514L1200 516L1202 516L1202 514L1200 514z"/>
<path style="fill:#485896; stroke:none;" d="M1207 514L1208 515L1207 514M1209 514L1209 515L1212 515L1209 514M1214 514L1215 515L1214 514M72 515L79 517L79 516L72 515M1022 515L1023 516L1022 515M1033 515L1034 516L1033 515M1041 515L1042 516L1041 515M1045 515L1046 516L1045 515M1052 515L1053 516L1052 515M1077 515L1078 516L1077 515M1091 515L1092 516L1091 515M1099 515L1100 516L1099 515M1104 515L1105 516L1104 515M1120 515L1121 516L1120 515M1122 515L1123 516L1122 515M1130 515L1131 516L1130 515M1162 515L1163 516L1162 515M1166 515L1167 516L1166 515M1178 515L1179 516L1178 515M1182 515L1183 516L1182 515M1208 515L1209 516L1208 515M1212 515L1213 516L1212 515M124.333 516.667L124.667 517.333L124.333 516.667z"/>
<path style="fill:#dce6e2; stroke:none;" d="M144 516L146 519L147 516L144 516z"/>
<path style="fill:#485896; stroke:none;" d="M95.6667 521.333L96.3333 521.667L95.6667 521.333z"/>
<path style="fill:#a19171; stroke:none;" d="M1265 529L1265 535L1261 534L1261 535L1265 543L1266 543L1265 529M1021 539L1022 539C1022.59 533.773 1024.77 531.588 1030 531C1023.98 528.678 1021.29 533.676 1021 539z"/>
<path style="fill:#485896; stroke:none;" d="M1073 530L1074 531L1073 530z"/>
<path style="fill:#a19171; stroke:none;" d="M1074 530L1074 531L1078 531L1074 530z"/>
<path style="fill:#485896; stroke:none;" d="M1102 530L1102 532L1104 532L1104 530L1102 530M1185 530L1185 532L1187 532L1187 530L1185 530M1226 530L1227 531L1226 530z"/>
<path style="fill:#a19171; stroke:none;" d="M1227 530L1227 533L1228 533L1227 530M1234 530L1235 534L1236 534L1234 530M1241 530L1241 533L1242 533L1241 530z"/>
<path style="fill:#485896; stroke:none;" d="M1242 530L1243 531L1242 530M1244 530L1244 532L1246 532L1246 530L1244 530M1030 531L1031 532L1030 531z"/>
<path style="fill:#a19171; stroke:none;" d="M1050 531C1049.53 535.364 1049 540.412 1053 543L1053 542C1051.02 539.345 1051.02 537.655 1053 535L1053 534L1050 531M1072 531L1073 532L1072 531M1091 531C1090.53 535.364 1090 540.412 1094 543L1094 542C1092.02 539.345 1092.02 537.655 1094 535L1094 534L1091 531M1097 531L1097 542L1098 542L1100 535L1100 534L1097 531M1141 531C1140.53 535.364 1140 540.412 1144 543L1144 542C1142.02 539.345 1142.02 537.655 1144 535L1144 534L1141 531M1180 531C1179.53 535.364 1179 540.412 1183 543L1183 542C1181.02 539.345 1181.02 537.655 1183 535L1183 534L1180 531M1208 531C1207.53 535.364 1207 540.412 1211 543L1211 542C1209.02 539.345 1209.02 537.655 1211 535L1211 534L1208 531z"/>
<path style="fill:#485896; stroke:none;" d="M1235 531L1236 532L1235 531M1023 532L1024 533L1023 532M1071 532L1071 535L1072 535L1073 532L1071 532M1233 532L1235 534L1235 532L1233 532z"/>
<path style="fill:#a19171; stroke:none;" d="M1071 533L1072 534L1071 533z"/>
<path style="fill:#485896; stroke:none;" d="M1227.67 533.333L1228.33 533.667L1227.67 533.333z"/>
<path style="fill:#a19171; stroke:none;" d="M1233.33 533.667L1233.67 534.333L1233.33 533.667z"/>
<path style="fill:#485896; stroke:none;" d="M1240.67 533.333L1241.33 533.667L1240.67 533.333M1022 534L1023 535L1022 534M1035 534L1033 536L1033 537L1035 534z"/>
<path style="fill:#a19171; stroke:none;" d="M1036 534L1036 535L1041 536L1036 534z"/>
<path style="fill:#485896; stroke:none;" d="M1048 534L1049 535L1048 534M1053 534L1054 535L1053 534M1057 534L1055 536L1055 537L1057 534z"/>
<path style="fill:#a19171; stroke:none;" d="M1058 534L1058 535L1063 536L1058 534M1072 534L1077 542L1078 542C1078.44 537.51 1075.71 536.033 1072 534M1082 535L1082 536L1086 535L1082 535z"/>
<path style="fill:#485896; stroke:none;" d="M1086 534L1086 536L1088 536L1086 534M1089 534L1090 535L1089 534M1094.67 534.333L1095.33 534.667L1094.67 534.333M1100 534L1101 535L1100 534M1102 534L1102 543L1104 543L1104 534L1102 534M1106 534L1106 543L1108 543L1107 535L1109 536L1109 535L1106 534z"/>
<path style="fill:#a19171; stroke:none;" d="M1109 534L1109 535L1112 535L1109 534M1117 535L1117 536C1124.79 535.325 1123.8 544.907 1117 546L1117 547C1124.88 546.399 1124 540.432 1124 534L1117 535z"/>
<path style="fill:#485896; stroke:none;" d="M1128 534L1127 536L1129 536L1128 534z"/>
<path style="fill:#a19171; stroke:none;" d="M1129 534L1129 535L1132 535L1129 534z"/>
<path style="fill:#485896; stroke:none;" d="M1132.33 534.667L1132.67 535.333L1132.33 534.667M1139 534L1140 535L1139 534M1144 534L1145 535L1144 534M1148 534L1146 536L1146 537L1148 534z"/>
<path style="fill:#a19171; stroke:none;" d="M1149 534L1149 535L1154 536L1149 534z"/>
<path style="fill:#485896; stroke:none;" d="M1163 534L1164 535L1163 534z"/>
<path style="fill:#a19171; stroke:none;" d="M1164 534L1164 535L1168 536L1168 535L1164 534z"/>
<path style="fill:#485896; stroke:none;" d="M1167 534L1168 535L1167 534M1173 534L1171 536L1171 537L1173 534z"/>
<path style="fill:#a19171; stroke:none;" d="M1174 534L1174 535L1177 535L1174 534z"/>
<path style="fill:#485896; stroke:none;" d="M1177 534L1177 536L1179 534L1177 534M1183 534L1184 535L1183 534M1185 534L1185 543L1187 543L1187 534L1185 534M1188.67 534.333L1189.33 534.667L1188.67 534.333M1195.67 534.333L1196.33 534.667L1195.67 534.333M1199 534L1200 535L1199 534z"/>
<path style="fill:#a19171; stroke:none;" d="M1200 534L1200 535L1204 536L1204 535L1200 534z"/>
<path style="fill:#485896; stroke:none;" d="M1203 534L1204 535L1203 534M1206 534L1207 535L1206 534M1211 534L1212 535L1211 534z"/>
<path style="fill:#a19171; stroke:none;" d="M1214 535L1214 536L1218 535L1214 535z"/>
<path style="fill:#485896; stroke:none;" d="M1218 534L1218 536L1220 536L1218 534z"/>
<path style="fill:#a19171; stroke:none;" d="M1228.33 534.667L1228.67 535.333L1228.33 534.667z"/>
<path style="fill:#485896; stroke:none;" d="M1235 534L1235 536L1237 536L1237 534L1235 534z"/>
<path style="fill:#a19171; stroke:none;" d="M1240 534L1240 537L1241 537L1240 534z"/>
<path style="fill:#485896; stroke:none;" d="M1244 534L1244 543L1246 543L1246 534L1244 534M1248 534L1248 543L1250 543L1249 535L1251 536L1251 535L1248 534z"/>
<path style="fill:#a19171; stroke:none;" d="M1251 534L1251 535L1254 535L1251 534z"/>
<path style="fill:#485896; stroke:none;" d="M1260 534L1258 536L1258 537L1260 534M1271 534L1269 536L1269 537L1271 534z"/>
<path style="fill:#a19171; stroke:none;" d="M1272 534L1272 535L1277 536L1272 534z"/>
<path style="fill:#485896; stroke:none;" d="M1279.67 534.333L1280.33 534.667L1279.67 534.333z"/>
<path style="fill:#a19171; stroke:none;" d="M1285 534L1286 538L1287 538L1285 534z"/>
<path style="fill:#485896; stroke:none;" d="M1290.67 534.333L1291.33 534.667L1290.67 534.333M1294 534L1293 536L1295 536L1294 534z"/>
<path style="fill:#a19171; stroke:none;" d="M1295 534L1295 535L1298 535L1295 534z"/>
<path style="fill:#485896; stroke:none;" d="M1298.33 534.667L1298.67 535.333L1298.33 534.667z"/>
<path style="fill:#a19171; stroke:none;" d="M1034 535L1035 536L1034 535z"/>
<path style="fill:#343334; stroke:none;" d="M1036.32 536.175C1033.32 537.708 1035.69 542.354 1038.68 540.825C1041.68 539.292 1039.31 534.645 1036.32 536.175z"/>
<path style="fill:#485896; stroke:none;" d="M1039 535L1040 536L1039 535z"/>
<path style="fill:#a19171; stroke:none;" d="M1056 535L1057 536L1056 535z"/>
<path style="fill:#343334; stroke:none;" d="M1058.32 536.175C1055.32 537.708 1057.69 542.355 1060.68 540.825C1063.68 539.292 1061.31 534.645 1058.32 536.175z"/>
<path style="fill:#485896; stroke:none;" d="M1061 535L1062 536L1061 535M1074 535L1075 536L1074 535z"/>
<path style="fill:#343334; stroke:none;" d="M1082 538L1087 538C1085.23 535.25 1083.9 535.425 1082 538z"/>
<path style="fill:#a19171; stroke:none;" d="M1107.33 535.667L1107.67 536.333L1107.33 535.667M1112 535L1113 536L1112 535z"/>
<path style="fill:#485896; stroke:none;" d="M1118 535L1116 536L1116 537L1118 535z"/>
<path style="fill:#343334; stroke:none;" d="M1119.28 536.175C1116.49 537.697 1118.64 542.471 1121.41 540.825C1123.82 539.393 1122.12 534.626 1119.28 536.175z"/>
<path style="fill:#a19171; stroke:none;" d="M1147 535L1148 536L1147 535z"/>
<path style="fill:#343334; stroke:none;" d="M1149.32 536.175C1146.32 537.708 1148.69 542.355 1151.68 540.825C1154.68 539.292 1152.31 534.645 1149.32 536.175z"/>
<path style="fill:#485896; stroke:none;" d="M1152 535L1153 536L1152 535z"/>
<path style="fill:#a19171; stroke:none;" d="M1172 535L1173 536L1172 535M1189 535L1190 536L1189 535M1195 535L1196 536L1195 535z"/>
<path style="fill:#343334; stroke:none;" d="M1214 538L1219 538C1217.23 535.25 1215.9 535.425 1214 538z"/>
<path style="fill:#485896; stroke:none;" d="M1232 535L1232 537L1234 535L1232 535z"/>
<path style="fill:#a19171; stroke:none;" d="M1249.33 535.667L1249.67 536.333L1249.33 535.667M1254 535L1255 536L1254 535M1259 535L1260 536L1259 535z"/>
<path style="fill:#343334; stroke:none;" d="M1261.28 536.175C1258.49 537.697 1260.64 542.471 1263.41 540.825C1265.82 539.393 1264.12 534.626 1261.28 536.175z"/>
<path style="fill:#a19171; stroke:none;" d="M1270 535L1271 536L1270 535z"/>
<path style="fill:#343334; stroke:none;" d="M1272.32 536.175C1269.32 537.708 1271.69 542.355 1274.68 540.825C1277.68 539.292 1275.31 534.645 1272.32 536.175z"/>
<path style="fill:#485896; stroke:none;" d="M1275 535L1276 536L1275 535z"/>
<path style="fill:#a19171; stroke:none;" d="M1280.33 535.667L1280.67 536.333L1280.33 535.667z"/>
<path style="fill:#485896; stroke:none;" d="M1286 535L1287 536L1286 535z"/>
<path style="fill:#a19171; stroke:none;" d="M1290.33 535.667L1290.67 536.333L1290.33 535.667M1027 536L1027 537L1030 537L1027 536z"/>
<path style="fill:#485896; stroke:none;" d="M1030 536L1029 542L1031 542L1030 536M1040.67 536.333L1041.33 536.667L1040.67 536.333M1062.67 536.333L1063.33 536.667L1062.67 536.333M1076 536L1077 537L1076 536M1081.67 536.333L1082.33 536.667L1081.67 536.333z"/>
<path style="fill:#a19171; stroke:none;" d="M1087 536L1081 537L1081 540L1082 540C1084.43 539.157 1088.17 539.1 1087 536z"/>
<path style="fill:#485896; stroke:none;" d="M1112 536L1112 543L1114 543L1114 536L1112 536z"/>
<path style="fill:#a19171; stroke:none;" d="M1127 536L1133 541L1127 536z"/>
<path style="fill:#485896; stroke:none;" d="M1153.67 536.333L1154.33 536.667L1153.67 536.333M1167 536L1169 543L1167 536M1189.67 536.333L1190.33 536.667L1189.67 536.333M1195 536L1196 537L1195 536M1203 536L1205 543L1203 536M1213.67 536.333L1214.33 536.667L1213.67 536.333z"/>
<path style="fill:#a19171; stroke:none;" d="M1219 536L1213 537L1213 540L1214 540C1216.43 539.157 1220.17 539.1 1219 536z"/>
<path style="fill:#485896; stroke:none;" d="M1228 536L1228 538L1230 536L1228 536z"/>
<path style="fill:#a19171; stroke:none;" d="M1236.33 536.667L1236.67 537.333L1236.33 536.667z"/>
<path style="fill:#485896; stroke:none;" d="M1254 536L1254 543L1256 543L1256 536L1254 536M1276.67 536.333L1277.33 536.667L1276.67 536.333M1284.67 536.333L1285.33 536.667L1284.67 536.333z"/>
<path style="fill:#a19171; stroke:none;" d="M1293 536L1299 541L1293 536M1033 537L1033 540L1034 540L1033 537M1041 537L1041 540L1042 540L1041 537M1055 537L1055 540L1056 540L1055 537M1063 537L1063 540L1064 540L1063 537M1116 537L1116 540L1117 540L1116 537z"/>
<path style="fill:#485896; stroke:none;" d="M1127 537L1128 538L1127 537z"/>
<path style="fill:#a19171; stroke:none;" d="M1146 537L1146 540L1147 540L1146 537M1154 537L1154 540L1155 540L1154 537z"/>
<path style="fill:#485896; stroke:none;" d="M1164 537L1165 538L1164 537z"/>
<path style="fill:#a19171; stroke:none;" d="M1165 537L1165 538L1168 538L1165 537M1171 537L1171 540L1172 540L1171 537M1190.33 537.667L1190.67 538.333L1190.33 537.667M1194.33 537.667L1194.67 538.333L1194.33 537.667z"/>
<path style="fill:#485896; stroke:none;" d="M1200 537L1201 538L1200 537z"/>
<path style="fill:#a19171; stroke:none;" d="M1201 537L1201 538L1204 538L1201 537M1229 537L1229 540L1230 540L1229 537M1232.33 537.667L1232.67 538.333L1232.33 537.667z"/>
<path style="fill:#485896; stroke:none;" d="M1239.67 537.333L1240.33 537.667L1239.67 537.333z"/>
<path style="fill:#a19171; stroke:none;" d="M1258 537L1258 540L1259 540L1258 537M1269 537L1269 540L1270 540L1269 537M1277 537L1277 540L1278 540L1277 537z"/>
<path style="fill:#485896; stroke:none;" d="M1280.67 537.333L1281.33 537.667L1280.67 537.333z"/>
<path style="fill:#a19171; stroke:none;" d="M1284 537L1285 538L1284 537z"/>
<path style="fill:#485896; stroke:none;" d="M1290 537L1291 538L1290 537M1293 537L1294 538L1293 537M1078 538L1079 539L1078 538M1128 538L1129 539L1128 538M1131 538L1132 539L1131 538M1162 538L1163 539L1162 538z"/>
<path style="fill:#a19171; stroke:none;" d="M1163 538C1162.51 541.137 1162.96 542 1166 543L1166 542L1163 542L1163 538z"/>
<path style="fill:#343334; stroke:none;" d="M1163 539L1163 541L1164 542L1166 542L1167 538L1163 539z"/>
<path style="fill:#485896; stroke:none;" d="M1198 538L1199 539L1198 538z"/>
<path style="fill:#a19171; stroke:none;" d="M1199 538C1198.51 541.137 1198.96 542 1202 543L1202 542L1199 542L1199 538z"/>
<path style="fill:#343334; stroke:none;" d="M1199 539L1199 541L1200 542L1202 542L1203 538L1199 539z"/>
<path style="fill:#485896; stroke:none;" d="M1236.67 538.333L1237.33 538.667L1236.67 538.333z"/>
<path style="fill:#a19171; stroke:none;" d="M1239.33 538.667L1239.67 539.333L1239.33 538.667M1281.33 538.667L1281.67 539.333L1281.33 538.667z"/>
<path style="fill:#485896; stroke:none;" d="M1284 538L1285 539L1284 538M1286 538L1287 539L1286 538M1289 538L1290 539L1289 538M1294 538L1295 539L1294 538M1297 538L1298 539L1297 538M1021.67 539.333L1022.33 539.667L1021.67 539.333M1132 539L1133 540L1132 539M1190.67 539.333L1191.33 539.667L1190.67 539.333M1193.67 539.333L1194.33 539.667L1193.67 539.333M1229 540L1229 541L1233 540L1229 540z"/>
<path style="fill:#a19171; stroke:none;" d="M1237 539L1238 543L1239 543L1237 539z"/>
<path style="fill:#485896; stroke:none;" d="M1281 541L1284 542L1284 539L1281 541M1287 539L1287 542L1290 541L1290 540L1287 539z"/>
<path style="fill:#a19171; stroke:none;" d="M1289 539L1290 540L1289 539z"/>
<path style="fill:#485896; stroke:none;" d="M1298 539L1299 540L1298 539z"/>
<path style="fill:#a19171; stroke:none;" d="M1022 540L1023 541L1022 540z"/>
<path style="fill:#485896; stroke:none;" d="M1033 540L1033 541L1035 543L1036 543L1033 540M1039 543L1040 543L1042 541L1039 543M1055 540L1055 541L1057 543L1058 543L1055 540M1061 543L1062 543L1064 541L1061 543M1077 540L1078 541L1077 540M1081.67 540.333L1082.33 540.667L1081.67 540.333M1116 540L1116 541L1119 542L1116 540M1146 540L1146 541L1148 543L1149 543L1146 540M1152 543L1153 543L1155 541L1152 543M1171 540L1171 541L1174 542L1171 540z"/>
<path style="fill:#a19171; stroke:none;" d="M1191 540L1192 541L1191 540M1193 540L1194 541L1193 540z"/>
<path style="fill:#485896; stroke:none;" d="M1213.67 540.333L1214.33 540.667L1213.67 540.333z"/>
<path style="fill:#a19171; stroke:none;" d="M1231 540L1230 543L1231 540z"/>
<path style="fill:#485896; stroke:none;" d="M1238 540L1240 542L1240 540L1238 540M1258 540L1258 541L1261 542L1258 540M1269 540L1269 541L1271 543L1272 543L1269 540M1275 543L1276 543L1278 541L1275 543z"/>
<path style="fill:#a19171; stroke:none;" d="M1283 540L1284 541L1283 540M1287 540L1288 541L1287 540M1023 541L1024 542L1023 541z"/>
<path style="fill:#485896; stroke:none;" d="M1024.33 541.667L1024.67 542.333L1024.33 541.667z"/>
<path style="fill:#a19171; stroke:none;" d="M1034 541L1035 542L1034 541M1040 541L1041 542L1040 541M1056 541L1057 542L1056 541M1062 541L1063 542L1062 541z"/>
<path style="fill:#485896; stroke:none;" d="M1071 541L1072 542L1071 541z"/>
<path style="fill:#a19171; stroke:none;" d="M1082 541L1083 542L1082 541z"/>
<path style="fill:#485896; stroke:none;" d="M1087 541L1088 542L1087 541z"/>
<path style="fill:#a19171; stroke:none;" d="M1117 541L1118 542L1117 541z"/>
<path style="fill:#485896; stroke:none;" d="M1127 541L1128 542L1127 541M1131 541L1131 543L1133 541L1131 541z"/>
<path style="fill:#a19171; stroke:none;" d="M1147 541L1148 542L1147 541M1153 541L1154 542L1153 541z"/>
<path style="fill:#485896; stroke:none;" d="M1163 541L1164 542L1163 541z"/>
<path style="fill:#a19171; stroke:none;" d="M1167 541L1168 542L1167 541M1172 541L1173 542L1172 541z"/>
<path style="fill:#485896; stroke:none;" d="M1177 541L1178 542L1177 541M1191 541L1191 542L1194 542L1191 541M1199 541L1200 542L1199 541z"/>
<path style="fill:#a19171; stroke:none;" d="M1203 541L1204 542L1203 541M1214 541L1215 542L1214 541z"/>
<path style="fill:#485896; stroke:none;" d="M1219 541L1220 542L1219 541z"/>
<path style="fill:#a19171; stroke:none;" d="M1259 541L1260 542L1259 541M1270 541L1271 542L1270 541M1276 541L1277 542L1276 541M1288.33 541.667L1288.67 542.333L1288.33 541.667z"/>
<path style="fill:#485896; stroke:none;" d="M1293 541L1294 542L1293 541M1297 541L1297 543L1299 541L1297 541M1301 541L1301 543L1303 543L1303 541L1301 541z"/>
<path style="fill:#a19171; stroke:none;" d="M1025 542L1025 543L1030 543L1025 542M1036 542L1036 543L1039 543L1036 542z"/>
<path style="fill:#485896; stroke:none;" d="M1053 542L1054 543L1053 542z"/>
<path style="fill:#a19171; stroke:none;" d="M1058 542L1058 543L1061 543L1058 542M1071 542L1071 543L1077 543L1071 542M1083 542L1083 543L1087 543L1083 542z"/>
<path style="fill:#485896; stroke:none;" d="M1094 542L1095 543L1094 542z"/>
<path style="fill:#a19171; stroke:none;" d="M1098.67 542.333L1099.33 542.667L1098.67 542.333z"/>
<path style="fill:#485896; stroke:none;" d="M1100 542L1101 543L1100 542z"/>
<path style="fill:#a19171; stroke:none;" d="M1118 542L1118 543L1121 543L1118 542z"/>
<path style="fill:#485896; stroke:none;" d="M1121 542L1122 543L1121 542z"/>
<path style="fill:#a19171; stroke:none;" d="M1127 542L1127 543L1131 543L1127 542z"/>
<path style="fill:#485896; stroke:none;" d="M1144 542L1145 543L1144 542z"/>
<path style="fill:#a19171; stroke:none;" d="M1149 542L1149 543L1152 543L1149 542M1173 542L1173 543L1177 543L1173 542z"/>
<path style="fill:#485896; stroke:none;" d="M1183 542L1184 543L1183 542z"/>
<path style="fill:#a19171; stroke:none;" d="M1192 542L1193 543L1192 542z"/>
<path style="fill:#485896; stroke:none;" d="M1211 542L1212 543L1211 542z"/>
<path style="fill:#a19171; stroke:none;" d="M1215 542L1215 543L1219 543L1215 542z"/>
<path style="fill:#485896; stroke:none;" d="M1231 542L1232 543L1231 542M1237 542L1238 543L1237 542z"/>
<path style="fill:#a19171; stroke:none;" d="M1260 542L1260 543L1263 543L1260 542z"/>
<path style="fill:#485896; stroke:none;" d="M1263 542L1264 543L1263 542z"/>
<path style="fill:#a19171; stroke:none;" d="M1272 542L1272 543L1275 543L1272 542M1282 542L1283 543L1282 542M1293 542L1293 543L1297 543L1293 542z"/>
</svg>
