<?xml version="1.0" standalone="yes"?>
<svg xmlns="http://www.w3.org/2000/svg" width="1287" height="549">
<path style="fill:#b6b352; stroke:none;" d="M0 0L0 1L1287 1L1254 0L1178 0L914 0L0 0z"/>
<path style="fill:#171d27; stroke:none;" d="M0 1L0 549L1057 549L1057 539L1058 539L1058 549L1287 549L1287 1L0 1z"/>
<path style="fill:#b6b352; stroke:none;" d="M63 19L63 24L64 24L63 19z"/>
<path style="fill:#f5f3f1; stroke:none;" d="M64 19C63.5057 22.1372 63.9641 22.9996 67 24L66 19L64 19z"/>
<path style="fill:#b6b352; stroke:none;" d="M66 19L67 20L66 19M67 20L67 23L68 23L67 20M65 24L66 25L65 24M58 27L58 28L72 28L58 27z"/>
<path style="fill:#f5f3f1; stroke:none;" d="M56 38L57 38L61 32L61 41L69 41C69.0492 36.8395 69.17 34.1119 73 32L73 38C80.9092 27.1261 51.8256 21.2898 56 38z"/>
<path style="fill:#b6b352; stroke:none;" d="M56 29L57 30L56 29M73 29L74 30L73 29M74.3333 31.6667L74.6667 32.3333L74.3333 31.6667M55 32L56 33L55 32M60 32L60 41L61 41L60 32M72 32L74 39L72 32M57 33L56 39L57 33M69 33L69 41L61 41L61 42L70 42L69 33M75.3333 34.6667L75.6667 35.3333L75.3333 34.6667M55 37L56 38L55 37M74 37L75 38L74 37z"/>
<path style="fill:#0c75e6; stroke:none;" d="M57 39L58 40L57 39z"/>
<path style="fill:#b6b352; stroke:none;" d="M75 41L74 59C81.3326 60.0732 85.8515 61.0533 89 53L75 41z"/>
<path style="fill:#0c75e6; stroke:none;" d="M60 46L70 45C66.7557 43.6387 62.4371 43.211 60 46z"/>
<path style="fill:#ed222a; stroke:none;" d="M78 44L79 45L78 44z"/>
<path style="fill:#b6b352; stroke:none;" d="M182 44L182 59L185 59L185 51L188 51L188 59L191 59C190.996 53.5277 191.364 49.4958 185 49L185 44L182 44M193 44L193 59C195.587 58.8645 199.429 59.4088 201.411 57.3858C206.01 52.6921 200.614 48.8755 196 50L196 44L193 44z"/>
<path style="fill:#0c75e6; stroke:none;" d="M241 44L241 50L242 50L241 44z"/>
<path style="fill:#b6b352; stroke:none;" d="M242 44L242 50C237.557 48.8202 230.99 52.4421 235.745 57.3935C237.717 59.4467 241.415 58.8094 244 59L244 44L242 44M355 44L355 59L357 59L357 44L355 44M58 67L61 67L64 51L66 51L69 67L72 67L70 45C57.1135 45.0099 58.8474 56.2628 58 67z"/>
<path style="fill:#ed222a; stroke:none;" d="M79 45L80 46L79 45z"/>
<path style="fill:#b6b352; stroke:none;" d="M148 45L148 59C163.456 58.9557 163.662 45.0103 148 45M297 45L297 59L299 59L299 49L300 49L306 59L309 49L310 49L310 59L312 59L312 45L305 55C302.755 50.7412 302.272 45.9126 297 45z"/>
<path style="fill:#0c75e6; stroke:none;" d="M312 45L312 59L313 59L312 45z"/>
<path style="fill:#b6b352; stroke:none;" d="M410 45L410 59C424.487 58.8689 424.685 45.0421 410 45z"/>
<path style="fill:#0c75e6; stroke:none;" d="M418 45L419 46L418 45z"/>
<path style="fill:#b6b352; stroke:none;" d="M434 56C425.14 57.1328 425.14 46.8672 434 48C432.477 40.8921 423.64 47.2708 424.028 53C424.37 58.0488 432.7 62.0681 434 56z"/>
<path style="fill:#0c75e6; stroke:none;" d="M301 46L302 47L301 46M308 46L309 47L308 46M434.333 46.6667L434.667 47.3333L434.333 46.6667z"/>
<path style="fill:#b6b352; stroke:none;" d="M1168 46L1168 57L1169 57L1168 46z"/>
<path style="fill:#f5f3f1; stroke:none;" d="M1169 46L1169 57L1174 57L1174 56L1170 56L1170 52L1174 52L1174 51L1170 51L1170 47L1174 47L1169 46z"/>
<path style="fill:#b6b352; stroke:none;" d="M1174 46L1170 47L1170 51L1171 51L1171 48L1174 46z"/>
<path style="fill:#0c75e6; stroke:none;" d="M1175 46L1176 47L1175 46z"/>
<path style="fill:#f5f3f1; stroke:none;" d="M1176 46L1176 57L1179 53L1181 53L1184 57L1184 46L1181 50L1179 50L1176 46z"/>
<path style="fill:#b6b352; stroke:none;" d="M1178.33 46.6667L1178.67 47.3333L1178.33 46.6667M1184 46L1185 47L1184 46z"/>
<path style="fill:#f5f3f1; stroke:none;" d="M1186 46L1186 57L1188 57L1188 46L1186 46z"/>
<path style="fill:#b6b352; stroke:none;" d="M1188 46L1188 47L1192 48L1192 57L1193 57C1193 51.7691 1193.28 48.2389 1188 46z"/>
<path style="fill:#f5f3f1; stroke:none;" d="M1189 46L1189 47C1193.15 49.2888 1192.98 52.5795 1193 57L1194 57C1194 53.0129 1193.4 49.3323 1197 47L1189 46z"/>
<path style="fill:#0c75e6; stroke:none;" d="M1197 46L1198 47L1197 46z"/>
<path style="fill:#171d27; stroke:none;" d="M151 47L151 57C158.97 55.7555 159.165 47.9319 151 47z"/>
<path style="fill:#0c75e6; stroke:none;" d="M412 47L412 57L413 57L412 47z"/>
<path style="fill:#171d27; stroke:none;" d="M413 47L413 57C420.083 55.523 420.395 48.1794 413 47z"/>
<path style="fill:#0c75e6; stroke:none;" d="M429 47L430 48L429 47z"/>
<path style="fill:#171d27; stroke:none;" d="M1171 48L1171 51L1175 51L1175 53L1171 53L1171 55L1176 56L1176 47L1171 48z"/>
<path style="fill:#b6b352; stroke:none;" d="M1176 47L1177 48L1176 47M1181 47L1182 48L1181 47M1183 47L1184 48L1183 47z"/>
<path style="fill:#0c75e6; stroke:none;" d="M1188 47L1189 48L1188 47z"/>
<path style="fill:#b6b352; stroke:none;" d="M1194 47L1194 48L1197 48L1194 47z"/>
<path style="fill:#ed222a; stroke:none;" d="M82 48L83 49L82 48z"/>
<path style="fill:#0c75e6; stroke:none;" d="M307 48L308 49L307 48M418 48L419 49L418 48M421 48L422 49L421 48M424 48L425 49L424 48M427 48L428 49L427 48z"/>
<path style="fill:#b6b352; stroke:none;" d="M1179 48L1179 50L1181 50L1179 48z"/>
<path style="fill:#0c75e6; stroke:none;" d="M1183 48L1184 49L1183 48M1194 48L1194 57L1195 57L1194 48z"/>
<path style="fill:#ed222a; stroke:none;" d="M73 49L73 52L74 52L73 49M83 49L84 50L83 49z"/>
<path style="fill:#0c75e6; stroke:none;" d="M157 49L158 50L157 49M160 49L161 50L160 49M163 49L164 50L163 49z"/>
<path style="fill:#b6b352; stroke:none;" d="M163 52L168 51L168 53C158.582 54.5021 165.243 58.6821 171 59C170.984 54.4157 167.942 44.4132 163 52M177 57L172 57L172 58L180 58L175 52L175 51L180 51C173.686 46.2985 173.405 52.7922 177 57z"/>
<path style="fill:#0c75e6; stroke:none;" d="M179 49L180 50L179 49M201 49L202 50L201 49z"/>
<path style="fill:#b6b352; stroke:none;" d="M207.318 50.0324C202.207 53.3323 207.49 61.32 212.682 57.9676C217.793 54.6677 212.51 46.68 207.318 50.0324M217 52L223 52L223 53C213.549 54.0794 218.406 58.5135 225 59C224.996 54.2623 222.262 43.8897 217 52z"/>
<path style="fill:#0c75e6; stroke:none;" d="M227 49L227 59L228 59L227 49z"/>
<path style="fill:#b6b352; stroke:none;" d="M228 49L228 59L230 59L234 49L228 49z"/>
<path style="fill:#0c75e6; stroke:none;" d="M230 49L231 50L230 49M299 49L299 59L300 59L299 49M302 49L303 50L302 49M309 49L310 50L309 49M316 49L315 52L316 52L317 52L316 49z"/>
<path style="fill:#b6b352; stroke:none;" d="M316 50L316 51L321 51L321 53C312.218 54.0109 316.853 58.5255 323 59C322.996 53.3356 323.08 48.1146 316 50M326 49L326 59L328 59L332 49L326 49z"/>
<path style="fill:#0c75e6; stroke:none;" d="M328.667 49.3333L329.333 49.6667L328.667 49.3333z"/>
<path style="fill:#b6b352; stroke:none;" d="M333 49L337 59L339 59L343 49L338 56L333 49z"/>
<path style="fill:#0c75e6; stroke:none;" d="M335 49L336 50L335 49z"/>
<path style="fill:#b6b352; stroke:none;" d="M352 58L352 57L346 56L346 55L353 54C348.25 41.082 337.94 61.7128 352 58M1177 49L1178 50L1177 49M1182 49L1183 50L1182 49M1211 49L1204 54L1204 59C1209.58 58.9957 1213.5 59.1201 1215 53L1219 53L1219 51L1211 49z"/>
<path style="fill:#0c75e6; stroke:none;" d="M70.3333 50.6667L70.6667 51.3333L70.3333 50.6667M333 50L334 51L333 50M342 50L343 51L342 50M419 50L419 54L420 54L419 50M426 50L427 51L426 50z"/>
<path style="fill:#b6b352; stroke:none;" d="M1178 50L1178 53L1179 53L1178 50z"/>
<path style="fill:#ed222a; stroke:none;" d="M1212 50L1213 51L1212 50z"/>
<path style="fill:#0c75e6; stroke:none;" d="M59 51L59 54L60 54L59 51M64.6667 51.3333L65.3333 51.6667L64.6667 51.3333M172.333 51.6667L172.667 52.3333L172.333 51.6667M185 51L186 52L185 51z"/>
<path style="fill:#171d27; stroke:none;" d="M200 57L200 51C195.799 52.3963 195.799 55.6036 200 57z"/>
<path style="fill:#0c75e6; stroke:none;" d="M208 51L209 52L208 51z"/>
<path style="fill:#171d27; stroke:none;" d="M209 51L208 57C211.422 55.8643 211.784 54.43 211 51L209 51z"/>
<path style="fill:#0c75e6; stroke:none;" d="M211 51L212 52L211 51M218 51L219 52L218 51M231 51L232 52L231 51M234 51L235 52L234 51z"/>
<path style="fill:#171d27; stroke:none;" d="M241 57L241 51C236.799 52.3963 236.799 55.6036 241 57z"/>
<path style="fill:#0c75e6; stroke:none;" d="M306 51L307 52L306 51M308 51L309 52L308 51M320 51L321 52L320 51M329 51L330 52L329 51M336.333 51.6667L336.667 52.3333L336.333 51.6667M339 51L340 52L339 51z"/>
<path style="fill:#171d27; stroke:none;" d="M346 52L346 53L350 51L346 52z"/>
<path style="fill:#0c75e6; stroke:none;" d="M352 51L353 52L352 51M423.333 51.6667L423.667 52.3333L423.333 51.6667z"/>
<path style="fill:#b6b352; stroke:none;" d="M1174 51L1170 52L1170 56L1176 57L1176 56L1171 55L1175 52L1174 51M1181 51L1182 52L1181 51z"/>
<path style="fill:#0c75e6; stroke:none;" d="M66 52L67 53L66 52M200 52L201 53L200 52M203 52L205 55L203 52M222 52L223 53L222 52M241 52L241 55L242 55L241 52M303 52L304 53L303 52M341 52L342 53L341 52M350 52L351 53L350 52M1174 52L1175 53L1174 52M1182 52L1183 53L1182 52M63.3333 53.6667L63.6667 54.3333L63.3333 53.6667z"/>
<path style="fill:#ed222a; stroke:none;" d="M89 53L90 54L89 53z"/>
<path style="fill:#0c75e6; stroke:none;" d="M207 53L208 54L207 53M212.333 53.6667L212.667 54.3333L212.333 53.6667M218 53L219 54L218 53M230 53L230 59L231 59L230 53M301 53L302 54L301 53M305 53L306 54L305 53M328 53L328 59L329 59L328 53M334 53L335 54L334 53M343.333 53.6667L343.667 54.3333L343.333 53.6667M426 53L427 54L426 53z"/>
<path style="fill:#b6b352; stroke:none;" d="M1177 53L1178 54L1177 53M1179.67 53.3333L1180.33 53.6667L1179.67 53.3333M1182 53L1183 54L1182 53z"/>
<path style="fill:#0c75e6; stroke:none;" d="M160 54L161 55L160 54M162 54L163 55L162 54M174 54L175 55L174 54M179 54L180 55L179 54M200 54L201 55L200 54M304 54L305 55L304 54M307 54L308 55L307 54M338 54L339 55L338 54M352 54L353 55L352 54M1176 54L1177 55L1176 54M1179.67 54.3333L1180.33 54.6667L1179.67 54.3333M1183 54L1184 55L1183 54M156 55L157 56L156 55z"/>
<path style="fill:#171d27; stroke:none;" d="M165 57L168 55L165 57z"/>
<path style="fill:#0c75e6; stroke:none;" d="M207 55L208 56L207 55M216 55L217 56L216 55z"/>
<path style="fill:#171d27; stroke:none;" d="M219 55L219 57L222 57L222 55L219 55z"/>
<path style="fill:#0c75e6; stroke:none;" d="M222 55L223 56L222 55M302 55L303 56L302 55M317 55L318 56L317 55z"/>
<path style="fill:#171d27; stroke:none;" d="M317 56L317 57L321 56L317 56z"/>
<path style="fill:#0c75e6; stroke:none;" d="M337 55L338 56L337 55M340 55L341 56L340 55M427 55L428 56L427 55z"/>
<path style="fill:#b6b352; stroke:none;" d="M1176 55L1177 56L1176 55M1178 55L1179 56L1178 55M1181 55L1182 56L1181 55M1183 55L1184 56L1183 55z"/>
<path style="fill:#0c75e6; stroke:none;" d="M67 56L67 59L68 59L67 56M167 56L168 57L167 56M172.667 56.3333L173.333 56.6667L172.667 56.3333M211 56L212 57L211 56M234 56L235 57L234 56M306.333 56.6667L306.667 57.3333L306.333 56.6667M320 56L321 57L320 56M335 56L336 57L335 56M351 56L352 57L351 56M416 56L417 57L416 56M420 56L421 57L420 56M434.333 56.6667L434.667 57.3333L434.333 56.6667z"/>
<path style="fill:#b6b352; stroke:none;" d="M1184 56L1185 57L1184 56z"/>
<path style="fill:#0c75e6; stroke:none;" d="M216 57L217 58L216 57M344 57L345 58L344 57M419 57L420 58L419 57M62.3333 58.6667L62.6667 59.3333L62.3333 58.6667M156 58L157 59L156 58M172 58L173 59L172 58M178 58L179 59L178 58M196 58L197 59L196 58M222 58L223 59L222 58M241 58L242 59L241 58M303 58L304 59L303 58M336 58L337 59L336 58M339 58L340 59L339 58M351 58L352 59L351 58M417 58L418 59L417 58M427 58L428 59L427 58M71 59L71 62L72 62L71 59z"/>
<path style="fill:#ed222a; stroke:none;" d="M77 59L78 60L77 59M80 60L81 61L80 60z"/>
<path style="fill:#0c75e6; stroke:none;" d="M58.3333 61.6667L58.6667 62.3333L58.3333 61.6667M68.3333 62.6667L68.6667 63.3333L68.3333 62.6667M61 63L61 66L62 66L61 63M59.6667 67.3333L60.3333 67.6667L59.6667 67.3333M70.6667 67.3333L71.3333 67.6667L70.6667 67.3333z"/>
<path style="fill:#f5f3f1; stroke:none;" d="M55 71C54.8288 76.2563 53.4285 78.5859 48 79L48 83L83 83L83 79C77.1596 78.8098 75.1902 76.8403 75 71L55 71z"/>
<path style="fill:#b6b352; stroke:none;" d="M75 77L76 78L75 77M47 78L47 83L48 83L48 79L54 79L47 78M76 78L76 79L83 79L76 78M66 83L67 84L66 83M70 83L71 84L70 83M60 84L60 85L64 85L60 84M67 84L67 85L70 85L67 84z"/>
<path style="fill:#0c75e6; stroke:none;" d="M1036 167.424C1017.59 169.871 1000.59 174.935 985 185.333C900.306 241.818 917.561 385.121 1019 411.844C1033.31 415.615 1048.44 415.679 1063 413.718C1077.72 411.734 1092.6 406.159 1105 397.997C1188.08 343.329 1178.35 201.949 1078 171.72C1064.73 167.721 1049.84 165.585 1036 167.424z"/>
<path style="fill:#171d27; stroke:none;" d="M958 226L999 226C1005.18 226 1013.09 224.706 1019 226.703C1026.35 229.186 1035.59 237.56 1040.85 243.171C1048.55 251.373 1044 276.191 1044 287L1044 326C1044 330.993 1045.35 338.417 1042.97 342.961C1040.79 347.119 1035.64 349.889 1032 352.627C1012.54 367.243 985.684 362 962 362C995.504 420.029 1096.5 420.029 1130 362C1104.19 362 1071.82 368.381 1054.6 343.829C1052.14 340.311 1053 335.067 1053 331L1053 300L1053 264C1053 258.863 1051.79 251.873 1053.6 247.004C1055.28 242.503 1060.36 239.465 1064 236.65C1075.59 227.675 1084.03 224.173 1099 226.133C1105.2 226.945 1109.4 232.629 1115 235C1117.87 224.634 1124.77 226 1134 226C1102.86 160.177 989.139 160.176 958 226z"/>
<path style="fill:#ed222a; stroke:none;" d="M111 234L111 348L425 348L425 234L111 234z"/>
<path style="fill:#171d27; stroke:none;" d="M1142 241L1137.92 266L1134.68 275.972L1109 277L1109 258L1078 258L1078 259C1091.83 267.68 1086 295.283 1086 310C1086 316.143 1084.27 325.195 1090.11 329.258C1094.9 332.592 1103.44 331 1109 331L1109 314L1139 314L1139 347L1140 347C1151.98 321.819 1156.61 293.516 1150.79 266C1149.09 257.974 1147.23 247.48 1142 241z"/>
<path style="fill:#f5f3f1; stroke:none;" d="M121 243L121 339L140 339L139 293L140 293L146.25 326L149.738 337.972L159 339L167 292L168 292L168 339L193 339L203.258 337.972L206 324L222 324L224.742 337.972L235 339L260 339C260 331.248 256.146 309.688 265 307C265.917 313.806 268.873 333.788 274.563 337.972C278.34 340.749 287.478 339 292 339L280 301C287.915 297.229 290.896 288.191 292 280L293 280L303 339L325 339L340 254L341 254L341 339L376 339L376 322L359 322C359 316.944 356.586 303.185 361.318 300.028C364.861 297.663 371.905 299 376 299L376 283C371.905 283 364.861 284.337 361.318 281.972C357.415 279.368 357.415 263.632 361.318 261.028C364.861 258.663 371.905 260 376 260L376 243L323 243L315 301L314 301L305 243L286 243L288 258L287 258C278.12 240.894 257.345 243 241 243L242 328L241 328L230.414 266L225.4 244.028L201 243L187 331L186 331L186 243L163.589 244.028L160.08 257L154 291L153 291L145 243L121 243z"/>
<path style="fill:#b6b352; stroke:none;" d="M162 243L163 244L162 243M186 243L186 304L187 304L187 263L186 243M226 243L227 244L226 243M263 243L263 244L266 244L263 243M305 243L305 246L306 246L305 243M376 243L376 260L377 260L376 243z"/>
<path style="fill:#f5f3f1; stroke:none;" d="M380 243L380 339L415 339L415 322L399 322L399 243L380 243z"/>
<path style="fill:#b6b352; stroke:none;" d="M269.667 244.333L270.333 244.667L269.667 244.333M145.333 245.667L145.667 246.333L145.333 245.667M273 245L274 246L273 245M322.333 245.667L322.667 246.333L322.333 245.667M275 246L276 247L275 246M286.333 246.667L286.667 247.333L286.333 246.667M161.333 247.667L161.667 248.333L161.333 247.667M200 247L200 250L201 250L200 247M227 247L227 250L228 250L227 247M277 247L278 248L277 247M278 248L279 249L278 248M281 250L282 251L281 250M306.333 250.667L306.667 251.333L306.333 250.667M146.333 251.667L146.667 252.333L146.333 251.667M282 251L283 252L282 251M321.333 251.667L321.667 252.333L321.333 251.667M160 252L160 255L161 255L160 252M283 252L284 253L283 252M199 253L199 256L200 256L199 253M228.333 253.667L228.667 254.333L228.333 253.667M287.333 253.667L287.667 254.333L287.333 253.667z"/>
<path style="fill:#171d27; stroke:none;" d="M944 253C938.789 288.444 935.99 319.43 955 352C957.903 345.081 956 334.48 956 327L956 283C956 276.625 957.41 268.328 955.682 262.174C954.365 257.481 948.24 254.406 944 253z"/>
<path style="fill:#b6b352; stroke:none;" d="M340 254L340 281L340 339L341 339L341 280L340 254M147.333 256.667L147.667 257.333L147.333 256.667M286 256L287 257L286 256M307 256L307 259L308 259L307 256M287 257L288 258L287 257M320 257L320 260L321 260L320 257M159 258L159 261L160 261L159 258z"/>
<path style="fill:#171d27; stroke:none;" d="M981 258L981 259C989.472 265.532 988 273.19 988 283L988 331C994.198 331 1003.97 332.909 1008.57 327.772C1012.18 323.732 1011.99 317.07 1012 312L1012 277C1011.99 271.93 1012.18 265.268 1008.57 261.228C1003.13 255.149 988.429 258 981 258z"/>
<path style="fill:#b6b352; stroke:none;" d="M198 259L198 262L199 262L198 259M229.333 259.667L229.667 260.333L229.333 259.667z"/>
<path style="fill:#ed222a; stroke:none;" d="M260 260L260 291C277.278 287.87 276.203 263.895 260 260z"/>
<path style="fill:#b6b352; stroke:none;" d="M262.667 260.333L263.333 260.667L262.667 260.333M360 260L360 261L376 261L360 260M265 261L266 262L265 261M359 261L359 282L360 282L359 261M148 262L148 265L149 265L148 262M267 262L268 263L267 262M338 262L339 263L338 262M268 263L269 264L268 263M308.333 263.667L308.667 264.333L308.333 263.667M158 264L158 267L159 267L158 264M230 264L230 267L231 267L230 264M269 264L270 265L269 264M319 264L319 268L320 268L319 264M197.333 265.667L197.667 266.333L197.333 265.667M271 267L272 268L271 267M337.333 267.667L337.667 268.333L337.333 267.667M149 268L149 271L150 271L149 268M214 268L215 269L214 268z"/>
<path style="fill:#ed222a; stroke:none;" d="M214 269L209 309L219 309C218.906 297.67 218.35 279.362 214 269z"/>
<path style="fill:#b6b352; stroke:none;" d="M309 269L309 273L310 273L309 269M157.333 270.667L157.667 271.333L157.333 270.667M231 270L231 273L232 273L231 270M272 270L272 273L273 273L272 270M196 271L196 274L197 274L196 271M213 271L214 272L213 271M318 271L318 274L319 274L318 271M336 273L337 274L336 273M150.333 274.667L150.667 275.333L150.333 274.667M156.333 275.667L156.667 276.333L156.333 275.667M215 275L215 279L216 279L215 275M195 277L195 280L196 280L195 277M232 277L232 280L233 280L232 277z"/>
<path style="fill:#ed222a; stroke:none;" d="M291.333 277.667L291.667 278.333L291.333 277.667z"/>
<path style="fill:#b6b352; stroke:none;" d="M310 277L310 280L311 280L310 277M212.333 278.667L212.667 279.333L212.333 278.667M272 278L272 281L273 281L272 278M317.333 278.667L317.667 279.333L317.333 278.667M335 278L335 281L336 281L335 278M291 279L292 280L291 279M151 280L152 281L151 280M155 280L155 283L156 283L155 280M292.333 280.667L292.667 281.333L292.333 280.667M216 282L216 287L217 287L216 282M271 282L272 283L271 282M360 282L360 283L376 283L376 299L360 299L360 300L377 300L377 282L360 282M233.333 283.667L233.667 284.333L233.333 283.667M241 283L241 328L242 328C242 315.258 245.91 294.701 241 283M291.333 283.667L291.667 284.333L291.333 283.667M311 283L311 286L312 286L311 283M194.333 284.667L194.667 285.333L194.333 284.667M270 284L271 285L270 284M316 284L316 287L317 287L316 284M334 284L334 287L335 287L334 284M152.333 285.667L152.667 286.333L152.333 285.667M211 285L211 290L212 290L211 285M293 285L293 289L294 289L293 285M154 286L154 289L155 289L154 286M290 287L291 288L290 287M153.333 289.667L153.667 290.333L153.333 289.667M234.333 289.667L234.667 290.333L234.333 289.667M265 289L266 290L265 289M193.333 290.667L193.667 291.333L193.333 290.667M263 290L264 291L263 290M289 290L290 291L289 290M312.333 290.667L312.667 291.333L312.333 290.667M315 290L315 294L316 294L315 290M294 291L294 294L295 294L294 291M333.333 291.667L333.667 292.333L333.333 291.667M167 292L168 293L167 292M217 292L217 295L218 295L217 292M288 292L289 293L288 292M139 293L139 321L140 321L139 293M210 294L210 298L211 298L210 294M235 294L235 297L236 297L235 294M286 295L287 296L286 295M166 296L167 297L166 296M192 296L193 297L192 296M313 296L314 301L315 301L313 296M332.333 296.667L332.667 297.333L332.333 296.667M295.333 297.667L295.667 298.333L295.333 297.667M141 299L142 300L141 299M218 299L218 302L219 302L218 299M236 300L236 304L237 304L236 300M359 300L359 322L376 322L376 321L360 321L359 300M165 301L166 302L165 301M191 301L191 304L192 304L191 301M280.333 301.667L280.667 302.333L280.333 301.667M331.333 301.667L331.667 302.333L331.333 301.667M296.333 302.667L296.667 303.333L296.333 302.667M209 303L209 306L210 306L209 303M142.333 304.667L142.667 305.333L142.333 304.667M281 305L282 306L281 305M164 306L164 310L165 310L164 306M219 306L219 309L220 309L219 306M190 307L190 311L191 311L190 307M237 307L237 310L238 310L237 307M261 307L261 308L265 308L261 307M297.333 307.667L297.667 308.333L297.333 307.667M330 307L330 310L331 310L330 307M282 308L283 309L282 308M143 309L143 313L144 313L143 309M265 310L266 311L265 310M651 310L660 337C668.313 335.626 672.008 317.3 674 310L670 310L663 333L662 333L655 310L651 310z"/>
<path style="fill:#0c75e6; stroke:none;" d="M681 310L682 311L681 310z"/>
<path style="fill:#b6b352; stroke:none;" d="M676 332C677.161 338.686 688.818 338.888 691.393 332.786C694.692 324.967 684.785 323.493 681.662 318.802C677.604 312.706 687.973 313.288 691 314L691 310C685.48 310.004 671.247 311.668 677.746 320.787C680.147 324.155 686.446 324.924 687.654 329.086C689.607 335.81 678.703 332.857 676 332z"/>
<path style="fill:#0c75e6; stroke:none;" d="M691 310L691 314L692 314L691 310z"/>
<path style="fill:#b6b352; stroke:none;" d="M283.333 311.667L283.667 312.333L283.333 311.667z"/>
<path style="fill:#0c75e6; stroke:none;" d="M651.333 311.667L651.667 312.333L651.333 311.667M669.333 311.667L669.667 312.333L669.333 311.667z"/>
<path style="fill:#b6b352; stroke:none;" d="M163 312L163 315L164 315L163 312M298 312L298 315L299 315L298 312z"/>
<path style="fill:#0c75e6; stroke:none;" d="M655 312L656 313L655 312M677 312L678 313L677 312z"/>
<path style="fill:#b6b352; stroke:none;" d="M329 313L329 316L330 316L329 313z"/>
<path style="fill:#0c75e6; stroke:none;" d="M682 313L683 314L682 313M688.667 313.333L689.333 313.667L688.667 313.333z"/>
<path style="fill:#b6b352; stroke:none;" d="M238.333 314.667L238.667 315.333L238.333 314.667M266 314L267 315L266 314M284.333 314.667L284.667 315.333L284.333 314.667z"/>
<path style="fill:#0c75e6; stroke:none;" d="M652.333 314.667L652.667 315.333L652.333 314.667M668.333 314.667L668.667 315.333L668.333 314.667M672 314L673 315L672 314M676 314L677 315L676 314M680 314L681 315L680 314z"/>
<path style="fill:#b6b352; stroke:none;" d="M144 315L144 318L145 318L144 315M189.333 315.667L189.667 316.333L189.333 315.667z"/>
<path style="fill:#0c75e6; stroke:none;" d="M656 315L657 316L656 315z"/>
<path style="fill:#b6b352; stroke:none;" d="M267.333 317.667L267.667 318.333L267.333 317.667z"/>
<path style="fill:#0c75e6; stroke:none;" d="M653.333 317.667L653.667 318.333L653.333 317.667M667.333 317.667L667.667 318.333L667.333 317.667z"/>
<path style="fill:#b6b352; stroke:none;" d="M162.333 318.667L162.667 319.333L162.333 318.667M285 318L286 319L285 318M299 318L299 321L300 321L299 318z"/>
<path style="fill:#0c75e6; stroke:none;" d="M657 318L658 319L657 318z"/>
<path style="fill:#b6b352; stroke:none;" d="M328.333 319.667L328.667 320.333L328.333 319.667z"/>
<path style="fill:#0c75e6; stroke:none;" d="M676 319L677 320L676 319z"/>
<path style="fill:#b6b352; stroke:none;" d="M167 320L167 339L168 339L167 320M239 320L240 321L239 320M268.333 320.667L268.667 321.333L268.333 320.667z"/>
<path style="fill:#0c75e6; stroke:none;" d="M654.333 320.667L654.667 321.333L654.333 320.667M666.333 320.667L666.667 321.333L666.333 320.667M682 320L683 321L682 320z"/>
<path style="fill:#b6b352; stroke:none;" d="M145 321L145 324L146 324L145 321M188.333 321.667L188.667 322.333L188.333 321.667M399 321L399 322L415 322L399 321z"/>
<path style="fill:#0c75e6; stroke:none;" d="M677 321L678 322L677 321M684 321L685 322L684 321z"/>
<path style="fill:#b6b352; stroke:none;" d="M376 322L376 339L377 339L376 322z"/>
<path style="fill:#0c75e6; stroke:none;" d="M669 322L670 323L669 322M686 322L687 323L686 322z"/>
<path style="fill:#b6b352; stroke:none;" d="M161.333 323.667L161.667 324.333L161.333 323.667M287.333 323.667L287.667 324.333L287.333 323.667z"/>
<path style="fill:#0c75e6; stroke:none;" d="M655 323L656 324L655 323M665 323L666 324L665 323M680 323L681 324L680 323z"/>
<path style="fill:#b6b352; stroke:none;" d="M206.333 324.667L206.667 325.333L206.333 324.667M221.333 324.667L221.667 325.333L221.333 324.667M269.333 324.667L269.667 325.333L269.333 324.667M300.333 324.667L300.667 325.333L300.333 324.667z"/>
<path style="fill:#0c75e6; stroke:none;" d="M682 324L683 325L682 324M689 324L690 325L689 324z"/>
<path style="fill:#b6b352; stroke:none;" d="M327.333 325.667L327.667 326.333L327.333 325.667z"/>
<path style="fill:#0c75e6; stroke:none;" d="M656.333 325.667L656.667 326.333L656.333 325.667M664.333 325.667L664.667 326.333L664.333 325.667M668 325L669 326L668 325M684 325L685 326L684 325M686 326L687 327L686 326M691 326L692 327L691 326z"/>
<path style="fill:#b6b352; stroke:none;" d="M146.333 327.667L146.667 328.333L146.333 327.667M187 327L188 328L187 327M288 327L289 328L288 327z"/>
<path style="fill:#0c75e6; stroke:none;" d="M687 327L688 328L687 327z"/>
<path style="fill:#b6b352; stroke:none;" d="M160 328L160 331L161 331L160 328M270 328L271 329L270 328z"/>
<path style="fill:#0c75e6; stroke:none;" d="M657.333 328.667L657.667 329.333L657.333 328.667M663.333 328.667L663.667 329.333L663.333 328.667M688.333 328.667L688.667 329.333L688.333 328.667z"/>
<path style="fill:#b6b352; stroke:none;" d="M205 329L205 333L206 333L205 329z"/>
<path style="fill:#0c75e6; stroke:none;" d="M692 329L692 332L693 332L692 329z"/>
<path style="fill:#b6b352; stroke:none;" d="M222 330L222 333L223 333L222 330M289 330L290 331L289 330M301.333 330.667L301.667 331.333L301.333 330.667M326.333 330.667L326.667 331.333L326.333 330.667M271 331L272 332L271 331z"/>
<path style="fill:#0c75e6; stroke:none;" d="M658.333 331.667L658.667 332.333L658.333 331.667M662.333 331.667L662.667 332.333L662.333 331.667M688 331L689 332L688 331z"/>
<path style="fill:#b6b352; stroke:none;" d="M147.333 332.667L147.667 333.333L147.333 332.667z"/>
<path style="fill:#0c75e6; stroke:none;" d="M677 332L678 333L677 332z"/>
<path style="fill:#b6b352; stroke:none;" d="M290 333L291 334L290 333z"/>
<path style="fill:#0c75e6; stroke:none;" d="M665 333L666 334L665 333M680 333L681 334L680 333M686 333L687 334L686 333z"/>
<path style="fill:#b6b352; stroke:none;" d="M159.333 334.667L159.667 335.333L159.333 334.667M272.333 334.667L272.667 335.333L272.333 334.667z"/>
<path style="fill:#0c75e6; stroke:none;" d="M659.333 334.667L659.667 335.333L659.333 334.667z"/>
<path style="fill:#b6b352; stroke:none;" d="M302.333 335.667L302.667 336.333L302.333 335.667M325 335L325 338L326 338L325 335z"/>
<path style="fill:#0c75e6; stroke:none;" d="M689 335L690 336L689 335z"/>
<path style="fill:#b6b352; stroke:none;" d="M291 336L292 337L291 336z"/>
<path style="fill:#0c75e6; stroke:none;" d="M664 336L665 337L664 336M677 336L678 337L677 336M687 336L688 337L687 336z"/>
<path style="fill:#b6b352; stroke:none;" d="M148.333 337.667L148.667 338.333L148.333 337.667M204.333 337.667L204.667 338.333L204.333 337.667M223.333 337.667L223.667 338.333L223.333 337.667M273 338L274 339L273 338M1103 502L1103 510C1097.1 506.428 1090.53 512.547 1094.5 518.833C1096.61 522.167 1101.91 520.007 1105 521L1105 502L1103 502M961 503L955 521L956 521C959.862 514.517 964.138 514.517 968 521L969 521L963 503L961 503z"/>
<path style="fill:#0c75e6; stroke:none;" d="M992.333 503.667L992.667 504.333L992.333 503.667z"/>
<path style="fill:#b6b352; stroke:none;" d="M993.333 503.667L993.667 504.333L993.333 503.667M1050 503L1055 521L1056 521L1060 506L1061 506C1062.03 510.981 1062.47 518.147 1067 521L1071 503L1070 503L1066 518L1061 503L1056 518L1055 518L1050 503z"/>
<path style="fill:#0c75e6; stroke:none;" d="M1051 503L1052 504L1051 503M1061 503L1062 504L1061 503M1069.33 503.667L1069.67 504.333L1069.33 503.667M1074.33 503.667L1074.67 504.333L1074.33 503.667z"/>
<path style="fill:#b6b352; stroke:none;" d="M1075.33 503.667L1075.67 504.333L1075.33 503.667z"/>
<path style="fill:#0c75e6; stroke:none;" d="M960 504L961 505L960 504M963 504L964 505L963 504M985 504L986 505L985 504M1024 504L1025 505L1024 504M1059 504L1060 505L1059 504M961 505L963 507L961 505z"/>
<path style="fill:#b6b352; stroke:none;" d="M985 505L983 509L989 521L989 520C985.538 516.332 985.334 512.591 989 509L989 508L985 505M1024 505L1022 509L1028 521L1028 520C1024.54 516.332 1024.33 512.591 1028 509L1028 508L1024 505z"/>
<path style="fill:#171d27; stroke:none;" d="M961 506L959 514L965 514L961 506z"/>
<path style="fill:#0c75e6; stroke:none;" d="M1050 506L1051 507L1050 506M1060 506L1061 507L1060 506M1062.33 506.667L1062.67 507.333L1062.33 506.667M1070 506L1071 507L1070 506M959 507L960 508L959 507M964 507L965 508L964 507M1052 507L1053 508L1052 507M1068.33 507.667L1068.67 508.333L1068.33 507.667M960 508L961 509L960 508M975 508L975 509L980 509L980 508L975 508z"/>
<path style="fill:#b6b352; stroke:none;" d="M976 508L976 509L979 509L976 508z"/>
<path style="fill:#0c75e6; stroke:none;" d="M982 508L983 509L982 508M989 508L990 509L989 508z"/>
<path style="fill:#b6b352; stroke:none;" d="M992 508L992 521L994 521L994 508L992 508z"/>
<path style="fill:#0c75e6; stroke:none;" d="M996 508L997 509L996 508z"/>
<path style="fill:#b6b352; stroke:none;" d="M997 508L1003 521L997 508M1006 508L1003 518L1004 518L1006 508z"/>
<path style="fill:#0c75e6; stroke:none;" d="M1007 508L1008 509L1007 508M1012 508L1015 510L1015 509L1012 508z"/>
<path style="fill:#b6b352; stroke:none;" d="M1013 508L1013 509L1016 513C1016.61 517.15 1015.11 518.602 1011 519L1015 515L1015 514C1005.09 515.653 1014.1 519.721 1018 521L1019 521C1019 515.159 1019.82 509.455 1013 508z"/>
<path style="fill:#0c75e6; stroke:none;" d="M1016 508L1017 509L1016 508M1021 508L1022 509L1021 508M1028 508L1029 509L1028 508M1034 508L1034 509L1038 509L1038 508L1034 508z"/>
<path style="fill:#b6b352; stroke:none;" d="M1035.67 508.333L1036.33 508.667L1035.67 508.333z"/>
<path style="fill:#0c75e6; stroke:none;" d="M1058 508L1059 509L1058 508M1061.33 508.667L1061.67 509.333L1061.33 508.667z"/>
<path style="fill:#b6b352; stroke:none;" d="M1074 508L1074 521L1076 521L1076 508L1074 508M1080 508L1080 521L1082 521C1082.01 508.755 1088.96 508.739 1089 521L1090 521C1090 509.512 1088.86 510.849 1080 508z"/>
<path style="fill:#0c75e6; stroke:none;" d="M1084 508L1085 509L1084 508M1087 508L1088 509L1087 508M1097 508L1098 509L1097 508M1100 508L1101 509L1100 508M1112 508L1112 509L1117 509L1117 508L1112 508z"/>
<path style="fill:#b6b352; stroke:none;" d="M1113 508L1113 509L1116 509L1113 508M1123 508L1128 521L1123 508z"/>
<path style="fill:#0c75e6; stroke:none;" d="M1130 508L1131 509L1130 508z"/>
<path style="fill:#b6b352; stroke:none;" d="M1131 508L1129 515L1130 515L1131 511L1132 514L1133 514L1131 508M1138 508L1137 514L1138 514L1138 508z"/>
<path style="fill:#0c75e6; stroke:none;" d="M1139 508L1140 509L1139 508M1144 508L1147 510L1147 509L1144 508z"/>
<path style="fill:#b6b352; stroke:none;" d="M1145 508L1145 509L1149 510L1149 509L1145 508z"/>
<path style="fill:#0c75e6; stroke:none;" d="M1148 508L1149 509L1148 508M963 509L964 510L963 509z"/>
<path style="fill:#b6b352; stroke:none;" d="M980 520L980 519C972.844 519.266 973.284 514.02 976 509C969.295 512.697 972.459 521.394 980 520M979 509L980 510L979 509z"/>
<path style="fill:#0c75e6; stroke:none;" d="M983 509L984 510L983 509M987.667 509.333L988.333 509.667L987.667 509.333M998 509L999 510L998 509M1005 509L1006 510L1005 509z"/>
<path style="fill:#b6b352; stroke:none;" d="M1011.67 509.333L1012.33 509.667L1011.67 509.333z"/>
<path style="fill:#0c75e6; stroke:none;" d="M1022 509L1023 510L1022 509M1026.67 509.333L1027.33 509.667L1026.67 509.333M1032 509L1032 512L1033 512L1032 509z"/>
<path style="fill:#b6b352; stroke:none;" d="M1032 511L1035 510L1032 511M1037 509L1039 513L1032 511L1031 511C1031.06 517.681 1032.65 521.577 1040 520L1040 519C1035.59 519.329 1033.3 518.35 1032 514L1041 514L1037 509z"/>
<path style="fill:#0c75e6; stroke:none;" d="M1051.33 509.667L1051.67 510.333L1051.33 509.667M1059 509L1060 510L1059 509M1085 509L1086 510L1085 509M1095 509L1096 510L1095 509M1098.67 509.333L1099.33 509.667L1098.67 509.333M1109 510L1109 511L1112 511L1109 510z"/>
<path style="fill:#b6b352; stroke:none;" d="M1111.67 509.333L1112.33 509.667L1111.67 509.333M1116 509L1116 510C1123.03 517.609 1108.87 523.171 1111 510L1110 510C1104.77 527.893 1128.88 516.103 1116 509z"/>
<path style="fill:#0c75e6; stroke:none;" d="M1118 509L1119 510L1118 509M1124 509L1125 510L1124 509M1137.33 509.667L1137.67 510.333L1137.33 509.667M1142 509L1144 511L1142 509z"/>
<path style="fill:#b6b352; stroke:none;" d="M1143.67 509.333L1144.33 509.667L1143.67 509.333z"/>
<path style="fill:#0c75e6; stroke:none;" d="M958 510L959 511L958 510M965 510L966 511L965 510M997 510L998 511L997 510M1018 510L1019 511L1018 510z"/>
<path style="fill:#171d27; stroke:none;" d="M1032 513L1039 513C1036.84 509.668 1034.27 509.86 1032 513z"/>
<path style="fill:#0c75e6; stroke:none;" d="M1063 510L1064 511L1063 510M1069 510L1070 511L1069 510M1087 510L1088 511L1087 510M1089 510L1090 511L1089 510M1094 510L1095 511L1094 510M1096 510L1097 511L1096 510z"/>
<path style="fill:#171d27; stroke:none;" d="M1097.31 511.047C1093.06 513.728 1097.22 520.977 1101.26 517.953C1104.81 515.293 1101.79 508.223 1097.31 511.047M1112.32 511.047C1107.87 513.809 1112.2 520.733 1116.68 517.953C1121.13 515.191 1116.8 508.267 1112.32 511.047z"/>
<path style="fill:#0c75e6; stroke:none;" d="M1117 510L1118 511L1117 510M1119 510L1120 511L1119 510M1132 510L1133 511L1132 510z"/>
<path style="fill:#b6b352; stroke:none;" d="M1142 510C1142.66 513.83 1144.37 514.887 1148 516L1148 519L1142 519L1142 520C1152.88 522.029 1145.37 513.524 1142 510z"/>
<path style="fill:#0c75e6; stroke:none;" d="M959 511L960 512L959 511M964 511L965 512L964 511M1040.33 511.667L1040.67 512.333L1040.33 511.667M1053 511L1054 512L1053 511M1057.33 511.667L1057.67 512.333L1057.33 511.667M1067.33 511.667L1067.67 512.333L1067.33 511.667M1123 511L1124 512L1123 511M1129 511L1130 512L1129 511M1131 511L1132 512L1131 511M1138 511L1139 512L1138 511M1141 511L1142 512L1141 511M957 512L958 513L957 512M966 512L967 513L966 512M973 512L974 513L973 512M999 512L1000 513L999 512M1004 512L1005 513L1004 512M1017 512L1018 513L1017 512M1030 512L1030 517L1031 517L1030 512M1062 512L1063 513L1062 512M1088 512L1088 521L1089 521L1088 512M1125.33 512.667L1125.67 513.333L1125.33 512.667M1130 512L1131 513L1130 512M1143 512L1144 513L1143 512M971 513L971 516L972 516L971 513M998 513L999 514L998 513M1005 513L1006 514L1005 513M1014 513L1014 514L1017 517L1018 517L1014 513M1052 513L1053 514L1052 513M1058 513L1059 514L1058 513M1068.33 513.667L1068.67 514.333L1068.33 513.667M1093 513L1093 517L1094 517L1093 513M1108 513L1108 516L1109 516L1108 513M1120 513L1120 516L1121 516L1120 513M1133 513L1132 515L1134 515L1133 513M1136 513L1138 516L1136 513M1032 514L1032 515L1041 515L1032 514M1054.33 514.667L1054.67 515.333L1054.33 514.667M1064 514L1065 515L1064 514M1124 514L1125 515L1124 514M1143 514L1144 515L1143 514M1147 514L1148 515L1147 514M956 515L957 516L956 515M959 515L959 516L965 516L959 515M967 515L968 516L967 515M1003 515L1004 516L1003 515z"/>
<path style="fill:#171d27; stroke:none;" d="M1011 516L1011 518C1014.43 518.784 1015.86 518.422 1017 515L1011 516z"/>
<path style="fill:#0c75e6; stroke:none;" d="M1056 515L1057 516L1056 515M1066.33 515.667L1066.67 516.333L1066.33 515.667M1128.67 515.333L1129.33 515.667L1128.67 515.333z"/>
<path style="fill:#b6b352; stroke:none;" d="M1133 515L1133 518L1134 518L1133 515M1136 515L1136 518L1137 518L1136 515z"/>
<path style="fill:#0c75e6; stroke:none;" d="M999 516L1000 517L999 516M1004 516L1005 517L1004 516M1009 516L1009 519L1010 519L1009 516M1053.33 516.667L1053.67 517.333L1053.33 516.667M1063 516L1064 517L1063 516M1126.33 516.667L1126.67 517.333L1126.33 516.667z"/>
<path style="fill:#b6b352; stroke:none;" d="M1128.33 516.667L1128.67 517.333L1128.33 516.667z"/>
<path style="fill:#0c75e6; stroke:none;" d="M1147 516L1148 517L1147 516M1149.33 516.667L1149.67 517.333L1149.33 516.667M957 517L958 518L957 517M966 517L967 518L966 517M1001 517L1004 519L1004 518L1001 517M1032 517L1033 518L1032 517M1057 517L1058 518L1057 517M1065 517L1066 518L1065 517M1067 517L1068 518L1067 517M1095 517L1096 518L1095 517M1102 517L1103 518L1102 517M1133 518L1133 519L1137 519L1133 518M955 518L956 519L955 518M968 518L969 519L968 518M972 518L973 519L972 518M974 518L975 519L974 518M986 518L987 519L986 518M1011 518L1012 519L1011 518M1025 518L1026 519L1025 518M1031 518L1032 519L1031 518M1033 518L1034 519L1033 518M1096 518L1097 519L1096 518M1109 518L1110 519L1109 518M1111 518L1112 519L1111 518M1117 518L1118 519L1117 518M1125 518L1126 519L1125 518M1127.67 518.333L1128.33 518.667L1127.67 518.333M973 519L974 520L973 519M976 519L976 520L979 520L976 519M988 519L989 520L988 519M1000 519L1001 520L1000 519M1013.67 519.333L1014.33 519.667L1013.67 519.333M1016 519L1018 521L1018 519L1016 519M1027 519L1028 520L1027 519M1035 519L1035 520L1038 520L1035 519M1098.67 519.333L1099.33 519.667L1098.67 519.333M1110 519L1111 520L1110 519M1113 519L1113 520L1116 520L1113 519z"/>
<path style="fill:#b6b352; stroke:none;" d="M1134 519L1134 521L1136 521L1136 519L1134 519z"/>
<path style="fill:#0c75e6; stroke:none;" d="M1141 519L1142 520L1141 519M1143 519L1143 520L1146 520L1143 519M1148 519L1149 520L1148 519M956 520L957 521L956 520M967 520L968 521L967 520M975 520L976 521L975 520M979 520L980 521L979 520M986 520L987 521L986 520M1011 520L1012 521L1011 520M1025 520L1026 521L1025 520M1038 520L1039 521L1038 520M1054 520L1055 521L1054 520M1056 520L1057 521L1056 520M1064 520L1065 521L1064 520M1096 520L1097 521L1096 520M1100 520L1101 521L1100 520M1112 520L1113 521L1112 520M1116 520L1117 521L1116 520M1142 520L1143 521L1142 520M1146 520L1147 521L1146 520z"/>
<path style="fill:#b6b352; stroke:none;" d="M1199 534L1199 540L1195 539L1195 540L1199 548L1200 548L1199 534M955 544L956 544C956.587 538.773 958.773 536.587 964 536C957.979 533.678 955.292 538.676 955 544z"/>
<path style="fill:#0c75e6; stroke:none;" d="M1007 535L1008 536L1007 535z"/>
<path style="fill:#b6b352; stroke:none;" d="M1008 535L1008 536L1012 536L1008 535z"/>
<path style="fill:#0c75e6; stroke:none;" d="M1036 535L1036 537L1038 537L1038 535L1036 535M1119 535L1119 537L1121 537L1121 535L1119 535M1160 535L1161 536L1160 535z"/>
<path style="fill:#b6b352; stroke:none;" d="M1161 535L1161 538L1162 538L1161 535M1168 535L1169 539L1170 539L1168 535M1175 535L1175 538L1176 538L1175 535z"/>
<path style="fill:#0c75e6; stroke:none;" d="M1176 535L1177 536L1176 535M1178 535L1178 537L1180 537L1180 535L1178 535M964 536L965 537L964 536z"/>
<path style="fill:#b6b352; stroke:none;" d="M984 536C983.534 540.364 983.005 545.412 987 548L987 547C985.02 544.345 985.02 542.655 987 540L987 539L984 536M1006 536L1007 537L1006 536M1025 536C1024.53 540.364 1024 545.412 1028 548L1028 547C1026.02 544.345 1026.02 542.655 1028 540L1028 539L1025 536M1031 536L1031 547L1032 547L1034 540L1034 539L1031 536M1075 536C1074.53 540.364 1074 545.412 1078 548L1078 547C1076.02 544.345 1076.02 542.655 1078 540L1078 539L1075 536M1114 536C1113.53 540.364 1113 545.412 1117 548L1117 547C1115.02 544.345 1115.02 542.655 1117 540L1117 539L1114 536M1142 536C1141.53 540.364 1141 545.412 1145 548L1145 547C1143.02 544.345 1143.02 542.655 1145 540L1145 539L1142 536z"/>
<path style="fill:#0c75e6; stroke:none;" d="M1169 536L1170 537L1169 536M957 537L958 538L957 537M1005 537L1005 540L1006 540L1007 537L1005 537M1167.67 537.333L1168.33 537.667L1167.67 537.333z"/>
<path style="fill:#b6b352; stroke:none;" d="M1005 538L1006 539L1005 538z"/>
<path style="fill:#0c75e6; stroke:none;" d="M1161.67 538.333L1162.33 538.667L1161.67 538.333z"/>
<path style="fill:#b6b352; stroke:none;" d="M1167.33 538.667L1167.67 539.333L1167.33 538.667z"/>
<path style="fill:#0c75e6; stroke:none;" d="M1174.67 538.333L1175.33 538.667L1174.67 538.333M956 539L957 540L956 539M969 539L967 541L967 542L969 539z"/>
<path style="fill:#b6b352; stroke:none;" d="M970 539L970 540L975 541L970 539z"/>
<path style="fill:#0c75e6; stroke:none;" d="M982 539L983 540L982 539M987 539L988 540L987 539M991 539L989 541L989 542L991 539z"/>
<path style="fill:#b6b352; stroke:none;" d="M992 539L992 540L997 541L992 539M1006 539L1011 547L1012 547C1012.44 542.51 1009.71 541.033 1006 539M1016 540L1016 541L1020 540L1016 540z"/>
<path style="fill:#0c75e6; stroke:none;" d="M1020 539L1020 541L1022 541L1020 539M1023 539L1024 540L1023 539M1028.67 539.333L1029.33 539.667L1028.67 539.333M1034 539L1035 540L1034 539M1036 539L1036 548L1038 548L1038 539L1036 539M1040 539L1040 548L1042 548L1041 540L1043 541L1043 540L1040 539z"/>
<path style="fill:#b6b352; stroke:none;" d="M1043 539L1043 540L1046 540L1043 539M1051 540L1051 541L1056 540L1051 540M1057 539L1057 549L1058 549L1057 539z"/>
<path style="fill:#0c75e6; stroke:none;" d="M1062 539L1061 541L1063 541L1062 539z"/>
<path style="fill:#b6b352; stroke:none;" d="M1063 539L1063 540L1066 540L1063 539z"/>
<path style="fill:#0c75e6; stroke:none;" d="M1066 539L1067 540L1066 539M1073 539L1074 540L1073 539M1078 539L1079 540L1078 539M1082 539L1080 541L1080 542L1082 539z"/>
<path style="fill:#b6b352; stroke:none;" d="M1083 539L1083 540L1088 541L1083 539z"/>
<path style="fill:#0c75e6; stroke:none;" d="M1097 539L1098 540L1097 539z"/>
<path style="fill:#b6b352; stroke:none;" d="M1098 539L1098 540L1102 541L1102 540L1098 539z"/>
<path style="fill:#0c75e6; stroke:none;" d="M1101 539L1102 540L1101 539M1107 539L1105 541L1105 542L1107 539z"/>
<path style="fill:#b6b352; stroke:none;" d="M1108 539L1108 540L1111 540L1108 539z"/>
<path style="fill:#0c75e6; stroke:none;" d="M1111.67 539.333L1112.33 539.667L1111.67 539.333M1117 539L1118 540L1117 539M1119 539L1119 548L1121 548L1121 539L1119 539M1122.67 539.333L1123.33 539.667L1122.67 539.333M1129.67 539.333L1130.33 539.667L1129.67 539.333M1133 539L1134 540L1133 539z"/>
<path style="fill:#b6b352; stroke:none;" d="M1134 539L1134 540L1138 541L1138 540L1134 539z"/>
<path style="fill:#0c75e6; stroke:none;" d="M1137 539L1138 540L1137 539M1140 539L1141 540L1140 539M1145 539L1146 540L1145 539z"/>
<path style="fill:#b6b352; stroke:none;" d="M1148 540L1148 541L1152 540L1148 540z"/>
<path style="fill:#0c75e6; stroke:none;" d="M1152 539L1152 541L1154 541L1152 539z"/>
<path style="fill:#b6b352; stroke:none;" d="M1162.33 539.667L1162.67 540.333L1162.33 539.667z"/>
<path style="fill:#0c75e6; stroke:none;" d="M1169 539L1169 541L1171 541L1171 539L1169 539z"/>
<path style="fill:#b6b352; stroke:none;" d="M1174 539L1174 542L1175 542L1174 539z"/>
<path style="fill:#0c75e6; stroke:none;" d="M1178 539L1178 548L1180 548L1180 539L1178 539M1182 539L1182 548L1184 548L1183 540L1185 541L1185 540L1182 539z"/>
<path style="fill:#b6b352; stroke:none;" d="M1185 539L1185 540L1188 540L1185 539z"/>
<path style="fill:#0c75e6; stroke:none;" d="M1194 539L1192 541L1192 542L1194 539M1205 539L1203 541L1203 542L1205 539z"/>
<path style="fill:#b6b352; stroke:none;" d="M1206 539L1206 540L1211 541L1206 539z"/>
<path style="fill:#0c75e6; stroke:none;" d="M1213.67 539.333L1214.33 539.667L1213.67 539.333z"/>
<path style="fill:#b6b352; stroke:none;" d="M1219 539L1220 543L1221 543L1219 539z"/>
<path style="fill:#0c75e6; stroke:none;" d="M1224.67 539.333L1225.33 539.667L1224.67 539.333M1228 539L1227 541L1229 541L1228 539z"/>
<path style="fill:#b6b352; stroke:none;" d="M1229 539L1229 540L1232 540L1229 539z"/>
<path style="fill:#0c75e6; stroke:none;" d="M1232 539L1233 540L1232 539z"/>
<path style="fill:#b6b352; stroke:none;" d="M968 540L969 541L968 540z"/>
<path style="fill:#171d27; stroke:none;" d="M970.318 541.175C967.318 542.708 969.688 547.355 972.682 545.825C975.682 544.292 973.312 539.645 970.318 541.175z"/>
<path style="fill:#0c75e6; stroke:none;" d="M973 540L974 541L973 540z"/>
<path style="fill:#b6b352; stroke:none;" d="M990 540L991 541L990 540z"/>
<path style="fill:#171d27; stroke:none;" d="M992.318 541.175C989.318 542.708 991.688 547.355 994.682 545.825C997.682 544.292 995.312 539.645 992.318 541.175z"/>
<path style="fill:#0c75e6; stroke:none;" d="M995 540L996 541L995 540M1008 540L1009 541L1008 540z"/>
<path style="fill:#171d27; stroke:none;" d="M1016 543L1021 543C1019.23 540.25 1017.9 540.425 1016 543z"/>
<path style="fill:#b6b352; stroke:none;" d="M1041.33 540.667L1041.67 541.333L1041.33 540.667M1046 540L1047 541L1046 540z"/>
<path style="fill:#0c75e6; stroke:none;" d="M1052 540L1053 541L1052 540z"/>
<path style="fill:#b6b352; stroke:none;" d="M1081 540L1082 541L1081 540z"/>
<path style="fill:#171d27; stroke:none;" d="M1083.32 541.175C1080.32 542.708 1082.69 547.355 1085.68 545.825C1088.68 544.292 1086.31 539.645 1083.32 541.175z"/>
<path style="fill:#0c75e6; stroke:none;" d="M1086 540L1087 541L1086 540z"/>
<path style="fill:#b6b352; stroke:none;" d="M1106 540L1107 541L1106 540M1123 540L1124 541L1123 540M1129 540L1130 541L1129 540z"/>
<path style="fill:#171d27; stroke:none;" d="M1148 543L1153 543C1151.23 540.25 1149.9 540.425 1148 543z"/>
<path style="fill:#0c75e6; stroke:none;" d="M1166 540L1166 542L1168 540L1166 540z"/>
<path style="fill:#b6b352; stroke:none;" d="M1183.33 540.667L1183.67 541.333L1183.33 540.667M1188 540L1189 541L1188 540M1193 540L1194 541L1193 540z"/>
<path style="fill:#171d27; stroke:none;" d="M1195.28 541.175C1192.49 542.697 1194.64 547.471 1197.41 545.825C1199.82 544.393 1198.12 539.626 1195.28 541.175z"/>
<path style="fill:#b6b352; stroke:none;" d="M1204 540L1205 541L1204 540z"/>
<path style="fill:#171d27; stroke:none;" d="M1206.32 541.175C1203.32 542.708 1205.69 547.355 1208.68 545.825C1211.68 544.292 1209.31 539.645 1206.32 541.175z"/>
<path style="fill:#0c75e6; stroke:none;" d="M1209 540L1210 541L1209 540z"/>
<path style="fill:#b6b352; stroke:none;" d="M1214.33 540.667L1214.67 541.333L1214.33 540.667z"/>
<path style="fill:#0c75e6; stroke:none;" d="M1220 540L1221 541L1220 540z"/>
<path style="fill:#b6b352; stroke:none;" d="M1224.33 540.667L1224.67 541.333L1224.33 540.667M961 541L961 542L964 542L961 541z"/>
<path style="fill:#0c75e6; stroke:none;" d="M964 541L963 547L965 547L964 541M974.667 541.333L975.333 541.667L974.667 541.333M996.667 541.333L997.333 541.667L996.667 541.333M1010 541L1011 542L1010 541M1015.67 541.333L1016.33 541.667L1015.67 541.333z"/>
<path style="fill:#b6b352; stroke:none;" d="M1021 541L1015 542L1015 545L1016 545C1018.43 544.157 1022.17 544.1 1021 541z"/>
<path style="fill:#0c75e6; stroke:none;" d="M1046 541L1046 548L1048 548L1048 541L1046 541M1050.67 541.333L1051.33 541.667L1050.67 541.333z"/>
<path style="fill:#b6b352; stroke:none;" d="M1061 541L1067 546L1061 541z"/>
<path style="fill:#0c75e6; stroke:none;" d="M1087.67 541.333L1088.33 541.667L1087.67 541.333M1101 541L1103 548L1101 541M1123.67 541.333L1124.33 541.667L1123.67 541.333M1129 541L1130 542L1129 541M1137 541L1139 548L1137 541M1147.67 541.333L1148.33 541.667L1147.67 541.333z"/>
<path style="fill:#b6b352; stroke:none;" d="M1153 541L1147 542L1147 545L1148 545C1150.43 544.157 1154.17 544.1 1153 541z"/>
<path style="fill:#0c75e6; stroke:none;" d="M1162 541L1162 543L1164 541L1162 541z"/>
<path style="fill:#b6b352; stroke:none;" d="M1170.33 541.667L1170.67 542.333L1170.33 541.667z"/>
<path style="fill:#0c75e6; stroke:none;" d="M1188 541L1188 548L1190 548L1190 541L1188 541M1210.67 541.333L1211.33 541.667L1210.67 541.333M1218 541L1219 542L1218 541z"/>
<path style="fill:#b6b352; stroke:none;" d="M1227 541L1233 546L1227 541M967 542L967 545L968 545L967 542M975 542L975 545L976 545L975 542M989 542L989 545L990 545L989 542M997 542L997 545L998 545L997 542M1050 542L1050 545L1051 545L1050 542z"/>
<path style="fill:#0c75e6; stroke:none;" d="M1061 542L1062 543L1061 542z"/>
<path style="fill:#b6b352; stroke:none;" d="M1080 542L1080 545L1081 545L1080 542M1088 542L1088 545L1089 545L1088 542z"/>
<path style="fill:#0c75e6; stroke:none;" d="M1098 542L1099 543L1098 542z"/>
<path style="fill:#b6b352; stroke:none;" d="M1099 542L1099 543L1102 543L1099 542M1105 542L1105 545L1106 545L1105 542M1124.33 542.667L1124.67 543.333L1124.33 542.667M1128.33 542.667L1128.67 543.333L1128.33 542.667z"/>
<path style="fill:#0c75e6; stroke:none;" d="M1134 542L1135 543L1134 542z"/>
<path style="fill:#b6b352; stroke:none;" d="M1135 542L1135 543L1138 543L1135 542M1163 542L1163 545L1164 545L1163 542M1166.33 542.667L1166.67 543.333L1166.33 542.667z"/>
<path style="fill:#0c75e6; stroke:none;" d="M1173.67 542.333L1174.33 542.667L1173.67 542.333z"/>
<path style="fill:#b6b352; stroke:none;" d="M1192 542L1192 545L1193 545L1192 542M1203 542L1203 545L1204 545L1203 542M1211 542L1211 545L1212 545L1211 542z"/>
<path style="fill:#0c75e6; stroke:none;" d="M1214.67 542.333L1215.33 542.667L1214.67 542.333z"/>
<path style="fill:#b6b352; stroke:none;" d="M1218 542L1219 543L1218 542z"/>
<path style="fill:#0c75e6; stroke:none;" d="M1224 542L1225 543L1224 542M1227 542L1228 543L1227 542M1012 543L1013 544L1012 543M1062 543L1063 544L1062 543M1065 543L1066 544L1065 543M1096 543L1097 544L1096 543z"/>
<path style="fill:#b6b352; stroke:none;" d="M1097 543C1096.51 546.137 1096.96 547 1100 548L1100 547L1097 547L1097 543z"/>
<path style="fill:#171d27; stroke:none;" d="M1097 544L1097 546L1098 547L1100 547L1101 543L1097 544z"/>
<path style="fill:#0c75e6; stroke:none;" d="M1132 543L1133 544L1132 543z"/>
<path style="fill:#b6b352; stroke:none;" d="M1133 543C1132.51 546.137 1132.96 547 1136 548L1136 547L1133 547L1133 543z"/>
<path style="fill:#171d27; stroke:none;" d="M1133 544L1133 546L1134 547L1136 547L1137 543L1133 544z"/>
<path style="fill:#0c75e6; stroke:none;" d="M1170.67 543.333L1171.33 543.667L1170.67 543.333z"/>
<path style="fill:#b6b352; stroke:none;" d="M1173.33 543.667L1173.67 544.333L1173.33 543.667M1215.33 543.667L1215.67 544.333L1215.33 543.667z"/>
<path style="fill:#0c75e6; stroke:none;" d="M1218 543L1219 544L1218 543M1220 543L1221 544L1220 543M1223 543L1224 544L1223 543M1228 543L1229 544L1228 543M1231 543L1232 544L1231 543M955.667 544.333L956.333 544.667L955.667 544.333M1066 544L1067 545L1066 544M1124.67 544.333L1125.33 544.667L1124.67 544.333M1127.67 544.333L1128.33 544.667L1127.67 544.333M1163 545L1163 546L1167 545L1163 545z"/>
<path style="fill:#b6b352; stroke:none;" d="M1171 544L1172 548L1173 548L1171 544z"/>
<path style="fill:#0c75e6; stroke:none;" d="M1217 544L1218 545L1217 544M1221 544L1222 545L1221 544z"/>
<path style="fill:#b6b352; stroke:none;" d="M1223 544L1224 545L1223 544z"/>
<path style="fill:#0c75e6; stroke:none;" d="M1232 544L1233 545L1232 544z"/>
<path style="fill:#b6b352; stroke:none;" d="M956 545L957 546L956 545z"/>
<path style="fill:#0c75e6; stroke:none;" d="M967 545L967 546L969 548L970 548L967 545M973 548L974 548L976 546L973 548M989 545L989 546L991 548L992 548L989 545M995 548L996 548L998 546L995 548M1011 545L1012 546L1011 545M1015.67 545.333L1016.33 545.667L1015.67 545.333M1050 545L1050 546L1053 547L1050 545M1080 545L1080 546L1082 548L1083 548L1080 545M1086 548L1087 548L1089 546L1086 548M1105 545L1105 546L1108 547L1105 545z"/>
<path style="fill:#b6b352; stroke:none;" d="M1125 545L1126 546L1125 545M1127 545L1128 546L1127 545z"/>
<path style="fill:#0c75e6; stroke:none;" d="M1147.67 545.333L1148.33 545.667L1147.67 545.333z"/>
<path style="fill:#b6b352; stroke:none;" d="M1165 545L1164 548L1165 545z"/>
<path style="fill:#0c75e6; stroke:none;" d="M1172 545L1174 547L1174 545L1172 545M1192 545L1192 546L1195 547L1192 545M1203 545L1203 546L1205 548L1206 548L1203 545M1209 548L1210 548L1212 546L1209 548M1215 545L1216 546L1215 545z"/>
<path style="fill:#b6b352; stroke:none;" d="M1217 545L1218 546L1217 545M1221 545L1222 548L1223 548L1221 545z"/>
<path style="fill:#0c75e6; stroke:none;" d="M1223 545L1224 546L1223 545z"/>
<path style="fill:#b6b352; stroke:none;" d="M957 546L958 547L957 546z"/>
<path style="fill:#0c75e6; stroke:none;" d="M958.333 546.667L958.667 547.333L958.333 546.667z"/>
<path style="fill:#b6b352; stroke:none;" d="M968 546L969 547L968 546M974 546L975 547L974 546M990 546L991 547L990 546M996 546L997 547L996 546z"/>
<path style="fill:#0c75e6; stroke:none;" d="M1005 546L1006 547L1005 546z"/>
<path style="fill:#b6b352; stroke:none;" d="M1016 546L1017 547L1016 546z"/>
<path style="fill:#0c75e6; stroke:none;" d="M1021 546L1022 547L1021 546z"/>
<path style="fill:#b6b352; stroke:none;" d="M1051 546L1052 547L1051 546z"/>
<path style="fill:#0c75e6; stroke:none;" d="M1065 546L1065 548L1067 546L1065 546z"/>
<path style="fill:#b6b352; stroke:none;" d="M1081 546L1082 547L1081 546M1087 546L1088 547L1087 546z"/>
<path style="fill:#0c75e6; stroke:none;" d="M1097 546L1098 547L1097 546z"/>
<path style="fill:#b6b352; stroke:none;" d="M1101 546L1102 547L1101 546M1106 546L1107 547L1106 546z"/>
<path style="fill:#0c75e6; stroke:none;" d="M1125 546L1125 547L1128 547L1125 546M1133 546L1134 547L1133 546z"/>
<path style="fill:#b6b352; stroke:none;" d="M1137 546L1138 547L1137 546M1148 546L1149 547L1148 546z"/>
<path style="fill:#0c75e6; stroke:none;" d="M1153 546L1154 547L1153 546z"/>
<path style="fill:#b6b352; stroke:none;" d="M1193 546L1194 547L1193 546M1204 546L1205 547L1204 546M1210 546L1211 547L1210 546z"/>
<path style="fill:#0c75e6; stroke:none;" d="M1216.67 546.333L1217.33 546.667L1216.67 546.333M1221 546L1222 547L1221 546M1231 546L1231 548L1233 546L1231 546M1235 546L1235 548L1237 548L1237 546L1235 546z"/>
<path style="fill:#b6b352; stroke:none;" d="M959 547L959 548L964 548L959 547M970 547L970 548L973 548L970 547z"/>
<path style="fill:#0c75e6; stroke:none;" d="M987 547L988 548L987 547z"/>
<path style="fill:#b6b352; stroke:none;" d="M992 547L992 548L995 548L992 547M1005 547L1005 548L1011 548L1005 547M1017 547L1017 548L1021 548L1017 547z"/>
<path style="fill:#0c75e6; stroke:none;" d="M1028 547L1029 548L1028 547z"/>
<path style="fill:#b6b352; stroke:none;" d="M1032.67 547.333L1033.33 547.667L1032.67 547.333z"/>
<path style="fill:#0c75e6; stroke:none;" d="M1034 547L1035 548L1034 547z"/>
<path style="fill:#b6b352; stroke:none;" d="M1052 547L1052 548L1055 548L1052 547z"/>
<path style="fill:#0c75e6; stroke:none;" d="M1055 547L1056 548L1055 547z"/>
<path style="fill:#b6b352; stroke:none;" d="M1061 547L1061 548L1065 548L1061 547z"/>
<path style="fill:#0c75e6; stroke:none;" d="M1078 547L1079 548L1078 547z"/>
<path style="fill:#b6b352; stroke:none;" d="M1083 547L1083 548L1086 548L1083 547M1107 547L1107 548L1111 548L1107 547z"/>
<path style="fill:#0c75e6; stroke:none;" d="M1117 547L1118 548L1117 547z"/>
<path style="fill:#b6b352; stroke:none;" d="M1126 547L1127 548L1126 547z"/>
<path style="fill:#0c75e6; stroke:none;" d="M1145 547L1146 548L1145 547z"/>
<path style="fill:#b6b352; stroke:none;" d="M1149 547L1149 548L1153 548L1149 547z"/>
<path style="fill:#0c75e6; stroke:none;" d="M1165 547L1166 548L1165 547M1171 547L1172 548L1171 547z"/>
<path style="fill:#b6b352; stroke:none;" d="M1194 547L1194 548L1197 548L1194 547z"/>
<path style="fill:#0c75e6; stroke:none;" d="M1197 547L1198 548L1197 547z"/>
<path style="fill:#b6b352; stroke:none;" d="M1206 547L1206 548L1209 548L1206 547M1216 547L1217 548L1216 547M1227 547L1227 548L1231 548L1227 547z"/>
</svg>
