<?xml version="1.0" standalone="no"?>
<!DOCTYPE svg PUBLIC "-//W3C//DTD SVG 20010904//EN"
 "http://www.w3.org/TR/2001/REC-SVG-20010904/DTD/svg10.dtd">
<svg version="1.0" xmlns="http://www.w3.org/2000/svg"
 width="226.000000pt" height="223.000000pt" viewBox="0 0 226.000000 223.000000"
 preserveAspectRatio="xMidYMid meet">

<g transform="translate(0.000000,223.000000) scale(0.100000,-0.100000)"
fill="#000000" stroke="none">
<path d="M0 1115 l0 -1115 1130 0 1130 0 0 1115 0 1115 -1130 0 -1130 0 0
-1115z m1254 535 c99 -16 172 -58 279 -158 112 -105 139 -122 213 -129 71 -8
134 17 196 75 l48 45 -14 -40 c-41 -116 -110 -197 -204 -241 -53 -25 -67 -27
-192 -27 -133 0 -136 0 -203 33 -46 23 -99 63 -164 124 -111 104 -154 127
-236 128 -72 0 -113 -17 -173 -72 -41 -38 -46 -40 -40 -18 61 210 251 319 490
280z m-379 -504 c87 -23 148 -62 253 -160 87 -81 111 -98 159 -112 89 -26 170
-3 247 69 20 19 36 30 36 25 0 -32 -66 -145 -112 -192 -68 -67 -140 -96 -258
-103 -166 -10 -265 30 -405 163 -49 47 -106 94 -125 104 -93 47 -194 31 -279
-46 l-52 -47 20 54 c66 174 191 256 391 258 41 0 98 -5 125 -13z"/>
</g>
</svg>
