<?xml version="1.0" standalone="yes"?>
<svg xmlns="http://www.w3.org/2000/svg" width="1283" height="585">
<path style="fill:#2f363f; stroke:none;" d="M0 0L0 585L1283 585L1283 0L0 0z"/>
<path style="fill:#a74e06; stroke:none;" d="M1158 21.4398C1138 24.6612 1132.14 51.8878 1151 61.5471C1158.1 65.1848 1167.3 64 1175 64C1192.87 64 1214.63 67.3485 1232 62.9561C1250.72 58.2209 1252.83 32.0702 1236 23.4529C1228.64 19.6852 1218.98 21 1211 21C1193.87 21 1174.91 18.7161 1158 21.4398M102 22L102 50L103 50L102 22z"/>
<path style="fill:#e18a3e; stroke:none;" d="M103 22L103 50L105 50L105 46C106.885 47.5939 108.51 49.1365 111.005 49.6821C126.266 53.0205 125.541 26.2188 111.005 29.8395C108.711 30.4108 106.915 31.6969 105 33L105 22L103 22M32 24L32 50L34 50L34 39L49 50L39.0556 37L48 24L34 35L34 24L32 24z"/>
<path style="fill:#a74e06; stroke:none;" d="M34 24L34 35L35 35L34 24M45 24L46 25L45 24M48 24L49 25L48 24M194.333 24.6667L194.667 25.3333L194.333 24.6667z"/>
<path style="fill:#e18a3e; stroke:none;" d="M195 24L186 50C192.633 45.5668 194.372 44 203 44L207 50L198 24L195 24z"/>
<path style="fill:#a74e06; stroke:none;" d="M44 25L45 26L44 25M47 25L48 26L47 25M43 26L44 27L43 26M198 26L199 27L198 26M42 27L43 28L42 27M193 27L194 28L193 27M41 28L42 29L41 28M196 28L195 30L196 28M199.333 28.6667L199.667 29.3333L199.333 28.6667M40 29L41 30L40 29M59 29L60 30L59 29z"/>
<path style="fill:#e18a3e; stroke:none;" d="M70 46L70 50L72 50L72 30L70 33C47.4067 17.6235 49.0549 62.7189 70 46z"/>
<path style="fill:#a74e06; stroke:none;" d="M63.6667 29.3333L64.3333 29.6667L63.6667 29.3333M70.6667 29.3333L71.3333 29.6667L70.6667 29.3333M79 29L78 50L79 50L81 30L79 29M85 29L86 30L85 29z"/>
<path style="fill:#e18a3e; stroke:none;" d="M79 30L79 50L81 50C81 45.6035 79.8386 39.1342 82.179 35.2145C84.9215 30.6215 91.2429 31.1857 93.2577 36.0548C94.9281 40.0914 94 45.7084 94 50L96 50C96 43.0613 98.7285 28.851 88 29C83.9475 29.0563 82.8867 31.2493 79 30z"/>
<path style="fill:#a74e06; stroke:none;" d="M90 29L91 30L90 29M110.667 29.3333L111.333 29.6667L110.667 29.3333M115 29L116 30L115 29M133.667 29.3333L134.333 29.6667L133.667 29.3333z"/>
<path style="fill:#e18a3e; stroke:none;" d="M145 46L145 50L147 50L147 30L145 33C142.799 31.744 140.534 30.1374 137.998 29.6613C123.513 26.9415 123.725 53.3117 138.995 49.5671C141.42 48.9725 143.102 47.5154 145 46z"/>
<path style="fill:#a74e06; stroke:none;" d="M138 29L139 30L138 29M145.667 29.3333L146.333 29.6667L145.667 29.3333M153 29L153 30L157 32L153 29M160 29L161 30L160 29z"/>
<path style="fill:#e18a3e; stroke:none;" d="M153 30L153 50L155 50C155 45.2917 154.082 39.2275 156.858 35.1096C160.641 29.4979 166.784 32.3531 168.427 38.0038C169.521 41.7612 169 46.1277 169 50L171 50C171 43.3464 172.87 31.5061 163.995 29.6666C160.266 28.8936 156.846 30.8852 153 30z"/>
<path style="fill:#a74e06; stroke:none;" d="M164.667 29.3333L165.333 29.6667L164.667 29.3333z"/>
<path style="fill:#2f363f; stroke:none;" d="M196 29L192 41L201 41L196 29z"/>
<path style="fill:#a74e06; stroke:none;" d="M212 29C210.155 34.0475 208.426 58.8056 214 60L214 59C210.112 53.8685 210.112 35.1315 214 30L212 29M219.667 29.3333L220.333 29.6667L219.667 29.3333z"/>
<path style="fill:#e18a3e; stroke:none;" d="M214 33L212 30L212 59L214 59L214 46C215.898 47.5154 217.58 48.9725 220.005 49.5671C235.332 53.3259 234.941 26.1194 220.005 29.8395C217.711 30.4108 215.915 31.6968 214 33z"/>
<path style="fill:#a74e06; stroke:none;" d="M224 29L225 30L224 29M237 29L237 30L239 33L243 30L240 32L237 29M245 29L246 30L245 29z"/>
<path style="fill:#e18a3e; stroke:none;" d="M237 30L237 59L239 59L239 46C249.423 55.1093 264.173 42.9523 254.528 32.25C249.116 26.2445 242.763 32.6417 237 30z"/>
<path style="fill:#a74e06; stroke:none;" d="M249.667 29.3333L250.333 29.6667L249.667 29.3333M66 30L67 31L66 30M72 30L72 50L73 50L72 30M83 30L84 31L83 30M108 30L109 31L108 30M131 30L132 31L131 30M141 30L142 31L141 30M144 30L143 33L144 30M167 30L168 31L167 30M192 30L193 31L192 30M197.333 30.6667L197.667 31.3333L197.333 30.6667M217 30L218 31L217 30M252 30L253 31L252 30M55 31L56 32L55 31M61 31L61 32L64 32L61 31M86 31L86 32L89 32L86 31M111 31L111 32L114 32L111 31M119 31L120 32L119 31M135 31L135 32L139 32L135 31M142 31L143 32L142 31M160 31L160 32L164 32L160 31M168 31L169 32L168 31M194.333 31.6667L194.667 32.3333L194.333 31.6667M200 31L201 32L200 31M220 31L220 32L223 32L220 31M228 31L229 32L228 31M245 31L245 32L249 32L245 31M54 32L55 33L54 32M58 32L59 33L58 32z"/>
<path style="fill:#2f363f; stroke:none;" d="M59.2137 32.743C51.2035 36.3109 56.2085 50.5561 64.9452 47.2423C74.0894 43.774 68.5644 28.5781 59.2137 32.743z"/>
<path style="fill:#a74e06; stroke:none;" d="M66 32L67 33L66 32M69 32L70 33L69 32M91 32L92 33L91 32M105 32L106 33L105 32M108 32L106 35L108 32z"/>
<path style="fill:#2f363f; stroke:none;" d="M109.109 33.0286C100.934 37.5833 107.253 51.5446 115.891 46.8171C124.085 42.3333 117.977 28.0873 109.109 33.0286z"/>
<path style="fill:#a74e06; stroke:none;" d="M116 32L117 33L116 32M120 32L121 33L120 32z"/>
<path style="fill:#2f363f; stroke:none;" d="M133.148 33.0286C126.016 37.2072 131.371 51.2529 139.941 46.8063C148.395 42.4202 142.023 27.8289 133.148 33.0286z"/>
<path style="fill:#a74e06; stroke:none;" d="M140 32L141 33L140 32M158 32L159 33L158 32M169 32L170 33L169 32M191.333 32.6667L191.667 33.3333L191.333 32.6667M214 32L215 33L214 32z"/>
<path style="fill:#2f363f; stroke:none;" d="M218.133 33.0286C210.263 37.5101 216.382 51.4754 224.891 46.8171C233.21 42.263 227.124 27.9093 218.133 33.0286z"/>
<path style="fill:#a74e06; stroke:none;" d="M225 32L226 33L225 32M229 32L230 33L229 32M243 32L244 33L243 32z"/>
<path style="fill:#2f363f; stroke:none;" d="M244.109 32.743C236.5 35.9567 240.519 50.0406 248.981 47.2137C257.942 44.22 253.874 28.6188 244.109 32.743z"/>
<path style="fill:#a74e06; stroke:none;" d="M67 33L68 34L67 33M82 33L83 34L82 33M92 33L93 34L92 33M95 33L96 34L95 33M128 33L129 34L128 33M131 33L132 34L131 33M198 33L199 34L198 33M216 33L217 34L216 33M230 33L231 34L230 33M252 33L253 34L252 33M255 33L256 34L255 33M39 34L40 35L39 34M56 34L57 35L56 34M68 34L69 35L68 34M118 34L119 35L118 34M121 34L122 35L121 34M156 34L157 35L156 34M167 34L168 35L167 34M170.333 34.6667L170.667 35.3333L170.333 34.6667M193.333 34.6667L193.667 35.3333L193.333 34.6667M201 34L202 35L201 34M215 34L216 35L215 34M38 35L39 36L38 35M55.3333 35.6667L55.6667 36.3333L55.3333 35.6667M81.3333 35.6667L81.6667 36.3333L81.3333 35.6667M93.3333 35.6667L93.6667 36.3333L93.3333 35.6667M127 35L128 36L127 35M143 35L144 36L143 35M190 35L191 36L190 35M228 35L229 36L228 35M231.333 35.6667L231.667 36.3333L231.333 35.6667M240 35L241 36L240 35M256 35L257 36L256 35M37.3333 36.6667L37.6667 37.3333L37.3333 36.6667M52.3333 36.6667L52.6667 37.3333L52.3333 36.6667M69 36L70 37L69 36M96 36L96 50L97 50L96 36M105 36L106 37L105 36M119 36L120 37L119 36M122.333 36.6667L122.667 37.3333L122.333 36.6667M199 36L200 37L199 36M202.333 36.6667L202.667 37.3333L202.333 36.6667M214.333 36.6667L214.667 37.3333L214.333 36.6667z"/>
<path style="fill:#e18a3e; stroke:none;" d="M1173 36L1174 46L1175 46L1173 36M1182 36L1182 37L1187 37L1187 40L1189 44L1191 44C1190.16 38.5557 1187.28 36.6753 1182 36z"/>
<path style="fill:#bdaf97; stroke:none;" d="M1183.67 36.3333L1184.33 36.6667L1183.67 36.3333z"/>
<path style="fill:#e18a3e; stroke:none;" d="M1194 36L1194 37L1198 37L1198 36L1194 36z"/>
<path style="fill:#bdaf97; stroke:none;" d="M1195.67 36.3333L1196.33 36.6667L1195.67 36.3333z"/>
<path style="fill:#e18a3e; stroke:none;" d="M1203 36L1202 47L1203 47L1203 37L1204 37L1204 47L1205 47L1203 36M1206 36L1206 47L1207 47C1207 42.9768 1205.81 37.2026 1209 38L1209 37L1206 36M1213 36L1214 47L1215 47L1213 36z"/>
<path style="fill:#a74e06; stroke:none;" d="M129 37L129 43L130 43L129 37M144 37L144 42L145 42L144 37M155 37L155 50L156 50L155 37M168 37L168 50L169 50L168 37M192 37L193 38L192 37M239 37L239 42L240 42L239 37M254 37L254 43L255 43L254 37z"/>
<path style="fill:#bdaf97; stroke:none;" d="M1173 37L1173 47L1178 47L1178 46L1174 46L1173 37z"/>
<path style="fill:#e18a3e; stroke:none;" d="M1179 38L1179 39L1182 39L1179 38z"/>
<path style="fill:#bdaf97; stroke:none;" d="M1181.67 37.3333L1182.33 37.6667L1181.67 37.3333M1185 37L1185 38L1188 39L1185 37z"/>
<path style="fill:#e18a3e; stroke:none;" d="M1192 37L1191 38L1191 39L1192 40L1193 40L1194 39L1194 38L1192 37z"/>
<path style="fill:#bdaf97; stroke:none;" d="M1193.67 37.3333L1194.33 37.6667L1193.67 37.3333M1197 37L1197 38L1200 39L1197 37z"/>
<path style="fill:#e18a3e; stroke:none;" d="M1199 37L1200 38L1199 37z"/>
<path style="fill:#bdaf97; stroke:none;" d="M1203 37L1203 47L1204 47L1203 37M1207 37L1207 47L1208 47L1208 40L1209 40L1213 47L1214 47L1214 37L1213 37L1213 44L1212 44L1207 37z"/>
<path style="fill:#a74e06; stroke:none;" d="M38 38L39 39L38 38M126 38L126 41L127 41L126 38M189 38L190 39L189 38M200.333 38.6667L200.667 39.3333L200.333 38.6667M229 38L229 41L230 41L229 38z"/>
<path style="fill:#bdaf97; stroke:none;" d="M1180 38C1177.54 47.3375 1188.66 49.4568 1189 39L1188 39C1187.28 48.4247 1181.8 44.2941 1180 38z"/>
<path style="fill:#a74e06; stroke:none;" d="M1182.59 39.0463C1179.81 41.1653 1182.01 46.9274 1185.58 44.8634C1189.33 42.7021 1186.29 36.2255 1182.59 39.0463z"/>
<path style="fill:#bdaf97; stroke:none;" d="M1192 38L1193 39L1192 38z"/>
<path style="fill:#e18a3e; stroke:none;" d="M1198 38L1199 39L1198 38M1200 38L1199 40L1201 40L1200 38z"/>
<path style="fill:#a74e06; stroke:none;" d="M34 39L34 50L35 50L34 39M39 39L40 40L39 39M203 39L204 40L203 39M257.333 39.6667L257.667 40.3333L257.333 39.6667z"/>
<path style="fill:#bdaf97; stroke:none;" d="M1191 39C1191.25 46.8262 1199.14 49.7127 1201 41L1196 41L1196 42L1200 42C1195.68 46.9955 1193.41 43.5517 1191 39z"/>
<path style="fill:#a74e06; stroke:none;" d="M40 40L41 41L40 40M188.333 40.6667L188.667 41.3333L188.333 40.6667M191 40L201 42L201 41L191 40z"/>
<path style="fill:#e18a3e; stroke:none;" d="M1180 40L1180 44L1181 44L1180 40M1210 40L1211 41L1210 40z"/>
<path style="fill:#a74e06; stroke:none;" d="M41 41L42 42L41 41M122.333 41.6667L122.667 42.3333L122.333 41.6667z"/>
<path style="fill:#e18a3e; stroke:none;" d="M1178 41L1179 42L1178 41M1195 41L1196 42L1195 41M1209 41L1210 42L1209 41z"/>
<path style="fill:#a74e06; stroke:none;" d="M42 42L43 43L42 42M52.3333 42.6667L52.6667 43.3333L52.3333 42.6667M69.3333 42.6667L69.6667 43.3333L69.3333 42.6667M204 42L205 43L204 42M214 42L215 43L214 42M231.333 42.6667L231.667 43.3333L231.333 42.6667z"/>
<path style="fill:#e18a3e; stroke:none;" d="M1196 42L1196 43L1200 44L1196 42M1211 42L1212 43L1211 42z"/>
<path style="fill:#a74e06; stroke:none;" d="M43 43L44 44L43 43M55 43L56 44L55 43M105 43L106 44L105 43M119 43L120 44L119 43M187 43L188 44L187 43M228 43L229 44L228 43z"/>
<path style="fill:#e18a3e; stroke:none;" d="M1187.33 43.6667L1187.67 44.3333L1187.33 43.6667M1192 43L1193 44L1192 43M1212 43L1213 44L1212 43z"/>
<path style="fill:#a74e06; stroke:none;" d="M44 44L45 45L44 44M127 44L128 45L127 44M130 44L131 45L130 44M143 44L144 45L143 44M202 44L203 45L202 44M215 44L216 45L215 44M240 44L241 45L240 44M253 44L254 45L253 44M256 44L257 45L256 44z"/>
<path style="fill:#e18a3e; stroke:none;" d="M1179 44L1180 45L1179 44M1200 44L1201 45L1200 44M1211 44L1212 45L1211 44z"/>
<path style="fill:#a74e06; stroke:none;" d="M53 45L54 46L53 45M56 45L57 46L56 45M121 45L122 46L121 45M142 45L143 46L142 45M189 45L190 46L189 45M205 45L206 46L205 45M227 45L228 46L227 45M230 45L231 46L230 45M241 45L242 46L241 45M252 45L253 46L252 45z"/>
<path style="fill:#e18a3e; stroke:none;" d="M1180 45L1181 46L1180 45M1182 45L1183 46L1182 45M1186 45L1187 46L1186 45M1188 45L1189 46L1188 45M1197 45L1198 46L1197 45z"/>
<path style="fill:#a74e06; stroke:none;" d="M42 46L43 47L42 46M57 46L58 47L57 46M69 46L70 47L69 46M105 46L106 47L105 46M117 46L118 47L117 46M128 46L129 47L128 46M141 46L142 47L141 46M144 46L144 50L145 50L144 46M186 46L187 47L186 46M214 46L215 47L214 46M226 46L227 47L226 46M239 46L237 59L237 60C241.588 59.0168 240.946 49.3781 239 46M242 46L243 47L242 46M251 46L252 47L251 46M255 46L256 47L255 46z"/>
<path style="fill:#e18a3e; stroke:none;" d="M1181 46L1182 47L1181 46M1187 46L1188 47L1187 46M1198 46L1199 47L1198 46z"/>
<path style="fill:#a74e06; stroke:none;" d="M43 47L44 48L43 47M59 47L60 48L59 47M65 47L66 48L65 47M68 47L69 48L68 47M106 47L107 48L106 47M109 47L110 48L109 47M115 47L116 48L115 47M129 47L130 48L129 47M134 47L135 48L134 47M139 47L140 48L139 47M203 47L204 48L203 47M206.333 47.6667L206.667 48.3333L206.333 47.6667M215 47L216 48L215 47M218 47L219 48L218 47M224 47L225 48L224 47M244 47L245 48L244 47M249 47L250 48L249 47M254 47L255 48L254 47M44 48L45 49L44 48M67 48L68 49L67 48M107 48L108 49L107 48M118 48L119 49L118 48M130 48L131 49L130 48M188 48L189 49L188 48M216 48L217 49L216 48M253 48L254 49L253 48M45 49L46 50L45 49M65 49L66 50L65 49M132 49L133 50L132 49M140 49L141 50L140 49M185 49L186 50L185 49M204 49L205 50L204 49M218 49L219 50L218 49M226 49L227 50L226 49M243 49L244 50L243 49M251 49L252 50L251 49z"/>
<path style="fill:#697c88; stroke:none;" d="M53 141L54 142L53 141z"/>
<path style="fill:#bdaf97; stroke:none;" d="M54 141L53 148C37.2919 140.583 40.8581 166.397 52 158L55 160L54 141z"/>
<path style="fill:#e18a3e; stroke:none;" d="M55 141L55 160L56 160L55 141z"/>
<path style="fill:#697c88; stroke:none;" d="M70 141L71 142L70 141z"/>
<path style="fill:#bdaf97; stroke:none;" d="M71 141L70 148C54.2919 140.583 57.8581 166.397 69 158L72 160L71 141z"/>
<path style="fill:#e18a3e; stroke:none;" d="M72 141L72 160L73 160L72 141z"/>
<path style="fill:#bdaf97; stroke:none;" d="M708 141L708 160L710 160L710 155L718 160C713.769 153.785 713.769 152.215 718 146L710 152L710 141L708 141z"/>
<path style="fill:#e18a3e; stroke:none;" d="M710 141L710 152L711 152L710 141z"/>
<path style="fill:#bdaf97; stroke:none;" d="M737 141L737 144L740 143L740 142L737 141z"/>
<path style="fill:#e18a3e; stroke:none;" d="M739 141L740 142L739 141z"/>
<path style="fill:#697c88; stroke:none;" d="M30 143L30 144L34 143L30 143z"/>
<path style="fill:#bdaf97; stroke:none;" d="M664 142L664 144L669 144L669 160L671 160L671 144L676 144L664 142z"/>
<path style="fill:#e18a3e; stroke:none;" d="M675 142L676 143L675 142z"/>
<path style="fill:#bdaf97; stroke:none;" d="M727 142L727 160L735 160L735 158L729 159L727 142z"/>
<path style="fill:#e18a3e; stroke:none;" d="M728 142L729 143L728 142z"/>
<path style="fill:#a74e06; stroke:none;" d="M729 142L729 158L730 158L729 142z"/>
<path style="fill:#bdaf97; stroke:none;" d="M31 143L25 160C31.2554 156.055 32.7446 156.055 39 160L33 143L31 143z"/>
<path style="fill:#e18a3e; stroke:none;" d="M33 143L34 144L33 143M739 143L740 144L739 143z"/>
<path style="fill:#bdaf97; stroke:none;" d="M756 143C755.118 149.179 754.396 158.759 762 160L762 158L758 158L758 148L762 148L762 146L756 143z"/>
<path style="fill:#e18a3e; stroke:none;" d="M758 143L758 146L759 146L758 143z"/>
<path style="fill:#a74e06; stroke:none;" d="M34 144L35 145L34 144M671 144L671 160L672 160L671 144z"/>
<path style="fill:#e18a3e; stroke:none;" d="M34.3333 145.667L34.6667 146.333L34.3333 145.667z"/>
<path style="fill:#697c88; stroke:none;" d="M29 146L30 147L29 146z"/>
<path style="fill:#e18a3e; stroke:none;" d="M31.3333 146.667L31.6667 147.333L31.3333 146.667z"/>
<path style="fill:#697c88; stroke:none;" d="M32 146L33 147L32 146M45 146L46 147L45 146z"/>
<path style="fill:#e18a3e; stroke:none;" d="M50 146L51 147L50 146z"/>
<path style="fill:#697c88; stroke:none;" d="M51 146L52 147L51 146M62 146L63 147L62 146z"/>
<path style="fill:#e18a3e; stroke:none;" d="M67 146L68 147L67 146z"/>
<path style="fill:#697c88; stroke:none;" d="M68 146L69 147L68 146M681 146L682 147L681 146z"/>
<path style="fill:#bdaf97; stroke:none;" d="M690 160L691 160L691 146C687.8 146.918 684.136 145.466 681.148 147.184C677.054 149.537 677.034 156.602 681.148 158.968C683.883 160.54 687.16 159.106 690 160z"/>
<path style="fill:#a74e06; stroke:none;" d="M687 146L688 147L687 146z"/>
<path style="fill:#697c88; stroke:none;" d="M689.333 146.667L689.667 147.333L689.333 146.667z"/>
<path style="fill:#e18a3e; stroke:none;" d="M691 146L691 160L692 160L691 146z"/>
<path style="fill:#bdaf97; stroke:none;" d="M703 155L703 158L695 156C696.65 158.991 704.982 162.139 704.079 156.074C703.622 153.013 698.514 150.896 697 148L704 151C703.536 141.713 687.726 151.315 703 155z"/>
<path style="fill:#e18a3e; stroke:none;" d="M702 146L703 147L702 146z"/>
<path style="fill:#a74e06; stroke:none;" d="M718 146L719 147L718 146z"/>
<path style="fill:#697c88; stroke:none;" d="M737 146L738 147L737 146z"/>
<path style="fill:#bdaf97; stroke:none;" d="M738 146L737 160L739 160L738 146z"/>
<path style="fill:#e18a3e; stroke:none;" d="M739 146L739 160L740 160L739 146z"/>
<path style="fill:#697c88; stroke:none;" d="M744 146L743 148L744 146z"/>
<path style="fill:#bdaf97; stroke:none;" d="M751 155L751 158L743 156C744.366 159.886 752.637 161.688 751.963 156.074C751.598 153.039 746.488 150.847 745 148L751 151C752.77 142.581 737.032 148.774 747.014 153.853C748.24 154.476 749.685 154.683 751 155z"/>
<path style="fill:#e18a3e; stroke:none;" d="M750 146L751 147L750 146z"/>
<path style="fill:#697c88; stroke:none;" d="M754.333 146.667L754.667 147.333L754.333 146.667z"/>
<path style="fill:#a74e06; stroke:none;" d="M762.333 146.667L762.667 147.333L762.333 146.667z"/>
<path style="fill:#2f363f; stroke:none;" d="M32 147L30 154L35 154L32 147z"/>
<path style="fill:#a74e06; stroke:none;" d="M35 147L36 148L35 147z"/>
<path style="fill:#697c88; stroke:none;" d="M43 147L44 148L43 147z"/>
<path style="fill:#e18a3e; stroke:none;" d="M52 147L53 148L52 147z"/>
<path style="fill:#697c88; stroke:none;" d="M60 147L61 148L60 147z"/>
<path style="fill:#e18a3e; stroke:none;" d="M69 147L70 148L69 147z"/>
<path style="fill:#697c88; stroke:none;" d="M679 147L680 148L679 147z"/>
<path style="fill:#e18a3e; stroke:none;" d="M688 147L689 148L688 147z"/>
<path style="fill:#697c88; stroke:none;" d="M695 147L696 148L695 147z"/>
<path style="fill:#a74e06; stroke:none;" d="M704 147L705 148L704 147M717 147L718 148L717 147z"/>
<path style="fill:#e18a3e; stroke:none;" d="M751 147L752 148L751 147z"/>
<path style="fill:#697c88; stroke:none;" d="M28.3333 148.667L28.6667 149.333L28.3333 148.667z"/>
<path style="fill:#a74e06; stroke:none;" d="M31 148L32 149L31 148z"/>
<path style="fill:#e18a3e; stroke:none;" d="M35.3333 148.667L35.6667 149.333L35.3333 148.667z"/>
<path style="fill:#697c88; stroke:none;" d="M42 148L43 149L42 148z"/>
<path style="fill:#e18a3e; stroke:none;" d="M45 148L44 150L45 148z"/>
<path style="fill:#a74e06; stroke:none;" d="M46 148L47 149L46 148z"/>
<path style="fill:#2f363f; stroke:none;" d="M47.213 148.851C42.3104 150.539 44.6342 159.187 49.787 157.338C54.647 155.594 52.4449 147.049 47.213 148.851z"/>
<path style="fill:#697c88; stroke:none;" d="M50 148L51 149L50 148M59 148L60 149L59 148z"/>
<path style="fill:#e18a3e; stroke:none;" d="M62 148L61 150L62 148z"/>
<path style="fill:#a74e06; stroke:none;" d="M63 148L64 149L63 148z"/>
<path style="fill:#2f363f; stroke:none;" d="M64.213 148.851C59.3104 150.539 61.6342 159.187 66.787 157.338C71.647 155.594 69.4449 147.049 64.213 148.851z"/>
<path style="fill:#697c88; stroke:none;" d="M67 148L68 149L67 148z"/>
<path style="fill:#a74e06; stroke:none;" d="M682 148L680 151L682 148z"/>
<path style="fill:#2f363f; stroke:none;" d="M683.133 149.137C677.991 151.608 681.656 160.096 686.685 156.953C690.661 154.468 687.851 146.87 683.133 149.137z"/>
<path style="fill:#697c88; stroke:none;" d="M686 148L687 149L686 148z"/>
<path style="fill:#e18a3e; stroke:none;" d="M697 148L698 149L697 148z"/>
<path style="fill:#697c88; stroke:none;" d="M701 148L702 149L701 148z"/>
<path style="fill:#e18a3e; stroke:none;" d="M704 148L705 149L704 148z"/>
<path style="fill:#697c88; stroke:none;" d="M713 148L714 149L713 148z"/>
<path style="fill:#e18a3e; stroke:none;" d="M716 148L717 149L716 148M745 148L746 149L745 148z"/>
<path style="fill:#697c88; stroke:none;" d="M749 148L750 149L749 148z"/>
<path style="fill:#e18a3e; stroke:none;" d="M752 148L752 151L753 151L752 148M758 148L758 158L759 158L758 148M30.3333 149.667L30.6667 150.333L30.3333 149.667z"/>
<path style="fill:#697c88; stroke:none;" d="M33 149L34 150L33 149z"/>
<path style="fill:#a74e06; stroke:none;" d="M697.333 149.667L697.667 150.333L697.333 149.667z"/>
<path style="fill:#697c88; stroke:none;" d="M702 149L703 150L702 149z"/>
<path style="fill:#a74e06; stroke:none;" d="M705.333 149.667L705.667 150.333L705.333 149.667z"/>
<path style="fill:#697c88; stroke:none;" d="M712 149L713 150L712 149z"/>
<path style="fill:#e18a3e; stroke:none;" d="M715 149L716 150L715 149z"/>
<path style="fill:#697c88; stroke:none;" d="M742.333 149.667L742.667 150.333L742.333 149.667M750.333 149.667L750.667 150.333L750.333 149.667z"/>
<path style="fill:#a74e06; stroke:none;" d="M36 150L37 151L36 150z"/>
<path style="fill:#697c88; stroke:none;" d="M41.3333 150.667L41.6667 151.333L41.3333 150.667z"/>
<path style="fill:#a74e06; stroke:none;" d="M44 150L45 151L44 150z"/>
<path style="fill:#697c88; stroke:none;" d="M52 150L53 151L52 150M58.3333 150.667L58.6667 151.333L58.3333 150.667z"/>
<path style="fill:#a74e06; stroke:none;" d="M61 150L62 151L61 150z"/>
<path style="fill:#697c88; stroke:none;" d="M69 150L70 151L69 150M688 150L689 151L688 150z"/>
<path style="fill:#e18a3e; stroke:none;" d="M704 150L705 151L704 150z"/>
<path style="fill:#697c88; stroke:none;" d="M711 150L712 151L711 150z"/>
<path style="fill:#e18a3e; stroke:none;" d="M714 150L715 151L714 150z"/>
<path style="fill:#a74e06; stroke:none;" d="M745 150L746 151L745 150z"/>
<path style="fill:#697c88; stroke:none;" d="M27 151L28 152L27 151z"/>
<path style="fill:#a74e06; stroke:none;" d="M30 151L31 152L30 151z"/>
<path style="fill:#e18a3e; stroke:none;" d="M36 151L37 152L36 151M43 151L43 155L44 155L43 151M60 151L60 155L61 155L60 151z"/>
<path style="fill:#697c88; stroke:none;" d="M677 151L677 156L678 156L677 151z"/>
<path style="fill:#a74e06; stroke:none;" d="M698 151L699 152L698 151z"/>
<path style="fill:#e18a3e; stroke:none;" d="M713 151L714 152L713 151z"/>
<path style="fill:#a74e06; stroke:none;" d="M746 151L747 152L746 151z"/>
<path style="fill:#e18a3e; stroke:none;" d="M29 152L30 153L29 152z"/>
<path style="fill:#697c88; stroke:none;" d="M34 152L35 153L34 152z"/>
<path style="fill:#a74e06; stroke:none;" d="M37 152L38 153L37 152z"/>
<path style="fill:#e18a3e; stroke:none;" d="M679 152L679 155L680 155L679 152z"/>
<path style="fill:#697c88; stroke:none;" d="M689.333 152.667L689.667 153.333L689.333 152.667z"/>
<path style="fill:#e18a3e; stroke:none;" d="M700 152L701 153L700 152z"/>
<path style="fill:#a74e06; stroke:none;" d="M701 152L702 153L701 152z"/>
<path style="fill:#e18a3e; stroke:none;" d="M712 152L713 153L712 152z"/>
<path style="fill:#697c88; stroke:none;" d="M743 152L744 153L743 152z"/>
<path style="fill:#e18a3e; stroke:none;" d="M748 152L749 153L748 152z"/>
<path style="fill:#697c88; stroke:none;" d="M749 152L750 153L749 152z"/>
<path style="fill:#a74e06; stroke:none;" d="M29 153L30 154L29 153z"/>
<path style="fill:#e18a3e; stroke:none;" d="M37.3333 153.667L37.6667 154.333L37.3333 153.667z"/>
<path style="fill:#697c88; stroke:none;" d="M697 153L698 154L697 153z"/>
<path style="fill:#e18a3e; stroke:none;" d="M703 153L704 154L703 153z"/>
<path style="fill:#a74e06; stroke:none;" d="M712 153L713 154L712 153z"/>
<path style="fill:#697c88; stroke:none;" d="M745 153L746 154L745 153z"/>
<path style="fill:#e18a3e; stroke:none;" d="M751 153L752 154L751 153z"/>
<path style="fill:#697c88; stroke:none;" d="M26 154L27 155L26 154M41.3333 154.667L41.6667 155.333L41.3333 154.667M58.3333 154.667L58.6667 155.333L58.3333 154.667M700 154L701 155L700 154z"/>
<path style="fill:#e18a3e; stroke:none;" d="M704 154L705 155L704 154z"/>
<path style="fill:#a74e06; stroke:none;" d="M713 154L714 155L713 154z"/>
<path style="fill:#697c88; stroke:none;" d="M748 154L749 155L748 154z"/>
<path style="fill:#e18a3e; stroke:none;" d="M752 154L753 155L752 154z"/>
<path style="fill:#a74e06; stroke:none;" d="M38 155L39 156L38 155M44 155L45 156L44 155z"/>
<path style="fill:#697c88; stroke:none;" d="M52 155L53 156L52 155z"/>
<path style="fill:#a74e06; stroke:none;" d="M61 155L62 156L61 155z"/>
<path style="fill:#697c88; stroke:none;" d="M69 155L70 156L69 155z"/>
<path style="fill:#a74e06; stroke:none;" d="M680 155L681 156L680 155z"/>
<path style="fill:#697c88; stroke:none;" d="M702 155L703 156L702 155z"/>
<path style="fill:#a74e06; stroke:none;" d="M705 155L705 158L706 158L705 155z"/>
<path style="fill:#e18a3e; stroke:none;" d="M710 155L710 160L711 160L710 155z"/>
<path style="fill:#a74e06; stroke:none;" d="M714 155L715 156L714 155z"/>
<path style="fill:#697c88; stroke:none;" d="M750 155L751 156L750 155z"/>
<path style="fill:#a74e06; stroke:none;" d="M28 156L29 157L28 156z"/>
<path style="fill:#e18a3e; stroke:none;" d="M38.3333 156.667L38.6667 157.333L38.3333 156.667M44 156L45 157L44 156M61 156L62 157L61 156M680 156L681 157L680 156z"/>
<path style="fill:#697c88; stroke:none;" d="M688 156L689 157L688 156M694.333 156.667L694.667 157.333L694.333 156.667z"/>
<path style="fill:#e18a3e; stroke:none;" d="M696 156L697 157L696 156z"/>
<path style="fill:#a74e06; stroke:none;" d="M715 156L716 157L715 156z"/>
<path style="fill:#697c88; stroke:none;" d="M742.333 156.667L742.667 157.333L742.333 156.667z"/>
<path style="fill:#e18a3e; stroke:none;" d="M744 156L745 157L744 156z"/>
<path style="fill:#a74e06; stroke:none;" d="M753 156L754 157L753 156z"/>
<path style="fill:#697c88; stroke:none;" d="M25 157L26 158L25 157z"/>
<path style="fill:#e18a3e; stroke:none;" d="M27.3333 157.667L27.6667 158.333L27.3333 157.667z"/>
<path style="fill:#697c88; stroke:none;" d="M36 157L37 158L36 157M42 157L43 158L42 157z"/>
<path style="fill:#e18a3e; stroke:none;" d="M45 157L46 158L45 157z"/>
<path style="fill:#697c88; stroke:none;" d="M59 157L60 158L59 157z"/>
<path style="fill:#e18a3e; stroke:none;" d="M62 157L63 158L62 157z"/>
<path style="fill:#697c88; stroke:none;" d="M678 157L679 158L678 157z"/>
<path style="fill:#e18a3e; stroke:none;" d="M681 157L682 158L681 157z"/>
<path style="fill:#697c88; stroke:none;" d="M687 157L688 158L687 157z"/>
<path style="fill:#e18a3e; stroke:none;" d="M697 157L698 158L697 157z"/>
<path style="fill:#697c88; stroke:none;" d="M702 157L703 158L702 157z"/>
<path style="fill:#a74e06; stroke:none;" d="M716 157L717 158L716 157M745 157L746 158L745 157z"/>
<path style="fill:#697c88; stroke:none;" d="M750 157L751 158L750 157z"/>
<path style="fill:#e18a3e; stroke:none;" d="M752.333 157.667L752.667 158.333L752.333 157.667z"/>
<path style="fill:#697c88; stroke:none;" d="M756.333 157.667L756.667 158.333L756.333 157.667z"/>
<path style="fill:#a74e06; stroke:none;" d="M39 158L40 159L39 158z"/>
<path style="fill:#e18a3e; stroke:none;" d="M47 158L48 159L47 158M52 158L53 159L52 158M64 158L65 159L64 158M69 158L70 159L69 158z"/>
<path style="fill:#697c88; stroke:none;" d="M679 158L680 159L679 158z"/>
<path style="fill:#e18a3e; stroke:none;" d="M688 158L689 159L688 158z"/>
<path style="fill:#697c88; stroke:none;" d="M689.333 158.667L689.667 159.333L689.333 158.667M695 158L696 159L695 158z"/>
<path style="fill:#e18a3e; stroke:none;" d="M699 158L700 159L699 158z"/>
<path style="fill:#697c88; stroke:none;" d="M700 158L701 159L700 158z"/>
<path style="fill:#e18a3e; stroke:none;" d="M704 158L705 159L704 158z"/>
<path style="fill:#a74e06; stroke:none;" d="M717 158L718 159L717 158z"/>
<path style="fill:#e18a3e; stroke:none;" d="M729 158L730 159L729 158z"/>
<path style="fill:#a74e06; stroke:none;" d="M735.333 158.667L735.667 159.333L735.333 158.667z"/>
<path style="fill:#e18a3e; stroke:none;" d="M746.667 158.333L747.333 158.667L746.667 158.333z"/>
<path style="fill:#697c88; stroke:none;" d="M748 158L749 159L748 158z"/>
<path style="fill:#a74e06; stroke:none;" d="M762.333 158.667L762.667 159.333L762.333 158.667z"/>
<path style="fill:#697c88; stroke:none;" d="M24 159L25 160L24 159z"/>
<path style="fill:#a74e06; stroke:none;" d="M27 159L28 160L27 159z"/>
<path style="fill:#e18a3e; stroke:none;" d="M39 159L40 160L39 159z"/>
<path style="fill:#697c88; stroke:none;" d="M44 159L45 160L44 159z"/>
<path style="fill:#e18a3e; stroke:none;" d="M51 159L52 160L51 159z"/>
<path style="fill:#697c88; stroke:none;" d="M61 159L62 160L61 159z"/>
<path style="fill:#e18a3e; stroke:none;" d="M68 159L69 160L68 159z"/>
<path style="fill:#697c88; stroke:none;" d="M680 159L681 160L680 159z"/>
<path style="fill:#e18a3e; stroke:none;" d="M687 159L688 160L687 159z"/>
<path style="fill:#697c88; stroke:none;" d="M696 159L697 160L696 159z"/>
<path style="fill:#e18a3e; stroke:none;" d="M703 159L704 160L703 159z"/>
<path style="fill:#a74e06; stroke:none;" d="M718 159L719 160L718 159z"/>
<path style="fill:#697c88; stroke:none;" d="M744 159L745 160L744 159z"/>
<path style="fill:#e18a3e; stroke:none;" d="M751 159L752 160L751 159z"/>
<path style="fill:#697c88; stroke:none;" d="M757 159L758 160L757 159M47 160L47 161L50 161L47 160M64 160L64 161L67 161L64 160M683 160L683 161L686 161L683 160M699 160L699 161L702 161L699 160M746 160L746 161L750 161L746 160M82 223L82 225L84 225L84 223L82 223M94 223L94 238L95 238L94 223M71 224L71 225L75 225L75 238L76 238L76 225L80 225L71 224M88 225L86 228L92 238L92 237L89 237L92 228L92 227L88 225M931 225L932 226L931 225z"/>
<path style="fill:#bdaf97; stroke:none;" d="M932 225L932 226L940 226L932 225z"/>
<path style="fill:#a74e06; stroke:none;" d="M940 225L941 226L940 225z"/>
<path style="fill:#697c88; stroke:none;" d="M961 225L961 239L962 239L961 225z"/>
<path style="fill:#bdaf97; stroke:none;" d="M962 225L962 226L967 226L962 225z"/>
<path style="fill:#697c88; stroke:none;" d="M967 225L972 229L972 228L967 225M935 226L935 239L936 239L935 226z"/>
<path style="fill:#a74e06; stroke:none;" d="M936 226L936 239L937 239L936 226M962 226L962 238L963 238L962 226z"/>
<path style="fill:#2f363f; stroke:none;" d="M963 226L963 238C972.67 236.919 972.67 227.081 963 226z"/>
<path style="fill:#697c88; stroke:none;" d="M83 227L83 238L84 238L83 227M108 235C103.887 236.612 101.89 236.425 99 233L108 233C107.206 228.019 100.72 224.441 98.662 231.058C96.6239 237.612 104.527 238.529 108 235z"/>
<path style="fill:#bdaf97; stroke:none;" d="M970 227L971 228L970 227z"/>
<path style="fill:#2f363f; stroke:none;" d="M99 232L107 232C105.315 227.213 101.209 228.007 99 232z"/>
<path style="fill:#697c88; stroke:none;" d="M945.333 228.667L945.667 229.333L945.333 228.667z"/>
<path style="fill:#bdaf97; stroke:none;" d="M946 228L946 229L949 229L946 228z"/>
<path style="fill:#697c88; stroke:none;" d="M949 228L949 239L950 239C952.453 234.444 952.728 231.845 949 228M977 228L975 231L977 228z"/>
<path style="fill:#bdaf97; stroke:none;" d="M978 228L978 229L981 229L978 228z"/>
<path style="fill:#697c88; stroke:none;" d="M981.333 228.667L981.667 229.333L981.333 228.667z"/>
<path style="fill:#a74e06; stroke:none;" d="M982 228L983 229L982 228z"/>
<path style="fill:#697c88; stroke:none;" d="M943 229L944 230L943 229z"/>
<path style="fill:#bdaf97; stroke:none;" d="M944 229L943 231L944 229z"/>
<path style="fill:#2f363f; stroke:none;" d="M946.263 229.89C942.358 231.088 943.66 238.202 947.907 237.168C952.256 236.109 950.724 228.523 946.263 229.89z"/>
<path style="fill:#bdaf97; stroke:none;" d="M950 229L951 230L950 229M971 229L972 230L971 229z"/>
<path style="fill:#2f363f; stroke:none;" d="M978.303 230.137C974.367 232.284 977.466 239.345 981.567 236.914C985.324 234.687 982.416 227.893 978.303 230.137z"/>
<path style="fill:#bdaf97; stroke:none;" d="M982 229L983 230L982 229z"/>
<path style="fill:#697c88; stroke:none;" d="M983 229L985 232L983 229z"/>
<path style="fill:#bdaf97; stroke:none;" d="M951 230L952 231L951 230z"/>
<path style="fill:#697c88; stroke:none;" d="M971 230L971 234L972 234L971 230z"/>
<path style="fill:#a74e06; stroke:none;" d="M972 230L972 234L973 234L972 230M984 230L985 231L984 230z"/>
<path style="fill:#697c88; stroke:none;" d="M942 231C942.125 234.878 942.502 237.072 946 239L946 238L942 231z"/>
<path style="fill:#a74e06; stroke:none;" d="M943.333 231.667L943.667 232.333L943.333 231.667M952 231L953 232L952 231z"/>
<path style="fill:#bdaf97; stroke:none;" d="M975 231L976 232L975 231z"/>
<path style="fill:#697c88; stroke:none;" d="M974 232L974 235L976 235L976 232L974 232z"/>
<path style="fill:#bdaf97; stroke:none;" d="M984 232L985 233L984 232z"/>
<path style="fill:#697c88; stroke:none;" d="M984 233L985 234L984 233z"/>
<path style="fill:#a74e06; stroke:none;" d="M943.333 234.667L943.667 235.333L943.333 234.667z"/>
<path style="fill:#bdaf97; stroke:none;" d="M971 234L972 235L971 234M984.333 234.667L984.667 235.333L984.333 234.667z"/>
<path style="fill:#a74e06; stroke:none;" d="M952 235L953 236L952 235z"/>
<path style="fill:#697c88; stroke:none;" d="M967 239L972 236L967 239z"/>
<path style="fill:#bdaf97; stroke:none;" d="M975 235L976 236L975 235z"/>
<path style="fill:#697c88; stroke:none;" d="M983 235L982 239L983 239L983 235z"/>
<path style="fill:#bdaf97; stroke:none;" d="M943 236L944 237L943 236M951 236L950 238L951 236M970 236L971 237L970 236z"/>
<path style="fill:#697c88; stroke:none;" d="M975 236L975 237L977 239L978 239L975 236z"/>
<path style="fill:#a74e06; stroke:none;" d="M984 236L985 237L984 236z"/>
<path style="fill:#bdaf97; stroke:none;" d="M944 237L945 238L944 237z"/>
<path style="fill:#a74e06; stroke:none;" d="M945 237L946 238L945 237M951 237L952 238L951 237z"/>
<path style="fill:#bdaf97; stroke:none;" d="M976 237L977 238L976 237M946 238L946 239L949 239L946 238M962 238L962 239L967 239L962 238M978 238L978 239L982 239L978 238z"/>
<path style="fill:#697c88; stroke:none;" d="M71 296L75 305L77 305L81 296L80 296L77 303L75 303L71 296M86.1443 299.786C80.4553 301.975 83.6466 311.799 89.7724 309.238C95.3536 306.906 92.1736 297.467 86.1443 299.786M96 299C96.0042 304.468 95.6944 308.994 102 310L102 309C96.7482 307.341 97.8289 303.317 96 299M104 299L104 310L105 310L104 299M109 299L109 310L110 310L113 300L113 299L109 299M122 299L122 310L123 310C123.037 299.534 129.752 299.749 130 310L131 310C131.037 299.534 137.752 299.749 138 310L139 310C138.958 304.976 137.762 295.966 131 301L130 301L122 299M151 307C147.205 308.491 145.096 308.753 143 305L152 305C151.547 303.711 151.303 302.277 150.258 301.274C140.594 291.996 140.183 317.993 151 307M161 306L161 308L154 307C157.133 310.15 159.818 309.942 162 306L155 303L155 301L162 302C156.577 296.547 152.353 303.714 161 306M171 306L171 308L164 307C167.133 310.15 169.818 309.942 172 306L165 303L165 301L172 302C166.577 296.547 162.353 303.714 171 306M181 310L181 309C168.681 305.331 186.311 295.12 182 309L184 310L185 310L185 299L184 299L183 301C175.255 295.838 170.662 308.386 181 310M197 308C196.175 313.17 193.625 313.816 189 312C196.328 323.291 198 303.172 198 299L197 299L196 301C187.372 294.753 184.856 314.342 197 308M211 307C206.887 308.612 204.89 308.425 202 305L211 305C210.206 300.019 203.72 296.441 201.662 303.058C199.624 309.612 207.527 310.529 211 307z"/>
<path style="fill:#2f363f; stroke:none;" d="M86.314 301.086C82.3576 303.342 85.4607 310.322 89.686 307.914C93.6424 305.658 90.5393 298.678 86.314 301.086M143 304L151 304C148.634 300.156 144.714 299.129 143 304M191.314 301.086C187.358 303.342 190.461 310.322 194.686 307.914C198.642 305.658 195.539 298.678 191.314 301.086M202 304L210 304C208.315 299.213 204.209 300.007 202 304z"/>
<path style="fill:#697c88; stroke:none;" d="M916 300L916 319L917 319L918 300L916 300M979.667 300.333L980.333 300.667L979.667 300.333M1037 300L1037 308L1038 308L1039 300L1037 300z"/>
<path style="fill:#bdaf97; stroke:none;" d="M917 301L917 319L918 319L918 313L925 319C921.68 313.484 921.49 311.465 925 306L918 311L917 301z"/>
<path style="fill:#a74e06; stroke:none;" d="M918 301L918 310L919 310L918 301z"/>
<path style="fill:#bdaf97; stroke:none;" d="M979 301L979 308C973.101 304.16 963.676 308.151 968.873 315.852C971.723 320.076 975.693 317.091 979 319L980 319L979 301z"/>
<path style="fill:#e18a3e; stroke:none;" d="M980 301L980 319L981 319L980 301z"/>
<path style="fill:#bdaf97; stroke:none;" d="M1038 301L1038 308C1031.65 304.824 1020.59 308.41 1027.6 316.681C1030.37 319.945 1034.61 317.704 1038 319L1039 319L1038 301z"/>
<path style="fill:#697c88; stroke:none;" d="M878 302L876 307L878 302z"/>
<path style="fill:#bdaf97; stroke:none;" d="M879 302L877 306C879.744 310.935 877.289 317.88 884 319L884 318C879.548 315.545 880.004 311.661 880 307L884 307L884 306L879 302z"/>
<path style="fill:#a74e06; stroke:none;" d="M880 302L880 305L881 305L880 302z"/>
<path style="fill:#bdaf97; stroke:none;" d="M1002 302C1001.51 307.852 1000.26 316.87 1007 319L1007 318C1003.67 314.743 1002.7 309.786 1007 307L1007 306L1004 306L1004 302L1002 302z"/>
<path style="fill:#697c88; stroke:none;" d="M881 305L881 306L884 306L881 305M890 305L891 306L890 305z"/>
<path style="fill:#bdaf97; stroke:none;" d="M898 319L899 319L899 306L898 306L897 308C892.366 301.68 883.851 308.149 886.333 315C888.896 322.072 897.541 315.558 898 319z"/>
<path style="fill:#697c88; stroke:none;" d="M894 305L895 306L894 305M898 305L899 306L898 305z"/>
<path style="fill:#a74e06; stroke:none;" d="M899 305L899 319L900 319L899 305z"/>
<path style="fill:#697c88; stroke:none;" d="M905 305L906 306L905 305z"/>
<path style="fill:#bdaf97; stroke:none;" d="M912 315L912 316L903 315C904.653 317.829 912.979 321.111 912.079 315.074C911.622 312.013 906.514 309.897 905 307L913 309C910.985 306.724 901.679 303.553 904.256 309.82C905.385 312.565 909.548 313.826 912 315z"/>
<path style="fill:#697c88; stroke:none;" d="M909 305L910 306L909 305z"/>
<path style="fill:#a74e06; stroke:none;" d="M910 305L911 306L910 305z"/>
<path style="fill:#697c88; stroke:none;" d="M923 305L923 306L926 306L923 305M935.667 305.333L936.333 305.667L935.667 305.333M945.667 305.333L946.333 305.667L945.667 305.333M951 305L952 308L953 308L951 305z"/>
<path style="fill:#a74e06; stroke:none;" d="M952 305L953 306L952 305z"/>
<path style="fill:#697c88; stroke:none;" d="M955 305L955 306L958 307L955 305z"/>
<path style="fill:#bdaf97; stroke:none;" d="M957 305L957 306C958.195 306.712 959.796 307.401 960.722 308.509C969.333 318.811 943.524 317.792 957 307L957 306L952 306L951 306L951 325L952 325L952 317C963.951 321.346 968.481 307.374 957 305z"/>
<path style="fill:#697c88; stroke:none;" d="M960 305L961 306L960 305M971 305L972 306L971 305M975 305L976 306L975 305M988 305L989 306L988 305z"/>
<path style="fill:#bdaf97; stroke:none;" d="M996 319L997 319L997 306L996 306L995 308C990.366 301.68 981.851 308.149 984.333 315C986.896 322.072 995.541 315.558 996 319z"/>
<path style="fill:#697c88; stroke:none;" d="M992 305L993 306L992 305M996 305L997 306L996 305z"/>
<path style="fill:#a74e06; stroke:none;" d="M997 305L997 319L998 319L997 305z"/>
<path style="fill:#697c88; stroke:none;" d="M1000 305L1000 307L1002 305L1000 305M1004 305L1004 306L1007 306L1004 305z"/>
<path style="fill:#a74e06; stroke:none;" d="M1007.33 305.667L1007.67 306.333L1007.33 305.667z"/>
<path style="fill:#697c88; stroke:none;" d="M1014 305L1015 306L1014 305z"/>
<path style="fill:#bdaf97; stroke:none;" d="M1022 315C1017.06 317.596 1014.67 317.269 1011 313L1023 313C1021.48 305.549 1011.04 302.322 1010.34 312C1009.8 319.351 1018.8 320.472 1022 315z"/>
<path style="fill:#697c88; stroke:none;" d="M1018 305L1019 306L1018 305M1029 305L1030 306L1029 305M1033 305L1034 306L1033 305M888 306L889 307L888 306M892 306L893 307L892 306z"/>
<path style="fill:#a74e06; stroke:none;" d="M896 306L897 307L896 306z"/>
<path style="fill:#697c88; stroke:none;" d="M907.667 306.333L908.333 306.667L907.667 306.333z"/>
<path style="fill:#e18a3e; stroke:none;" d="M911 306L912 307L911 306z"/>
<path style="fill:#697c88; stroke:none;" d="M922 306L923 307L922 306z"/>
<path style="fill:#bdaf97; stroke:none;" d="M935 306C935.004 311.31 936.166 322.809 944 317L947 319L947 306L945 306C944.998 309.083 943.631 322.196 937.858 315.547C935.649 313.003 936.255 308.962 935 306z"/>
<path style="fill:#e18a3e; stroke:none;" d="M936 306L936 314L937 314L936 306z"/>
<path style="fill:#697c88; stroke:none;" d="M969 306L970 307L969 306M974 306L975 307L974 306M977 306L978 307L977 306M986 306L987 307L986 306M990 306L991 307L990 306z"/>
<path style="fill:#a74e06; stroke:none;" d="M994 306L995 307L994 306z"/>
<path style="fill:#697c88; stroke:none;" d="M1012 306L1013 307L1012 306M1016 306L1017 307L1016 306M1020 306L1021 307L1020 306M1032 306L1033 307L1032 306z"/>
<path style="fill:#e18a3e; stroke:none;" d="M1035 306L1036 307L1035 306z"/>
<path style="fill:#697c88; stroke:none;" d="M878 307L878 317L879 317L878 307z"/>
<path style="fill:#a74e06; stroke:none;" d="M880 307L880 317L881 317L880 307z"/>
<path style="fill:#697c88; stroke:none;" d="M887 307L888 308L887 307z"/>
<path style="fill:#e18a3e; stroke:none;" d="M889 307L888 309L889 307z"/>
<path style="fill:#2f363f; stroke:none;" d="M890.317 308.047C885.318 311.129 890.457 319.534 895.333 315.968C899.642 312.815 895.101 305.098 890.317 308.047z"/>
<path style="fill:#697c88; stroke:none;" d="M895 307L896 308L895 307M897 307L898 308L897 307M903 307L904 308L903 307z"/>
<path style="fill:#a74e06; stroke:none;" d="M905 307L906 308L905 307z"/>
<path style="fill:#697c88; stroke:none;" d="M910 307L911 308L910 307z"/>
<path style="fill:#a74e06; stroke:none;" d="M912 307L913 308L912 307z"/>
<path style="fill:#697c88; stroke:none;" d="M921 307L922 308L921 307z"/>
<path style="fill:#2f363f; stroke:none;" d="M955.433 308.047C950.405 311.24 955.45 319.509 960.482 315.968C964.909 312.853 960.12 305.071 955.433 308.047z"/>
<path style="fill:#697c88; stroke:none;" d="M960 307L961 308L960 307M968 307L969 308L968 307z"/>
<path style="fill:#2f363f; stroke:none;" d="M971.434 308.043C966.538 311.247 971.497 319.372 976.566 315.968C981.431 312.7 976.405 304.789 971.434 308.043z"/>
<path style="fill:#697c88; stroke:none;" d="M976 307L977 308L976 307M978 307L979 308L978 307M985 307L986 308L985 307z"/>
<path style="fill:#e18a3e; stroke:none;" d="M987 307L986 309L987 307z"/>
<path style="fill:#2f363f; stroke:none;" d="M988.317 308.047C983.318 311.129 988.457 319.534 993.333 315.968C997.642 312.815 993.101 305.098 988.317 308.047z"/>
<path style="fill:#697c88; stroke:none;" d="M993 307L994 308L993 307M995 307L996 308L995 307M1011 307L1012 308L1011 307M1013 307L1012 309L1013 307z"/>
<path style="fill:#2f363f; stroke:none;" d="M1012 311L1021 311C1018.52 306.502 1014.48 306.502 1012 311z"/>
<path style="fill:#697c88; stroke:none;" d="M1019 307L1020 308L1019 307M1021 307L1022 308L1021 307M1026 307L1027 308L1026 307z"/>
<path style="fill:#a74e06; stroke:none;" d="M1029 307L1028 309L1029 307z"/>
<path style="fill:#2f363f; stroke:none;" d="M1030.23 308.047C1024.93 311.102 1029.34 319.453 1034.68 315.968C1039.13 313.065 1035.22 305.168 1030.23 308.047z"/>
<path style="fill:#e18a3e; stroke:none;" d="M1036 307L1037 308L1036 307z"/>
<path style="fill:#697c88; stroke:none;" d="M886.333 308.667L886.667 309.333L886.333 308.667M896 308L897 309L896 308M961 308L962 309L961 308z"/>
<path style="fill:#e18a3e; stroke:none;" d="M963 308L964 309L963 308z"/>
<path style="fill:#697c88; stroke:none;" d="M984.333 308.667L984.667 309.333L984.333 308.667M994 308L995 309L994 308M1010.33 308.667L1010.67 309.333L1010.33 308.667M1020 308L1021 309L1020 308z"/>
<path style="fill:#a74e06; stroke:none;" d="M1022 308L1023 309L1022 308z"/>
<path style="fill:#697c88; stroke:none;" d="M911.667 309.333L912.333 309.667L911.667 309.333z"/>
<path style="fill:#a74e06; stroke:none;" d="M953 309L954 310L953 309z"/>
<path style="fill:#697c88; stroke:none;" d="M962.333 309.667L962.667 310.333L962.333 309.667z"/>
<path style="fill:#a74e06; stroke:none;" d="M964.333 309.667L964.667 310.333L964.333 309.667z"/>
<path style="fill:#697c88; stroke:none;" d="M967.333 309.667L967.667 310.333L967.333 309.667z"/>
<path style="fill:#a74e06; stroke:none;" d="M969 309L970 310L969 309z"/>
<path style="fill:#697c88; stroke:none;" d="M978 309L979 310L978 309z"/>
<path style="fill:#e18a3e; stroke:none;" d="M1022 309L1023 310L1022 309z"/>
<path style="fill:#697c88; stroke:none;" d="M1025 309L1025 315L1026 315L1025 309M1027 309L1028 310L1027 309M1036 309L1037 310L1036 309z"/>
<path style="fill:#e18a3e; stroke:none;" d="M887 310L888 311L887 310z"/>
<path style="fill:#697c88; stroke:none;" d="M897.333 310.667L897.667 311.333L897.333 310.667M903 310L904 311L903 310M918 310L919 311L918 310z"/>
<path style="fill:#a74e06; stroke:none;" d="M921 310L922 311L921 310z"/>
<path style="fill:#e18a3e; stroke:none;" d="M985 310L986 311L985 310z"/>
<path style="fill:#697c88; stroke:none;" d="M995.333 310.667L995.667 311.333L995.333 310.667z"/>
<path style="fill:#e18a3e; stroke:none;" d="M1011 310L1012 311L1011 310z"/>
<path style="fill:#a74e06; stroke:none;" d="M1027 310L1028 311L1027 310z"/>
<path style="fill:#697c88; stroke:none;" d="M887.333 311.667L887.667 312.333L887.333 311.667M904 311L905 312L904 311M908 311L909 312L908 311z"/>
<path style="fill:#a74e06; stroke:none;" d="M920 311L921 312L920 311z"/>
<path style="fill:#e18a3e; stroke:none;" d="M952 311L952 314L953 314L952 311z"/>
<path style="fill:#697c88; stroke:none;" d="M964.333 311.667L964.667 312.333L964.333 311.667M985.333 311.667L985.667 312.333L985.333 311.667M1012 311L1012 312L1021 312L1012 311M1037.33 311.667L1037.67 312.333L1037.33 311.667M906 312L907 313L906 312z"/>
<path style="fill:#a74e06; stroke:none;" d="M911 312L912 313L911 312z"/>
<path style="fill:#e18a3e; stroke:none;" d="M887 313L888 314L887 313z"/>
<path style="fill:#697c88; stroke:none;" d="M897.333 313.667L897.667 314.333L897.333 313.667M909 313L910 314L909 313z"/>
<path style="fill:#a74e06; stroke:none;" d="M912 313L913 314L912 313z"/>
<path style="fill:#697c88; stroke:none;" d="M918 313L920 315L918 313M962.333 313.667L962.667 314.333L962.333 313.667z"/>
<path style="fill:#a74e06; stroke:none;" d="M964.333 313.667L964.667 314.333L964.333 313.667z"/>
<path style="fill:#697c88; stroke:none;" d="M967.333 313.667L967.667 314.333L967.333 313.667z"/>
<path style="fill:#e18a3e; stroke:none;" d="M985 313L986 314L985 313z"/>
<path style="fill:#697c88; stroke:none;" d="M995.333 313.667L995.667 314.333L995.333 313.667z"/>
<path style="fill:#e18a3e; stroke:none;" d="M1011 313L1012 314L1011 313z"/>
<path style="fill:#a74e06; stroke:none;" d="M1027.33 313.667L1027.67 314.333L1027.33 313.667M918 314L918 319L919 319L918 314M969 314L970 315L969 314z"/>
<path style="fill:#697c88; stroke:none;" d="M978 314L979 315L978 314M1021 314L1022 315L1021 314z"/>
<path style="fill:#a74e06; stroke:none;" d="M1022.33 314.667L1022.67 315.333L1022.33 314.667z"/>
<path style="fill:#697c88; stroke:none;" d="M886 315L887 316L886 315z"/>
<path style="fill:#a74e06; stroke:none;" d="M888 315L889 316L888 315z"/>
<path style="fill:#697c88; stroke:none;" d="M896 315L897 316L896 315M904 315L905 316L904 315M911 315L912 316L911 315M920 315L921 316L920 315z"/>
<path style="fill:#e18a3e; stroke:none;" d="M922 315L923 316L922 315z"/>
<path style="fill:#697c88; stroke:none;" d="M935.333 315.667L935.667 316.333L935.333 315.667M944 315L945 316L944 315M953 315L954 316L953 315M984 315L985 316L984 315z"/>
<path style="fill:#a74e06; stroke:none;" d="M986 315L987 316L986 315z"/>
<path style="fill:#697c88; stroke:none;" d="M994 315L995 316L994 315M1010 315L1011 316L1010 315z"/>
<path style="fill:#a74e06; stroke:none;" d="M1012 315L1013 316L1012 315z"/>
<path style="fill:#697c88; stroke:none;" d="M1020 315L1021 316L1020 315M1036 315L1037 316L1036 315z"/>
<path style="fill:#a74e06; stroke:none;" d="M889 316L890 317L889 316z"/>
<path style="fill:#697c88; stroke:none;" d="M897 316L898 317L897 316M921 316L922 317L921 316z"/>
<path style="fill:#e18a3e; stroke:none;" d="M923 316L924 317L923 316M937 316L938 317L937 316z"/>
<path style="fill:#a74e06; stroke:none;" d="M954 316L955 317L954 316M963 316L964 317L963 316z"/>
<path style="fill:#697c88; stroke:none;" d="M968 316L969 317L968 316M970 316L971 317L970 316M977 316L978 317L977 316z"/>
<path style="fill:#a74e06; stroke:none;" d="M987 316L988 317L987 316z"/>
<path style="fill:#697c88; stroke:none;" d="M995 316L996 317L995 316M1002.33 316.667L1002.67 317.333L1002.33 316.667M1026 316L1027 317L1026 316M1035 316L1036 317L1035 316M881 317L881 318L884 318L881 317M891 317L891 318L895 318L891 317M896 317L897 318L896 317M903 317L904 318L903 317M906.667 317.333L907.333 317.667L906.667 317.333M909 317L910 318L909 317z"/>
<path style="fill:#a74e06; stroke:none;" d="M912 317L913 318L912 317z"/>
<path style="fill:#697c88; stroke:none;" d="M922 317L923 318L922 317z"/>
<path style="fill:#e18a3e; stroke:none;" d="M924 317L925 318L924 317z"/>
<path style="fill:#697c88; stroke:none;" d="M936 317L937 318L936 317M939 317L939 318L943 318L939 317M944 317L945 318L944 317M952 317L952 325L953 325L954 317L952 317M956 317L956 318L960 318L956 317z"/>
<path style="fill:#a74e06; stroke:none;" d="M962 317L963 318L962 317z"/>
<path style="fill:#697c88; stroke:none;" d="M969 317L970 318L969 317M972 317L972 318L976 318L972 317M989 317L989 318L993 318L989 317M994 317L995 318L994 317M1005 317L1005 318L1008 319L1005 317z"/>
<path style="fill:#a74e06; stroke:none;" d="M1007 317L1008 318L1007 317z"/>
<path style="fill:#697c88; stroke:none;" d="M1015 317L1016 318L1015 317M1017.67 317.333L1018.33 317.667L1017.67 317.333M1027 317L1028 318L1027 317M1030 317L1030 318L1034 318L1030 317M1037.33 317.667L1037.67 318.333L1037.33 317.667M889 318L890 319L889 318z"/>
<path style="fill:#a74e06; stroke:none;" d="M895 318L896 319L895 318z"/>
<path style="fill:#697c88; stroke:none;" d="M905 318L906 319L905 318M923 318L924 319L923 318z"/>
<path style="fill:#e18a3e; stroke:none;" d="M925 318L926 319L925 318z"/>
<path style="fill:#697c88; stroke:none;" d="M937 318L938 319L937 318z"/>
<path style="fill:#a74e06; stroke:none;" d="M943 318L944 319L943 318z"/>
<path style="fill:#697c88; stroke:none;" d="M955 318L956 319L955 318M970 318L971 319L970 318M976 318L977 319L976 318M987 318L988 319L987 318z"/>
<path style="fill:#a74e06; stroke:none;" d="M993 318L994 319L993 318z"/>
<path style="fill:#697c88; stroke:none;" d="M1003 318L1004 319L1003 318M1013 318L1014 319L1013 318M1019 318L1020 319L1019 318M1028 318L1029 319L1028 318M1034 318L1035 319L1034 318M951 325L952 326L951 325M949 345L949 360L950 360L949 345z"/>
<path style="fill:#bdaf97; stroke:none;" d="M950 345L950 360L951 360L951 356L957 360L952 355L952 354L957 349L952 354L951 354L950 345z"/>
<path style="fill:#697c88; stroke:none;" d="M919 346L920 347L919 346z"/>
<path style="fill:#a74e06; stroke:none;" d="M920 346L920 349L921 349L920 346z"/>
<path style="fill:#697c88; stroke:none;" d="M965 346L966 347L965 346z"/>
<path style="fill:#a74e06; stroke:none;" d="M966 346L966 349L967 349L966 346z"/>
<path style="fill:#697c88; stroke:none;" d="M994 346L994 349L995 349L996 346L994 346z"/>
<path style="fill:#bdaf97; stroke:none;" d="M919 347C918.47 351.745 917.749 358.257 923 360L923 359C919.972 356.032 919.114 352.522 923 350L923 349L919 347M965 347C964.47 351.745 963.749 358.257 969 360L969 359C965.972 356.032 965.114 352.522 969 350L969 349L965 347M995 347L993 349L993 350L999 360L999 359L996 359L999 350L999 349L995 347z"/>
<path style="fill:#697c88; stroke:none;" d="M917 349L918 350L917 349z"/>
<path style="fill:#a74e06; stroke:none;" d="M923 349L924 350L923 349z"/>
<path style="fill:#697c88; stroke:none;" d="M926 350L926 351L929 351L926 350z"/>
<path style="fill:#bdaf97; stroke:none;" d="M928 349L928 350L932 350L928 349z"/>
<path style="fill:#697c88; stroke:none;" d="M932 349L932 360L933 360C933.653 358.04 934 357.446 934 360L935 360L935 349L934 349L932 349z"/>
<path style="fill:#bdaf97; stroke:none;" d="M935 349L935 360L936 360L935 349z"/>
<path style="fill:#697c88; stroke:none;" d="M940 349L939 351L940 349z"/>
<path style="fill:#bdaf97; stroke:none;" d="M941 349L941 350L945 352L941 349z"/>
<path style="fill:#697c88; stroke:none;" d="M963 349L964 350L963 349z"/>
<path style="fill:#a74e06; stroke:none;" d="M969 349L970 350L969 349z"/>
<path style="fill:#697c88; stroke:none;" d="M972 350L972 351L975 351L972 350z"/>
<path style="fill:#bdaf97; stroke:none;" d="M974 349L974 350L980 354L971 353L971 356L972 356L981 355C980.291 350.556 978.394 349.335 974 349z"/>
<path style="fill:#697c88; stroke:none;" d="M985 349L986 350L985 349z"/>
<path style="fill:#bdaf97; stroke:none;" d="M986 349L986 350L991 352L986 349z"/>
<path style="fill:#697c88; stroke:none;" d="M989 349L990 350L989 349z"/>
<path style="fill:#a74e06; stroke:none;" d="M920 350L920 358L921 358L920 350z"/>
<path style="fill:#bdaf97; stroke:none;" d="M927 350C924.6 355.25 926.093 359.066 932 360L932 359C926.813 357.455 927.364 354.644 927 350z"/>
<path style="fill:#2f363f; stroke:none;" d="M929.299 351.176C925.811 352.892 927.829 359.729 931.701 357.824C935.189 356.108 933.171 349.271 929.299 351.176z"/>
<path style="fill:#bdaf97; stroke:none;" d="M933 350L934 351L933 350M940 350C939.934 354.084 942.261 355.012 946 356L946 355L940 350z"/>
<path style="fill:#697c88; stroke:none;" d="M944 350L945 351L944 350z"/>
<path style="fill:#a74e06; stroke:none;" d="M966 350L966 358L967 358L966 350z"/>
<path style="fill:#bdaf97; stroke:none;" d="M973 350L972 352L973 350z"/>
<path style="fill:#2f363f; stroke:none;" d="M973 354L980 354C977.84 350.132 975.16 350.132 973 354z"/>
<path style="fill:#697c88; stroke:none;" d="M978 350L979 351L978 350z"/>
<path style="fill:#a74e06; stroke:none;" d="M980 350L981 351L980 350z"/>
<path style="fill:#bdaf97; stroke:none;" d="M984 350L990 359L984 357C985.258 358.774 990.344 361.417 990.364 357.075C990.376 354.623 986.671 352.598 986 350L984 350z"/>
<path style="fill:#697c88; stroke:none;" d="M994 350L994 358L995 358L994 350z"/>
<path style="fill:#a74e06; stroke:none;" d="M927 351L928 352L927 351M940.333 351.667L940.667 352.333L940.333 351.667M946 351L947 352L946 351M973 351L974 352L973 351z"/>
<path style="fill:#697c88; stroke:none;" d="M979 351L980 352L979 351M983.333 351.667L983.667 352.333L983.333 351.667z"/>
<path style="fill:#a74e06; stroke:none;" d="M991 351L992 352L991 351z"/>
<path style="fill:#697c88; stroke:none;" d="M925 352L926 353L925 352M952 352L953 353L952 352M971 352L972 353L971 352z"/>
<path style="fill:#e18a3e; stroke:none;" d="M972 352L973 353L972 352z"/>
<path style="fill:#a74e06; stroke:none;" d="M981 352L982 353L981 352M985 352L986 353L985 352M926 353L926 356L927 356L926 353z"/>
<path style="fill:#697c88; stroke:none;" d="M939 353L940 354L939 353M941 353L942 354L941 353M951 353L952 354L951 353z"/>
<path style="fill:#a74e06; stroke:none;" d="M972 353L973 354L972 353z"/>
<path style="fill:#697c88; stroke:none;" d="M981.333 353.667L981.667 354.333L981.333 353.667z"/>
<path style="fill:#a74e06; stroke:none;" d="M986 353L987 354L986 353z"/>
<path style="fill:#697c88; stroke:none;" d="M940 354L941 355L940 354M944 354L945 355L944 354z"/>
<path style="fill:#a74e06; stroke:none;" d="M952 354L953 355L952 354z"/>
<path style="fill:#697c88; stroke:none;" d="M985 354L986 355L985 354M989 354L990 355L989 354M943 355L944 356L943 355z"/>
<path style="fill:#a74e06; stroke:none;" d="M972 355L973 356L972 355z"/>
<path style="fill:#697c88; stroke:none;" d="M988 355L989 356L988 355M925.333 356.667L925.667 357.333L925.333 356.667M945 356L944 359L945 356z"/>
<path style="fill:#e18a3e; stroke:none;" d="M946.333 356.667L946.667 357.333L946.333 356.667z"/>
<path style="fill:#697c88; stroke:none;" d="M952 356L953 357L952 356M971 356L972 357L971 356z"/>
<path style="fill:#e18a3e; stroke:none;" d="M972 356L973 357L972 356z"/>
<path style="fill:#697c88; stroke:none;" d="M980 356L978 359L980 356z"/>
<path style="fill:#a74e06; stroke:none;" d="M991 356L991 359L992 359L991 356M927 357L928 358L927 357z"/>
<path style="fill:#697c88; stroke:none;" d="M938 357L939 358L938 357z"/>
<path style="fill:#bdaf97; stroke:none;" d="M939 357C940.972 359.785 942.782 359.787 946 359L946 358L939 357M972 357L979 360L979 359L972 357z"/>
<path style="fill:#a74e06; stroke:none;" d="M973 357L974 358L973 357z"/>
<path style="fill:#bdaf97; stroke:none;" d="M980 357L979 359L980 357z"/>
<path style="fill:#697c88; stroke:none;" d="M983 357L984 358L983 357M926 358L927 359L926 358M928 358L929 359L928 358z"/>
<path style="fill:#bdaf97; stroke:none;" d="M933 358L934 359L933 358z"/>
<path style="fill:#a74e06; stroke:none;" d="M946 358L947 359L946 358z"/>
<path style="fill:#697c88; stroke:none;" d="M972 358L973 359L972 358M974 358L975 359L974 358z"/>
<path style="fill:#a74e06; stroke:none;" d="M980 358L981 359L980 358z"/>
<path style="fill:#697c88; stroke:none;" d="M989 358L990 359L989 358M996 358L997 359L996 358z"/>
<path style="fill:#a74e06; stroke:none;" d="M923 359L924 360L923 359z"/>
<path style="fill:#697c88; stroke:none;" d="M927 359L928 360L927 359M940 359L941 360L940 359z"/>
<path style="fill:#a74e06; stroke:none;" d="M945 359L946 360L945 359M969 359L970 360L969 359z"/>
<path style="fill:#697c88; stroke:none;" d="M973 359L974 360L973 359M985 359L986 360L985 359z"/>
<path style="fill:#a74e06; stroke:none;" d="M990 359L991 360L990 359z"/>
<path style="fill:#697c88; stroke:none;" d="M995 359L996 360L995 359z"/>
<path style="fill:#bdaf97; stroke:none;" d="M572 383L573 384L580 376L572 383M577 383L578 384L580 381L577 383z"/>
<path style="fill:#a74e06; stroke:none;" d="M954 413L956 413C956.856 422.505 963.777 429.329 973 431.33C989.405 434.889 1009.22 432 1026 432C1036.2 432 1048.12 433.678 1058 430.829C1067.12 428.198 1073.82 419.603 1073.82 410C1073.82 400.397 1067.12 391.801 1058 389.171C1048.12 386.322 1036.2 388 1026 388C1009.22 388 989.405 385.111 973 388.67C963.777 390.671 956.856 397.495 956 407L954 407C953.183 397.933 946.8 391.117 938 388.903C922.176 384.921 902.288 388 886 388C876.993 388 866.664 386.602 858 389.468C849.362 392.326 843.181 400.854 843.181 410C843.181 419.146 849.362 427.674 858 430.532C866.664 433.398 876.993 432 886 432C902.288 432 922.176 435.079 938 431.097C946.8 428.883 953.183 422.067 954 413z"/>
<path style="fill:#e18a3e; stroke:none;" d="M876 404L877 414L878 414L881 404L876 404M886 404L887 405L886 404z"/>
<path style="fill:#bdaf97; stroke:none;" d="M886 415L892 415L892 414L888 414L891 410L891 409L888 409L888 405L892 405C885.252 402.436 886 410.533 886 415z"/>
<path style="fill:#e18a3e; stroke:none;" d="M892 404L893 405L892 404M894 404L895 414L896 414L894 404M900 404L901 405L900 404z"/>
<path style="fill:#bdaf97; stroke:none;" d="M900 415L906 415L906 414L902 414L905 410L905 409L902 409L902 405L906 405C899.252 402.436 900 410.533 900 415z"/>
<path style="fill:#e18a3e; stroke:none;" d="M906 404L906 405L911 405L911 415L912 415L915 404L906 404z"/>
<path style="fill:#bdaf97; stroke:none;" d="M916 404L916 415L921 415L921 414L917 414L917 410L921 410L921 409L917 409L917 405L921 405L916 404z"/>
<path style="fill:#e18a3e; stroke:none;" d="M921 404L917 405L917 409L918 409L918 406L921 404M989 404L988 413L989 413L989 404M995 404L994 415C996.964 412.097 998.504 407.062 995 404M998 404C999.062 405.699 998.705 408.324 1000.17 409.667C1004.03 413.217 1009.08 404 998 404M1007 404L1008 414L1009 414L1012 405L1007 404M1020 404L1020 405L1022 406L1022 407L1020 409C1022.07 406.85 1022.56 405.795 1020 404M1026 406L1030 405L1030 415L1031 415L1034 404L1026 406z"/>
<path style="fill:#bdaf97; stroke:none;" d="M1035 404L1035 415L1040 415L1040 414L1036 414L1036 410L1040 410L1040 409L1036 409L1036 405L1040 405L1035 404z"/>
<path style="fill:#e18a3e; stroke:none;" d="M1040 404L1036 405L1036 409L1037 409L1037 406L1040 404z"/>
<path style="fill:#bdaf97; stroke:none;" d="M876 405L876 415C882.056 414.803 888.12 409.372 881 405L881 406C884.337 410.21 881.779 413.242 877 414L876 405z"/>
<path style="fill:#e18a3e; stroke:none;" d="M883 405L884 406L883 405M888 405L888 406L892 406L888 405z"/>
<path style="fill:#bdaf97; stroke:none;" d="M894 405L894 415L899 415L899 414L895 414L894 405z"/>
<path style="fill:#e18a3e; stroke:none;" d="M902 405L902 406L906 406L902 405z"/>
<path style="fill:#bdaf97; stroke:none;" d="M910 405L910 415L911 415L910 405M988 405L988 412L989 412L988 405M995 405L995 413L996 413L995 405M998 405L998 415L999 415L1002 411L1002 410L1000 405L998 405M1003 405L1003 410L1004 410L1003 405M1007 405L1007 415C1013.51 414.788 1018.21 408.978 1011 405L1011 406C1014.88 409.863 1013.13 413.182 1008 414L1007 405z"/>
<path style="fill:#e18a3e; stroke:none;" d="M1013 405L1014 406L1013 405z"/>
<path style="fill:#bdaf97; stroke:none;" d="M1020 405L1020 407L1022 407L1022 405L1020 405M1029 405L1029 415L1030 415L1029 405z"/>
<path style="fill:#a74e06; stroke:none;" d="M878 406L878 414C883.836 412.727 884.101 407.018 878 406z"/>
<path style="fill:#e18a3e; stroke:none;" d="M882 406L883 407L882 406z"/>
<path style="fill:#a74e06; stroke:none;" d="M1000 406L1000 409L1004 409L1004 406L1000 406M1009 406L1009 414C1014.42 412.355 1015.06 407.011 1009 406z"/>
<path style="fill:#e18a3e; stroke:none;" d="M1014 406L1015 407L1014 406M884.333 407.667L884.667 408.333L884.333 407.667M1015 407L1015 413L1016 413L1015 407z"/>
<path style="fill:#bdaf97; stroke:none;" d="M1019 407L1017 415L1018 415L1024 415L1025 415L1023 407L1022 407L1023 412L1019 412L1019 407z"/>
<path style="fill:#a74e06; stroke:none;" d="M1021 408C1020.43 410.396 1020.53 410.487 1023 411L1021 408z"/>
<path style="fill:#e18a3e; stroke:none;" d="M1023.33 408.667L1023.67 409.333L1023.33 408.667M883.333 409.667L883.667 410.333L883.333 409.667M891 409L892 410L891 409M905 409L906 410L905 409M1040 409L1041 410L1040 409M888 410L888 411L891 411L888 410M902 410L902 411L905 411L902 410M917 410L917 414L918 414L921 411L917 410M1019 410L1023 412L1023 411L1019 410M1036 410L1036 414L1037 414L1040 411L1036 410M884.333 411.667L884.667 412.333L884.333 411.667M999 411L999 415L1000 415L999 411M1024.33 411.667L1024.67 412.333L1024.33 411.667z"/>
<path style="fill:#bdaf97; stroke:none;" d="M989 412L994 415L994 414L989 412z"/>
<path style="fill:#e18a3e; stroke:none;" d="M1013 412L1014 413L1013 412M1017 412L1018 413L1017 412M881 413L882 414L881 413M883 413L884 414L883 413M990 413L991 414L990 413z"/>
<path style="fill:#bdaf97; stroke:none;" d="M994 413L995 414L994 413z"/>
<path style="fill:#e18a3e; stroke:none;" d="M1012 413L1013 414L1012 413M1014 413L1015 414L1014 413M1018.33 413.667L1018.67 414.333L1018.33 413.667M1025.33 413.667L1025.67 414.333L1025.33 413.667M882 414L883 415L882 414M892 414L893 415L892 414M899 414L900 415L899 414M906 414L907 415L906 414M921 414L922 415L921 414M1013 414L1014 415L1013 414M1040 414L1041 415L1040 414z"/>
<path style="fill:#bdaf97; stroke:none;" d="M106 425L101 448L102 448L108 425L106 425M158 425L153 447C157.878 443.06 158.754 431.036 160 425L158 425z"/>
<path style="fill:#e18a3e; stroke:none;" d="M107 426L108 427L107 426z"/>
<path style="fill:#697c88; stroke:none;" d="M105 427L106 428L105 427z"/>
<path style="fill:#a74e06; stroke:none;" d="M107 427L108 428L107 427z"/>
<path style="fill:#697c88; stroke:none;" d="M157.333 427.667L157.667 428.333L157.333 427.667z"/>
<path style="fill:#e18a3e; stroke:none;" d="M159 427L160 428L159 427z"/>
<path style="fill:#a74e06; stroke:none;" d="M159 428L160 429L159 428z"/>
<path style="fill:#bdaf97; stroke:none;" d="M82 429L82 434C77.0695 432.884 68.0063 436.755 74.4375 442.394C76.6648 444.346 80.2536 443.846 83 444L82 429z"/>
<path style="fill:#e18a3e; stroke:none;" d="M83 429L83 444L84 444L83 429z"/>
<path style="fill:#697c88; stroke:none;" d="M95 429L96 430L95 429z"/>
<path style="fill:#bdaf97; stroke:none;" d="M96 429L95 434C89.9945 432.638 82.2878 436.793 87.7431 442.396C89.94 444.652 94.1403 443.791 97 444L96 429z"/>
<path style="fill:#e18a3e; stroke:none;" d="M106 430L107 431L106 430z"/>
<path style="fill:#697c88; stroke:none;" d="M104 431L105 432L104 431z"/>
<path style="fill:#a74e06; stroke:none;" d="M106 431L107 432L106 431z"/>
<path style="fill:#697c88; stroke:none;" d="M156.333 431.667L156.667 432.333L156.333 431.667z"/>
<path style="fill:#e18a3e; stroke:none;" d="M158 431L159 432L158 431z"/>
<path style="fill:#697c88; stroke:none;" d="M116 432L117 433L116 432M124 432L125 433L124 432z"/>
<path style="fill:#a74e06; stroke:none;" d="M158 432L159 433L158 432z"/>
<path style="fill:#697c88; stroke:none;" d="M74 433L75 434L74 433z"/>
<path style="fill:#e18a3e; stroke:none;" d="M80 433L81 434L80 433z"/>
<path style="fill:#697c88; stroke:none;" d="M88 433L89 434L88 433z"/>
<path style="fill:#a74e06; stroke:none;" d="M94 433L95 434L94 433z"/>
<path style="fill:#bdaf97; stroke:none;" d="M111 433L111 444L113 444C113.115 434.241 118.965 434.082 119 444L121 444C121.115 434.241 126.965 434.082 127 444L129 444C128.996 438.904 128.016 429.797 121 435L111 433z"/>
<path style="fill:#697c88; stroke:none;" d="M113 433L114 434L113 433z"/>
<path style="fill:#a74e06; stroke:none;" d="M119 433L120 434L119 433z"/>
<path style="fill:#697c88; stroke:none;" d="M121 433L122 434L121 433z"/>
<path style="fill:#a74e06; stroke:none;" d="M127 433L128 434L127 433z"/>
<path style="fill:#bdaf97; stroke:none;" d="M132 433L132 444L133 444C133.236 434.26 139.884 434.188 140 444L141 444C141.236 434.26 147.884 434.188 148 444L149 444C148.999 431.138 142.92 433.602 132 433z"/>
<path style="fill:#e18a3e; stroke:none;" d="M133 433L134 434L133 433z"/>
<path style="fill:#697c88; stroke:none;" d="M134 433L135 434L134 433M142 433L143 434L142 433z"/>
<path style="fill:#bdaf97; stroke:none;" d="M162 433L165 449L172 434L174 434L176 449L183 434L185 434L187 449L188 449L194 433L193 433L190 441L189 441C186.036 432.342 181.964 432.342 179 441C174.671 433.458 171.29 431.39 168 441L162 433z"/>
<path style="fill:#a74e06; stroke:none;" d="M164 433L165 434L164 433M175 433L176 434L175 433M186 433L187 434L186 433z"/>
<path style="fill:#697c88; stroke:none;" d="M192 433L193 434L192 433z"/>
<path style="fill:#e18a3e; stroke:none;" d="M194 433L195 434L194 433z"/>
<path style="fill:#bdaf97; stroke:none;" d="M195 433L198 449L199 449L205 433L204 433L201 441L200 441L195 433z"/>
<path style="fill:#a74e06; stroke:none;" d="M197 433L198 434L197 433z"/>
<path style="fill:#697c88; stroke:none;" d="M203 433L204 434L203 433z"/>
<path style="fill:#e18a3e; stroke:none;" d="M205 433L206 434L205 433z"/>
<path style="fill:#697c88; stroke:none;" d="M73 434L74 435L73 434M77.6667 434.333L78.3333 434.667L77.6667 434.333M90 434L90 435L93 435L90 434z"/>
<path style="fill:#e18a3e; stroke:none;" d="M105 434L106 435L105 434z"/>
<path style="fill:#697c88; stroke:none;" d="M115 434L116 435L115 434M117 434L118 435L117 434M120 434L121 435L120 434M123 434L124 435L123 434M125 434L126 435L125 434z"/>
<path style="fill:#a74e06; stroke:none;" d="M128 434L129 435L128 434z"/>
<path style="fill:#697c88; stroke:none;" d="M137 434L138 435L137 434M145 434L146 435L145 434M162 434L163 435L162 434M170 434L171 435L170 434z"/>
<path style="fill:#a74e06; stroke:none;" d="M172 434L173 435L172 434z"/>
<path style="fill:#697c88; stroke:none;" d="M173 434L174 435L173 434M181 434L182 435L181 434z"/>
<path style="fill:#a74e06; stroke:none;" d="M183 434L184 435L183 434z"/>
<path style="fill:#697c88; stroke:none;" d="M184 434L185 435L184 434z"/>
<path style="fill:#e18a3e; stroke:none;" d="M186 434L187 435L186 434z"/>
<path style="fill:#a74e06; stroke:none;" d="M194 434L195 435L194 434z"/>
<path style="fill:#697c88; stroke:none;" d="M195 434L196 435L195 434z"/>
<path style="fill:#e18a3e; stroke:none;" d="M197 434L198 435L197 434z"/>
<path style="fill:#a74e06; stroke:none;" d="M205 434L206 435L205 434M75 435L76 436L75 435z"/>
<path style="fill:#2f363f; stroke:none;" d="M76.4622 436.086C73.425 438.06 76.301 443.362 79.5664 441.673C83.1315 439.829 79.9046 433.849 76.4622 436.086z"/>
<path style="fill:#697c88; stroke:none;" d="M80 435L81 436L80 435M86 435L87 436L86 435z"/>
<path style="fill:#e18a3e; stroke:none;" d="M88 435L89 436L88 435z"/>
<path style="fill:#2f363f; stroke:none;" d="M89.6034 436.046C86.4837 438.418 90.2082 443.831 93.3966 441.15C96.4323 438.597 92.8834 433.553 89.6034 436.046z"/>
<path style="fill:#697c88; stroke:none;" d="M103 435L104 436L103 435z"/>
<path style="fill:#a74e06; stroke:none;" d="M105 435L106 436L105 435z"/>
<path style="fill:#697c88; stroke:none;" d="M118 435L119 436L118 435M126 435L127 436L126 435z"/>
<path style="fill:#a74e06; stroke:none;" d="M134 435L135 436L134 435M142 435L143 436L142 435M149 435L150 436L149 435z"/>
<path style="fill:#697c88; stroke:none;" d="M155.333 435.667L155.667 436.333L155.333 435.667z"/>
<path style="fill:#e18a3e; stroke:none;" d="M157 435L158 436L157 435z"/>
<path style="fill:#697c88; stroke:none;" d="M72 436L73 437L72 436z"/>
<path style="fill:#e18a3e; stroke:none;" d="M74 436L75 437L74 436z"/>
<path style="fill:#697c88; stroke:none;" d="M81.3333 436.667L81.6667 437.333L81.3333 436.667z"/>
<path style="fill:#a74e06; stroke:none;" d="M113 436L114 437L113 436M121 436L122 437L121 436z"/>
<path style="fill:#697c88; stroke:none;" d="M139 436L140 437L139 436M147 436L147 444L148 444L147 436z"/>
<path style="fill:#e18a3e; stroke:none;" d="M149 436L149 444L150 444L149 436z"/>
<path style="fill:#a74e06; stroke:none;" d="M157 436L158 437L157 436z"/>
<path style="fill:#697c88; stroke:none;" d="M163 436L164 437L163 436z"/>
<path style="fill:#e18a3e; stroke:none;" d="M165 436L166 437L165 436z"/>
<path style="fill:#697c88; stroke:none;" d="M169 436L170 437L169 436z"/>
<path style="fill:#e18a3e; stroke:none;" d="M171 436L172 437L171 436z"/>
<path style="fill:#697c88; stroke:none;" d="M174 436L175 437L174 436z"/>
<path style="fill:#e18a3e; stroke:none;" d="M176 436L177 437L176 436z"/>
<path style="fill:#697c88; stroke:none;" d="M180 436L181 437L180 436z"/>
<path style="fill:#e18a3e; stroke:none;" d="M182 436L183 437L182 436z"/>
<path style="fill:#697c88; stroke:none;" d="M185 436L186 437L185 436z"/>
<path style="fill:#a74e06; stroke:none;" d="M187 436L188 437L187 436z"/>
<path style="fill:#697c88; stroke:none;" d="M191 436L192 437L191 436z"/>
<path style="fill:#a74e06; stroke:none;" d="M193 436L194 437L193 436z"/>
<path style="fill:#697c88; stroke:none;" d="M196 436L197 437L196 436z"/>
<path style="fill:#a74e06; stroke:none;" d="M198 436L199 437L198 436z"/>
<path style="fill:#697c88; stroke:none;" d="M202 436L203 437L202 436z"/>
<path style="fill:#a74e06; stroke:none;" d="M204 436L205 437L204 436M74 437L75 438L74 437z"/>
<path style="fill:#e18a3e; stroke:none;" d="M133 437L133 444L134 444L133 437M141 437L141 444L142 444L141 437M87 438L88 439L87 438M104 438L105 439L104 438z"/>
<path style="fill:#697c88; stroke:none;" d="M164 438L165 439L164 438z"/>
<path style="fill:#a74e06; stroke:none;" d="M166 438L167 439L166 438z"/>
<path style="fill:#697c88; stroke:none;" d="M175 438L176 439L175 438z"/>
<path style="fill:#a74e06; stroke:none;" d="M177 438L178 439L177 438M188 438L189 439L188 438z"/>
<path style="fill:#697c88; stroke:none;" d="M190.333 438.667L190.667 439.333L190.333 438.667z"/>
<path style="fill:#e18a3e; stroke:none;" d="M192 438L193 439L192 438z"/>
<path style="fill:#a74e06; stroke:none;" d="M199 438L200 439L199 438z"/>
<path style="fill:#697c88; stroke:none;" d="M201.333 438.667L201.667 439.333L201.333 438.667z"/>
<path style="fill:#e18a3e; stroke:none;" d="M203 438L204 439L203 438z"/>
<path style="fill:#a74e06; stroke:none;" d="M74 439L75 440L74 439z"/>
<path style="fill:#697c88; stroke:none;" d="M102 439L103 440L102 439z"/>
<path style="fill:#a74e06; stroke:none;" d="M104 439L105 440L104 439z"/>
<path style="fill:#697c88; stroke:none;" d="M154.333 439.667L154.667 440.333L154.333 439.667z"/>
<path style="fill:#e18a3e; stroke:none;" d="M156 439L157 440L156 439z"/>
<path style="fill:#697c88; stroke:none;" d="M168 439L169 440L168 439z"/>
<path style="fill:#a74e06; stroke:none;" d="M170 439L171 440L170 439z"/>
<path style="fill:#697c88; stroke:none;" d="M179 439L180 440L179 439z"/>
<path style="fill:#a74e06; stroke:none;" d="M181 439L182 440L181 439z"/>
<path style="fill:#697c88; stroke:none;" d="M186 439L187 440L186 439z"/>
<path style="fill:#e18a3e; stroke:none;" d="M188 439L189 440L188 439z"/>
<path style="fill:#a74e06; stroke:none;" d="M192 439L193 440L192 439z"/>
<path style="fill:#697c88; stroke:none;" d="M197 439L198 440L197 439z"/>
<path style="fill:#e18a3e; stroke:none;" d="M199 439L200 440L199 439z"/>
<path style="fill:#a74e06; stroke:none;" d="M203 439L204 440L203 439z"/>
<path style="fill:#697c88; stroke:none;" d="M72 440L73 441L72 440z"/>
<path style="fill:#e18a3e; stroke:none;" d="M74 440L75 441L74 440z"/>
<path style="fill:#697c88; stroke:none;" d="M81 440L82 441L81 440z"/>
<path style="fill:#a74e06; stroke:none;" d="M156 440L157 441L156 440M75 441L76 442L75 441z"/>
<path style="fill:#697c88; stroke:none;" d="M86 441L87 442L86 441z"/>
<path style="fill:#e18a3e; stroke:none;" d="M88 441L89 442L88 441z"/>
<path style="fill:#697c88; stroke:none;" d="M165 441L166 442L165 441z"/>
<path style="fill:#e18a3e; stroke:none;" d="M169 441L170 442L169 441z"/>
<path style="fill:#697c88; stroke:none;" d="M176 441L177 442L176 441z"/>
<path style="fill:#e18a3e; stroke:none;" d="M180 441L181 442L180 441z"/>
<path style="fill:#697c88; stroke:none;" d="M187 441L188 442L187 441z"/>
<path style="fill:#a74e06; stroke:none;" d="M191 441L192 442L191 441z"/>
<path style="fill:#697c88; stroke:none;" d="M198 441L199 442L198 441z"/>
<path style="fill:#a74e06; stroke:none;" d="M202 441L203 442L202 441z"/>
<path style="fill:#697c88; stroke:none;" d="M73 442L74 443L73 442M79 442L80 443L79 442M90 442L91 443L90 442M92 442L93 443L92 442z"/>
<path style="fill:#e18a3e; stroke:none;" d="M103 442L104 443L103 442z"/>
<path style="fill:#697c88; stroke:none;" d="M74 443L75 444L74 443z"/>
<path style="fill:#e18a3e; stroke:none;" d="M80 443L81 444L80 443z"/>
<path style="fill:#a74e06; stroke:none;" d="M94 443L95 444L94 443z"/>
<path style="fill:#697c88; stroke:none;" d="M101 443L102 444L101 443z"/>
<path style="fill:#a74e06; stroke:none;" d="M103 443L104 444L103 443z"/>
<path style="fill:#697c88; stroke:none;" d="M153.333 443.667L153.667 444.333L153.333 443.667z"/>
<path style="fill:#e18a3e; stroke:none;" d="M155 443L156 444L155 443z"/>
<path style="fill:#697c88; stroke:none;" d="M166.333 443.667L166.667 444.333L166.333 443.667M177.333 443.667L177.667 444.333L177.333 443.667z"/>
<path style="fill:#e18a3e; stroke:none;" d="M190 443L191 444L190 443M201 443L202 444L201 443z"/>
<path style="fill:#697c88; stroke:none;" d="M77 444L78 445L77 444M90.6667 444.333L91.3333 444.667L90.6667 444.333z"/>
<path style="fill:#a74e06; stroke:none;" d="M155 444L156 445L155 444M168 444L169 445L168 444M179 444L180 445L179 444z"/>
<path style="fill:#e18a3e; stroke:none;" d="M102 446L103 447L102 446z"/>
<path style="fill:#697c88; stroke:none;" d="M165 446L166 447L165 446z"/>
<path style="fill:#e18a3e; stroke:none;" d="M167 446L168 447L167 446z"/>
<path style="fill:#697c88; stroke:none;" d="M176 446L177 447L176 446z"/>
<path style="fill:#e18a3e; stroke:none;" d="M178 446L179 447L178 446z"/>
<path style="fill:#697c88; stroke:none;" d="M187 446L188 447L187 446z"/>
<path style="fill:#a74e06; stroke:none;" d="M189 446L190 447L189 446z"/>
<path style="fill:#697c88; stroke:none;" d="M198 446L199 447L198 446z"/>
<path style="fill:#a74e06; stroke:none;" d="M200 446L201 447L200 446M102 447L103 448L102 447z"/>
<path style="fill:#697c88; stroke:none;" d="M153.667 447.333L154.333 447.667L153.667 447.333M186 448L187 449L186 448z"/>
<path style="fill:#e18a3e; stroke:none;" d="M188 448L189 449L188 448z"/>
<path style="fill:#697c88; stroke:none;" d="M197 448L198 449L197 448z"/>
<path style="fill:#e18a3e; stroke:none;" d="M199 448L200 449L199 448z"/>
<path style="fill:#697c88; stroke:none;" d="M165 449L166 450L165 449M176 449L177 450L176 449M187 449L188 450L187 449M198 449L199 450L198 449M905 485L909 491L910 491L908 485L905 485M916 485L919 487L916 485M929 485L929 487L931 487L931 485L929 485M940 485L944 491L945 491L943 485L940 485M962 485L965 487L962 485M974 485L974 487L977 487L977 485L974 485M997 485L999 491L999 492C1002 489.98 1001.26 488.164 1000 485L997 485M1009 485L1009 487L1011 487L1011 485L1009 485M903 486L902 488L904 488L903 486z"/>
<path style="fill:#bdaf97; stroke:none;" d="M904 486L905 487L904 486M908 486L909 487L908 486M915.667 486.333L916.333 486.667L915.667 486.333M919 486L920 487L919 486z"/>
<path style="fill:#697c88; stroke:none;" d="M920.333 486.667L920.667 487.333L920.333 486.667M927 486L925 490L926 490L927 486z"/>
<path style="fill:#bdaf97; stroke:none;" d="M928 486L929 487L928 486M931 486L932 487L931 486z"/>
<path style="fill:#697c88; stroke:none;" d="M932 486L932 488L934 488L932 486M938 486L937 488L939 488L938 486z"/>
<path style="fill:#bdaf97; stroke:none;" d="M939 486L940 487L939 486M943 486L944 487L943 486z"/>
<path style="fill:#697c88; stroke:none;" d="M960 486L961 487L960 486z"/>
<path style="fill:#bdaf97; stroke:none;" d="M960 488L963 487L960 488M965 486L967 488L965 486z"/>
<path style="fill:#697c88; stroke:none;" d="M966 486L967 487L966 486M972 486C970.826 490.136 971.083 492.84 975 495L972 493L972 486z"/>
<path style="fill:#bdaf97; stroke:none;" d="M973 486L972 488L973 486M977 486L978 487L977 486z"/>
<path style="fill:#697c88; stroke:none;" d="M978 486L976 495L979 494L977 500L978 500C980.624 495.191 981.693 490.517 978 486M995 486L994 488L996 488L995 486z"/>
<path style="fill:#bdaf97; stroke:none;" d="M996 486L997 487L996 486M1000 486L1002 488L1000 486z"/>
<path style="fill:#a74e06; stroke:none;" d="M1001 486L1002 487L1001 486z"/>
<path style="fill:#697c88; stroke:none;" d="M1007 486L1006 489L1007 489L1007 486z"/>
<path style="fill:#bdaf97; stroke:none;" d="M1008 486L1007 488L1008 486M1011 486L1011 487L1014 488L1011 486z"/>
<path style="fill:#a74e06; stroke:none;" d="M1013 486L1014 487L1013 486M73 487.465C53.0604 491.085 46.9698 518.558 66 528.316C73.7857 532.307 83.5538 531 92 531C111.007 531 134.55 534.739 153 530.097C172.371 525.223 175.861 497.567 157 489.214C148.57 485.48 137.983 487 129 487C111.077 487 90.6336 484.263 73 487.465z"/>
<path style="fill:#bdaf97; stroke:none;" d="M909 487L910 488L909 487z"/>
<path style="fill:#697c88; stroke:none;" d="M914 487L913 497L914 497L914 487z"/>
<path style="fill:#a74e06; stroke:none;" d="M915 487L916 488L915 487z"/>
<path style="fill:#2f363f; stroke:none;" d="M916.495 488.086C913.303 490.109 914.206 499.904 918.74 497.744C922.609 495.901 921.18 485.118 916.495 488.086z"/>
<path style="fill:#a74e06; stroke:none;" d="M921 487L922 488L921 487M927 487L928 488L927 487z"/>
<path style="fill:#bdaf97; stroke:none;" d="M944 487L945 488L944 487z"/>
<path style="fill:#a74e06; stroke:none;" d="M961 487L962 488L961 487z"/>
<path style="fill:#2f363f; stroke:none;" d="M962.39 488.086C958.943 490.231 959.964 500.213 964.726 497.824C968.575 495.894 967.059 485.18 962.39 488.086z"/>
<path style="fill:#a74e06; stroke:none;" d="M967 487L968 488L967 487z"/>
<path style="fill:#2f363f; stroke:none;" d="M973 487C972.134 498.374 984.111 487.866 973 487M1008.72 488.086C1005.77 490.188 1006.91 500.091 1011.51 497.673C1015.66 495.489 1012.93 485.091 1008.72 488.086z"/>
<path style="fill:#697c88; stroke:none;" d="M1012 487L1013 488L1012 487z"/>
<path style="fill:#bdaf97; stroke:none;" d="M902 488L903 489L902 488z"/>
<path style="fill:#a74e06; stroke:none;" d="M910 488L910 491L911 491L910 488z"/>
<path style="fill:#bdaf97; stroke:none;" d="M921 488L922 489L921 488M933 488L933 491L934 491L933 488M937 488L938 489L937 488z"/>
<path style="fill:#a74e06; stroke:none;" d="M945 488L945 491L946 491L945 488z"/>
<path style="fill:#697c88; stroke:none;" d="M959 488L959 490L961 488L959 488M966.667 488.333L967.333 488.667L966.667 488.333z"/>
<path style="fill:#a74e06; stroke:none;" d="M972.333 488.667L972.667 489.333L972.333 488.667z"/>
<path style="fill:#bdaf97; stroke:none;" d="M994 488L995 489L994 488z"/>
<path style="fill:#a74e06; stroke:none;" d="M1002.33 488.667L1002.67 489.333L1002.33 488.667M1007 488L1008 489L1007 488z"/>
<path style="fill:#697c88; stroke:none;" d="M1013 488L1015 491L1013 488z"/>
<path style="fill:#a74e06; stroke:none;" d="M1014 488L1015 489L1014 488z"/>
<path style="fill:#697c88; stroke:none;" d="M901.667 489.333L902.333 489.667L901.667 489.333z"/>
<path style="fill:#a74e06; stroke:none;" d="M914.333 489.667L914.667 490.333L914.333 489.667z"/>
<path style="fill:#697c88; stroke:none;" d="M921 489L921 496L922 496L921 489z"/>
<path style="fill:#a74e06; stroke:none;" d="M926 489L927 490L926 489z"/>
<path style="fill:#697c88; stroke:none;" d="M936.667 489.333L937.333 489.667L936.667 489.333z"/>
<path style="fill:#a74e06; stroke:none;" d="M960 489L961 490L960 489z"/>
<path style="fill:#bdaf97; stroke:none;" d="M967 489L968 490L967 489z"/>
<path style="fill:#a74e06; stroke:none;" d="M980.333 489.667L980.667 490.333L980.333 489.667z"/>
<path style="fill:#bdaf97; stroke:none;" d="M1006 489L1007 490L1006 489z"/>
<path style="fill:#a74e06; stroke:none;" d="M922 490L922 496L923 496L922 490z"/>
<path style="fill:#bdaf97; stroke:none;" d="M959 490L959 495L960 495L959 490z"/>
<path style="fill:#697c88; stroke:none;" d="M967 490L967 496L968 496L967 490M1005 490L1005 496L1007 496L1007 490L1005 490z"/>
<path style="fill:#bdaf97; stroke:none;" d="M909 491L910 492L909 491z"/>
<path style="fill:#697c88; stroke:none;" d="M932 491L927 499L934 491L932 491z"/>
<path style="fill:#bdaf97; stroke:none;" d="M944 491L945 492L944 491z"/>
<path style="fill:#a74e06; stroke:none;" d="M968 491L968 495L969 495L968 491M972 491L973 492L972 491M1001 491L1002 492L1001 491z"/>
<path style="fill:#bdaf97; stroke:none;" d="M1014 491L1014 495L1015 495L1014 491z"/>
<path style="fill:#697c88; stroke:none;" d="M901 500L910 493L901 500z"/>
<path style="fill:#a74e06; stroke:none;" d="M933 492L934 493L933 492z"/>
<path style="fill:#697c88; stroke:none;" d="M936 500L945 493L936 500M947 492L948 493L947 492z"/>
<path style="fill:#bdaf97; stroke:none;" d="M948 492L948 493L955 493L948 492M972 492L973 493L972 492M983 492L983 493L990 493L983 492z"/>
<path style="fill:#a74e06; stroke:none;" d="M990 492L991 493L990 492z"/>
<path style="fill:#bdaf97; stroke:none;" d="M997 492L997 493L1000 493L997 492z"/>
<path style="fill:#a74e06; stroke:none;" d="M1000 492L1001 493L1000 492z"/>
<path style="fill:#bdaf97; stroke:none;" d="M908 493L906 496L908 493M943 493L941 496L943 493z"/>
<path style="fill:#697c88; stroke:none;" d="M1000 493L1000 500L1001 500C1002.15 496.915 1002.8 495.067 1000 493z"/>
<path style="fill:#a74e06; stroke:none;" d="M908 494L909 495L908 494M914 494L914 497L915 497L914 494M943 494L944 495L943 494z"/>
<path style="fill:#bdaf97; stroke:none;" d="M975 494L976 495L975 494z"/>
<path style="fill:#a74e06; stroke:none;" d="M980.333 494.667L980.667 495.333L980.333 494.667M1002 494L1003 495L1002 494M907 495L908 496L907 495M942 495L943 496L942 495z"/>
<path style="fill:#697c88; stroke:none;" d="M959 495L962 500L959 495M1013 495L1011 499L1015 495L1013 495z"/>
<path style="fill:#bdaf97; stroke:none;" d="M905 496L906 497L905 496M921 496L922 497L921 496M940 496L941 497L940 496z"/>
<path style="fill:#a74e06; stroke:none;" d="M960 496L961 497L960 496z"/>
<path style="fill:#bdaf97; stroke:none;" d="M967 496L968 497L967 496z"/>
<path style="fill:#697c88; stroke:none;" d="M971.667 496.333L972.333 496.667L971.667 496.333M993.667 496.333L994.333 496.667L993.667 496.333z"/>
<path style="fill:#bdaf97; stroke:none;" d="M1006 496L1007 497L1006 496z"/>
<path style="fill:#a74e06; stroke:none;" d="M1014.33 496.667L1014.67 497.333L1014.33 496.667z"/>
<path style="fill:#bdaf97; stroke:none;" d="M914 497L915 498L914 497z"/>
<path style="fill:#697c88; stroke:none;" d="M919 500L920 500L922 498L919 500M966 497L965 500L966 500L966 497z"/>
<path style="fill:#a74e06; stroke:none;" d="M967 497L968 498L967 497z"/>
<path style="fill:#bdaf97; stroke:none;" d="M972 497L973 498L972 497M994 497L996 499L994 497z"/>
<path style="fill:#a74e06; stroke:none;" d="M995 497L996 498L995 497M1002 497L1003 498L1002 497z"/>
<path style="fill:#697c88; stroke:none;" d="M1006 497L1007 498L1006 497z"/>
<path style="fill:#a74e06; stroke:none;" d="M1007 497L1008 498L1007 497z"/>
<path style="fill:#697c88; stroke:none;" d="M914 498L916 500L916 498L914 498z"/>
<path style="fill:#a74e06; stroke:none;" d="M916 498L917 499L916 498z"/>
<path style="fill:#bdaf97; stroke:none;" d="M920 498L921 499L920 498z"/>
<path style="fill:#697c88; stroke:none;" d="M925.333 498.667L925.667 499.333L925.333 498.667z"/>
<path style="fill:#bdaf97; stroke:none;" d="M926 498L934 500L934 499L926 498M966 498L967 499L966 498z"/>
<path style="fill:#697c88; stroke:none;" d="M972 498L974 500L974 498L972 498z"/>
<path style="fill:#bdaf97; stroke:none;" d="M978 498L979 499L978 498z"/>
<path style="fill:#a74e06; stroke:none;" d="M979 498L980 499L979 498z"/>
<path style="fill:#697c88; stroke:none;" d="M994 498L995 499L994 498z"/>
<path style="fill:#a74e06; stroke:none;" d="M996 498L997 499L996 498z"/>
<path style="fill:#bdaf97; stroke:none;" d="M1001 498L1002 499L1001 498M1007 498L1008 499L1007 498z"/>
<path style="fill:#697c88; stroke:none;" d="M1008.33 498.667L1008.67 499.333L1008.33 498.667z"/>
<path style="fill:#bdaf97; stroke:none;" d="M902 499L902 500L910 500L902 499z"/>
<path style="fill:#697c88; stroke:none;" d="M910 499L911 500L910 499z"/>
<path style="fill:#bdaf97; stroke:none;" d="M916 499L916 500L919 500L916 499z"/>
<path style="fill:#a74e06; stroke:none;" d="M934 499L935 500L934 499z"/>
<path style="fill:#bdaf97; stroke:none;" d="M937 499L937 500L945 500L937 499z"/>
<path style="fill:#697c88; stroke:none;" d="M945 499L946 500L945 499z"/>
<path style="fill:#bdaf97; stroke:none;" d="M962 499L962 500L965 500L962 499M974 499L974 500L977 500L974 499z"/>
<path style="fill:#697c88; stroke:none;" d="M996 499L997 500L996 499z"/>
<path style="fill:#bdaf97; stroke:none;" d="M997 499L997 500L1000 500L997 499M1009 499L1009 500L1012 500L1009 499z"/>
<path style="fill:#697c88; stroke:none;" d="M1110 500L1110 507C1104.26 505.442 1096.64 510.376 1101.75 516.682C1104.16 519.671 1108.61 518.753 1112 519L1112 500L1110 500M968 501L962 519C969.016 514.056 968.984 514.056 976 519L970 501L968 501M999 501L999 503L1001 503L1001 501L999 501M1057 501L1061 519L1064 519L1067 505L1068 505L1071 519C1076.66 517.344 1077.65 506.218 1078 501L1076 501L1073 515L1072 515L1069 501C1064.47 503.85 1063.68 510.963 1063 516L1062 516L1059 501L1057 501M1081 501L1081 503L1083 503L1083 501L1081 501M992 502L989 507L992 508C992 512.504 990.861 518.938 997 518L993 508L997 508L997 506L993 506L992 502M1031 502L1028 507L1031 508C1031 512.504 1029.86 518.938 1036 518L1032 508L1036 508L1036 506L1032 506L1031 502z"/>
<path style="fill:#e18a3e; stroke:none;" d="M89 503L88 509L89 509L89 505L95 506L89 503z"/>
<path style="fill:#bdaf97; stroke:none;" d="M90 503L91 504L90 503z"/>
<path style="fill:#e18a3e; stroke:none;" d="M96 503L97 514L98 514L96 503M103 503L104 504L103 503M106 503L107 508L108 508L112 504L111 506L112 506L113 504L106 503M115 503L116 514L117 514C117.08 509.994 118.562 505.598 115 503M124 503L125 514L126 514L124 503M128 503L129 504L128 503M130 505L134 504L134 514L135 514L138 503L130 505z"/>
<path style="fill:#bdaf97; stroke:none;" d="M88 504L89 505L88 504M92 504L93 505L92 504M96 504L96 512L97 512L96 504M102 504L102 513L98 513L98 514C103.708 513.068 103.954 509.129 104 504L102 504M106 504L106 514C109.63 513.881 113.852 513.182 111 509L111 508L113 505L112 505L107 508L106 504M110.667 504.333L111.333 504.667L110.667 504.333M115 504L115 514L116 514L115 504M124 504L122 509L123 509L123 507L124 507L124 514L125 514L124 504M127 504L127 514L129 514L129 504L127 504M133 504L133 514L134 514L133 504z"/>
<path style="fill:#2f363f; stroke:none;" d="M968 504L966 512L972 512L968 504z"/>
<path style="fill:#bdaf97; stroke:none;" d="M87.3333 505.667L87.6667 506.333L87.3333 505.667M93 505L94 506L93 505z"/>
<path style="fill:#a74e06; stroke:none;" d="M108 505L108 508L112 507L108 505z"/>
<path style="fill:#697c88; stroke:none;" d="M987 519L987 517C979.605 515.845 979.632 509.165 987 508L987 506C976.336 506.589 976.235 518.409 987 519M999 506L999 519L1001 519L1001 506L999 506M1003 506L1008 519L1010 519L1015 506L1009 516L1003 506M1018 507L1018 508L1024 508C1019.86 514.802 1012.31 518.14 1026 519C1026 512.681 1026.67 504.711 1018 507M1047 518L1047 517L1039 513L1048 513C1045.83 493.977 1027.07 523.66 1047 518M1081 506L1081 519L1083 519L1083 506L1081 506M1087 506L1087 519L1089 519C1089.01 507.614 1094.99 507.614 1095 519L1097 519C1097 514.545 1097.38 502.721 1090 508L1087 506M1118.15 507.029C1111.1 511.144 1117.7 522.151 1124.85 517.971C1131.9 513.857 1125.3 502.849 1118.15 507.029M1129 506C1130.04 511.01 1130.61 517.254 1136 519L1137 512L1140 519L1144 519L1147 506C1143.45 507.039 1143.25 509.53 1143 513L1141 513L1140 506C1136.03 507.305 1135.54 510.081 1135 514L1134 514L1132 506L1129 506M1154 517L1148 516C1148.97 520.511 1156.78 519.879 1156.78 515.028C1156.78 512.047 1152.15 510.744 1151 508L1157 509C1155.16 506.165 1148.61 504.696 1148.75 509.926C1148.82 512.581 1152.73 514.757 1154 517z"/>
<path style="fill:#bdaf97; stroke:none;" d="M88 507L89 508L88 507z"/>
<path style="fill:#e18a3e; stroke:none;" d="M112 507L113 508L112 507z"/>
<path style="fill:#bdaf97; stroke:none;" d="M117 507L120 514L122 510L121 510L120 512L117 507z"/>
<path style="fill:#e18a3e; stroke:none;" d="M123.333 507.667L123.667 508.333L123.333 507.667z"/>
<path style="fill:#bdaf97; stroke:none;" d="M89.6667 508.333L90.3333 508.667L89.6667 508.333z"/>
<path style="fill:#e18a3e; stroke:none;" d="M91 508L91 509L91 510L94 512L95 512L91 508M111 508L112 509L111 508M118 508L119 509L118 508z"/>
<path style="fill:#2f363f; stroke:none;" d="M1039 511L1046 511C1043.84 507.668 1041.27 507.86 1039 511M1104.3 509.086C1100.43 511.331 1103.44 518.366 1107.57 515.914C1111.32 513.684 1108.46 506.675 1104.3 509.086M1120.3 508.851C1116.37 510.353 1118.25 517.851 1122.7 516.149C1126.63 514.647 1124.75 507.149 1120.3 508.851z"/>
<path style="fill:#bdaf97; stroke:none;" d="M92 509L93 510L92 509z"/>
<path style="fill:#e18a3e; stroke:none;" d="M107 509L107 513L108 513L107 509z"/>
<path style="fill:#a74e06; stroke:none;" d="M108 509L108 513L112 512L112 510L108 509z"/>
<path style="fill:#e18a3e; stroke:none;" d="M112 509L113 510L112 509M121 509L123 511L123 509L121 509z"/>
<path style="fill:#bdaf97; stroke:none;" d="M93 510C91.1769 512.588 89.8883 512.053 87 511C89.1789 513.199 94.0784 514.796 93 510z"/>
<path style="fill:#e18a3e; stroke:none;" d="M113.333 510.667L113.667 511.333L113.333 510.667M119 510L120 511L119 510M88 511L89 512L88 511M103.333 511.667L103.667 512.333L103.333 511.667M118 511L119 512L118 511M120 511L121 512L120 511M87 512L88 513L87 512M89 512L90 513L89 512M92 512L93 513L92 512z"/>
<path style="fill:#bdaf97; stroke:none;" d="M97 512L98 513L97 512z"/>
<path style="fill:#e18a3e; stroke:none;" d="M101 512L102 513L101 512M121 512L122 513L121 512M88 513L89 514L88 513M93 513L94 514L93 513M102 513L103 514L102 513M112 513L113 514L112 513M119 513L120 514L119 513z"/>
<path style="fill:#2f363f; stroke:none;" d="M1018 514L1018 516C1021.43 516.784 1022.86 516.422 1024 513L1018 514z"/>
<path style="fill:#697c88; stroke:none;" d="M1206 532L1206 537C1195.6 537.576 1199.02 545.968 1208 546L1208 532L1206 532M972 546L972 539L967 539L967 540L970 540L970 545C961.992 542.677 963.678 534.079 972 535C966.148 528.313 956.316 541.353 965.132 545.258C967.23 546.187 969.766 545.98 972 546M1018 541L1012 544C1014.01 546.302 1020.09 546.734 1019.53 542.15C1019.21 539.498 1015.56 537.03 1014 535L1020 535C1015.43 529.8 1008.74 537.749 1018 541M1043 533L1043 535L1045 535L1045 533L1043 533M1126 533L1126 535L1128 535L1128 533L1126 533M1167 533L1170 546C1173.97 544.695 1174.46 541.919 1175 538L1176 538C1176.78 541.714 1177.21 544.67 1181 546L1184 533L1180 542L1179 542C1178.5 538.169 1178.02 534.176 1174 533L1172 541L1171 541L1167 533M1185 533L1185 535L1187 535L1187 533L1185 533M991 534C989.073 538.791 988.998 544.958 995 546L995 545C993.02 542.345 993.02 540.655 995 538L995 537L993 534L991 534M1032 534C1030.07 538.791 1030 544.958 1036 546L1036 545L1034 538L1037 538C1037.1 542.31 1037.34 545.191 1042 546L1042 545C1040.02 542.345 1040.02 540.655 1042 538L1042 537L1040 534C1037.3 535.101 1035.69 536.838 1034 534L1032 534M1082 534C1080.07 538.791 1080 544.958 1086 546L1086 545C1084.02 542.345 1084.02 540.655 1086 538L1086 537L1084 534L1082 534M1121 534C1118.57 536.301 1113.12 536.965 1112 540.213C1110.42 544.824 1116.25 547.101 1119 544C1112.42 543.696 1115.51 539.228 1120 538C1120.1 542.31 1120.34 545.191 1125 546L1125 545C1123.02 542.345 1123.02 540.655 1125 538L1125 537L1123 534L1121 534M1149 534C1147.07 538.791 1147 544.958 1153 546L1153 545C1151.02 542.345 1151.02 540.655 1153 538L1153 537L1151 534L1149 534M976.317 538.043C971.649 540.987 975.886 547.982 980.683 544.957C985.351 542.013 981.114 535.018 976.317 538.043M998.317 538.043C993.649 540.987 997.886 547.982 1002.68 544.957C1007.35 542.013 1003.11 535.018 998.317 538.043M1029 544L1024 542L1030 542C1024.67 524.435 1018.77 555.644 1029 544M1043 537L1043 546L1045 546L1045 537L1043 537M1047 537L1047 546L1049 546L1050 538L1052 538L1053 546L1055 546C1054.98 539.364 1053.93 537.082 1047 537M1064 545L1057 548C1064.23 556.258 1066 541.377 1066 537C1056.16 537.089 1054.76 547.46 1064 545M1072 545L1068 544C1070.23 546.51 1072.25 545.455 1075 544L1075 543L1070 538L1074 539C1069.19 533.574 1069.43 541.415 1072 545M1089.32 538.043C1084.65 540.987 1088.89 547.982 1093.68 544.957C1098.35 542.013 1094.11 535.018 1089.32 538.043M1103 538L1103 539L1108 538L1102 542C1103.58 545.94 1106.01 545.953 1110 546C1109.98 540.466 1109.54 536.259 1103 538M1126 537L1126 546L1128 546L1128 537L1126 537M1129 537L1132 546L1135 546L1138 537L1134 543L1133 543L1129 537M1139 538L1139 539L1144 538L1138 542C1139.58 545.94 1142.01 545.953 1146 546C1145.98 540.466 1145.54 536.259 1139 538M1161 544L1156 542L1162 542C1156.67 524.435 1150.77 555.644 1161 544M1185 537L1185 546L1187 546L1187 537L1185 537M1189 537L1189 546L1191 546L1192 538L1194 538L1195 546L1197 546C1196.98 539.364 1195.93 537.082 1189 537M1212.32 538.043C1207.65 540.987 1211.89 547.982 1216.68 544.957C1221.35 542.013 1217.11 535.018 1212.32 538.043M1220 537L1222 546L1226 541L1227 541L1231 546L1233 537L1230 542L1229 542L1225 537L1224 542L1223 542L1220 537M1238 545L1234 544C1236.23 546.51 1238.25 545.455 1241 544L1241 543L1236 538L1240 539C1235.19 533.574 1235.43 541.415 1238 545z"/>
<path style="fill:#2f363f; stroke:none;" d="M977.549 539.175C975.365 540.579 976.869 545.485 979.451 543.825C981.634 542.421 980.131 537.515 977.549 539.175M999.549 539.175C997.365 540.579 998.869 545.485 1001.45 543.825C1003.63 542.421 1002.13 537.515 999.549 539.175M1025 538L1024 539L1024 540L1024 541L1027 538L1025 538M1060 545C1063.25 543.194 1063.6 541.617 1063 538C1059.2 539.26 1059.02 541.326 1060 545M1090.55 539.175C1088.37 540.579 1089.87 545.485 1092.45 543.825C1094.63 542.421 1093.13 537.515 1090.55 539.175M1157 538L1156 539L1156 540L1156 541L1159 538L1157 538M1202 545C1205.25 543.194 1205.6 541.617 1205 538C1201.2 539.26 1201.02 541.326 1202 545M1213.55 539.175C1211.37 540.58 1212.87 545.485 1215.45 543.825C1217.63 542.421 1216.13 537.515 1213.55 539.175M1106 541L1105 545L1108 541L1106 541M1142 541L1141 545L1144 541L1142 541z"/>
<path style="fill:#697c88; stroke:none;" d="M1242 544L1242 546L1244 546L1244 544L1242 544M455 584L455 585L516 585L496 584L455 584z"/>
</svg>
