<svg width="48" height="48" viewBox="0 0 48 48" fill="none" xmlns="http://www.w3.org/2000/svg">
<rect width="48" height="48" fill="#2AECE0"/>
<path d="M20.7 30C20.2 30 19.7917 29.8417 19.475 29.525C19.1583 29.2083 19 28.8 19 28.3V26H21.4V27.6H26.6V24.95H20.7C20.2333 24.95 19.8333 24.7833 19.5 24.45C19.1667 24.1167 19 23.7167 19 23.25V19.7C19 19.2 19.1583 18.7917 19.475 18.475C19.7917 18.1583 20.2 18 20.7 18H27.3C27.8 18 28.2083 18.1583 28.525 18.475C28.8417 18.7917 29 19.2 29 19.7V22H26.6V20.4H21.4V23.05H27.3C27.7667 23.05 28.1667 23.2167 28.5 23.55C28.8333 23.8833 29 24.2833 29 24.75V28.3C29 28.8 28.8417 29.2083 28.525 29.525C28.2083 29.8417 27.8 30 27.3 30H20.7ZM33.7 30C33.2 30 32.7917 29.8417 32.475 29.525C32.1583 29.2083 32 28.8 32 28.3V26H34.4V27.6H39.6V24.95H33.7C33.2333 24.95 32.8333 24.7833 32.5 24.45C32.1667 24.1167 32 23.7167 32 23.25V19.7C32 19.2 32.1583 18.7917 32.475 18.475C32.7917 18.1583 33.2 18 33.7 18H40.3C40.8 18 41.2083 18.1583 41.525 18.475C41.8417 18.7917 42 19.2 42 19.7V22H39.6V20.4H34.4V23.05H40.3C40.7667 23.05 41.1667 23.2167 41.5 23.55C41.8333 23.8833 42 24.2833 42 24.75V28.3C42 28.8 41.8417 29.2083 41.525 29.525C41.2083 29.8417 40.8 30 40.3 30H33.7ZM7.7 30C7.2 30 6.79167 29.8417 6.475 29.525C6.15833 29.2083 6 28.8 6 28.3V19.7C6 19.2 6.15833 18.7917 6.475 18.475C6.79167 18.1583 7.2 18 7.7 18H14.3C14.8 18 15.2083 18.1583 15.525 18.475C15.8417 18.7917 16 19.2 16 19.7V22H13.6V20.4H8.4V27.6H13.6V26H16V28.3C16 28.8 15.8417 29.2083 15.525 29.525C15.2083 29.8417 14.8 30 14.3 30H7.7Z" fill="black"/>
</svg>
