<svg width="48" height="48" viewBox="0 0 48 48" fill="none" xmlns="http://www.w3.org/2000/svg">
<rect width="48" height="48" fill="#EEA10B"/>
<path d="M0 30V18H2.4V22.45H7.8V18H10.2V30H7.8V24.85H2.4V30H0ZM15.8 30V20.4H12.3V18H21.7V20.4H18.2V30H15.8ZM40.1 30V18H42.5V27.6H48V30H40.1ZM23.8 30V19.7C23.8 19.2 23.9583 18.7917 24.275 18.475C24.5917 18.1583 25 18 25.5 18H35.5C36 18 36.4083 18.1583 36.725 18.475C37.0417 18.7917 37.2 19.2 37.2 19.7V30H34.8V20.4H31.7V27.9H29.3V20.4H26.2V30H23.8Z" fill="black"/>
</svg>
