<svg width="178" height="122" viewBox="0 0 178 122" fill="none" xmlns="http://www.w3.org/2000/svg">
<g clip-path="url(#clip0_69_3)">
<path d="M164.231 58.9108H19.8929C17.9581 58.9108 16.3842 57.2635 16.3842 55.2385V3.67204C16.3842 1.64726 17.9581 0 19.8929 0H164.231C166.166 0 167.74 1.64726 167.74 3.67204V55.2385C167.74 57.2635 166.166 58.9108 164.231 58.9108ZM19.8929 0.437788C18.1889 0.437788 16.8025 1.88871 16.8025 3.67204V55.2385C16.8025 57.0219 18.1889 58.473 19.8929 58.473H164.231C165.935 58.473 167.322 57.0219 167.322 55.2385V3.67204C167.322 1.88871 165.935 0.437788 164.231 0.437788H19.8929Z" fill="#3F3D56"/>
<path d="M178 120.514H0V120.882H178V120.514Z" fill="#E6E6E6"/>
<path d="M178 101.689H0V102.057H178V101.689Z" fill="#E6E6E6"/>
<path d="M81.1195 60.8071C81.2473 62.4882 82.1798 63.7819 83.202 63.6966C84.2243 63.6112 84.9491 62.1794 84.821 60.4978C84.7786 59.8253 84.583 59.1732 84.2505 58.596L83.623 51.4803L80.4386 51.8597L81.3953 58.8342C81.1541 59.4594 81.0596 60.1359 81.1195 60.8071Z" fill="#FFB6B6"/>
<path d="M77.3156 27.6098C77.3156 27.6098 80.2922 25.9607 81.8016 28.4251C83.311 30.8895 84.3528 57.5426 84.3528 57.5426L80.1692 58.0101L79.3762 39.2284L77.3156 27.6098V27.6098Z" fill="#E6E6E6"/>
<path d="M71.1373 100.298L73.5609 100.298L74.7138 90.5146L71.1368 90.5149L71.1373 100.298Z" fill="#FFB6B6"/>
<path d="M79.4408 100.241C79.5163 100.374 79.5561 100.803 79.5561 100.958C79.5561 101.433 79.1878 101.819 78.7335 101.819H71.228C70.9181 101.819 70.6668 101.556 70.6668 101.231V100.904C70.6668 100.904 70.2955 99.9214 71.0599 98.7099C71.0599 98.7099 72.01 99.6585 73.4297 98.1727L73.8483 97.379L76.8787 99.6985L78.5585 99.9149C78.9259 99.9622 79.2518 99.9075 79.4408 100.241H79.4408H79.4408Z" fill="#2F2E41"/>
<path d="M85.1622 99.8784L87.5103 99.2504L86.3136 89.4728L82.848 90.3996L85.1622 99.8784Z" fill="#FFB6B6"/>
<path d="M93.1938 97.6718C93.2984 97.7812 93.4385 98.1868 93.475 98.3366C93.5875 98.7973 93.3218 99.2661 92.8817 99.3838L85.6096 101.328C85.3094 101.408 85.0037 101.219 84.927 100.904L84.8497 100.587C84.8497 100.587 84.2575 99.7313 84.7116 98.3595C84.7116 98.3595 85.8565 99.0325 86.8806 97.2252L87.0985 96.3478L90.5832 97.8101L92.2618 97.5847C92.6291 97.5354 92.9318 97.398 93.1938 97.6718H93.1938Z" fill="#2F2E41"/>
<path d="M69.1322 25.5067L69.0173 24.6339L70.3831 21.143L74.1357 20.7067L74.946 25.7044L69.1322 25.5067Z" fill="#FFB6B6"/>
<path opacity="0.1" d="M69.1322 25.5067L69.0173 24.6339L70.3831 21.143L74.1357 20.7067L74.946 25.7044L69.1322 25.5067Z" fill="black"/>
<path d="M64.7541 50.1613L63.0863 54.9613L64.3372 57.5795L70.5915 95.5433H74.7495L73.9271 61.9432L83.5171 95.5433H87.6324L84.3231 72.8523L81.8492 51.9068L80.3488 50.9367L73.0932 46.6704L64.7541 50.1613Z" fill="#2F2E41"/>
<path d="M75.3866 53.434L72.8848 53.8704L69.5492 45.5795H77.0544L75.3866 53.434Z" fill="#E6E6E6"/>
<path d="M80.39 51.2522L75.3866 53.434L73.7187 49.5067L72.8848 53.8703L64.1288 50.9205L65.3796 45.5794L64.1288 28.1248L68.5443 25.0441L69.1322 24.6339L74.5526 25.0703L75.028 25.3408L78.3052 27.2521L79.1391 41.6521L80.39 51.2522Z" fill="#2F2E41"/>
<path d="M75.0279 25.3408L72.6763 35.7612L68.5443 25.0441L69.1322 24.6339L74.5526 25.0703L75.0279 25.3408Z" fill="#E6E6E6"/>
<path d="M71.0085 24.6339L70.1746 26.1369L71.0085 26.638L70.5915 35.7883L72.2593 38.1612L73.9272 34.6541L72.6763 26.638L73.0932 24.6339H71.0085Z" fill="#2F2E41"/>
<path d="M72.2594 23.7613C74.447 23.7613 76.2205 21.9053 76.2205 19.6158C76.2205 17.3263 74.447 15.4703 72.2594 15.4703C70.0718 15.4703 68.2983 17.3263 68.2983 19.6158C68.2983 21.9053 70.0718 23.7613 72.2594 23.7613Z" fill="#FFB6B6"/>
<path d="M69.728 19.9794L70.5838 20.3703L70.9574 18.0249C70.9574 18.0249 72.4515 17.243 73.572 17.634C74.6926 18.0249 76.5602 17.634 76.5602 17.634C76.5602 17.634 76.5602 13.7249 73.9455 13.7249C71.3309 13.7249 68.7162 14.1158 68.7162 15.2885C68.7162 16.4612 67.5957 17.634 67.5957 17.634C67.5957 17.634 66.1016 19.9794 67.5957 21.5431C69.0898 23.1067 69.8368 23.1067 69.8368 23.1067L69.728 19.9794Z" fill="#2F2E41"/>
<path d="M62.0421 60.6845C61.9987 62.3703 62.7946 63.7602 63.8197 63.789C64.8449 63.8178 65.7108 62.4746 65.754 60.7882C65.7801 60.1148 65.6518 59.4446 65.3797 58.8338L65.4775 51.6886L62.2726 51.712L62.5164 58.7534C62.2132 59.3482 62.0506 60.0104 62.0421 60.6845V60.6845Z" fill="#FFB6B6"/>
<path d="M66.0071 27.244C66.0071 27.244 63.2969 26.3713 62.046 28.9895C60.7951 31.6077 62.463 58.2259 62.463 58.2259H66.6703L65.5536 39.4622L66.0071 27.244V27.244Z" fill="#E6E6E6"/>
<path d="M169.973 76.8337L159.866 73.5957C159.643 73.5241 159.408 73.498 159.175 73.5187L107.952 78.0811C107.222 78.1461 107.038 79.1771 107.697 79.513L109.338 80.3496H109.294V120.397H110.84V81.1156L115.983 83.7374C116.376 83.938 116.815 84.0199 117.251 83.9739L117.798 83.916V120.397H119.344V83.7526L158.962 79.5644V120.397H160.509V79.401L167.079 78.7064V120.397H168.626V78.5429L169.824 78.4162C170.666 78.3272 170.782 77.0928 169.973 76.8337H169.973Z" fill="#3F3D56"/>
<path d="M122.823 77.9225C123.789 77.9225 138.09 76.1022 138.09 76.1022L140.216 79.136L125.335 82.1699L122.823 77.9225Z" fill="white"/>
<path d="M138.519 118.841L136.034 118.837L134.868 108.805L138.536 108.811L138.519 118.841Z" fill="#A0616A"/>
<path d="M130.006 118.767C129.928 118.903 129.887 119.343 129.886 119.502C129.886 119.989 130.263 120.385 130.728 120.386L138.423 120.4C138.741 120.4 138.999 120.131 138.999 119.799L139 119.464C139 119.464 139.382 118.457 138.601 117.213C138.601 117.213 137.625 118.184 136.172 116.658L135.744 115.844L132.633 118.216L130.911 118.435C130.534 118.483 130.2 118.426 130.006 118.767H130.006L130.006 118.767Z" fill="#2F2E41"/>
<path d="M151.854 114.176L149.894 115.724L143.257 108.547L146.151 106.263L151.854 114.176Z" fill="#A0616A"/>
<path d="M145.104 119.432C145.121 119.588 145.339 119.96 145.429 120.086C145.706 120.47 146.229 120.547 146.596 120.257L152.667 115.464C152.918 115.266 152.968 114.893 152.778 114.63L152.588 114.366C152.588 114.366 152.315 113.334 150.99 112.842C150.99 112.842 150.775 114.216 148.761 113.921L147.959 113.546L146.86 117.357L145.628 118.605C145.358 118.878 145.063 119.042 145.104 119.432L145.104 119.432Z" fill="#2F2E41"/>
<path d="M146.661 62.328C146.661 64.7259 144.804 66.6698 142.512 66.6698C140.221 66.6698 138.364 64.7259 138.364 62.328C138.364 59.93 140.221 57.9861 142.512 57.9861C144.804 57.9861 146.661 59.93 146.661 62.328Z" fill="#A0616A"/>
<path d="M146.27 87.3622C146.27 87.3622 130.995 86.4573 130.13 88.2671C129.266 90.0769 134.805 114.936 134.805 114.936L139.746 113.852L137.336 96.411C137.336 96.411 150.082 99.944 151.812 95.7212C153.541 91.4984 153.043 89.926 153.043 89.926L146.27 87.3622Z" fill="#2F2E41"/>
<path d="M150.184 84.3243C150.184 84.3243 135.224 87.6806 134.848 89.6653C134.471 91.6499 146.097 114.09 146.097 114.09L150.588 111.676L143.855 95.5243C143.855 95.5243 157.041 95.4025 157.641 90.8514C158.241 86.3003 157.364 84.9218 157.364 84.9218L150.184 84.3243Z" fill="#2F2E41"/>
<path d="M151.89 67.304H144.703L139.786 75.7495C139.786 75.7495 138.633 81.2073 139.786 81.7963C140.938 82.3853 140.938 88.7195 140.938 88.7195L153.043 89.926C153.043 89.926 154.773 70.9235 154.196 69.1137C153.62 67.304 151.89 67.304 151.89 67.304Z" fill="#F2E41D"/>
<path d="M140.506 72.884L139.786 81.7963L131.681 78.1966L129.747 77.1786C129.368 76.6616 128.877 76.247 128.313 75.9697C126.912 75.2552 125.425 75.4322 124.991 76.3648C124.557 77.2974 125.34 78.6324 126.74 79.3465C127.296 79.64 127.911 79.7898 128.534 79.7834L134.193 83.1474L134.2 83.1343L134.225 83.1812L143.1 87.0605L145.142 75.3608L140.506 72.884H140.506Z" fill="#A0616A"/>
<path d="M139.641 62.9304C139.641 62.9304 135.318 63.5336 137.048 59.6125C137.048 59.6125 136.784 57.4868 138.069 57.3431C139.353 57.1994 141.083 54.7864 141.083 54.7864C141.083 54.7864 145.047 52.675 147.1 54.7864C149.152 56.8978 155.205 69.2645 155.205 69.2645L151.17 73.7889C151.17 73.7889 148.744 67.1151 145.922 67.8882C143.1 68.6613 140.506 70.9662 140.506 70.9662C140.506 70.9662 137.642 69.4663 138.93 68.1589C140.218 66.8515 139.641 62.9304 139.641 62.9304Z" fill="#2F2E41"/>
<path d="M145.406 69.5662C145.406 69.5662 143.388 66.8516 141.947 68.963C140.506 71.0743 139.353 73.789 139.353 73.789L145.117 75.9004L145.406 69.5662H145.406Z" fill="#F2E41D"/>
<path d="M167.292 119.796L160.595 97.5194L160.596 97.5193H160.611L160.584 97.4829L160.583 97.4821L160.106 95.8954L160.107 95.8952C160.833 95.2399 161.328 94.3034 161.427 93.2253L158.365 75.6047C158.576 73.2908 156.881 71.2682 154.661 71.1853L147.753 71.1671C145.79 71.0943 144.089 72.5789 143.803 74.6136L143.65 75.6936L141.534 90.7598C141.457 91.3019 141.488 91.8359 141.61 92.3354L140.087 92.5438L139.625 92.6085L137.798 92.8573L137.793 92.8593L137.565 92.8896H137.317V99.3619H137.333V120.049C137.333 120.182 137.437 120.292 137.565 120.292C137.694 120.292 137.798 120.182 137.798 120.049V99.3619H140.508L143.212 120.025C143.229 120.146 143.328 120.235 143.444 120.235C143.453 120.235 143.465 120.235 143.475 120.233C143.602 120.215 143.691 120.091 143.674 119.958L140.98 99.3619H153.98C155.271 99.3619 156.467 98.9332 157.441 98.1991L162.596 119.987C162.623 120.097 162.717 120.17 162.821 120.17C162.84 120.17 162.86 120.168 162.879 120.163C163.003 120.129 163.079 119.997 163.047 119.866L157.843 97.8682C157.912 97.8079 157.981 97.7435 158.046 97.677L160.116 97.5497L166.848 119.943C166.879 120.047 166.971 120.113 167.069 120.113C167.093 120.113 167.116 120.109 167.139 120.102C167.262 120.061 167.33 119.925 167.292 119.796ZM159.664 96.241C159.681 96.2309 159.697 96.2188 159.712 96.2087L159.712 96.2086L159.762 96.374L159.664 96.241Z" fill="#E6E6E6"/>
<path d="M35.8842 82.0361L40.3913 79.0364L42.2237 80.1931L35.8842 87.8167V82.0361Z" fill="#FFB6B6"/>
<path d="M29.7207 70.4255C29.7207 70.4255 26.7271 71.1627 28.1359 75.4015C29.5446 79.6403 34.1232 88.4865 35.532 87.9336C36.9408 87.3807 37.1169 81.8518 37.1169 81.8518C37.1169 81.8518 36.9408 82.0361 36.2364 81.299C35.532 80.5618 35.532 80.8984 35.532 80.0851C35.532 79.2717 34.9558 78.6687 34.9558 78.6687L34.2993 77.2444C34.2993 77.2444 34.2993 70.6098 31.6578 70.2412C29.0164 69.8726 29.7207 70.4255 29.7207 70.4255L29.7207 70.4255Z" fill="#E6E6E6"/>
<path d="M43.7072 79.995C44.8763 78.7715 45.2387 77.167 44.5166 76.4113C43.7945 75.6556 42.2614 76.0348 41.0923 77.2584C39.9232 78.4819 39.5608 80.0864 40.2829 80.8421C41.005 81.5978 42.5381 81.2185 43.7072 79.995Z" fill="#FFB6B6"/>
<path d="M18.0603 94.8446L21.1358 100.172L39.0583 99.0622L34.286 92.6249L18.0603 94.8446Z" fill="#E6E6E6"/>
<path d="M23.4156 119.761C23.3112 119.761 23.2202 119.681 23.2057 119.57L17.8501 78.6348C17.8342 78.5133 17.9154 78.4013 18.0315 78.3847C18.1475 78.3672 18.2545 78.453 18.2704 78.5745L23.626 119.509C23.6418 119.631 23.5607 119.743 23.4446 119.759C23.4348 119.761 23.4251 119.761 23.4156 119.761Z" fill="#E6E6E6"/>
<path d="M18.0602 119.813C17.9431 119.813 17.8481 119.714 17.8481 119.591V78.6126C17.8481 78.49 17.9431 78.3906 18.0602 78.3906C18.1774 78.3906 18.2723 78.49 18.2723 78.6126V119.591C18.2723 119.714 18.1774 119.813 18.0602 119.813Z" fill="#E6E6E6"/>
<path d="M44.944 119.65C44.8538 119.65 44.7702 119.59 44.7417 119.495L32.0687 77.3394C32.0335 77.2225 32.0956 77.0979 32.2073 77.061C32.319 77.0244 32.4382 77.0893 32.4733 77.2061L45.1463 119.362C45.1815 119.479 45.1194 119.603 45.0077 119.64C44.9865 119.647 44.965 119.65 44.944 119.65Z" fill="#E6E6E6"/>
<path d="M41.073 119.702C40.9783 119.702 40.8921 119.636 40.8676 119.535L32.0654 82.3298C32.0366 82.211 32.1052 82.0902 32.2187 82.0599C32.3326 82.0299 32.4477 82.1016 32.4766 82.2204L41.2788 119.426C41.3076 119.544 41.239 119.665 41.1255 119.696C41.1079 119.7 41.0903 119.702 41.073 119.702H41.073Z" fill="#E6E6E6"/>
<path d="M18.0603 79.2653L32.7483 79.0289L35.4526 95.1776H18.2724L18.0603 79.2653Z" fill="#E6E6E6"/>
<path d="M40.6322 103.011L36.9305 109.831L41.2285 110.822L43.0203 105.971L40.6322 103.011Z" fill="#FFB6B6"/>
<path d="M38.2601 108.544C38.2601 108.544 38.1162 107.431 37.2706 107.784C36.425 108.137 33.9845 109.449 33.9845 109.449C33.9845 109.449 40.3499 120.273 41.5579 119.769C42.766 119.265 41.3199 116.205 41.3199 116.205L41.639 110.797L38.2601 108.544H38.2601Z" fill="#2F2E41"/>
<path d="M24.2617 89.7765C24.2617 89.7765 22.941 96.1347 26.9912 98.3462C31.0415 100.558 44.8652 95.121 44.8652 95.121L38.5256 105.062L42.9281 106.916C42.9281 106.916 52.9657 93.0938 52.2613 90.8822C51.5569 88.6707 46.8022 88.4864 46.8022 88.4864L36.0603 89.0393L33.2427 88.1178L24.2617 89.7765H24.2617Z" fill="#2F2E41"/>
<path d="M35.1559 106.038L29.3365 110.981L32.9955 113.54L36.3512 109.704L35.1559 106.038Z" fill="#FFB6B6"/>
<path d="M31.0227 110.288C31.0227 110.288 31.2755 109.197 30.3651 109.204C29.4547 109.211 26.7255 109.503 26.7255 109.503C26.7255 109.503 28.8909 122.01 30.1914 122C31.4919 121.99 31.2088 118.59 31.2088 118.59L33.3867 113.673L31.0227 110.288Z" fill="#2F2E41"/>
<path d="M24.5093 87.4766C24.5093 87.4766 21.0683 92.8959 24.072 96.4983C27.0756 100.101 41.842 100.301 41.842 100.301L32.4806 107.146L35.9366 110.55C35.9366 110.55 50.092 101.498 50.2048 99.1694C50.3177 96.8412 45.9531 94.8589 45.9531 94.8589L35.7553 91.2831L33.4513 89.3518L24.5093 87.4766H24.5093Z" fill="#2F2E41"/>
<path d="M33.3487 74.9241C33.3487 74.9241 30.0028 73.6341 28.4179 73.6341C28.2665 73.6341 28.1168 73.6525 27.9671 73.6856C26.9528 73.9105 26.0195 74.8228 25.5722 75.3204C25.3978 75.5157 25.2975 75.6466 25.2975 75.6466C25.2975 75.6466 25.308 75.5194 25.3292 75.2964C25.4331 74.1243 25.817 70.278 26.5055 67.8158C26.752 66.9367 27.0356 66.2346 27.3613 65.8936C28.1203 65.0975 28.4708 64.1428 28.6328 63.4314C28.7701 62.8214 28.7701 62.392 28.7701 62.392L27.4864 61.8133L27.2486 60.1878C27.2064 60.3795 27.0109 60.7536 26.3541 61.4705C26.2977 61.5313 26.2361 61.5829 26.1709 61.6272C25.2235 62.2501 23.2917 61.1664 22.251 60.4845C22.6842 58.9088 23.4696 57.4676 24.896 57.2317C28.2418 56.6788 28.2418 54.6516 30.355 56.8631C30.5293 57.0456 30.7054 57.2207 30.8815 57.3902C31.5578 58.743 31.8043 60.5564 31.8923 61.817C31.9557 62.6998 31.9399 63.3135 31.9399 63.3135C31.9399 63.3135 32.8204 68.8424 34.2292 69.9481C35.6379 71.0539 33.3487 74.9241 33.3487 74.9241Z" fill="#2F2E41"/>
<path d="M26.8331 66.0779L24.4537 69.7305L29.8268 71.2382V66.0779H26.8331Z" fill="#FFB6B6"/>
<path opacity="0.1" d="M26.8331 66.0779L24.4537 69.7305L29.8268 71.2382V66.0779H26.8331Z" fill="black"/>
<path d="M30.1609 69.5961L25.0541 67.3845C25.0541 67.3845 18.1862 70.5176 18.7145 76.5993C19.2428 82.6811 24.1736 93.1859 24.1736 93.1859L34.0351 88.7628L32.9785 76.9679L30.1609 69.5961Z" fill="#E6E6E6"/>
<path d="M27.9713 67.7086C30.4596 67.7086 32.4768 65.5975 32.4768 62.9934C32.4768 60.3893 30.4596 58.2782 27.9713 58.2782C25.483 58.2782 23.4658 60.3893 23.4658 62.9934C23.4658 65.5975 25.483 67.7086 27.9713 67.7086Z" fill="#FFB6B6"/>
<path d="M34.0531 61.2862C33.1726 62.2077 32.4682 63.1292 32.4682 63.1292L32.116 61.6548C32.116 61.6548 32.035 61.7175 31.8924 61.817C31.3342 62.2151 29.8356 63.2158 28.6328 63.4314C28.0975 63.5273 27.622 63.4664 27.3121 63.1292C26.6552 62.4123 26.4598 62.0382 26.4175 61.8465L26.1798 63.472L24.896 64.0507C24.896 64.0507 24.896 66.0742 26.3048 67.5523C26.3735 67.6242 26.4404 67.7126 26.5056 67.8158C27.1782 68.8774 27.6608 71.4759 27.9672 73.6856C28.2383 75.6502 28.3687 77.3052 28.3687 77.3052C28.3687 77.3052 27.0356 75.5581 25.5722 75.3204C25.4912 75.3075 25.4102 75.2982 25.3292 75.2964C25.3028 75.2927 25.2746 75.2927 25.2482 75.2927C23.6633 75.2927 20.3175 76.5828 20.3175 76.5828C20.3175 76.5828 18.0282 72.7126 19.437 71.6068C20.8458 70.501 21.7263 64.9722 21.7263 64.9722C21.7263 64.9722 21.6681 62.6058 22.251 60.4845C22.6842 58.9088 23.4696 57.4676 24.896 57.2317C28.2419 56.6788 28.2419 54.6516 30.3551 56.8631C30.5294 57.0456 30.7055 57.2207 30.8816 57.3902C32.8504 59.2848 34.8614 60.4403 34.0531 61.2862Z" fill="#2F2E41"/>
<path d="M14.2925 86.0255H12.6193V120.611H14.2925V86.0255Z" fill="#3F3D56"/>
<path d="M54.8691 86.0255H53.1958V120.611H54.8691V86.0255Z" fill="#3F3D56"/>
<path d="M44.202 71.3596H33.1167V82.961H44.202V71.3596Z" fill="#F2E41D"/>
<path d="M26.7271 83.6947L31.2342 80.6949L33.0666 81.8517L26.7271 89.4753V83.6947Z" fill="#FFB6B6"/>
<path d="M20.5636 72.0841C20.5636 72.0841 17.57 72.8213 18.9788 77.0601C20.3875 81.2989 24.9661 90.1451 26.3749 89.5922C27.7837 89.0393 27.9598 83.5104 27.9598 83.5104C27.9598 83.5104 27.7837 83.6947 27.0793 82.9575C26.3749 82.2203 26.3749 82.557 26.3749 81.7436C26.3749 80.9303 25.7987 80.3273 25.7987 80.3273L25.1422 78.903C25.1422 78.903 25.1422 72.2684 22.5007 71.8998C19.8593 71.5312 20.5636 72.0841 20.5636 72.0841H20.5636Z" fill="#E6E6E6"/>
<path d="M34.5501 81.6536C35.7192 80.4301 36.0816 78.8256 35.3595 78.0699C34.6374 77.3142 33.1043 77.6934 31.9352 78.9169C30.7661 80.1405 30.4037 81.7449 31.1258 82.5006C31.8479 83.2564 33.381 82.8771 34.5501 81.6536Z" fill="#FFB6B6"/>
<path d="M58.2156 84.7122H7.59949V88.6523H58.2156V84.7122Z" fill="#3F3D56"/>
<path d="M109.641 53.1913H102.166C101.573 53.1913 101.093 53.694 101.093 54.3142V57.5407C101.093 58.1609 101.573 58.6636 102.166 58.6636H109.641C110.234 58.6636 110.714 58.1609 110.714 57.5407V54.3142C110.714 53.694 110.234 53.1913 109.641 53.1913Z" fill="#3F3D56"/>
<path d="M125.328 56.4178H117.853C117.26 56.4178 116.78 56.9206 116.78 57.5408V57.5408C116.78 58.1609 117.26 58.6637 117.853 58.6637H125.328C125.921 58.6637 126.401 58.1609 126.401 57.5408C126.401 56.9206 125.921 56.4178 125.328 56.4178Z" fill="#F2E41D"/>
</g>
<defs>
<clipPath id="clip0_69_3">
<rect width="178" height="122" fill="white"/>
</clipPath>
</defs>
</svg>
