<svg width="133" height="144" viewBox="0 0 133 144" fill="none" xmlns="http://www.w3.org/2000/svg">
<path d="M133 136.358H0V136.986H133V136.358Z" fill="#3F3D56"/>
<path d="M95.6892 66.1829C94.4579 54.75 88.04 46.0376 80.3082 46.0376H48.6888C40.96 46.0376 34.5436 54.7431 33.3078 66.169C33.1651 67.4757 33.0916 68.8197 33.0916 70.1892V112.849C33.0916 114.219 33.1651 115.56 33.3078 116.867C34.2913 125.97 38.5649 133.348 44.1719 135.968C45.6015 136.638 47.1181 136.999 48.6888 136.999H80.3082C81.8789 136.999 83.3955 136.638 84.8251 135.968C90.4336 133.346 94.7087 125.963 95.6892 116.853C95.8304 115.551 95.9039 114.214 95.9039 112.849V70.1892C95.9039 68.8243 95.8304 67.485 95.6892 66.1829H95.6892V66.1829ZM82.9841 135.969C82.1146 136.208 81.2212 136.334 80.3082 136.334H48.6888C47.7758 136.334 46.8823 136.208 46.0129 135.969C38.9133 134.013 33.5225 124.405 33.5225 112.849V98.6889C33.5225 58.6773 54.4685 46.7049 80.3082 46.7049C88.6842 46.7049 95.4745 57.2194 95.4745 70.1892V112.849C75.1412 117.062 90.0837 134.013 82.9841 135.968L82.9841 135.969Z" fill="#3F3D56"/>
<path d="M70.7904 78.2296L72.0069 90.4733L89.8483 86.706L88.125 72.4007L70.7904 78.2296Z" fill="#F2E41D"/>
<path d="M84.7928 9.5256H77.416V21.349H84.7928V9.5256Z" fill="#2F2E41"/>
<path d="M78.0892 22.0344L79.9139 13.558H83.4706L83.6575 22.0344H78.0892Z" fill="#FFB6B6"/>
<path opacity="0.1" d="M78.0892 22.0344L79.9139 13.558H83.4706L83.6575 22.0344H78.0892Z" fill="black"/>
<path d="M80.0152 97.5369L79.8125 130.187L79.6097 132.698V136.304L82.6509 136.779L82.8536 129.559C82.8536 129.559 86.0975 115.431 85.2866 104.444C84.4756 93.4557 84.8811 96.5951 84.8811 96.5951L80.0152 97.5369Z" fill="#FFB6B6"/>
<path d="M81.9459 100.101L74.4644 130.628L74.0632 133.081L73.2162 136.44L70.2716 135.17L71.7791 128.33C71.7791 128.33 72.0763 113.343 75.4131 103.565C78.7499 93.7868 77.6347 96.4827 77.6347 96.4827L81.9459 100.101V100.101Z" fill="#FFB6B6"/>
<path d="M78.0892 21.0925L72.6151 24.8598L76.1103 52.8042L75.5581 92.9118L71.9087 104.842C71.9087 104.842 71.2973 111.664 77.5823 107.269C83.8674 102.874 90.9634 101.618 90.9634 101.618L89.2401 83.2526L87.7195 35.0628L87.9223 24.3889L83.4619 19.9937L78.0892 21.0925Z" fill="#2F2E41"/>
<path d="M75.0404 105.278L68.9657 89.5314L75.9076 52.8042L72.6151 24.8598L78.3914 21.0307C78.3914 21.0307 81.3817 25.5397 81.3817 29.2587C81.3817 32.9778 75.0404 105.278 75.0404 105.278Z" fill="#E6E6E6"/>
<path d="M88.2188 102.138L82.7047 28.793C82.6351 27.8669 82.7372 26.9292 82.9991 26.0897L84.577 21.0307L90.7607 23.761L88.275 53.7461L94.9169 83.2526L88.2188 102.138Z" fill="#E6E6E6"/>
<path d="M83.2592 136.152C83.2592 136.152 79.4071 132.698 79.0016 134.582C78.5961 136.465 78.3934 138.035 78.3934 138.035C78.3934 138.035 77.3797 144 80.4208 144C83.462 144 83.2592 141.287 83.2592 141.287V136.152Z" fill="#2F2E41"/>
<path d="M69.8526 134.243C69.8526 134.243 74.2521 133.196 74.1872 135.179C74.1224 137.162 73.9425 138.738 73.9425 138.738C73.9425 138.738 73.4855 144.865 70.6527 143.152C67.8199 141.439 68.6461 139.026 68.6461 139.026L69.8526 134.243L69.8526 134.243Z" fill="#2F2E41"/>
<path d="M81.9294 18.1713C84.713 18.1713 86.9696 14.6771 86.9696 10.3668C86.9696 6.05643 84.713 2.56223 81.9294 2.56223C79.1457 2.56223 76.8892 6.05643 76.8892 10.3668C76.8892 14.6771 79.1457 18.1713 81.9294 18.1713Z" fill="#FFB6B6"/>
<path d="M85.9562 3.41179C85.7217 1.48754 84.446 0.186016 83.1857 0.0228083C81.9255 -0.1404 80.6911 0.596458 79.5562 1.46041C78.7868 2.04605 78.0294 2.70615 77.4062 3.61774C76.783 4.52933 76.2991 5.72017 76.1873 7.03628C76.1478 7.50193 76.1529 7.98842 76.0298 8.41766C75.876 8.95387 75.5459 9.31803 75.3467 9.81708C74.9894 10.7121 75.1536 12.0142 75.702 12.6355C75.0126 13.0904 74.3043 13.565 73.7788 14.3922C73.2532 15.2194 72.9498 16.4965 73.2382 17.5676C73.3402 17.9465 73.5088 18.2782 73.596 18.6659C73.7616 19.402 73.604 20.2384 73.3103 20.8716C73.0166 21.5047 72.6021 21.9742 72.1948 22.4325C73.2414 22.7502 74.3096 22.9977 75.3718 22.8495C76.434 22.7013 77.5 22.1249 78.2692 20.981C79.0384 19.8371 79.4615 18.0725 79.1855 16.4774C78.9741 15.2555 78.3829 14.1847 78.3833 12.9197C78.3835 11.9472 78.7367 11.0701 79.0776 10.2535L81.3116 4.90331C81.4456 4.58251 81.5868 4.25055 81.7985 4.05433C82.1586 3.72053 82.6256 3.86733 83.0053 4.14438C83.3849 4.42144 83.7317 4.81893 84.1365 4.99072C84.9625 5.34132 85.9208 4.53617 86.1813 3.27265" fill="#2F2E41"/>
<path d="M82.9789 19.2838C82.5589 19.9136 81.9536 20.1165 81.3926 20.3717C80.8317 20.6269 80.235 21.0283 79.9825 21.8448C79.735 22.6455 79.9147 23.6619 80.3246 24.2826C80.7344 24.9033 81.3298 25.1648 81.903 25.1524C82.4763 25.1401 83.0349 24.88 83.574 24.5779C85.0481 23.752 86.4442 22.5933 87.7045 21.15C86.8881 20.8002 86.354 19.3241 86.5877 18.0633C86.7779 17.0377 87.3592 16.3224 87.7548 15.4488C88.4359 13.9445 88.5494 11.9617 88.3238 10.158C88.0983 8.35438 87.5673 6.68242 87.0418 5.03529C86.8756 4.51461 86.7056 3.98512 86.4465 3.56528C86.1873 3.14545 85.8204 2.84467 85.4474 2.90482C84.8283 3.00464 84.4331 4.05695 84.4289 5.02068C84.4246 5.98442 84.6977 6.89016 84.9048 7.79901C85.1181 8.73537 85.2664 9.72789 85.2092 10.7168C85.1612 11.5456 84.9665 12.3529 84.652 13.0275C84.4091 13.5485 84.0996 13.9858 83.8355 14.4814C83.6313 14.8646 83.4502 15.2986 83.3965 15.7884C83.2989 16.6797 83.6365 17.5816 83.544 18.4742C83.4461 19.4178 82.8049 20.1402 82.195 19.9939" fill="#2F2E41"/>
<path d="M67.5642 128.29C77.0818 128.29 84.7974 116.343 84.7974 101.605C84.7974 86.8673 77.0818 74.92 67.5642 74.92C58.0465 74.92 50.3309 86.8673 50.3309 101.605C50.3309 116.343 58.0465 128.29 67.5642 128.29Z" fill="#F2E41D"/>
<path d="M77.8898 99.4634H75.7475C75.4142 96.4222 74.3857 93.668 72.8498 91.7037C69.3151 87.1829 64.083 87.9551 61.1635 93.4285C61.1535 93.4459 61.1439 93.4639 61.1348 93.4823C60.9015 93.9505 60.9575 94.623 61.2599 94.9842C61.5622 95.3455 61.9965 95.2587 62.2298 94.7905C63.498 92.4112 65.4177 90.8971 67.5641 90.8971C70.8503 90.8977 73.6827 94.478 74.341 99.4634H72.4518C72.3709 99.4634 72.2927 99.5073 72.2306 99.5874C72.0839 99.7766 72.064 100.114 72.1862 100.341L74.9053 105.396C74.9186 105.42 74.9333 105.443 74.9494 105.464C75.096 105.653 75.3141 105.623 75.4363 105.396L78.1554 100.341C78.2071 100.245 78.2354 100.124 78.2355 99.999C78.2355 99.7033 78.0808 99.4635 77.8898 99.4634V99.4634V99.4634Z" fill="white"/>
<path d="M73.8683 108.226C73.5659 107.864 73.1317 107.951 72.8984 108.419C71.8924 110.305 70.4998 111.602 68.9521 112.092C65.2091 113.279 61.5535 109.542 60.7872 103.746H62.6764C62.8674 103.746 63.0221 103.507 63.022 103.211C63.022 103.086 62.9936 102.965 62.9419 102.868L60.2229 97.8143C60.1006 97.5873 59.8826 97.5567 59.7359 97.7461C59.7199 97.7667 59.7051 97.7896 59.6918 97.8143L56.9728 102.868C56.8506 103.096 56.8705 103.433 57.0172 103.622C57.0793 103.703 57.1575 103.746 57.2384 103.746H59.3806C59.7139 106.788 60.7424 109.542 62.2784 111.506C65.813 116.027 71.0452 115.255 73.9647 109.781C73.9747 109.764 73.9842 109.746 73.9934 109.728C74.2267 109.259 74.1707 108.587 73.8683 108.226H73.8683V108.226Z" fill="white"/>
<path d="M72.3758 74.4645C72.1671 76.7771 71.2273 78.4849 70.2769 78.279C69.3265 78.0731 68.7254 76.0317 68.9344 73.7183C69.0097 72.7925 69.2271 71.908 69.5684 71.1389L70.5326 61.3578L73.4872 62.1563L72.223 71.7139C72.4151 72.5988 72.4675 73.542 72.3758 74.4646H72.3758V74.4645Z" fill="#FFB6B6"/>
<path d="M74.9467 24.3889C74.9467 24.3889 71.9056 22.8192 71.5001 28.4701C71.0946 34.121 70.6891 41.0277 70.6891 41.0277C70.6891 41.0277 68.8644 47.6204 69.6754 51.0738C70.4864 54.5271 71.9056 52.1194 70.4864 55.0499C69.0672 57.9804 69.2649 67.6223 69.2649 67.6223L73.8316 67.2664C73.8316 67.2664 76.3659 41.3416 76.3659 40.7137C76.3659 40.0859 74.9467 24.3889 74.9467 24.3889V24.3889V24.3889Z" fill="#E6E6E6"/>
<path d="M94.7141 73.4149C94.7707 75.7483 94.039 77.6848 93.08 77.7403C92.1209 77.7957 91.298 75.9493 91.2416 73.6151C91.2108 72.6831 91.3247 71.7533 91.5735 70.9034L91.4146 61.0121L94.4139 60.9956L94.2521 70.7484C94.5414 71.5674 94.6999 72.4817 94.7141 73.4149L94.7141 73.4149Z" fill="#FFB6B6"/>
<path d="M90.0324 24.2829C90.0324 24.2829 93.0912 22.7975 93.4314 28.4588C93.7716 34.12 94.0974 44.4901 94.0974 44.4901C94.0974 44.4901 95.8457 51.1323 94.995 54.5626C94.1443 57.993 92.7531 55.5464 94.1383 58.5157C95.5235 61.4851 95.0263 69.8588 95.0263 69.8588L90.4644 69.3765C90.4644 69.3765 88.4178 44.647 88.4251 44.0192C88.4323 43.3914 90.0324 24.2828 90.0324 24.2828L90.0324 24.2828V24.2829Z" fill="#E6E6E6"/>
</svg>
