<svg width="48" height="48" viewBox="0 0 48 48" fill="none" xmlns="http://www.w3.org/2000/svg">
<rect width="48" height="48" fill="#F2E41D"/>
<path d="M25.7 30C25.2 30 24.7917 29.8417 24.475 29.525C24.1583 29.2083 24 28.8 24 28.3V26H26.4V27.6H31.6V24.95H25.7C25.2333 24.95 24.8333 24.7833 24.5 24.45C24.1667 24.1167 24 23.7167 24 23.25V19.7C24 19.2 24.1583 18.7917 24.475 18.475C24.7917 18.1583 25.2 18 25.7 18H32.3C32.8 18 33.2083 18.1583 33.525 18.475C33.8417 18.7917 34 19.2 34 19.7V22H31.6V20.4H26.4V23.05H32.3C32.7667 23.05 33.1667 23.2167 33.5 23.55C33.8333 23.8833 34 24.2833 34 24.75V28.3C34 28.8 33.8417 29.2083 33.525 29.525C33.2083 29.8417 32.8 30 32.3 30H25.7ZM13.7 30C13.2 30 12.7917 29.8417 12.475 29.525C12.1583 29.2083 12 28.8 12 28.3V25H14.4V27.6H18.6V18H21V28.3C21 28.8 20.8417 29.2083 20.525 29.525C20.2083 29.8417 19.8 30 19.3 30H13.7Z" fill="black"/>
</svg>
