<svg width="48" height="48" viewBox="0 0 48 48" fill="none" xmlns="http://www.w3.org/2000/svg">
<rect width="48" height="48" fill="#238DDA"/>
<path d="M18.9 30V18H21.3V22.45H26.7V18H29.1V30H26.7V24.85H21.3V30H18.9ZM6 30V18H13.6C14.2667 18 14.8333 18.2333 15.3 18.7C15.7667 19.1667 16 19.7333 16 20.4V23.6C16 24.2667 15.7667 24.8333 15.3 25.3C14.8333 25.7667 14.2667 26 13.6 26H8.4V30H6ZM8.4 23.6H13.6V20.4H8.4V23.6ZM33 30V18H40.6C41.2667 18 41.8333 18.2333 42.3 18.7C42.7667 19.1667 43 19.7333 43 20.4V23.6C43 24.2667 42.7667 24.8333 42.3 25.3C41.8333 25.7667 41.2667 26 40.6 26H35.4V30H33ZM35.4 23.6H40.6V20.4H35.4V23.6Z" fill="black"/>
</svg>
